<svg width="385" height="385" viewBox="0 0 385 385" fill="none" xmlns="http://www.w3.org/2000/svg">
<circle cx="192.5" cy="192.5" r="192" stroke="#009FE3"/>
<path d="M51.2982 94.6987C52.0589 91.5481 53.3331 88.6676 55.1207 86.0572C56.9084 83.4469 59.0232 81.2789 61.4653 79.5533C64.077 77.724 66.9146 76.4573 69.978 75.7533C73.0414 75.0494 76.2127 75.0969 79.4919 75.896C84.5474 77.1279 88.4853 79.3929 91.3058 82.691C94.2629 86.0224 96.8828 89.8517 99.1654 94.1791C100.342 96.4965 101.877 98.8285 103.769 101.175C105.832 103.418 108.048 105.626 110.416 107.799C112.818 109.835 115.253 111.734 117.721 113.495C120.326 115.29 122.691 116.882 124.815 118.27C122.911 118.966 121.365 119.677 120.177 120.403C119.125 121.162 118.178 122.092 117.333 123.191C116.659 124.187 116.071 125.422 115.571 126.896C115.24 128.266 114.843 129.909 114.38 131.827L88.3342 239.703C87.4081 243.539 87.2148 247.335 87.7543 251.093C88.3973 255.021 90.2636 258.376 93.353 261.16C88.22 263.245 83.5509 265.806 79.3456 268.842C75.2769 271.912 71.0904 275.171 66.7859 278.618C64.5146 271.248 60.8692 264.775 55.8496 259.201L55.9553 259.662C53.9964 257.589 52.6357 255.734 51.8734 254.098C51.2477 252.495 51.2822 250.255 51.9767 247.379L65.4711 191.489C63.6315 187.124 60.9785 183.432 57.5123 180.411C61.9707 179.322 66.0128 177.261 69.6385 174.228L81.4461 125.325C77.468 126.821 73.2928 127.037 68.9205 125.971C65.5047 125.139 62.5275 123.688 59.989 121.619C57.4504 119.55 55.3692 117.085 53.7454 114.223C52.2912 111.258 51.3131 108.119 50.811 104.806C50.342 101.355 50.5044 97.9864 51.2982 94.6987ZM76.3375 187.827C74.0609 188.868 72.0244 190.112 70.2281 191.56L55.6918 251.765C55.4603 252.724 55.3158 253.922 55.2583 255.358C57.9075 253.973 59.7843 251.892 60.8888 249.115C61.9933 246.338 62.8597 243.649 63.4881 241.046L76.3375 187.827ZM73.9489 176.149C74.4006 177.274 74.9205 178.416 75.5088 179.575C76.1302 180.597 76.9047 181.583 77.8324 182.535L98.322 97.6723C96.9096 95.7326 95.1765 94.2224 93.1227 93.1418C91.1019 91.9241 88.9985 91.049 86.8123 90.5163C81.2104 89.1512 76.0666 89.7833 71.3809 92.4127C66.6952 95.0421 63.6578 99.2335 62.2687 104.987C61.8718 106.631 61.6633 108.393 61.6433 110.274C61.7598 112.188 62.1144 114.015 62.707 115.754C63.3327 117.357 64.213 118.805 65.3478 120.097C66.6192 121.422 68.2114 122.317 70.1242 122.783C72.3104 123.316 74.3037 123.149 76.1044 122.283C78.0416 121.449 79.2914 119.868 79.8537 117.539C80.0852 116.581 80.1283 115.503 79.983 114.307C80.0074 113.008 79.7938 111.796 79.3421 110.67C79.0271 109.578 78.4576 108.642 77.6334 107.861C76.8424 106.943 75.8838 106.419 74.7576 106.29C76.1066 104.298 77.5304 103.194 79.0291 102.979C80.6974 102.66 82.575 102.973 84.6619 103.917L84.5562 103.456C86.3785 105.495 87.8758 107.383 89.048 109.119C90.3569 110.888 90.6309 113.349 89.8702 116.499C89.4733 118.143 88.5651 119.807 87.1457 121.492L73.9489 176.149Z" fill="#009FE3" fill-opacity="0.12"/>
<path d="M122.294 209.034L137.723 145.13C139.476 137.87 142.668 131.54 147.299 126.142C151.963 120.606 157.437 116.211 163.72 112.956C170.037 109.563 176.788 107.365 183.975 106.36C191.162 105.356 198.24 105.702 205.208 107.4C211.22 108.865 216.882 111.478 222.195 115.238C227.541 118.862 232.057 123.226 235.744 128.33C239.567 133.468 242.251 139.127 243.798 145.305C245.514 151.38 245.611 157.568 244.09 163.869C243.13 167.842 241.231 171.513 238.392 174.883L218.647 256.663C216.828 264.197 213.709 271.124 209.289 277.444C205.006 283.798 199.829 289.064 193.757 293.241C187.685 297.418 180.921 300.266 173.465 301.785C166.113 303.475 158.474 303.354 150.55 301.423C142.898 299.558 135.903 296.476 129.563 292.175C123.223 287.874 117.951 282.746 113.747 276.79C109.543 270.834 106.663 264.185 105.108 256.844C103.553 249.503 103.751 241.792 105.703 233.71C106.893 228.778 108.887 224.115 111.684 219.72C114.482 215.325 118.018 211.763 122.294 209.034ZM158.939 150.735L146.139 203.748L148.648 204.142C152.474 205.074 156.117 206.76 159.579 209.199L203.851 172.34C202.948 170.089 202.487 167.801 202.47 165.476C202.589 163.185 202.829 160.995 203.188 158.907C204.356 160.062 205.828 160.855 207.604 161.288C210.064 161.888 212.467 161.821 214.814 161.087C217.298 160.387 219.591 159.278 221.694 157.759C223.797 156.241 225.539 154.418 226.921 152.289C228.44 150.193 229.464 148.049 229.993 145.857C230.754 142.707 230.628 139.63 229.617 136.628C228.743 133.659 227.291 130.985 225.261 128.604C223.368 126.258 221.035 124.239 218.26 122.547C215.623 120.889 212.869 119.71 210 119.011C203.988 117.546 198.19 117.294 192.605 118.254C187.19 119.11 182.175 121.006 177.56 123.943C173.114 126.776 169.255 130.477 165.982 135.046C162.709 139.615 160.361 144.845 158.939 150.735ZM163.486 211.892C167.16 215.253 169.73 219.287 171.197 223.996C172.801 228.738 173.007 233.575 171.817 238.507C171.651 239.192 171.401 239.928 171.066 240.717C170.868 241.539 170.601 242.344 170.266 243.133C167.205 239.631 163.489 237.348 159.116 236.282C156.52 235.65 153.655 235.532 150.522 235.928L146.751 251.545C147.584 253.488 148.671 255.276 150.013 256.908C151.322 258.678 152.732 260.327 154.244 261.856C150.059 263.011 146.255 264.985 142.832 267.777L138.069 287.503C139.746 288.347 141.609 289.019 143.659 289.518C149.124 290.85 154.699 290.83 160.382 289.459C166.033 288.226 171.268 286.02 176.086 282.843C181.04 279.699 185.324 275.738 188.936 270.962C192.516 266.323 194.951 261.332 196.241 255.989L214.151 181.812C210.904 180.876 208.18 178.979 205.976 176.121L163.486 211.892ZM130.88 256.162C133.024 255.669 135.013 254.921 136.847 253.918C138.817 252.947 140.599 251.859 142.193 250.651L145.467 237.09C140.466 238.627 135.985 241.306 132.025 245.128C128.064 248.949 125.455 253.462 124.198 258.668C123.041 263.462 123.4 268.264 125.278 273.073C127.122 278.018 129.998 281.983 133.907 284.966L138.372 266.473C136.81 262.756 134.313 259.32 130.88 256.162Z" fill="#009FE3" fill-opacity="0.12"/>
<path d="M284.398 274.425L291.294 245.864C292.087 242.576 293.498 239.729 295.526 237.322C297.69 234.949 300.114 233.001 302.796 231.479C305.615 229.99 308.591 229.047 311.725 228.651C315.029 228.15 318.252 228.283 321.394 229.049C323.99 229.681 326.454 230.862 328.786 232.59C331.287 234.215 333.347 236.168 334.967 238.448C336.723 240.761 337.918 243.301 338.552 246.066C339.356 248.728 339.428 251.429 338.766 254.168C338.303 256.086 337.463 257.767 336.247 259.211L327.416 295.786C326.622 299.074 325.23 302.143 323.24 304.994C321.386 307.878 319.085 310.219 316.336 312.015C313.588 313.811 310.545 315.027 307.209 315.665C303.976 316.472 300.583 316.443 297.03 315.578C293.614 314.745 290.484 313.33 287.639 311.331C284.761 309.47 282.409 307.228 280.582 304.608C278.756 301.987 277.455 298.986 276.679 295.606C276.008 292.397 276.102 289.011 276.962 285.45C277.491 283.258 278.362 281.149 279.574 279.124C280.89 277.269 282.498 275.703 284.398 274.425ZM300.672 248.367L294.966 271.996L296.196 272.296C297.836 272.696 299.461 273.454 301.072 274.572L320.69 258.031C320.342 257.076 320.147 256.086 320.105 255.06C320.2 254.068 320.295 253.076 320.39 252.084C321.417 252.624 322.135 252.944 322.545 253.044C324.731 253.577 326.807 253.067 328.773 251.516C330.739 249.964 331.954 248.229 332.417 246.312C333.111 243.435 332.428 240.875 330.365 238.632C328.336 236.252 326.091 234.762 323.632 234.163C318.166 232.831 313.279 233.598 308.971 236.465C304.695 239.194 301.928 243.161 300.672 248.367ZM302.767 275.638C304.416 277.2 305.571 279.005 306.234 281.052C306.898 283.099 306.948 285.287 306.386 287.616C306.187 288.437 305.954 289.106 305.685 289.62C304.446 288.158 302.802 287.178 300.753 286.678C299.523 286.378 298.244 286.284 296.915 286.396L295.228 293.382C296.231 295.222 297.384 296.736 298.689 297.924C296.784 298.62 295.052 299.503 293.492 300.574L291.358 309.409C291.872 309.679 292.743 309.964 293.973 310.264C296.433 310.863 298.888 310.881 301.338 310.318C303.789 309.755 306.134 308.731 308.373 307.246C310.58 305.898 312.442 304.176 313.961 302.08C315.616 300.018 316.741 297.754 317.337 295.288L325.324 262.206C323.958 261.873 322.776 261.078 321.777 259.819L302.767 275.638ZM288.236 295.377C290.074 294.954 291.722 294.123 293.179 292.882L294.617 286.924C292.44 287.553 290.42 288.729 288.558 290.451C286.832 292.206 285.688 294.248 285.125 296.577C284.629 298.632 284.765 300.768 285.531 302.985C286.434 305.236 287.743 307.005 289.458 308.293L291.442 300.074C290.817 298.471 289.748 296.905 288.236 295.377ZM360.666 152.679L357.311 148.598C356.666 148.876 354.687 151.077 351.377 155.202C348.099 159.19 343.944 164.414 338.912 170.876C333.88 177.337 328.206 184.657 321.892 192.836C315.713 201.049 309.349 209.433 302.798 217.99C296.384 226.58 290.087 234.982 283.909 243.194C277.867 251.44 272.467 258.827 267.708 265.354C262.949 271.882 259.051 277.242 256.014 281.433C253.113 285.658 251.613 287.975 251.514 288.386C251.348 289.071 251.473 289.754 251.887 290.435C252.405 291.287 252.835 291.899 253.179 292.273C251.407 292.422 249.211 292.829 246.591 293.496C243.97 294.163 241.317 294.967 238.63 295.908C235.911 296.986 233.259 298.08 230.676 299.191C228.197 300.473 226.262 301.596 224.871 302.563C243.327 276.456 262.093 250.86 281.171 225.774C300.384 200.722 319.46 175.346 338.396 149.646C339.881 147.687 341.197 145.832 342.344 144.081C343.626 142.363 344.928 140.867 346.248 139.593C347.738 138.216 349.315 137.077 350.979 136.177C352.78 135.31 354.974 134.612 357.561 134.082L360.666 152.679ZM262.363 158.967L269.259 130.405C270.052 127.118 271.463 124.271 273.491 121.864C275.656 119.49 278.079 117.543 280.761 116.021C283.58 114.532 286.556 113.589 289.69 113.192C292.994 112.692 296.217 112.825 299.36 113.59C301.956 114.223 304.419 115.403 306.751 117.132C309.252 118.757 311.312 120.709 312.932 122.989C314.688 125.303 315.883 127.842 316.518 130.608C317.322 133.27 317.393 135.97 316.731 138.71C316.268 140.628 315.428 142.309 314.212 143.753L305.381 180.328C304.587 183.615 303.195 186.685 301.205 189.536C299.351 192.42 297.05 194.76 294.301 196.556C291.553 198.352 288.494 199.637 285.124 200.412C281.924 201.082 278.548 200.985 274.995 200.119C271.58 199.287 268.433 197.94 265.555 196.078C262.71 194.08 260.374 191.77 258.547 189.149C256.721 186.528 255.403 183.597 254.595 180.354C253.956 177.007 254.067 173.553 254.927 169.991C255.456 167.8 256.31 165.759 257.489 163.871C258.838 161.879 260.463 160.244 262.363 158.967ZM278.637 132.908L272.931 156.538L274.161 156.838C275.801 157.237 277.426 157.996 279.037 159.114L298.655 142.573C298.307 141.618 298.112 140.627 298.07 139.602C298.165 138.61 298.26 137.617 298.355 136.625C299.382 137.166 300.1 137.486 300.51 137.586C302.696 138.118 304.772 137.609 306.738 136.057C308.704 134.506 309.919 132.771 310.382 130.853C311.077 127.977 310.393 125.417 308.33 123.174C306.301 120.793 304.056 119.304 301.597 118.704C296.132 117.373 291.244 118.14 286.936 121.006C282.66 123.735 279.894 127.703 278.637 132.908ZM280.732 160.18C282.381 161.742 283.536 163.546 284.2 165.593C284.863 167.641 284.913 169.828 284.351 172.157C284.152 172.979 283.919 173.647 283.65 174.162C282.411 172.7 280.767 171.719 278.718 171.22C277.488 170.92 276.209 170.826 274.88 170.937L273.193 177.924C274.196 179.763 275.349 181.277 276.654 182.465C274.75 183.162 273.017 184.045 271.457 185.115L269.323 193.951C269.837 194.221 270.709 194.506 271.938 194.806C274.398 195.405 276.853 195.423 279.303 194.86C281.754 194.297 284.083 193.341 286.289 191.993C288.528 190.508 290.407 188.718 291.926 186.622C293.581 184.56 294.706 182.296 295.302 179.83L303.289 146.748C301.923 146.415 300.741 145.619 299.742 144.361L280.732 160.18ZM266.201 179.918C268.039 179.496 269.687 178.665 271.144 177.424L272.582 171.465C270.405 172.095 268.385 173.271 266.523 174.993C264.797 176.748 263.653 178.79 263.09 181.118C262.594 183.173 262.73 185.309 263.496 187.527C264.4 189.778 265.708 191.547 267.423 192.835L269.407 184.616C268.782 183.013 267.713 181.447 266.201 179.918Z" fill="#009FE3" fill-opacity="0.12"/>
</svg>
