<svg width="1345" height="350" viewBox="0 0 1345 350" fill="none" xmlns="http://www.w3.org/2000/svg">
<path d="M79.8014 434.171C64.5798 437.757 50.9063 436.32 38.7808 429.86C26.9598 423.328 19.2209 412.301 15.5643 396.778C10.6171 375.776 11.625 357.549 18.5882 342.094C25.5513 326.64 35.7833 313.467 49.2841 302.577C63.0892 291.615 78.8021 282.613 96.4227 275.57C113.972 268.224 130.742 262.346 146.733 257.936C145.514 252.762 144.287 248.232 143.05 244.347C142.118 240.391 141.598 236.819 141.49 233.632C141.686 230.373 142.563 227.275 144.12 224.338C145.91 221.025 149.071 217.389 153.601 213.431C151.471 219.394 151.123 225.419 152.557 231.506L158.042 254.79C165.276 252.765 173.424 250.524 182.486 248.069C191.851 245.541 200.885 242.289 209.588 238.311C218.291 234.333 225.829 229.505 232.204 223.828C238.811 217.774 243.009 210.36 244.798 201.585C248.774 204.825 251.443 209.336 252.806 215.119C254.024 220.294 254.33 225.683 253.722 231.288C253.043 236.588 251.719 241.879 249.75 247.162C247.709 252.14 245.176 257.074 242.151 261.963C239.054 266.547 235.849 270.676 232.537 274.347C238.717 282.85 244.261 290.7 249.17 297.896C254.078 305.093 257.751 313.865 260.189 324.214C263.702 339.128 263.535 354.106 259.688 369.147C271.64 399.421 274.18 427.254 267.308 452.646C260.437 478.038 244.986 501.113 220.958 521.873L228.916 555.658C232.964 559.202 237.361 562.182 242.108 564.597C247.158 566.941 252.254 568.793 257.394 570.152C253.401 573.663 249.668 577.594 246.195 581.946C243.026 586.227 240.421 590.856 238.38 595.834L246.877 631.902C261.346 627.851 275.412 622.77 289.075 616.66C303.042 610.479 315.926 603.107 327.726 594.545C339.598 586.287 350.009 576.606 358.961 565.502C367.985 554.702 374.752 542.507 379.262 528.915C379.135 521.556 375.579 515.326 368.593 510.225C361.536 504.82 352.912 500.266 342.722 496.563C332.531 492.859 321.454 490.168 309.491 488.488C297.832 486.737 286.997 485.756 276.986 485.544C290.883 484.519 304.547 483.87 317.978 483.598C331.714 483.253 344.358 485.094 355.91 489.119C367.766 493.072 378.369 499.891 387.72 509.575C397.07 519.259 404.272 533.464 409.326 552.192C412.069 562.468 412.008 572.442 409.145 582.111C406.658 592.014 402.093 601.281 395.451 609.914C389.113 618.474 381.342 626.409 372.139 633.717C363.007 641.329 353.356 648.1 343.185 654.03C333.318 659.888 323.237 664.833 312.94 668.865C303.02 673.129 293.95 676.23 285.73 678.166C281.164 679.242 276.562 680.165 271.923 680.937C267.661 681.941 263.211 682.828 258.573 683.6C259.255 689.222 258.396 693.761 255.997 697.217C253.974 700.906 251.119 704.47 247.43 707.909C248.683 705.044 249.256 702.018 249.147 698.831C249.344 695.572 249.083 692.421 248.366 689.377L247.398 685.268C212.746 689.576 184.209 690.516 161.787 688.088C139.669 685.588 121.411 681.054 107.011 674.487C92.6826 668.225 81.2194 660.484 72.6214 651.266C64.095 642.352 56.3655 633.41 49.433 624.442C42.8766 615.706 36.0069 607.687 28.8241 600.383C21.6412 593.08 12.2291 587.908 0.587865 584.868C4.04358 581.805 7.77668 577.874 11.7872 573.074C15.4216 568.042 17.6501 563.18 18.4729 558.488C20.9954 546.008 25.291 534.234 31.3596 523.166C37.7327 512.027 45.3506 501.398 54.2132 491.279C63.0758 481.16 72.6906 471.506 83.0578 462.317C93.7293 453.057 104.473 444.101 115.288 435.45C126.407 426.726 137.258 418.227 147.84 409.952C158.422 401.676 168.055 393.464 176.739 385.314L158.348 307.244C151.579 308.517 144.846 309.943 138.148 311.52C131.684 312.722 125.103 314.112 118.405 315.689C111.708 317.267 103.139 319.767 92.6989 323.191C82.4916 326.238 72.6875 330.314 63.2866 335.42C53.8857 340.526 46.2132 346.831 40.2691 354.335C34.2534 361.535 32.3568 369.852 34.5795 379.288C35.5116 383.244 37.4016 386.494 40.2496 389.035C43.0259 391.273 46.1872 393.098 49.7334 394.511C53.5123 395.549 57.3718 396.246 61.3117 396.603C65.4844 396.584 69.2451 396.18 72.5939 395.391C75.3338 394.745 78.4586 393.688 81.9684 392.219C85.7826 390.678 89.337 388.716 92.6317 386.333C95.9263 383.951 98.5046 381.256 100.366 378.247C102.533 375.167 103.222 371.952 102.433 368.604C101.644 365.256 99.5931 362.687 96.2796 360.898C93.2706 359.037 90.0917 358.501 86.7429 359.289C81.5676 360.509 77.7716 363.491 75.355 368.237C72.8667 372.678 72.2319 377.486 73.4508 382.66C68.5082 383.503 63.6191 383.209 58.7835 381.778C54.1806 379.971 51.2338 376.328 49.9433 370.849C48.3659 364.153 49.851 358.182 54.3987 352.934C58.8747 347.382 64.157 343.889 70.2456 342.455C80.9007 339.945 90.6612 341.822 99.5273 348.086C108.698 354.278 114.502 362.549 116.94 372.897C118.445 379.289 118.545 385.851 117.239 392.584C116.238 399.245 113.992 405.396 110.501 411.037C107.314 416.607 102.999 421.478 97.5559 425.652C92.417 429.754 86.4988 432.594 79.8014 434.171ZM186.542 375.777C193.615 368.97 200.159 361.967 206.174 354.768C212.495 347.496 217.642 340.019 221.616 332.337C225.823 324.278 228.668 315.897 230.153 307.195C231.87 298.117 231.51 288.403 229.072 278.055C220.532 286.813 211.346 292.832 201.515 296.112C191.988 299.319 181.44 302.286 169.872 305.011L186.542 375.777ZM206.223 459.325C216.591 450.137 226.026 439.722 234.53 428.081C243.034 416.44 248.673 403.547 251.446 389.401C245.753 400.7 238.52 410.918 229.747 420.052C221.278 429.115 212.361 437.64 202.997 445.629L206.223 459.325ZM76.8352 634.371C75.0616 630.934 73.6728 627.084 72.669 622.823C69.586 609.735 69.3686 597.9 72.0168 587.317C74.8977 576.358 79.5876 566.258 86.0865 557.017C92.5137 547.472 100.445 538.857 109.882 531.173C119.246 523.184 128.87 515.616 138.754 508.469C148.943 501.25 159.051 494.371 169.078 487.833C179.106 481.294 188.148 474.667 196.205 467.95L192.871 453.797C183.131 461.553 171.331 470.115 157.472 479.484C143.917 488.781 130.317 498.57 116.673 508.852C103.333 519.062 91.0145 529.513 79.7164 540.206C68.4184 550.899 60.0036 561.555 54.4721 572.175C52.3235 573.966 50.7302 576.751 49.6923 580.529C48.5827 584.003 47.7687 588.05 47.2504 592.67C46.9647 596.913 47.091 601.542 47.6294 606.555C48.096 611.264 48.7953 615.597 49.7274 619.554C53.7755 623.098 57.9847 625.961 62.3548 628.144C67.1011 630.56 71.9279 632.636 76.8352 634.371ZM226.964 598.523C218.796 591.131 209.304 586.3 198.487 584.029C202.479 580.518 206.06 576.623 209.229 572.342C212.703 567.99 215.459 563.325 217.5 558.347L210.832 530.041C205.389 534.214 198.611 538.863 190.5 543.986C182.621 548.734 174.205 553.929 165.252 559.572C156.603 565.143 147.874 571.054 139.064 577.306C130.183 583.253 122.206 589.63 115.134 596.436C108.061 603.242 102.314 610.218 97.8921 617.363C93.7747 624.437 91.8152 631.806 92.0138 639.469C103.279 642.277 114.938 644.028 126.99 644.723C139.348 645.346 151.525 645.208 163.524 644.309C175.899 643.642 188.13 642.367 200.218 640.484C212.306 638.6 224.017 636.484 235.353 634.134L226.964 598.523Z" fill="black" fill-opacity="0.06"/>
<path d="M453.393 152.929L446.446 78.4275L501.891 76.45L453.393 152.929ZM528.396 542.936C521.091 550.119 514.878 557.847 509.758 566.12C504.638 574.394 500.61 583.214 497.675 592.579C485.298 582.323 472.151 572.891 458.235 564.283C444.318 555.675 430.948 548.705 418.124 543.373C422.297 543.354 426.523 542.198 430.802 539.904C435.154 537.916 438.833 535.121 441.841 531.521C445.225 528.154 447.705 524.358 449.28 520.131C451.088 515.529 451.418 510.793 450.271 505.923L443.495 477.161C434.61 466.724 423.891 460.094 411.336 457.269C421.238 448.832 427.871 438.114 431.235 425.114L419.189 373.98C417.827 368.197 416.411 363.551 414.942 360.042C413.473 356.533 411.878 353.857 410.159 352.013C408.672 349.793 406.684 348.173 404.194 347.154C402.009 346.062 399.331 344.926 396.161 343.745C408.946 335.272 419.761 326.62 428.606 317.79C437.684 308.584 446.072 299.862 453.771 291.623L487.353 432.133L495.116 430.305L461.023 285.578C462.582 288.102 465.528 291.745 469.863 296.506C474.198 301.268 479.061 306.226 484.453 311.381C490.077 316.16 495.818 320.751 501.675 325.154C507.46 329.253 512.35 332.277 516.344 334.228C513.747 335.482 511.715 337.085 510.247 339.037C508.779 340.989 508.368 343.335 509.013 346.074L520.843 396.295C522.758 389.418 525.201 382.739 528.173 376.256L499.887 256.184C488.929 264.226 477.899 271.965 466.797 279.399C455.624 286.529 444.808 292.45 434.351 297.162C423.893 301.874 413.686 304.921 403.729 306.303C394.076 307.613 384.799 306.425 375.898 302.739C367.229 298.677 359.357 291.858 352.281 282.281C344.829 272.471 338.379 258.731 332.931 241.06C338.071 242.419 343.462 242.113 349.103 240.142C355.048 238.099 360.438 235.062 365.272 231.032C370.339 226.626 374.278 221.521 377.088 215.719C380.132 209.541 381.205 203.184 380.308 196.649C387.651 197.811 393.31 200.011 397.287 203.251C401.191 206.186 403.95 209.713 405.563 213.831C407.408 217.572 408.152 221.413 407.795 225.352C407.437 229.291 406.48 232.729 404.923 235.666C402.506 240.412 398.504 244.567 392.918 248.132C387.259 251.392 381.045 253.659 374.276 254.933C384.359 255.449 394.199 254.255 403.798 251.352C413.701 248.376 423.352 244.336 432.753 239.23C442.154 234.124 451.376 228.257 460.418 221.629C469.461 215.002 478.315 208.258 486.981 201.397L484.508 190.897C483.002 184.505 480.261 179.689 476.285 176.45C480.44 177.72 484.174 179.249 487.488 181.039C491.105 182.757 493.891 187.08 495.845 194.009C503.902 187.292 511.61 181.139 518.97 175.55C526.562 169.586 533.76 164.677 540.564 160.826C551.648 154.681 561.972 151.446 571.535 151.12C581.098 150.795 589.65 152.315 597.19 155.678C604.963 158.666 611.733 162.854 617.501 168.242C623.573 173.558 628.508 178.82 632.306 184.03L632.198 183.573C635.781 187.869 639.274 193.15 642.678 199.416C646.387 205.61 649.218 212.172 651.171 219.1C653.125 226.029 653.941 232.904 653.62 239.726C653.603 246.477 651.814 252.52 648.251 257.857C640.821 268.603 632.585 274.559 623.541 275.725C614.426 276.587 605.391 274.379 596.435 269.1C591.546 266.075 587.309 262.415 583.727 258.119C580.377 253.446 577.94 248.559 576.417 243.456C575.126 237.978 575.009 232.705 576.064 227.637C577.048 222.265 579.429 217.368 583.207 212.944C588.829 206.801 594.595 203.997 600.505 204.532C606.415 205.067 611.089 207.179 614.528 210.866C618.272 214.482 620.109 218.868 620.038 224.025C619.896 228.877 616.619 232.701 610.209 235.496C610.19 231.324 609.097 228.048 606.929 225.667C604.995 222.91 602.666 221.21 599.944 220.566C597.454 219.546 594.876 219.511 592.207 220.461C589.772 221.035 587.892 222.602 586.567 225.163C584.15 229.909 583.981 233.964 586.059 237.33C588.066 240.391 591.218 242.861 595.517 244.74C599.743 246.314 604.704 246.912 610.399 246.535C616.094 246.157 621.386 244.75 626.274 242.313C631.467 239.805 634.896 235.945 636.56 230.734C638.529 225.452 639.208 220.151 638.598 214.834C638.293 209.444 636.841 204.646 634.244 200.439C631.574 195.928 628.234 193.342 624.222 192.68C616.503 191.286 608.033 192.157 598.81 195.293C589.821 198.054 580.357 202.21 570.419 207.764C560.785 213.246 550.758 219.785 540.337 227.38C530.148 234.598 519.691 242.041 508.966 249.708L535.422 362.02C543.031 349.305 551.473 339.445 560.748 332.441C570.256 325.061 579.612 320.448 588.817 318.601C598.254 316.378 606.976 316.572 614.981 319.184C623.22 321.42 629.838 325.643 634.836 331.855C640.066 337.69 643.148 345.317 644.081 354.735C645.247 363.777 643.324 374.028 638.312 385.489C631.416 379.403 623.732 375.431 615.261 373.571C607.095 371.64 598.83 371.338 590.467 372.665C582.104 373.993 573.759 376.762 565.432 380.972C557.338 384.806 549.952 389.598 543.273 395.348C547.719 414.219 552.272 433.546 556.932 453.33C561.593 473.114 566.764 494.384 572.446 517.139C583.906 511.227 595.482 505.127 607.175 498.839C618.94 492.855 629.281 485.6 638.197 477.074C647.418 468.477 654.615 458.108 659.788 445.966C665.266 433.753 667.259 418.345 665.769 399.742C678.632 418.879 686.784 435.752 690.225 450.362C693.667 464.971 693.795 477.791 690.609 488.822C687.496 500.157 681.597 509.899 672.913 518.049C664.605 526.431 655.097 533.811 644.389 540.188C633.681 546.566 622.337 552.29 610.358 557.361C598.754 562.664 588.064 567.753 578.287 572.626C583.82 572.929 588.11 575.452 591.156 580.196C594.505 584.868 595.393 592.048 593.82 601.735C590.004 597.815 585.598 595.48 580.602 594.729C575.677 594.283 570.814 594.786 566.015 596.238C561.592 597.922 557.348 600.368 553.284 603.574C549.595 607.013 546.928 610.693 545.281 614.615C545.568 615.832 545.971 616.862 546.491 617.703C543.429 619.71 539.856 620.23 535.773 619.264C531.689 618.299 527.812 616.16 524.14 612.849C520.468 609.537 517.378 605.286 514.869 600.094C512.665 594.831 511.607 588.976 511.696 582.53C512.088 576.012 514.003 569.136 517.44 561.901C520.949 554.971 526.848 547.959 535.138 540.866C539.435 537.284 543.804 534.006 548.245 531.032C552.99 527.987 557.771 525.094 562.588 522.353L557.211 499.525L535.942 532.003C530.748 529.05 526.503 526.034 523.207 522.956C520.287 520.11 517.905 516.816 516.06 513.074C514.286 509.637 512.79 505.331 511.571 500.157C510.352 494.983 508.658 488.475 506.489 480.633L497.886 444.109L490.579 445.83L505.529 509.29C506.03 511.421 506.676 514.16 507.464 517.508C508.558 520.785 509.991 524.142 511.765 527.579C513.538 531.016 515.733 534.194 518.348 537.111C520.963 540.029 524.313 541.971 528.396 542.936ZM541.062 482.126C541.564 484.257 542.398 487.113 543.562 490.693C544.727 494.274 546.85 497.147 549.931 499.313C551.901 499.491 554.112 498.649 556.565 496.786L534.518 403.193C532.745 405.217 531.089 407.053 529.549 408.7C528.01 410.348 526.506 412.148 525.038 414.1L541.062 482.126Z" fill="black" fill-opacity="0.06"/>
<path d="M1002.32 277.574C1011.85 279.827 1022.06 284.971 1032.95 293.008C1043.77 300.739 1055.13 310.109 1067.04 321.117C1078.88 331.821 1091.01 343.742 1103.42 356.881C1115.84 370.02 1128.21 383.006 1140.56 395.84C1153.2 408.603 1165.7 420.757 1178.06 432.302C1190.42 443.847 1202.2 453.602 1213.39 461.566C1224.89 469.459 1235.7 475.105 1245.82 478.504C1256.01 482.207 1265.38 482.41 1273.92 479.113C1268.32 483.967 1262.23 488.132 1255.66 491.607C1249.16 495.387 1242.25 498.138 1234.95 499.859C1221.25 503.086 1207.33 502.67 1193.2 498.61C1179.45 494.782 1165.58 488.412 1151.59 479.499C1137.67 470.891 1123.97 460.466 1110.48 448.222C1097.37 436.212 1084.27 423.557 1071.17 410.257C1058.38 396.886 1045.97 383.747 1033.93 370.841C1022.2 357.864 1010.94 346.22 1000.16 335.91C989.302 325.295 979.102 316.775 969.555 310.35C960.008 303.925 951.367 300.66 943.63 300.555C938.187 304.729 933.039 309.475 928.187 314.794C923.335 320.114 919.387 325.863 916.344 332.041L921.184 352.586C922.116 356.542 923.595 362.137 925.62 369.37C927.645 376.604 930.046 384.069 932.824 391.768C935.834 399.09 939.005 405.732 942.338 411.693C945.742 417.959 949.405 421.915 953.327 423.561C941.204 428.023 930.532 434.553 921.311 443.15C912.09 451.748 903.692 461.115 896.119 471.251L862.672 329.264L855.822 330.878L854.533 333.591L883.679 457.316C885.113 463.403 887.854 468.219 891.902 471.763L884.648 469.617L886.022 485.677C891.483 480.214 897.177 474.376 903.103 468.161C909.029 461.946 915.028 456.035 921.097 450.429C927.472 444.751 934.141 439.646 941.107 435.114C948.072 430.582 955.513 427.383 963.428 425.519C974.083 423.009 984.282 423.337 994.025 426.503C1004.14 429.902 1013.6 434.581 1022.4 440.541C1014.32 437.625 1006.02 437.171 997.493 439.179C984.707 442.191 973.855 447.96 964.939 456.485C956.022 465.011 947.401 474.109 939.076 483.781C930.75 493.452 921.977 502.587 912.756 511.184C903.839 519.71 892.988 525.478 880.202 528.49C876.244 529.423 871.418 530.078 865.723 530.455C860.028 530.833 854.494 530.531 849.122 529.547C843.749 528.564 838.806 526.677 834.292 523.885C830.155 521.326 827.441 517.307 826.15 511.828C832.275 513.277 838.686 513.212 845.384 511.634C853.299 509.77 860.515 506.303 867.033 501.234C873.623 496.469 879.8 491.319 885.565 485.785L883.978 477.003C883.62 475.481 883.226 473.807 882.795 471.981C882.437 470.459 881.774 469.009 880.807 467.63C878.55 466.234 876.83 464.391 875.648 462.099C874.537 460.112 873.543 457.937 872.665 455.574C867.721 450.955 861.658 447.725 854.476 445.883C847.366 444.346 840.463 444.366 833.765 445.943C831.025 446.589 827.784 447.834 824.042 449.68C820.371 451.829 816.924 454.248 813.701 456.934C810.55 459.926 807.927 463.113 805.832 466.498C804.114 470.116 803.649 473.598 804.437 476.946C805.226 480.294 807.125 482.899 810.134 484.76C813.215 486.926 816.43 487.614 819.778 486.825C825.562 485.463 829.251 482.024 830.844 476.509C832.812 471.226 832.579 466.141 830.142 461.253C835.783 459.282 841.057 459.164 845.964 460.899C850.943 462.939 854.15 467.003 855.584 473.09C857.233 480.091 856.007 486.483 851.907 492.268C848.184 498.285 842.973 502.083 836.276 503.66C830.796 504.951 825.486 504.917 820.346 503.558C815.206 502.198 810.495 499.935 806.215 496.767C802.238 493.527 798.727 489.535 795.682 484.791C792.636 480.048 790.504 475.088 789.285 469.914C787.708 463.218 787.268 456.575 787.965 449.986C788.734 443.701 790.559 437.81 793.441 432.312C796.628 426.742 800.674 422.095 805.58 418.369C810.415 414.339 816.333 411.499 823.335 409.85C831.25 407.985 838.682 408.162 845.631 410.38C852.813 412.222 859.207 416.177 864.814 422.245L845.347 339.61C840.099 335.063 834.26 332.102 827.831 330.725C832.826 326.014 836.729 320.758 839.54 314.956L825.236 254.234C819.865 264.174 812.507 272.493 803.16 279.192C793.741 285.587 783.704 290.04 773.049 292.55C762.09 295.131 750.781 295.547 739.122 293.795C727.463 292.044 716.511 288.52 706.266 283.224C696.254 277.551 687.477 270.302 679.936 261.477C672.699 252.58 667.718 242.349 664.994 230.783C661.982 217.999 661.89 205.331 664.717 192.779C667.848 180.155 672.977 168.506 680.102 157.832C687.156 146.854 695.893 137.567 706.314 129.972C716.968 122.001 728.536 116.546 741.018 113.605C751.673 111.095 762.337 110.671 773.011 112.333C783.918 113.619 794.305 116.794 804.174 121.858C812.322 119.618 820.291 119.347 828.082 121.045C836.177 122.672 843.493 125.768 850.031 130.331C856.497 134.591 862.112 140.015 866.877 146.602C871.642 153.19 875.261 160.369 877.734 168.139L880.252 133.814C885.229 124.931 890.922 116.362 897.332 108.106C903.974 99.4732 911.136 91.6823 918.817 84.7327C926.427 77.4787 934.744 71.1825 943.768 65.844C952.793 60.5055 962.481 56.6171 972.832 54.1788C984.4 51.4537 996.202 51.083 1008.24 53.0668C1020.2 54.7462 1031.19 58.4224 1041.2 64.0953C1051.52 69.6965 1060.36 77.2499 1067.75 86.7553C1075.36 95.8846 1080.56 106.384 1083.36 118.255C1086.37 131.038 1086.98 144.548 1085.19 158.783C1083.41 173.018 1082.08 186.501 1081.23 199.232C1080.48 209.689 1077.58 219.206 1072.53 227.785C1067.71 235.987 1061.58 243.374 1054.13 249.948C1046.61 256.217 1038.27 261.717 1029.1 266.446C1020.17 270.8 1011.24 274.509 1002.32 277.574ZM1070.42 157.444C1065.15 148.726 1058.73 141.244 1051.15 134.997C1043.51 128.446 1035.08 123.364 1025.87 119.75C1016.97 116.064 1007.6 113.775 997.746 112.883C987.896 111.99 978.1 112.692 968.358 114.986C949.179 119.504 932.481 128.417 918.265 141.725C903.977 154.729 891.793 169.164 881.714 185.031L884.725 197.815L958.702 180.388C965.864 172.597 970.5 163.634 972.611 153.499C979.4 161.859 987.702 167.774 997.517 171.245C1000.56 170.528 1005.58 169.344 1012.59 167.695C1019.82 165.669 1027.24 163.76 1034.85 161.967C1042.46 160.175 1049.54 158.829 1056.07 157.932C1062.84 156.659 1067.63 156.496 1070.42 157.444ZM913.382 299.007C914.883 283.554 918.883 271.207 925.382 261.966C932.114 252.349 940.413 244.611 950.279 238.753C960.146 232.895 970.908 228.111 982.565 224.401C994.456 220.315 1006.16 216.113 1017.67 211.794C1029.12 207.171 1040 201.554 1050.33 194.944C1060.67 188.334 1069.17 179.424 1075.85 168.213L1074.53 164.668C1072.94 164.722 1071.38 164.929 1069.86 165.287C1068.57 165.27 1067.16 165.44 1065.64 165.799L996.686 182.042C990.975 189.17 987.037 197.005 984.872 205.546C981.88 202.396 978.62 199.469 975.092 196.767C971.867 193.992 968.258 191.63 964.264 189.679L887.091 207.859L907.095 292.777L913.382 299.007ZM1013.52 507.205C1008.34 508.424 1002.92 507.934 997.265 505.733C991.677 503.837 988.238 500.149 986.948 494.671C986.159 491.323 986.588 487.688 988.235 483.766C990.258 480.077 993.096 477.802 996.749 476.941C1000.71 476.009 1004.25 477.422 1007.39 481.182C1004.18 482.579 1001.95 484.711 1000.7 487.576C999.447 490.441 999.179 493.396 999.896 496.439C1000.4 498.57 1001.28 500.288 1002.56 501.595C1003.83 502.902 1005.68 503.268 1008.12 502.695C1012.99 501.547 1016.07 498.252 1017.36 492.808C1018.95 487.293 1019.24 482.405 1018.24 478.143C1016.59 471.143 1012.86 466.238 1007.06 463.429C1001.33 460.924 995.268 460.424 988.875 461.93C987.353 462.289 985.41 462.907 983.046 463.785C980.682 464.663 978.542 465.81 976.626 467.225C974.711 468.64 973.135 470.136 971.9 471.712C970.736 473.592 970.405 475.598 970.907 477.728L968.624 478.266C968.89 469.85 971.342 462.526 975.979 456.294C980.921 449.99 987.654 445.834 996.178 443.826C1004.7 441.818 1013.11 442.728 1021.4 446.558C1029.7 450.387 1034.92 456.867 1037.07 465.998C1038.07 470.259 1038.13 474.583 1037.23 478.97C1036.71 483.59 1035.44 487.744 1033.42 491.433C1031.47 495.427 1028.73 498.803 1025.2 501.561C1021.98 504.248 1018.08 506.129 1013.52 507.205ZM797.513 126.319C792.731 126.481 787.905 127.136 783.034 128.284C774.51 130.292 766.076 134.046 757.732 139.545C749.692 144.973 742.7 151.439 736.756 158.943C730.812 166.447 726.337 174.729 723.33 183.79C720.628 192.78 720.352 201.84 722.503 210.971C724.224 218.276 727.503 225.374 732.339 232.266C737.176 239.158 742.899 245.038 749.508 249.907C756.35 254.399 763.738 257.798 771.672 260.106C779.535 262.109 787.423 262.178 795.339 260.313C800.514 259.094 805.214 256.541 809.44 252.655C813.898 248.392 815.411 243.217 813.977 237.129C813.045 233.173 811.083 229.619 808.091 226.469C805.404 223.247 802.064 220.66 798.07 218.71C794.309 216.383 790.27 214.925 785.954 214.336C781.87 213.37 777.85 213.353 773.892 214.286C771.457 214.859 769.245 215.702 767.258 216.812C765.575 217.851 763.775 219.078 761.859 220.493L761.106 217.298C759.027 208.471 759.813 200.897 763.465 194.575C767.117 188.253 773.358 184.053 782.186 181.973C786.448 180.969 790.889 180.726 795.51 181.244C800.13 181.762 804.402 182.844 808.324 184.49L800.903 152.988C800.258 150.248 799.344 147.733 798.162 145.441C796.908 142.846 795.233 140.509 793.137 138.433C799.334 140.186 804.035 143.094 807.242 147.158C810.377 150.917 812.706 155.348 814.229 160.45C816.057 165.481 817.311 170.807 817.993 176.429C818.675 182.051 819.661 187.602 820.952 193.08C826.11 198.612 829.586 205.182 831.379 212.791C832.239 216.443 832.714 220.508 832.805 224.984C832.895 229.46 832.422 233.587 831.384 237.366L850.446 316.242L852.246 317.745L859.553 316.024L823.954 164.906C822.305 157.905 819.295 150.583 814.924 142.939C810.481 134.99 804.677 129.45 797.513 126.319Z" fill="black" fill-opacity="0.06"/>
<path d="M1223.34 250.086C1225.9 245.949 1228.94 242.501 1232.47 239.743C1236.23 236.608 1240.39 234.503 1244.96 233.428C1254.39 231.204 1262.49 232.831 1269.24 238.308C1275.99 243.785 1280.98 250.641 1284.21 258.877C1279.21 258.126 1274.28 258.325 1269.41 259.472C1264.84 260.548 1260.41 262.877 1256.11 266.459C1251.81 270.042 1248 274.313 1244.67 279.274C1241.57 283.859 1239.23 288.909 1237.64 294.424C1236.04 299.939 1235.78 304.98 1236.86 309.545L1248.15 357.483C1260.83 362.206 1273.59 366.589 1286.44 370.632C1299.35 374.979 1312.65 378.269 1326.36 380.503C1320.05 353.719 1313.81 327.239 1307.64 301.063C1301.4 274.583 1295.28 247.915 1289.28 221.059C1282.01 214.741 1273.45 210.491 1263.62 208.31C1271.45 201.969 1277.2 194.348 1280.89 185.448L1249.81 53.5051C1233.08 50.699 1216.75 49.5671 1200.81 50.1091C1185.1 50.275 1170.52 54.5141 1157.05 62.8262C1169.32 69.895 1177.84 79.4539 1182.6 91.5026C1187.68 103.48 1191.75 116.012 1194.84 129.1L1223.34 250.086ZM1260.93 55.704L1290.48 183.189C1297.91 188.827 1306.46 193.077 1316.14 195.939C1312.45 199.378 1309.13 203.05 1306.2 206.954C1303.19 210.554 1300.75 214.503 1298.87 218.8C1299.66 222.148 1301.13 228.388 1303.28 237.519C1305.66 246.274 1308.21 256.434 1310.94 268C1313.59 279.262 1316.42 291.284 1319.44 304.068C1322.68 316.475 1325.4 328.041 1327.61 338.766C1330.19 349.723 1332.23 359.042 1333.71 366.723C1335.27 374.708 1335.96 379.686 1335.78 381.655C1348.05 383.263 1360.35 382.937 1372.67 380.677C1385.06 378.722 1396.28 373.83 1406.32 366.003L1338.46 77.9187C1325.31 73.9478 1312.36 70.0931 1299.59 66.3549C1287.05 62.2405 1274.16 58.6902 1260.93 55.704ZM1383.67 83.6525L1399.05 148.939C1407.79 158.767 1418.51 165.397 1431.21 168.831C1421.38 177.572 1414.75 188.29 1411.31 200.986L1431.96 288.644C1433.39 294.731 1435.79 300.111 1439.14 304.783C1442.56 309.76 1447.96 311.54 1455.34 310.123C1447.46 320.332 1439.39 330.424 1431.14 340.399C1423.19 350.303 1415.28 360.36 1407.4 370.568C1403.23 376.048 1400.04 381.618 1397.84 387.277C1395.71 393.24 1392.86 398.89 1389.3 404.226C1386.04 409.492 1381.57 414.399 1375.9 418.949C1370.22 423.498 1361.91 427.064 1350.95 429.646C1340.9 432.012 1330.42 432.553 1319.52 431.267C1308.61 429.981 1297.64 427.746 1286.61 424.562C1275.58 421.379 1264.74 417.667 1254.1 413.426C1243.46 409.186 1233.39 405.295 1223.88 401.752C1214.67 398.138 1206.14 395.33 1198.28 393.327C1190.41 391.324 1183.9 390.932 1178.72 392.151C1172.94 393.514 1169.28 397.105 1167.76 402.924C1165.27 401.904 1163.4 400.097 1162.15 397.501C1160.66 395.281 1159.63 392.954 1159.06 390.519C1156.98 381.692 1157.74 372.676 1161.36 363.472C1165.35 354.5 1171.77 348.33 1180.62 344.961C1184.47 340.842 1186.41 334.762 1186.44 326.723C1186.4 318.379 1185.35 309.794 1183.27 300.967C1181.42 291.764 1179.19 282.974 1176.57 274.595C1173.96 266.216 1172.15 259.896 1171.14 255.635C1166.72 251.858 1161.72 248.377 1156.15 245.192C1150.58 242.006 1144.7 239.537 1138.5 237.784C1149.08 229.509 1155.72 218.79 1158.4 205.629L1159.74 207.24L1147.7 156.107C1146.62 151.541 1144.44 147.719 1141.14 144.64C1137.77 141.257 1133.98 138.778 1129.75 137.204C1125.52 135.63 1121.02 134.924 1116.24 135.086C1111.45 135.249 1107.16 136.101 1103.34 137.642C1113.14 126.018 1121.77 113.545 1129.23 100.221C1136.93 86.521 1143.83 72.8483 1149.93 59.2026L1150.39 59.095C1154.18 42.4599 1160.04 29.8349 1167.98 21.22C1175.84 12.3008 1185.06 6.43403 1195.64 3.61967C1206.53 0.733583 1218.41 0.0227186 1231.29 1.48703C1244.16 2.95133 1257.29 5.4809 1270.67 9.07579C1283.98 12.3663 1297.09 16.1851 1310 20.5321C1323.15 24.503 1335.35 27.8924 1346.62 30.7001C1358.11 33.1317 1368.34 34.2566 1377.29 34.0748C1386.18 33.5887 1393.01 30.5337 1397.79 24.91C1400.58 25.8582 1402.61 27.6302 1403.86 30.226C1405.12 32.8219 1406.03 35.3373 1406.6 37.7723C1407.68 42.3378 1407.96 46.9304 1407.44 51.5501C1406.92 56.1698 1405.57 60.6644 1403.39 65.034C1401.51 69.3318 1398.87 73.1643 1395.49 76.5315C1392.11 79.8988 1388.17 82.2725 1383.67 83.6525Z" fill="black" fill-opacity="0.06"/>
</svg>
