<svg width="30" height="27" viewBox="0 0 30 27" fill="none" xmlns="http://www.w3.org/2000/svg">
<path d="M4.875 0.75C5.43359 0.75 5.94141 1.20703 6.04297 1.76562L6.14453 2.375H27.4727C28.5391 2.375 29.3516 3.44141 29.0469 4.45703L26.3047 14.207C26.1016 14.918 25.4922 15.375 24.7305 15.375H8.63281L9.08984 17.8125H24.7812C25.4414 17.8125 26 18.3711 26 19.0312C26 19.7422 25.4414 20.25 24.7812 20.25H8.07422C7.51562 20.25 7.00781 19.8438 6.90625 19.2852L3.85938 3.1875H1.21875C0.507812 3.1875 0 2.67969 0 1.96875C0 1.30859 0.507812 0.75 1.21875 0.75H4.875ZM6.5 24.3125C6.5 22.9922 7.56641 21.875 8.9375 21.875C10.2578 21.875 11.375 22.9922 11.375 24.3125C11.375 25.6836 10.2578 26.75 8.9375 26.75C7.56641 26.75 6.5 25.6836 6.5 24.3125ZM26 24.3125C26 25.6836 24.8828 26.75 23.5625 26.75C22.1914 26.75 21.125 25.6836 21.125 24.3125C21.125 22.9922 22.1914 21.875 23.5625 21.875C24.8828 21.875 26 22.9922 26 24.3125Z" fill="black"/>
</svg>
