<svg width="334" height="58" viewBox="0 0 334 58" fill="none" xmlns="http://www.w3.org/2000/svg">
<path d="M12.1541 53.3934C12.8255 53.7064 13.5662 53.8524 14.3764 53.8314C15.6652 53.7979 16.9266 53.4164 18.1605 52.6868C19.4313 51.9562 20.7001 51.1522 21.9671 50.2749C23.235 49.4342 24.5412 48.6477 25.8856 47.9152C27.23 47.1827 28.6202 46.7978 30.0564 46.7606C31.3452 46.7271 32.5133 47.0089 33.5606 47.6059C34.6456 48.2386 35.6235 49.0026 36.4943 49.8979C35.633 49.3695 34.6869 49.1187 33.6558 49.1455C32.1092 49.1856 30.7194 49.5888 29.4864 50.3551C28.2534 51.1215 27.0407 51.9607 25.8484 52.8728C24.656 53.7849 23.425 54.6246 22.1552 55.3919C20.9222 56.1582 19.5324 56.5614 17.9858 56.6015C17.507 56.6139 16.9348 56.5737 16.2691 56.4808C15.6034 56.388 14.9727 56.2208 14.3768 55.9792C13.781 55.7377 13.2564 55.4025 12.8031 54.9736C12.3875 54.5806 12.1712 54.0538 12.1541 53.3934ZM11.3014 26.9251C9.97573 26.9595 8.6618 26.7366 7.35962 26.2563C6.05744 25.7761 4.8978 25.1086 3.8807 24.2538C2.82582 23.3633 1.98807 22.3203 1.36747 21.1248C0.710034 19.9302 0.363228 18.6358 0.327048 17.2415C0.28706 15.7005 0.599282 14.2422 1.26371 12.8664C1.89132 11.4917 2.74416 10.2763 3.82223 9.22025C4.9003 8.16424 6.13138 7.32455 7.51546 6.70118C8.93542 6.04016 10.4003 5.69007 11.9101 5.65089C13.1989 5.61745 14.4387 5.82393 15.6295 6.27033C16.8561 6.67909 17.977 7.27417 18.9922 8.05557C20.1697 7.9883 21.2253 8.19956 22.1593 8.68935C23.13 9.17818 23.9592 9.89097 24.6468 10.8277C24.8439 9.90473 25.1341 9.01602 25.5173 8.16162C25.9373 7.30626 26.395 6.48664 26.8906 5.70275C27.061 8.01141 27.6875 10.143 28.77 12.0976C29.8884 14.0145 31.2427 15.7968 32.8332 17.4444C34.4594 19.0544 36.2118 20.551 38.0901 21.9342C39.9675 23.2807 41.7325 24.5566 43.3852 25.7621C45.0737 26.9299 46.5393 28.0301 47.7821 29.0626C49.024 30.0584 49.8414 31.0285 50.2344 31.9729L49.7655 11.7731C49.7474 11.0759 49.8785 10.4484 50.1589 9.89035C50.475 9.2947 50.8677 8.8072 51.3369 8.42787C51.842 8.01089 52.4051 7.70255 53.0264 7.50285C53.6467 7.26646 54.2699 7.14014 54.8959 7.1239L56.002 7.15027C55.7103 7.26799 55.4412 7.55033 55.1949 7.99731C54.9476 8.40761 54.7386 8.87198 54.5678 9.39043C54.396 9.87219 54.2616 10.3713 54.1644 10.8879C54.0663 11.3677 54.0211 11.7544 54.0287 12.0479L54.4662 31.037L55.2209 30.3014L54.7696 12.9099C54.7506 12.1761 54.5508 11.5755 54.1701 11.108C54.7669 11.3863 55.2174 11.705 55.5215 12.0643C55.8247 12.3869 55.9858 12.9151 56.0048 13.6489L56.4347 30.2149C56.6633 30.5027 56.9088 30.7349 57.1714 30.9117C57.4707 31.0875 57.7701 31.2633 58.0694 31.4391C57.452 31.7856 56.929 32.2214 56.5004 32.7466L57.0431 53.6604C57.0621 54.3943 57.262 54.9949 57.6426 55.4623C57.0826 55.1831 56.6695 54.8818 56.4031 54.5582C56.1377 54.2714 55.9446 53.9276 55.8236 53.5269C55.7405 53.1619 55.7116 52.7587 55.737 52.3175C55.7624 51.8762 55.7674 51.3621 55.7522 50.775L55.2852 32.7781L54.4933 32.0827L55.0132 52.116C55.0379 53.0699 55.2633 53.9453 55.6893 54.742C56.1522 55.5377 56.7953 56.1819 57.6188 56.6745L48.8914 56.901C49.7232 56.292 50.2376 55.526 50.4347 54.6029C50.6328 53.7166 50.7195 52.7965 50.6947 51.8425L50.6205 48.9806C50.2751 49.8708 49.89 50.6518 49.4653 51.3237C49.6719 50.7676 49.7672 50.1777 49.751 49.5539C49.7196 48.3431 49.4167 47.3229 48.8425 46.4934C48.2682 45.6638 47.5481 44.8931 46.6821 44.1813C45.8538 43.5052 44.934 42.8498 43.9226 42.2152C42.9471 41.5429 42.0249 40.7958 41.1561 39.9739C40.324 39.151 39.6176 38.1963 39.0366 37.11C38.4548 35.9869 38.1429 34.6181 38.101 33.0037C38.0877 32.49 38.1112 31.9754 38.1715 31.4598C38.2318 30.9442 38.3662 30.4451 38.5748 29.9624C37.5237 29.2186 36.4354 28.4575 35.3097 27.6789C34.184 26.9004 33.0758 26.0847 31.985 25.2318C30.9302 24.3413 29.93 23.431 28.9847 22.5009C28.0384 21.5342 27.2011 20.5095 26.4729 19.4269L26.7514 30.159C27.2926 31.1363 28.0297 31.8515 28.9627 32.3046C28.0186 32.8431 27.3191 33.5772 26.8642 34.5069C26.8785 35.0573 26.9008 35.9195 26.9313 37.0936C26.9618 38.2677 27.0484 39.4771 27.1913 40.7217C27.3341 41.9664 27.5298 43.1178 27.7784 44.1761C28.0647 45.2702 28.4515 45.9761 28.9388 46.2939C27.4338 46.5165 26.0464 47.0115 24.7765 47.7787C23.5067 48.546 22.3134 49.4214 21.1966 50.405L20.7525 33.2887L19.9239 33.3102L19.7101 33.5911L20.0972 48.506C20.1162 49.2398 20.3165 49.8588 20.6981 50.3629C20.0645 50.0856 19.5951 49.749 19.29 49.353C19.0228 48.9928 18.8796 48.4458 18.8605 47.712L18.5064 34.0629C18.0105 33.4149 17.4085 32.9349 16.7002 32.6228C17.3894 32.201 17.9658 31.6904 18.4292 31.0909L18.2393 23.7711C17.3812 24.7847 16.3328 25.5646 15.0941 26.1107C13.8545 26.6202 12.5902 26.8916 11.3014 26.9251ZM19.6559 31.4997L19.8273 31.7155L20.7111 31.6926L20.2383 13.4755C20.2164 12.6316 20.0454 11.7182 19.725 10.7352C19.4038 9.71546 18.8678 8.93998 18.117 8.40872C17.5618 8.31299 16.9896 8.27276 16.4004 8.28805C15.3693 8.31481 14.3067 8.54432 13.2124 8.97658C12.155 9.4079 11.1934 9.98358 10.3277 10.7036C9.46204 11.4237 8.74697 12.2684 8.18254 13.2376C7.65493 14.2059 7.40541 15.2404 7.43397 16.3412C7.45682 17.2218 7.66427 18.1159 8.05632 19.0236C8.44836 19.9313 8.96691 20.744 9.61196 21.4616C10.2929 22.1415 11.063 22.709 11.9224 23.164C12.7807 23.5823 13.6886 23.779 14.6461 23.7542C15.2721 23.7379 15.8754 23.5571 16.456 23.2115C17.0725 22.8284 17.3712 22.2699 17.3522 21.5361C17.3398 21.0591 17.199 20.6038 16.9298 20.1702C16.6975 19.7356 16.3745 19.3585 15.9608 19.0388C15.5831 18.6815 15.1524 18.4173 14.669 18.2462C14.2214 18.0375 13.7582 17.9394 13.2795 17.9518C12.9849 17.9595 12.7097 18.0033 12.4538 18.0834C12.2348 18.1625 11.9978 18.2605 11.7429 18.3772L11.7329 17.992C11.7053 16.9279 11.978 16.0764 12.551 15.4374C13.124 14.7983 13.9444 14.4649 15.0123 14.4372C15.5279 14.4239 16.0458 14.5022 16.5661 14.6723C17.0864 14.8424 17.5529 15.0689 17.9656 15.3519L17.867 11.5544C17.8584 11.2242 17.8135 10.9133 17.7323 10.6217C17.65 10.2933 17.5131 9.98482 17.3213 9.69606C17.9937 10.0458 18.4659 10.4925 18.7379 11.0361C19.009 11.5431 19.1711 12.108 19.2241 12.7308C19.3139 13.3526 19.3306 13.9947 19.2741 14.6571C19.2176 15.3194 19.1979 15.9808 19.215 16.6413C19.6769 17.4003 19.9198 18.2385 19.9436 19.1558C19.9674 20.073 19.7886 20.9956 19.4074 21.9233L19.3536 21.9798L19.6559 31.4997ZM33.87 57.401C33.244 57.4172 32.6312 57.2312 32.0315 56.8429C31.4318 56.4545 31.1234 55.9302 31.1063 55.2697C31.0958 54.8661 31.2326 54.4587 31.5168 54.0475C31.8387 53.6719 32.2206 53.4785 32.6624 53.467C33.1412 53.4546 33.5161 53.7018 33.7872 54.2088C33.384 54.2927 33.0758 54.4843 32.8624 54.7836C32.6491 55.0828 32.5472 55.4159 32.5567 55.7828C32.5634 56.0397 32.6243 56.2584 32.7396 56.439C32.8548 56.6196 33.0597 56.706 33.3543 56.6984C33.9435 56.6831 34.3778 56.3781 34.6571 55.7834C34.9733 55.1877 35.1247 54.6331 35.1114 54.1194C35.0895 53.2755 34.7778 52.6227 34.1762 52.161C33.5756 51.736 32.8886 51.5335 32.1153 51.5536C31.9312 51.5584 31.6923 51.5829 31.3987 51.6273C31.1051 51.6716 30.8308 51.7522 30.5759 51.8689C30.3209 51.9857 30.1033 52.1198 29.923 52.2714C29.7437 52.4596 29.6573 52.6821 29.664 52.939L29.3878 52.9462C29.6208 51.9855 30.0795 51.2026 30.764 50.5974C31.4852 49.9912 32.3614 49.6747 33.3925 49.648C34.4235 49.6212 35.3711 49.9271 36.2352 50.5655C37.0993 51.204 37.5456 52.0736 37.5742 53.1743C37.5875 53.688 37.4899 54.1862 37.2813 54.6689C37.1106 55.1874 36.8642 55.6343 36.5423 56.0098C36.2214 56.422 35.8244 56.7444 35.3514 56.977C34.9162 57.2453 34.4224 57.3866 33.87 57.401ZM50.4748 43.3669L50.3387 35.9906C50.1368 36.7301 49.806 37.473 49.3463 38.2193C48.9225 38.9279 48.3844 39.4926 47.7321 39.9134C48.2609 40.4137 48.7723 40.9511 49.2663 41.5258C49.7593 42.0637 50.1621 42.6774 50.4748 43.3669ZM39.3072 30.4941C39.2941 31.4123 39.5563 32.2867 40.0938 33.1172C40.6312 33.9477 41.2961 34.7199 42.0885 35.4336C42.8808 36.1474 43.709 36.8235 44.5731 37.4619C45.4363 38.0637 46.188 38.6317 46.8283 39.1658C46.8423 38.2842 46.5621 37.4287 45.9879 36.5991C45.4504 35.7686 44.785 34.9781 43.9917 34.2277C43.2353 33.4763 42.425 32.7814 41.5609 32.1429C40.6968 31.5044 39.9455 30.9548 39.3072 30.4941Z" fill="#FFED00"/>
<path d="M69.1203 28.0132L69.2203 31.8657C69.6406 32.4423 70.2247 32.9412 70.9726 33.3623C70.2475 33.8217 69.6901 34.3502 69.3002 34.9478L69.3973 38.6903L69.7288 38.6817C70.4284 38.6635 71.0059 38.9055 71.4611 39.4077C71.9163 39.91 72.1888 40.472 72.2787 41.0938L71.8774 25.6286C71.3542 25.3484 70.7744 25.0147 70.1379 24.6273C69.5005 24.2032 68.8871 23.9989 68.298 24.0142C67.9665 24.0228 67.638 24.1414 67.3123 24.3702C67.0224 24.5613 66.8828 24.8586 66.8932 25.2622C66.897 25.409 66.9561 25.5543 67.0704 25.6982C67.1846 25.8421 67.3339 25.9117 67.518 25.9069C67.7757 25.9002 67.9013 25.7684 67.8946 25.5116L67.5518 25.0799C67.7623 24.6706 68.1253 24.4592 68.6408 24.4458C69.0827 24.4344 69.4736 24.5895 69.8136 24.9111C70.1895 25.195 70.3836 25.5755 70.396 26.0525C70.4064 26.4561 70.2876 26.8447 70.0393 27.2183C69.7911 27.5919 69.4847 27.8569 69.1203 28.0132ZM66.9403 33.467C67.5955 33.1562 68.153 32.6278 68.6127 31.8815L68.517 28.1941L68.296 28.1998C67.5595 28.2189 66.9637 27.9774 66.5085 27.4752C66.0532 26.9729 65.7618 26.3931 65.6342 25.7355L66.0355 41.2007C66.5219 41.4819 67.1022 41.834 67.7764 42.257C68.4497 42.6434 69.081 42.829 69.6702 42.8137C70.0016 42.8051 70.3122 42.7053 70.602 42.5142C70.8909 42.2864 71.0301 41.9707 71.0197 41.5671C71.0158 41.4203 70.9573 41.2933 70.844 41.1861C70.7297 41.0422 70.5805 40.9727 70.3963 40.9774C70.1386 40.9841 70.013 41.1159 70.0197 41.3727L70.3611 41.7494C70.077 42.1606 69.714 42.372 69.2721 42.3835C68.7934 42.3959 68.384 42.2413 68.044 41.9197C67.7041 41.598 67.5283 41.2171 67.5169 40.7768C67.5064 40.3732 67.6253 39.9846 67.8736 39.611C68.1218 39.2374 68.4286 38.9908 68.794 38.8712L68.6926 34.9636C68.2723 34.387 67.6882 33.8882 66.9403 33.467ZM72.3625 42.1931C72.2701 42.8931 71.9907 43.4878 71.5244 43.9772C71.059 44.5033 70.5181 44.9579 69.9016 45.3411C69.2851 45.7243 68.6308 46.0717 67.9388 46.3834C67.2836 46.6941 66.702 47.0029 66.1941 47.3098C65.7455 47.0644 65.2592 46.7833 64.7351 46.4665C64.2478 46.1487 63.7241 45.8502 63.1642 45.571C62.642 45.3275 62.0844 45.1401 61.4914 45.0086C60.9361 44.9129 60.3843 44.9455 59.8357 45.1066C60.1576 44.7311 60.4059 44.3575 60.5804 43.9858C60.7551 43.6142 60.8357 43.1715 60.8224 42.6578L60.6881 37.4844C60.4945 37.1222 60.247 36.8166 59.9458 36.5674C59.6804 36.2805 59.3796 36.0497 59.0434 35.8748C59.7345 35.5265 60.2542 34.9622 60.6024 34.1822L60.4682 29.0087C60.4577 28.6051 60.3377 28.2411 60.1082 27.9166C59.9145 27.5545 59.6128 27.2869 59.203 27.114C59.457 26.9605 59.8379 26.7304 60.3458 26.4235C60.8528 26.0799 61.3782 25.7358 61.922 25.3912C62.4658 25.0467 62.9742 24.7581 63.4472 24.5255C63.956 24.2553 64.3394 24.1169 64.5971 24.1102C64.7812 24.1054 64.9668 24.1557 65.1538 24.261C65.3398 24.3296 65.472 24.4546 65.5504 24.6362C65.6428 23.9362 65.9038 23.342 66.3333 22.8535C66.7987 22.3274 67.3396 21.8728 67.9561 21.4896C68.6094 21.1055 69.2637 20.7581 69.9189 20.4474C70.6109 20.1357 71.2109 19.8264 71.7188 19.5195C72.2798 19.8354 72.8039 20.1522 73.2912 20.47C73.7784 20.7878 74.2648 21.0689 74.7502 21.3133C75.2714 21.5201 75.7917 21.6902 76.3111 21.8236C76.8663 21.9193 77.4555 21.904 78.0786 21.7777C77.3971 22.493 77.0677 23.2909 77.0905 24.1715L77.2262 29.4C77.4189 29.7254 77.6479 30.0316 77.9133 30.3184C78.1778 30.5685 78.4965 30.7806 78.8695 30.9545C78.1435 31.3772 77.6238 31.9414 77.3105 32.6471L77.4447 37.8206C77.4552 38.2242 77.5573 38.607 77.7509 38.9692C77.9804 39.2937 78.3001 39.5424 78.7099 39.7153C78.4559 39.8688 78.0755 40.1173 77.5685 40.4609C77.0606 40.7678 76.5347 41.0935 75.9909 41.4381C75.4471 41.7826 74.9208 42.09 74.4119 42.3602C73.9389 42.5928 73.5735 42.7124 73.3158 42.7191C73.1317 42.7239 72.9466 42.692 72.7606 42.6234C72.5736 42.5181 72.4409 42.3747 72.3625 42.1931Z" fill="#FFED00"/>
<path d="M82.2727 33.9503C83.1073 33.4513 83.753 32.7737 84.2098 31.9174L84.1198 28.4501C82.4269 28.5307 81.0733 28.1987 80.059 27.454C79.0448 26.7093 78.528 25.254 78.5086 23.0883C78.7749 23.4118 79.1499 23.6591 79.6333 23.8302C80.1158 23.9645 80.6158 24.0617 81.1333 24.1217C81.6498 24.145 82.1658 24.15 82.6813 24.1366C83.1959 24.0865 83.6368 24.0384 84.0041 23.9921L83.9656 22.5061C83.958 22.2126 83.9999 21.6975 84.0913 20.9608C84.1827 20.2241 84.4762 19.4638 84.9718 18.6799C85.4664 17.8594 86.2216 17.1422 87.2374 16.5283C88.2891 15.8769 89.7356 15.5273 91.5768 15.4795C91.1425 15.7845 90.7645 16.1247 90.4426 16.5002C90.1575 16.8748 89.9121 17.3585 89.7064 17.9513C89.5375 18.5431 89.4092 19.2807 89.3216 20.1642C89.2331 21.011 89.2054 22.0764 89.2387 23.3606C90.673 23.25 91.951 23.5105 93.0729 24.1423C94.1938 24.7374 94.923 25.8566 95.2604 27.5001C94.5163 27.2257 93.7208 27.0995 92.8738 27.1214C92.0628 27.1058 91.2904 27.1625 90.5568 27.2917L90.9167 41.1609C91.403 41.442 92.0012 41.7753 92.7114 42.1607C93.4205 42.5095 94.0343 42.7322 94.5527 42.8289C94.1505 42.9495 93.7323 43.1623 93.298 43.4673C92.9015 43.808 92.5055 44.1671 92.1099 44.5445C91.7144 44.9219 91.3188 45.2994 90.9233 45.6768C90.5278 46.0542 90.1487 46.3578 89.7862 46.5875C89.45 46.4126 89.0572 46.1841 88.6077 45.9021C88.1582 45.62 87.6718 45.3389 87.1487 45.0588C86.6633 44.8144 86.1604 44.6071 85.6401 44.437C85.1567 44.266 84.7124 44.1857 84.3073 44.1962C84.0864 44.202 83.7927 44.2463 83.4264 44.3293C84.108 43.614 84.4373 42.816 84.4145 41.9355L84.256 35.8264C83.7922 34.994 83.1311 34.3686 82.2727 33.9503ZM89.6277 40.4784L90.3005 40.8465L89.952 27.4175L89.3473 27.5434L89.6277 40.4784Z" fill="#FFED00"/>
<path d="M107.963 23.04C108.434 22.734 108.925 22.4826 109.435 22.2858C109.982 22.0513 110.532 21.9269 111.084 21.9126C111.526 21.9011 111.934 22.019 112.309 22.2663C112.72 22.4759 112.932 22.8376 112.945 23.3513C112.96 23.9016 112.75 24.3293 112.315 24.6343C111.881 24.9393 111.406 25.0985 110.891 25.1119C110.911 24.4872 110.713 23.9599 110.297 23.5301C109.879 23.0637 109.358 22.8385 108.732 22.8548C108.621 22.8577 108.493 22.8793 108.346 22.9199C108.2 22.9604 108.072 23.0004 107.963 23.04ZM96.7515 25.5338C96.4473 25.1746 96.1621 24.8332 95.8958 24.5096C95.6285 24.1494 95.3432 23.808 95.0401 23.4854C95.5274 23.8032 96.1024 23.9535 96.7653 23.9363C97.7227 23.9115 98.6551 23.6303 99.5623 23.0927C100.505 22.5175 101.448 21.9056 102.389 21.257C103.329 20.5717 104.271 19.9598 105.216 19.4213C106.195 18.8452 107.201 18.5437 108.232 18.5169C109.41 18.4864 110.397 18.8646 111.191 19.6518C111.985 20.4389 112.653 21.3028 113.193 22.2434C112.554 21.7459 111.81 21.5082 110.963 21.5302C110.301 21.5474 109.623 21.7118 108.931 22.0235C108.275 22.2975 107.621 22.645 106.968 23.0658C106.315 23.4499 105.681 23.8702 105.066 24.3267C104.452 24.7833 103.873 25.1838 103.329 25.5284L103.469 30.9219C103.966 31.6067 104.568 32.105 105.276 32.4171C104.514 32.8408 103.938 33.3697 103.549 34.004L103.73 40.9936C104.404 41.4167 105.147 41.6178 105.957 41.5967L106.232 41.5345C105.553 42.3599 104.909 43.1109 104.3 43.7876C103.692 44.501 103.106 45.3239 102.54 46.2565C102.166 46.0459 101.754 45.7996 101.305 45.5175C100.893 45.2712 100.444 45.0075 99.9579 44.7264C99.4725 44.482 98.9881 44.2742 98.5046 44.1032C98.058 43.9312 97.6137 43.851 97.1718 43.8624C96.8404 43.871 96.5104 43.9347 96.1818 44.0533C96.8634 43.338 97.1928 42.5401 97.1699 41.6595L96.9757 34.1746C96.5525 33.4879 95.9859 32.9519 95.2757 32.5665C95.9668 32.2181 96.5054 31.6717 96.8914 30.9274L96.7515 25.5338ZM102.383 40.2025L103.168 40.6227L102.996 34.0183C102.881 33.8377 102.749 33.6943 102.598 33.5881C102.484 33.4442 102.351 33.3008 102.2 33.1578L102.383 40.2025ZM102.785 25.8729L102.022 26.2782L102.166 31.8369C102.309 31.6863 102.435 31.5546 102.543 31.4416C102.686 31.2911 102.811 31.1226 102.916 30.9363L102.785 25.8729Z" fill="#FFED00"/>
<path d="M119.532 45.7605C118.971 45.4446 118.447 45.1278 117.959 44.81C117.473 44.5289 116.969 44.2666 116.447 44.0231C115.962 43.8154 115.46 43.6449 114.941 43.5115C114.423 43.4148 113.852 43.4296 113.229 43.5559C113.91 42.8406 114.24 42.0427 114.217 41.1621L114.028 33.8973C113.605 33.2107 113.038 32.6746 112.328 32.2892C113.018 31.9041 113.556 31.3394 113.942 30.5951L113.864 27.5681C113.84 26.6508 113.419 26.0376 112.6 25.7284L125.224 18.0209C125.672 18.2663 126.14 18.5479 126.627 18.8657C127.151 19.1825 127.675 19.481 128.198 19.7612C128.757 20.0037 129.315 20.1912 129.871 20.3236C130.426 20.4193 130.978 20.3866 131.527 20.2255C131.025 20.7526 130.69 21.3671 130.524 22.069C130.394 22.7332 130.339 23.4506 130.359 24.2211C130.378 24.955 130.435 25.7062 130.528 26.4748C130.621 27.2067 130.675 27.8662 130.69 28.4532L122.85 33.0625L122.993 38.5662L123.654 38.494C124.17 38.4806 124.635 38.6521 125.05 39.0085C125.463 39.3282 125.714 39.7439 125.801 40.2557L125.648 34.3668L124.257 34.0174L130.731 30.0493C130.743 30.4896 130.722 31.1143 130.67 31.9234C130.616 32.6958 130.6 33.504 130.622 34.3479C130.644 35.1918 130.756 35.9782 130.959 36.7073C131.199 37.3987 131.598 37.8656 132.157 38.1081C129.978 39.3396 127.836 40.5884 125.732 41.8546C123.664 43.1199 121.597 44.4219 119.532 45.7605ZM122.306 33.4071L119.257 35.1935L119.376 39.7615C119.899 40.0417 120.404 40.3223 120.89 40.6034C121.413 40.8836 121.954 41.1082 122.511 41.2773L122.502 40.9471C122.316 40.8785 122.148 40.7911 121.998 40.6848C121.884 40.5409 121.824 40.3772 121.819 40.1938C121.807 39.7168 122.017 39.2891 122.449 38.9107L122.306 33.4071ZM123.064 41.318C123.395 41.2727 123.687 41.155 123.94 40.9649C124.229 40.7371 124.368 40.4397 124.359 40.0728C124.354 39.8894 124.277 39.7445 124.126 39.6383C124.012 39.4944 123.863 39.4248 123.679 39.4296C123.421 39.4363 123.24 39.5695 123.136 39.8292C123.068 40.0512 123.165 40.2323 123.427 40.3724L123.054 40.9328L123.064 41.318ZM125.528 29.7437L125.381 24.075L122.576 22.4955L122.646 25.1923C123.067 25.8056 123.67 26.3039 124.454 26.6875C123.728 27.1102 123.152 27.6575 122.727 28.3294L122.806 31.3564L125.528 29.7437ZM122.015 22.1796C121.94 22.1082 121.791 22.0753 121.57 22.081C121.348 22.0501 121.201 22.0356 121.127 22.0375C120.759 22.047 120.373 22.0937 119.97 22.1776C119.603 22.2239 119.256 22.343 118.929 22.5351L119.215 33.5424L122.262 31.701L122.175 28.3437C121.641 27.66 121.02 27.1437 120.311 26.795C120.966 26.4843 121.56 25.9548 122.094 25.2067L122.015 22.1796Z" fill="#FFED00"/>
<path d="M172.638 25.8226C173.463 23.5249 173.874 21.6233 173.872 20.118C173.906 18.6118 173.636 17.4072 173.059 16.5043C172.482 15.5646 171.69 14.8692 170.684 14.418C169.676 13.9302 168.561 13.5736 167.34 13.3483C166.118 13.123 164.842 12.9541 163.513 12.8418C162.22 12.7285 160.999 12.5582 159.851 12.331L160.195 25.5948C160.881 26.4582 161.728 27.1521 162.737 27.6767C162.691 27.3474 162.682 26.9989 162.71 26.631C162.736 26.2265 162.817 25.8021 162.953 25.358L165.335 19.183C164.931 20.6254 164.979 21.7807 165.481 22.6489C166.018 23.4794 166.828 24.156 167.91 24.6786C168.991 25.1646 170.254 25.5541 171.699 25.847C173.179 26.1023 174.679 26.3755 176.197 26.6665C177.752 26.9566 179.217 27.3225 180.592 27.7641C182.004 28.2048 183.163 28.8356 184.068 29.6565C185.01 30.4399 185.627 31.4886 185.919 32.8028C186.211 34.117 185.996 35.7931 185.275 37.8312C184.895 38.7957 184.48 39.8528 184.031 41.0027C183.619 42.1516 183.223 43.2266 182.844 44.2278C182.292 45.674 181.294 46.9849 179.85 48.1606C178.444 49.3353 176.756 50.3337 174.788 51.1558C172.82 52.0146 170.645 52.6952 168.263 53.1976C165.881 53.7 163.457 54.0016 160.99 54.1023C161.078 54.6507 161.256 55.1051 161.523 55.4653C161.224 55.2895 160.925 55.1137 160.625 54.9378C160.363 54.7611 160.135 54.4916 159.941 54.1295C158.025 54.1425 156.288 53.9489 154.73 53.5488C153.209 53.1476 151.85 52.6138 150.654 51.9473C149.457 51.2807 148.424 50.5181 147.554 49.6595C146.721 48.8 146.053 47.9178 145.551 47.0129C144.971 45.9632 144.632 44.9623 144.533 44.0103C144.472 43.0573 144.558 42.1188 144.792 41.1948C145.027 40.3075 145.353 39.3995 145.771 38.4708C146.225 37.5044 146.642 36.5206 147.021 35.5194C147.18 37.3511 147.517 38.9946 148.034 40.4498C148.587 41.9041 149.357 43.1508 150.342 44.19C151.365 45.2649 152.621 46.1135 154.111 46.7357C155.638 47.357 157.454 47.7504 159.559 47.9161L159.094 30.0292C158.485 29.274 157.844 28.7032 157.171 28.3168L157.651 46.8091C156.49 46.1049 155.255 45.3659 153.945 44.5921C152.673 43.8541 151.182 43.1952 149.472 42.6154C149.798 42.3867 150.068 42.1777 150.285 41.9885C150.538 41.7984 150.734 41.5546 150.874 41.2573C151.014 40.9966 151.098 40.664 151.124 40.2595C151.186 39.8173 151.208 39.2292 151.189 38.4954L150.983 30.5702C150.286 29.2665 149.285 28.3195 147.98 27.7292C149.252 27.0353 150.202 26.0193 150.83 24.6812L150.738 21.1039C150.722 20.5168 150.543 20.0074 150.201 19.5758C149.894 19.1064 149.497 18.7312 149.011 18.4501C148.56 18.1313 148.057 17.9241 147.502 17.8283C146.983 17.695 146.485 17.6895 146.009 17.812C147.273 16.8246 148.569 15.6344 149.896 14.2415C151.223 12.8119 152.456 11.348 153.596 9.84976C154.789 11.8015 156.432 13.3559 158.526 14.5132C158.09 14.7448 157.767 15.0653 157.556 15.4747C157.346 15.884 157.191 16.3102 157.092 16.7534C156.993 17.1966 156.931 17.6388 156.905 18.08C156.916 18.4836 156.924 18.8138 156.931 19.0707L157.151 27.5463C157.874 27.0135 158.485 26.4102 158.983 25.7364L158.627 12.0323C157.774 11.7974 156.914 11.3241 156.048 10.6122C155.181 9.86371 154.532 8.98102 154.1 7.96418C153.667 6.91065 153.564 5.7568 153.789 4.50262C154.014 3.21174 154.79 1.90653 156.12 0.586993C156.019 0.956769 156.012 1.41588 156.1 1.96434C156.188 2.51279 156.331 3.05981 156.529 3.6054C156.764 4.11334 157.034 4.58364 157.34 5.01628C157.683 5.44798 158.059 5.75029 158.469 5.92324C158.451 5.22611 158.433 4.52898 158.415 3.83185C158.397 3.13472 158.197 2.55244 157.817 2.08501C158.303 2.36612 158.678 2.63175 158.943 2.8819C159.206 3.09535 159.379 3.34789 159.46 3.63951C159.578 3.93017 159.643 4.29565 159.654 4.73594C159.666 5.17623 159.68 5.7266 159.697 6.38703C160.707 6.98498 161.822 7.34157 163.041 7.4568C164.297 7.57107 165.57 7.62983 166.86 7.63308C168.185 7.59868 169.476 7.62027 170.73 7.69786C172.021 7.73779 173.207 7.9824 174.287 8.43167C176.113 9.22874 177.485 10.2762 178.403 11.5742C179.322 12.8721 179.727 14.3119 179.621 15.8934C179.515 17.4749 178.894 19.1249 177.76 20.8433C176.625 22.5616 174.918 24.2214 172.638 25.8226ZM160.777 47.9946C162.805 48.0522 164.902 47.9427 167.069 47.6661C169.236 47.3896 171.307 46.9504 173.281 46.3484C175.293 45.7822 177.136 45.0735 178.808 44.2223C180.481 43.3712 181.875 42.3988 182.989 41.3051C182.595 40.324 181.877 39.6267 180.834 39.2131C179.792 38.7996 178.586 38.5004 177.218 38.3156C175.849 38.0942 174.388 37.8934 172.836 37.7134C171.319 37.4957 169.91 37.1285 168.606 36.6115C167.302 36.0579 166.176 35.2427 165.227 34.1659C164.313 33.0514 163.757 31.487 163.557 29.4728C163.177 29.0054 162.923 28.4613 162.796 27.8404C161.779 28.4175 160.951 29.155 160.311 30.0527L160.777 47.9946ZM183.633 40.5724C183.703 38.9918 183.357 37.7341 182.596 36.7993C181.87 35.8268 180.892 35.0627 179.662 34.5072C178.431 33.9517 177.039 33.5289 175.483 33.2388C173.964 32.9111 172.445 32.6017 170.927 32.3107C169.409 32.0196 168 31.689 166.7 31.3189C165.438 30.9477 164.447 30.386 163.727 29.6337C164.243 31.0522 165.099 32.0947 166.296 32.7613C167.492 33.4278 168.794 33.9081 170.202 34.202C171.61 34.4959 173.015 34.6797 174.417 34.7535C175.855 34.7896 177.074 34.8865 178.073 35.0441C178.998 35.2037 179.816 35.4945 180.528 35.9167C181.239 36.3388 181.823 36.8377 182.28 37.4133C182.773 37.9512 183.12 38.5297 183.32 39.1486C183.519 39.7309 183.57 40.262 183.472 40.7418L183.633 40.5724Z" fill="#FFED00"/>
<path d="M198.747 20.6842C199.218 20.3782 199.709 20.1268 200.219 19.93C200.766 19.6955 201.315 19.5711 201.868 19.5568C202.31 19.5453 202.718 19.6632 203.093 19.9105C203.504 20.1201 203.716 20.4818 203.729 20.9955C203.743 21.5458 203.533 21.9735 203.099 22.2785C202.665 22.5835 202.19 22.7427 201.674 22.7561C201.695 22.1314 201.497 21.6041 201.081 21.1743C200.663 20.7079 200.142 20.4828 199.516 20.499C199.405 20.5019 199.277 20.5236 199.13 20.5641C198.984 20.6046 198.856 20.6446 198.747 20.6842ZM187.535 23.178C187.231 22.8188 186.946 22.4774 186.68 22.1539C186.412 21.7936 186.127 21.4522 185.824 21.1297C186.311 21.4475 186.886 21.5978 187.549 21.5806C188.507 21.5557 189.439 21.2745 190.346 20.7369C191.289 20.1617 192.232 19.5498 193.173 18.9012C194.113 18.216 195.055 17.6041 195.999 17.0655C196.979 16.4894 197.985 16.1879 199.016 16.1612C200.194 16.1306 201.181 16.5089 201.975 17.296C202.769 18.0831 203.437 18.947 203.977 19.8876C203.337 19.3901 202.594 19.1524 201.747 19.1744C201.085 19.1916 200.407 19.356 199.715 19.6677C199.059 19.9418 198.405 20.2892 197.752 20.71C197.099 21.0941 196.465 21.5144 195.85 21.971C195.236 22.4275 194.657 22.828 194.113 23.1726L194.253 28.5662C194.75 29.2509 195.352 29.7493 196.06 30.0613C195.298 30.485 194.722 31.014 194.333 31.6482L194.514 38.6378C195.188 39.0609 195.931 39.262 196.741 39.241L197.015 39.1788C196.337 40.0041 195.693 40.7551 195.084 41.4318C194.476 42.1452 193.89 42.9682 193.324 43.9007C192.95 43.6901 192.538 43.4438 192.089 43.1617C191.677 42.9154 191.228 42.6517 190.742 42.3706C190.256 42.1262 189.772 41.9185 189.289 41.7474C188.842 41.5754 188.398 41.4952 187.956 41.5066C187.624 41.5152 187.294 41.5789 186.966 41.6975C187.647 40.9823 187.977 40.1843 187.954 39.3037L187.76 31.8188C187.336 31.1322 186.77 30.5961 186.06 30.2107C186.751 29.8623 187.289 29.316 187.675 28.5716L187.535 23.178ZM193.167 37.8467L193.952 38.2669L193.78 31.6625C193.665 31.482 193.532 31.3385 193.382 31.2323C193.268 31.0884 193.135 30.945 192.984 30.802L193.167 37.8467ZM193.569 23.5171L192.806 23.9225L192.95 29.4812C193.093 29.3306 193.219 29.1988 193.327 29.0859C193.47 28.9353 193.595 28.7668 193.7 28.5805L193.569 23.5171Z" fill="#FFED00"/>
<path d="M217.081 15.6373C217.641 15.9165 218.165 16.215 218.652 16.5328C219.138 16.8139 219.624 17.0767 220.11 17.3211C220.594 17.5288 221.096 17.681 221.614 17.7777C222.132 17.8744 222.703 17.8596 223.326 17.7333C223.003 18.0721 222.755 18.4273 222.58 18.799C222.405 19.134 222.323 19.54 222.335 20.017L222.541 27.9423C222.965 28.6656 223.531 29.1833 224.239 29.4953C223.514 29.9547 222.976 30.5011 222.624 31.1344L222.805 38.124C223.295 38.5519 223.672 38.8725 223.936 39.086C224.2 39.3362 224.668 39.6177 225.339 39.9308L221.389 43.1725C220.641 42.7513 219.894 42.3668 219.148 42.019C218.439 41.7069 217.628 41.6729 216.713 41.917C217.251 41.3523 217.551 40.8305 217.612 40.3516C217.673 39.8727 217.694 39.2663 217.675 38.5325C217.655 39.1572 217.393 39.7147 216.89 40.2051C216.386 40.6955 215.79 41.1332 215.1 41.5182C214.447 41.939 213.775 42.3053 213.083 42.617C212.428 42.9277 211.901 43.1984 211.501 43.429C211.054 43.2204 210.568 42.9576 210.044 42.6408C209.556 42.323 209.033 42.0245 208.473 41.7453C207.914 41.5028 207.338 41.3158 206.745 41.1843C206.19 41.0886 205.638 41.1212 205.089 41.2823C205.771 40.5671 206.1 39.7691 206.077 38.8885L205.913 32.5593C205.902 32.1557 205.782 31.7917 205.553 31.4672C205.323 31.1427 205.022 30.8935 204.649 30.7196L217.317 24.7183L217.231 21.4161C216.783 21.1708 216.221 20.8365 215.547 20.4134C214.873 19.9904 214.278 19.7855 213.762 19.7989C213.357 19.8094 212.862 19.8773 212.275 20.0027C211.726 20.1271 211.27 20.3041 210.907 20.5338L211.04 25.6522L204.81 28.4024L205.648 26.6183L205.571 23.6463C205.549 22.8024 205.147 22.207 204.364 21.8602L217.081 15.6373ZM217.648 37.4868L217.351 26.0392L214.418 28.0429L214.485 30.6296C214.715 30.9541 214.98 31.2409 215.282 31.4901C215.619 31.7017 215.974 31.8944 216.347 32.0683C215.983 32.2613 215.639 32.4905 215.315 32.756C215.027 33.0204 214.776 33.3207 214.564 33.6566L214.598 34.9775L214.984 34.9124C215.72 34.8933 216.316 35.1349 216.771 35.6371C217.263 36.1383 217.556 36.7549 217.648 37.4868ZM212.204 32.1758C212.932 31.8265 213.508 31.3158 213.933 30.6439L213.873 28.3324L211.158 30.2203L211.346 37.4301C211.795 37.7121 212.244 37.9758 212.693 38.2212C213.178 38.4656 213.663 38.71 214.149 38.9545L214.139 38.5692C213.769 38.5054 213.451 38.33 213.185 38.0432C212.957 37.7554 212.837 37.4097 212.827 37.0061C212.816 36.6025 212.936 36.2322 213.185 35.8953C213.434 35.5584 213.723 35.3123 214.05 35.1569L214.012 33.6709C213.515 32.9862 212.912 32.4879 212.204 32.1758ZM214.704 39.0502L214.98 39.043C215.312 39.0344 215.622 38.9346 215.912 38.7435C216.238 38.5147 216.395 38.1986 216.385 37.7949C216.381 37.6482 216.323 37.5212 216.209 37.414C216.095 37.2701 215.946 37.2005 215.762 37.2053C215.467 37.213 215.323 37.3452 215.33 37.602L215.726 37.9773C215.441 38.3518 215.097 38.5627 214.693 38.6099L214.704 39.0502Z" fill="#FFED00"/>
<path d="M232.699 42.934C232.286 42.651 231.835 42.2956 231.345 41.8677C230.893 41.4756 230.385 41.0849 229.822 40.6956C229.297 40.3421 228.737 40.0445 228.141 39.803C227.583 39.5972 227.028 39.5381 226.478 39.6258C227.017 39.0978 227.318 38.6127 227.38 38.1705C227.441 37.6916 227.462 37.0853 227.443 36.3515L232.465 33.908L232.535 36.6048C232.647 36.6754 232.836 36.8357 233.1 37.0858C233.401 37.335 233.703 37.6026 234.005 37.8884C234.343 38.1367 234.644 38.3675 234.908 38.581C235.208 38.7935 235.395 38.8988 235.469 38.8969L235.41 36.6404C234.913 35.9557 234.311 35.4573 233.603 35.1452C234.365 34.7216 234.941 34.1926 235.33 33.5583L235.269 31.1918L226.426 35.4967C226.879 34.4936 227.132 33.5875 227.185 32.7784C227.274 31.9683 227.305 31.0129 227.276 29.9122C227.084 29.6234 226.856 29.354 226.592 29.1038C226.327 28.8537 226.027 28.6412 225.691 28.4663C226.381 28.0813 226.884 27.5726 227.199 26.9402L227.099 23.0877C227.089 22.684 226.968 22.2833 226.736 21.8854C226.542 21.4866 226.257 21.1819 225.883 20.9713L238.218 14.9236C238.594 15.2076 239.027 15.5635 239.517 15.9914C240.006 16.3825 240.514 16.7732 241.04 17.1635C241.602 17.516 242.162 17.8136 242.721 18.0561C243.316 18.2609 243.889 18.3195 244.439 18.2318C243.972 18.6845 243.689 19.1508 243.591 19.6306C243.493 20.1105 243.452 20.6623 243.469 21.286C244.123 20.9386 244.888 20.5883 245.763 20.2352C246.637 19.8453 247.455 19.4019 248.215 18.9048C249.012 18.3701 249.659 17.7475 250.157 17.037C250.691 16.3256 250.946 15.4929 250.921 14.5389C250.872 12.631 249.889 11.7018 247.975 11.7515C247.128 11.7735 246.417 12.0673 245.842 12.633C245.304 13.1977 245.046 13.902 245.068 14.7459C245.089 15.5897 245.364 16.2435 245.892 16.7071C246.42 17.1707 247.106 17.3365 247.95 17.2044C247.441 17.4746 246.948 17.616 246.469 17.6284C245.622 17.6504 244.969 17.3369 244.51 16.6879C244.05 16.0022 243.81 15.2925 243.791 14.5587C243.764 13.4946 244.11 12.6412 244.83 11.9983C245.587 11.3178 246.48 10.9642 247.511 10.9374C248.064 10.9231 248.582 11.0198 249.066 11.2275C249.587 11.3976 250.054 11.6608 250.469 12.0172C250.882 12.3369 251.206 12.7508 251.441 13.2587C251.711 13.729 251.853 14.2393 251.867 14.7897C251.884 15.4134 251.752 16.041 251.474 16.6724C251.231 17.2662 250.896 17.8256 250.467 18.3507L258.765 14.3353C259.141 14.6193 259.574 14.9752 260.064 15.4031C260.553 15.7943 261.061 16.185 261.587 16.5752C262.112 16.9288 262.654 17.2268 263.213 17.4693C263.808 17.6741 264.399 17.7322 264.986 17.6436C264.447 18.1716 264.147 18.675 264.085 19.1539C264.023 19.5961 264.002 20.1841 264.021 20.9179L258.999 23.3613L258.929 20.6645C258.817 20.594 258.61 20.4342 258.309 20.185C258.044 19.9348 257.743 19.6856 257.405 19.4374C257.103 19.1515 256.801 18.9023 256.501 18.6898C256.237 18.4764 256.069 18.3706 255.995 18.3725L256.054 20.629C256.551 21.3137 257.153 21.8121 257.861 22.1242C257.099 22.5478 256.523 23.0768 256.134 23.7111L256.195 26.0776L265.038 21.7727C264.83 22.2921 264.657 22.7372 264.52 23.1079C264.382 23.4787 264.281 23.8484 264.217 24.2173C264.19 24.5851 264.163 24.9713 264.136 25.3759C264.147 25.7795 264.159 26.2565 264.174 26.8068C264.365 27.0956 264.593 27.365 264.858 27.6152C265.122 27.8653 265.423 28.0778 265.759 28.2527C265.469 28.4438 265.18 28.6716 264.892 28.9361C264.64 29.1629 264.426 29.4438 264.251 29.7788L264.365 34.1817C264.389 35.099 264.794 35.8228 265.582 36.3531L253.246 42.3458C252.87 42.0618 252.437 41.7059 251.947 41.278C251.457 40.8869 250.931 40.4966 250.369 40.1074C249.844 39.7538 249.283 39.4563 248.687 39.2147C248.129 39.0089 247.575 38.9499 247.024 39.0376C247.419 38.6235 247.667 38.2315 247.768 37.8618C247.906 37.491 247.988 37.1034 248.014 36.6988L241.848 39.7777C241.339 40.048 240.831 40.3365 240.323 40.6434C239.852 40.9494 239.419 41.3094 239.024 41.7235C238.63 42.1376 238.31 42.5865 238.064 43.0702C237.857 43.5896 237.761 44.1612 237.777 44.7849C237.8 45.6655 238.058 46.3748 238.551 46.9127C239.044 47.4507 239.751 47.7077 240.671 47.6838C241.555 47.6609 242.284 47.3482 242.858 46.7459C243.433 46.1802 243.709 45.4571 243.686 44.5765C243.665 43.7693 243.372 43.1344 242.807 42.6717C242.28 42.2081 241.612 42.0602 240.806 42.228C241.277 41.9221 241.789 41.7619 242.341 41.7476C243.151 41.7266 243.786 42.0405 244.245 42.6895C244.705 43.3752 244.944 44.0849 244.964 44.8187C244.991 45.8828 244.626 46.7367 243.869 47.3805C243.15 48.0601 242.256 48.4137 241.188 48.4414C240.673 48.4548 240.154 48.3581 239.633 48.1513C239.113 47.9812 238.646 47.7364 238.232 47.4166C237.855 47.096 237.532 46.7005 237.262 46.2302C237.029 45.759 236.905 45.2481 236.89 44.6978C236.863 43.6337 237.169 42.6345 237.808 41.7C238.447 40.7655 239.182 39.9938 240.014 39.3847L232.699 42.934ZM243.818 34.77C243.829 35.1736 243.931 35.5565 244.125 35.9186C244.355 36.2798 244.621 36.5849 244.922 36.8341L247.978 35.3229L247.977 35.2679L252.071 33.2891L255.781 31.4305L255.741 29.8895L247.118 34.1336C247.4 33.6123 247.586 33.0016 247.679 32.3016C247.77 31.565 247.827 30.921 247.85 30.3696C247.427 29.683 246.86 29.147 246.15 28.7615C246.804 28.4141 247.342 27.8494 247.764 27.0674L247.645 22.4994C247.632 21.9857 247.434 21.4585 247.052 20.9177L235.703 26.6094L235.723 27.3799L244.346 23.1358C243.893 24.1389 243.644 25.2101 243.6 26.3494C243.987 27.0737 244.554 27.6097 245.3 27.9575C244.646 28.3049 244.107 28.8696 243.686 29.6516L243.818 34.77ZM236.19 38.9883C236.595 38.9778 237.036 38.9296 237.512 38.8438C238.026 38.7571 238.465 38.6172 238.828 38.4242L238.598 29.5633L235.814 30.9022L235.882 33.544C236.379 34.2287 236.982 34.7271 237.69 35.0392C236.927 35.4628 236.351 35.9918 235.962 36.626L236.024 38.9926L236.19 38.9883ZM255.441 18.3318L255.11 18.3404C254.705 18.3509 254.264 18.3991 253.787 18.4849C253.346 18.533 252.962 18.6531 252.636 18.8452L252.866 27.7061L255.65 26.3671L255.581 23.7254C255.085 23.0407 254.482 22.5423 253.774 22.2302C254.465 21.8819 255.041 21.3529 255.501 20.6433L255.441 18.3318ZM235.12 25.468L235.112 25.1377C234.69 24.5245 234.088 24.0261 233.304 23.6426C234.067 23.2189 234.643 22.69 235.032 22.0557L234.959 19.2488C234.698 19.1455 234.42 19.0792 234.125 19.0502C233.829 19.0211 233.534 19.0104 233.239 19.0181C232.834 19.0286 232.449 19.0937 232.084 19.2133L232.282 26.8634L235.12 25.468ZM256.505 38.0206C256.767 38.1606 257.027 38.2457 257.286 38.2757C257.581 38.3047 257.858 38.3159 258.116 38.3092C258.336 38.3035 258.557 38.2794 258.777 38.237C258.997 38.1945 259.198 38.1343 259.38 38.0561L259.2 31.1215L256.582 32.4561C257 32.9593 257.526 33.3495 258.16 33.6268C257.397 34.0505 256.821 34.5794 256.432 35.2137L256.505 38.0206ZM238.382 21.2528L235.52 19.5647L235.584 22.0414C236.081 22.7261 236.683 23.2245 237.392 23.5365C236.629 23.9602 236.053 24.4892 235.664 25.1234L235.667 25.2335L238.448 23.7845L238.382 21.2528ZM254.072 33.7329C254.219 33.6924 254.364 33.5968 254.507 33.4462L253.034 34.2004L253.081 36.0166L255.944 37.7047L255.88 35.228C255.383 34.5433 254.781 34.0449 254.072 33.7329ZM256.328 31.196L259.165 29.7456L259.126 28.2596L256.287 29.6L256.328 31.196ZM232.319 28.2943L232.338 29.0098L235.177 27.6694L235.157 26.8989L232.319 28.2943Z" fill="#FFED00"/>
<path d="M273.697 41.76C273.136 41.4441 272.612 41.1273 272.125 40.8095C271.639 40.5284 271.134 40.2661 270.612 40.0227C270.128 39.8149 269.626 39.6444 269.106 39.511C268.588 39.4143 268.017 39.4291 267.394 39.5554C268.076 38.8401 268.405 38.0422 268.382 37.1616L268.194 29.8968C267.771 29.2102 267.204 28.6741 266.494 28.2887C267.184 27.9036 267.722 27.3389 268.108 26.5946L268.029 23.5676C268.006 22.6503 267.584 22.0371 266.766 21.7279L279.389 14.0205C279.838 14.2658 280.306 14.5474 280.793 14.8652C281.317 15.182 281.841 15.4805 282.364 15.7607C282.923 16.0032 283.48 16.1907 284.037 16.3231C284.592 16.4188 285.144 16.3862 285.692 16.2251C285.19 16.7521 284.856 17.3666 284.69 18.0685C284.56 18.7328 284.505 19.4501 284.525 20.2207C284.544 20.9545 284.6 21.7057 284.694 22.4743C284.786 23.2062 284.84 23.8657 284.856 24.4527L277.016 29.0621L277.159 34.5657L277.82 34.4935C278.336 34.4801 278.801 34.6516 279.215 35.008C279.629 35.3277 279.879 35.7434 279.966 36.2552L279.813 30.3663L278.422 30.0169L284.897 26.0488C284.908 26.4891 284.888 27.1138 284.835 27.9229C284.781 28.6953 284.766 29.5035 284.787 30.3474C284.809 31.1913 284.922 31.9777 285.125 32.7068C285.364 33.3982 285.763 33.8651 286.322 34.1076C284.143 35.3391 282.001 36.5879 279.897 37.8541C277.83 39.1194 275.763 40.4214 273.697 41.76ZM276.472 29.4066L273.423 31.193L273.542 35.761C274.065 36.0412 274.569 36.3218 275.056 36.6029C275.579 36.8831 276.119 37.1077 276.676 37.2768L276.668 36.9466C276.482 36.878 276.314 36.7906 276.163 36.6843C276.049 36.5404 275.99 36.3768 275.985 36.1933C275.972 35.7163 276.182 35.2886 276.615 34.9103L276.472 29.4066ZM277.23 37.3175C277.56 37.2722 277.852 37.1545 278.105 36.9644C278.394 36.7366 278.534 36.4392 278.524 36.0723C278.519 35.8889 278.442 35.744 278.292 35.6378C278.178 35.4939 278.028 35.4243 277.844 35.4291C277.586 35.4358 277.406 35.569 277.302 35.8287C277.234 36.0507 277.331 36.2318 277.592 36.3719L277.22 36.9323L277.23 37.3175ZM279.693 25.7432L279.546 20.0745L276.742 18.495L276.812 21.1918C277.233 21.8051 277.835 22.3035 278.619 22.687C277.893 23.1097 277.318 23.657 276.893 24.3289L276.972 27.3559L279.693 25.7432ZM276.181 18.1792C276.105 18.1077 275.957 18.0748 275.736 18.0806C275.514 18.0496 275.366 18.0351 275.293 18.037C274.924 18.0465 274.539 18.0933 274.135 18.1772C273.768 18.2234 273.421 18.3426 273.095 18.5346L273.38 29.5419L276.428 27.7005L276.341 24.3433C275.807 23.6595 275.186 23.1432 274.476 22.7945C275.132 22.4838 275.726 21.9543 276.259 21.2062L276.181 18.1792Z" fill="#FFED00"/>
<path d="M299.348 18.0736C299.819 17.7677 300.31 17.5163 300.821 17.3195C301.367 17.085 301.917 16.9606 302.469 16.9463C302.911 16.9348 303.319 17.0527 303.694 17.3C304.105 17.5096 304.317 17.8713 304.331 18.3849C304.345 18.9353 304.135 19.363 303.701 19.668C303.266 19.973 302.791 20.1322 302.276 20.1455C302.297 19.5208 302.099 18.9936 301.682 18.5638C301.265 18.0973 300.743 17.8722 300.117 17.8885C300.006 17.8913 299.878 17.913 299.732 17.9535C299.585 17.9941 299.457 18.0341 299.348 18.0736ZM288.137 20.5675C287.833 20.2082 287.547 19.8668 287.281 19.5433C287.014 19.1831 286.729 18.8417 286.425 18.5191C286.913 18.8369 287.488 18.9872 288.151 18.97C289.108 18.9452 290.04 18.664 290.948 18.1264C291.891 17.5512 292.833 16.9393 293.774 16.2907C294.715 15.6054 295.657 14.9935 296.601 14.455C297.581 13.8788 298.586 13.5774 299.617 13.5506C300.796 13.52 301.782 13.8983 302.576 14.6855C303.371 15.4726 304.038 16.3365 304.578 17.277C303.939 16.7796 303.196 16.5419 302.349 16.5639C301.686 16.5811 301.008 16.7455 300.316 17.0572C299.66 17.3312 299.006 17.6786 298.354 18.0994C297.7 18.4836 297.066 18.9039 296.452 19.3604C295.837 19.817 295.258 20.2175 294.714 20.5621L294.854 25.9556C295.351 26.6403 295.953 27.1387 296.662 27.4508C295.899 27.8745 295.323 28.4034 294.934 29.0377L295.116 36.0273C295.79 36.4504 296.532 36.6514 297.342 36.6304L297.617 36.5682C296.938 37.3936 296.294 38.1446 295.685 38.8213C295.078 39.5347 294.491 40.3576 293.926 41.2902C293.552 41.0796 293.14 40.8333 292.69 40.5512C292.279 40.3049 291.83 40.0412 291.343 39.7601C290.858 39.5156 290.373 39.3079 289.89 39.1369C289.443 38.9649 288.999 38.8846 288.557 38.8961C288.226 38.9047 287.896 38.9683 287.567 39.087C288.249 38.3717 288.578 37.5738 288.555 36.6932L288.361 29.2082C287.938 28.5216 287.371 27.9856 286.661 27.6002C287.352 27.2518 287.891 26.7054 288.277 25.9611L288.137 20.5675ZM293.768 35.2362L294.553 35.6564L294.382 29.052C294.267 28.8714 294.134 28.728 293.984 28.6218C293.869 28.4779 293.737 28.3344 293.586 28.1915L293.768 35.2362ZM294.17 20.9066L293.407 21.3119L293.551 26.8706C293.695 26.72 293.82 26.5883 293.928 26.4753C294.071 26.3247 294.196 26.1563 294.302 25.97L294.17 20.9066Z" fill="#FFED00"/>
<path d="M308.854 12.9254L312.876 3.89913L309.095 5.1538L304.48 4.117L308.854 12.9254ZM311.195 28.5607L311.359 34.8899L312.037 35.4781L311.836 27.7179L311.195 28.5607ZM312.376 27.2082L312.601 35.904C312.715 36.0112 312.902 36.1532 313.165 36.33C313.463 36.4691 313.816 36.5701 314.223 36.633C313.931 36.7507 313.607 37.0161 313.249 37.4293C312.929 37.8782 312.609 38.3271 312.289 38.776C312.007 39.2606 311.742 39.708 311.495 40.1183C311.284 40.5277 311.125 40.7888 311.017 40.9017C310.681 40.7269 310.307 40.498 309.894 40.2149C309.519 39.9677 309.107 39.703 308.657 39.4209C308.246 39.1746 307.817 38.9654 307.37 38.7934C306.96 38.6205 306.553 38.5393 306.148 38.5498C305.816 38.5584 305.486 38.622 305.158 38.7407C305.839 38.0254 306.169 37.2275 306.146 36.3469L305.946 28.6418C305.522 27.9185 304.955 27.4008 304.247 27.0887C304.937 26.7037 305.475 26.139 305.861 25.3946C305.826 24.0371 305.734 22.6259 305.586 21.1611C305.474 19.6954 305.531 18.3538 305.758 17.1363C305.984 15.9188 306.511 14.9138 307.338 14.1213C308.164 13.2921 309.534 12.8527 311.449 12.803L312.001 12.7887L312.358 26.5478L312.975 26.8623L312.376 27.2082ZM311.793 26.0668L311.468 13.5185C311.15 14.0408 310.962 14.6147 310.904 15.2404C310.884 15.8651 310.881 16.4893 310.898 17.1131L311.109 25.2585L311.793 26.0668Z" fill="#FFED00"/>
<path d="M321.22 40.5268C320.659 40.211 320.135 39.8941 319.648 39.5763C319.161 39.2952 318.657 39.0329 318.135 38.7895C317.65 38.5817 317.148 38.4112 316.629 38.2778C316.111 38.1811 315.54 38.1959 314.917 38.3222C315.598 37.607 315.928 36.809 315.905 35.9284L315.716 28.6636C315.293 27.977 314.727 27.441 314.016 27.0555C314.707 26.6705 315.245 26.1058 315.631 25.3614L315.552 22.3344C315.528 21.4171 315.107 20.8039 314.288 20.4947L326.912 12.7873C327.36 13.0326 327.828 13.3142 328.316 13.632C328.84 13.9489 329.363 14.2474 329.886 14.5275C330.446 14.77 331.003 14.9575 331.559 15.0899C332.114 15.1857 332.666 15.153 333.215 14.9919C332.713 15.5189 332.379 16.1334 332.213 16.8353C332.082 17.4996 332.027 18.217 332.047 18.9875C332.066 19.7213 332.123 20.4725 332.216 21.2411C332.309 21.973 332.363 22.6325 332.378 23.2196L324.538 27.8289L324.681 33.3325L325.343 33.2603C325.858 33.2469 326.323 33.4184 326.738 33.7748C327.151 34.0945 327.402 34.5103 327.489 35.022L327.336 29.1331L325.945 28.7837L332.42 24.8156C332.431 25.2559 332.41 25.8806 332.358 26.6897C332.304 27.4621 332.288 28.2703 332.31 29.1142C332.332 29.9581 332.445 30.7446 332.648 31.4736C332.887 32.165 333.286 32.6319 333.845 32.8744C331.666 34.1059 329.524 35.3547 327.42 36.621C325.352 37.8862 323.286 39.1882 321.22 40.5268ZM323.995 28.1734L320.946 29.9598L321.064 34.5279C321.587 34.808 322.092 35.0886 322.578 35.3697C323.102 35.6499 323.642 35.8745 324.199 36.0437L324.19 35.7134C324.004 35.6448 323.836 35.5574 323.686 35.4512C323.572 35.3073 323.512 35.1436 323.508 34.9601C323.495 34.4831 323.705 34.0555 324.137 33.6771L323.995 28.1734ZM324.753 36.0844C325.083 36.0391 325.375 35.9213 325.628 35.7312C325.917 35.5034 326.056 35.2061 326.047 34.8392C326.042 34.6557 325.965 34.5108 325.815 34.4046C325.7 34.2607 325.551 34.1911 325.367 34.1959C325.109 34.2026 324.928 34.3358 324.825 34.5955C324.757 34.8176 324.853 34.9986 325.115 35.1387L324.743 35.6991L324.753 36.0844ZM327.216 24.5101L327.069 18.8413L324.264 17.2619L324.334 19.9587C324.755 20.5719 325.358 21.0703 326.142 21.4538C325.416 21.8765 324.84 22.4238 324.416 23.0957L324.494 26.1227L327.216 24.5101ZM323.703 16.946C323.628 16.8745 323.48 16.8416 323.259 16.8474C323.037 16.8164 322.889 16.8019 322.815 16.8038C322.447 16.8134 322.061 16.8601 321.658 16.944C321.291 16.9902 320.944 17.1094 320.617 17.3014L320.903 28.3087L323.95 26.4673L323.863 23.1101C323.33 22.4263 322.708 21.9101 321.999 21.5613C322.654 21.2506 323.249 20.7211 323.782 19.973L323.703 16.946Z" fill="#FFED00"/>
</svg>
