<svg width="231" height="60" viewBox="0 0 231 60" fill="none" xmlns="http://www.w3.org/2000/svg">
<path d="M8.87724 46.8501C9.49686 47.209 10.1978 47.4137 10.9802 47.4642C12.2249 47.5445 13.4734 47.2883 14.7257 46.6957C16.0136 46.1054 17.3061 45.4445 18.6031 44.713C19.8979 44.0167 21.2248 43.3758 22.5838 42.79C23.9428 42.2043 25.3158 41.9561 26.7027 42.0456C27.9474 42.1259 29.0482 42.4982 30.0052 43.1624C30.9955 43.8643 31.8712 44.6827 32.6322 45.6179C31.8484 45.0357 30.9587 44.7125 29.9629 44.6483C28.4694 44.5519 27.0952 44.8177 25.8406 45.4456C24.586 46.0735 23.3446 46.7732 22.1164 47.5446C20.8882 48.316 19.6291 49.0145 18.3389 49.6401C17.0842 50.268 15.7101 50.5338 14.2165 50.4374C13.7542 50.4076 13.2064 50.3191 12.5732 50.172C11.9399 50.0248 11.3467 49.8093 10.7937 49.5255C10.2406 49.2418 9.76439 48.8743 9.36497 48.4233C8.99884 48.0098 8.83626 47.4854 8.87724 46.8501ZM10.3599 21.3742C9.07965 21.2916 7.83315 20.9631 6.62037 20.3887C5.40759 19.8142 4.34843 19.0725 3.44291 18.1635C2.5041 17.2169 1.78777 16.1428 1.29392 14.9414C0.764504 13.7377 0.543053 12.4652 0.629569 11.124C0.725191 9.64155 1.15296 8.26917 1.91287 7.00683C2.63721 5.74219 3.56469 4.65014 4.69528 3.73069C5.82588 2.81124 7.08506 2.11273 8.47283 1.63517C9.89844 1.12462 11.3403 0.916363 12.7983 1.01041C14.0429 1.0907 15.2195 1.39696 16.3278 1.92921C17.474 2.42845 18.5022 3.09729 19.4123 3.93572C20.5525 3.97383 21.5512 4.26863 22.4084 4.82011C23.3011 5.37388 24.0379 6.13026 24.6188 7.08922C24.8891 6.2206 25.246 5.39301 25.6896 4.60645C26.1687 3.82219 26.6811 3.07551 27.2268 2.36642C27.19 4.59691 27.608 6.69724 28.4808 8.66742C29.3914 10.6046 30.5412 12.4332 31.93 14.1531C33.3567 15.84 34.9147 17.4291 36.604 18.9203C38.2956 20.3762 39.885 21.7547 41.3723 23.0556C42.8974 24.3236 44.2138 25.5072 45.3213 26.6065C46.4311 27.6705 47.1342 28.6727 47.4306 29.6134L48.7373 10.1867C48.7805 9.5161 48.9615 8.92526 49.2801 8.41418C49.6366 7.8701 50.0574 7.43649 50.5424 7.11336C51.0653 6.75722 51.6348 6.51042 52.2507 6.37293C52.8689 6.20016 53.4803 6.13327 54.0848 6.17227L55.1483 6.29403C54.8569 6.38156 54.5732 6.62907 54.2969 7.03656C54.0229 7.40875 53.7811 7.83618 53.5714 8.31884C53.364 8.76622 53.191 9.23353 53.0525 9.72078C52.9162 10.1727 52.8389 10.5399 52.8207 10.8223L51.5892 29.0842L52.3804 28.4441L53.4595 11.7141C53.5051 11.0082 53.3648 10.4143 53.0388 9.93255C53.5896 10.2516 53.9958 10.5968 54.2576 10.9681C54.5216 11.3041 54.6308 11.8251 54.5853 12.531L53.5573 28.4668C53.7525 28.763 53.9688 29.0073 54.2064 29.1998C54.4795 29.3946 54.7526 29.5895 55.0257 29.7843C54.4007 30.063 53.8588 30.4356 53.4002 30.9022L52.1025 51.0206C52.057 51.7265 52.1972 52.3203 52.5232 52.8021C52.008 52.4853 51.6362 52.1601 51.4077 51.8264C51.177 51.5279 51.0208 51.1812 50.9392 50.786C50.8909 50.4285 50.8981 50.0391 50.961 49.6178C51.0239 49.1966 51.0735 48.7036 51.11 48.1389L52.2267 30.8265L51.5243 30.0901L50.2812 49.3613C50.222 50.279 50.363 51.1387 50.7041 51.9405C51.0807 52.7445 51.6443 53.4188 52.3947 53.9634L43.9666 53.4197C44.821 52.9078 45.3833 52.2175 45.6536 51.3489C45.9216 50.5155 46.0852 49.64 46.1444 48.7224L46.322 45.9693C45.9117 46.7935 45.4727 47.5094 45.005 48.1172C45.2525 47.6016 45.3957 47.0437 45.4344 46.4437C45.5095 45.2789 45.3065 44.2735 44.8255 43.4273C44.3444 42.5811 43.7177 41.7786 42.9453 41.02C42.2062 40.2989 41.3771 39.5897 40.4579 38.8925C39.5765 38.1622 38.7531 37.3648 37.9875 36.5003C37.2575 35.638 36.66 34.6602 36.1949 33.567C35.732 32.4384 35.5507 31.0976 35.6509 29.5446C35.6827 29.0505 35.7502 28.5587 35.8532 28.0691C35.9562 27.5796 36.1291 27.1123 36.3721 26.6672C35.4242 25.8617 34.4419 25.0364 33.4251 24.1911C32.4083 23.3457 31.4116 22.4663 30.435 21.5527C29.4962 20.6061 28.6119 19.6452 27.782 18.6702C26.9544 17.6599 26.237 16.6035 25.6296 15.5011L24.9637 25.825C25.4001 26.81 26.048 27.5607 26.9074 28.0769C25.9509 28.5114 25.2131 29.1549 24.6939 30.0075C24.6597 30.5369 24.6062 31.3663 24.5334 32.4958C24.4605 33.6252 24.4387 34.7934 24.468 36.0003C24.4973 37.2073 24.5856 38.3294 24.7329 39.3667C24.9136 40.4416 25.2248 41.1528 25.6666 41.5003C24.1972 41.5827 22.8174 41.9368 21.5272 42.5624C20.237 43.188 19.0111 43.9241 17.8495 44.7707L18.9116 28.3054L18.1114 28.2538L17.881 28.5047L16.9555 42.8523C16.91 43.5582 17.0491 44.1697 17.3728 44.6868C16.7865 44.3654 16.3636 44.0014 16.1042 43.5948C15.878 43.2258 15.7877 42.6883 15.8332 41.9824L16.6802 28.8526C16.2588 28.1874 15.7206 27.6742 15.0654 27.313C15.7661 26.9683 16.3658 26.5285 16.8646 25.9936L17.3188 18.9522C16.4038 19.8501 15.3259 20.5072 14.0849 20.9233C12.8462 21.3042 11.6045 21.4544 10.3599 21.3742ZM18.0108 26.4929L18.1571 26.715L19.0106 26.77L20.141 9.2459C20.1934 8.4341 20.108 7.54254 19.885 6.57122C19.6643 5.5646 19.2154 4.77363 18.5383 4.19832C18.0117 4.05803 17.4639 3.96953 16.8949 3.93283C15.8992 3.8686 14.8554 3.9962 13.7635 4.31563C12.7072 4.63736 11.7306 5.106 10.8339 5.72156C9.93716 6.33712 9.1747 7.08539 8.54652 7.96636C7.9539 8.84963 7.62344 9.8207 7.55514 10.8796C7.5005 11.7266 7.62252 12.6029 7.92122 13.5082C8.21992 14.4135 8.64878 15.2386 9.20779 15.9835C9.80464 16.6954 10.4972 17.3072 11.2855 17.8188C12.0761 18.2951 12.9337 18.563 13.8583 18.6227C14.4629 18.6617 15.0599 18.5407 15.6494 18.2597C16.2767 17.9458 16.6131 17.4359 16.6587 16.7299C16.6882 16.2711 16.5922 15.8219 16.3706 15.3823C16.1846 14.945 15.9062 14.5549 15.5355 14.212C15.2027 13.8361 14.8108 13.545 14.3599 13.3387C13.9468 13.0994 13.5091 12.9648 13.0468 12.935C12.7623 12.9167 12.4933 12.9348 12.2398 12.9893C12.0219 13.0461 11.7851 13.1195 11.5293 13.2093L11.5532 12.8387C11.6192 11.8151 11.9561 11.0217 12.5638 10.4584C13.1715 9.89504 13.991 9.64664 15.0223 9.71316C15.5201 9.74528 16.0123 9.86563 16.4988 10.0742C16.9852 10.2828 17.415 10.5409 17.7879 10.8485L18.0236 7.19543C18.0441 6.87778 18.0279 6.57547 17.9749 6.28852C17.9243 5.96627 17.8192 5.65823 17.6596 5.3644C18.2769 5.75864 18.693 6.22851 18.9078 6.774C19.1248 7.28419 19.2318 7.84044 19.2287 8.44276C19.2611 9.04737 19.2212 9.66504 19.1091 10.2958C18.997 10.9265 18.9205 11.5595 18.8795 12.1948C19.2584 12.9636 19.4194 13.7891 19.3625 14.6715C19.3056 15.5539 19.0531 16.4237 18.605 17.2808L18.5482 17.3303L18.0108 26.4929ZM29.4507 52.5897C28.8461 52.5507 28.2719 52.3187 27.7279 51.8938C27.184 51.4688 26.9325 50.9387 26.9735 50.3034C26.9985 49.9151 27.1658 49.5361 27.4754 49.1662C27.8182 48.8339 28.203 48.6815 28.6297 48.709C29.092 48.7388 29.4317 49.0088 29.6488 49.519C29.253 49.5644 28.9394 49.7214 28.7078 49.99C28.4762 50.2586 28.349 50.5693 28.3263 50.9223C28.3103 51.1694 28.35 51.3846 28.4453 51.5679C28.5406 51.7513 28.7305 51.8521 29.015 51.8705C29.584 51.9072 30.0289 51.6524 30.3499 51.106C30.7063 50.5619 30.9005 50.0428 30.9324 49.5487C30.9848 48.7369 30.7412 48.0832 30.2019 47.5877C29.6602 47.1274 29.016 46.8732 28.2692 46.825C28.0914 46.8136 27.8591 46.8163 27.5723 46.8332C27.2855 46.8502 27.0143 46.9036 26.7585 46.9934C26.5027 47.0832 26.2814 47.193 26.0945 47.3227C25.9053 47.4877 25.8027 47.6938 25.7868 47.9408L25.5201 47.9236C25.8282 47.022 26.3383 46.3106 27.0504 45.7895C27.7981 45.2706 28.6698 45.0433 29.6655 45.1075C30.6612 45.1718 31.5475 45.5479 32.3245 46.236C33.1014 46.9241 33.4557 47.7975 33.3874 48.8564C33.3556 49.3505 33.2181 49.8201 32.9752 50.2652C32.7655 50.7479 32.4892 51.1554 32.1464 51.4877C31.8013 51.8553 31.3908 52.1301 30.9148 52.312C30.4722 52.5316 29.9841 52.6241 29.4507 52.5897ZM46.6703 40.5691L47.1813 33.4782C46.9224 34.1703 46.539 34.8545 46.0312 35.5306C45.5612 36.1736 44.9936 36.6687 44.3285 37.0156C44.7944 37.5419 45.2404 38.1023 45.6662 38.6968C46.0944 39.2561 46.4291 39.8802 46.6703 40.5691ZM37.0314 27.2413C36.9389 28.1214 37.1154 28.9834 37.5609 29.8273C38.0064 30.6712 38.5798 31.4702 39.2811 32.2243C39.9823 32.9784 40.7214 33.6995 41.4984 34.3876C42.2776 35.0403 42.9524 35.6509 43.5228 36.2194C43.613 35.3746 43.4176 34.5291 42.9365 33.6829C42.491 32.839 41.9188 32.0223 41.2198 31.2329C40.5564 30.4459 39.8362 29.7083 39.0592 29.0202C38.2823 28.3321 37.6064 27.7392 37.0314 27.2413Z" fill="#FFED00"/>
<path d="M65.9709 27.46L65.7319 31.166C66.0866 31.756 66.606 32.2857 67.2899 32.7551C66.5513 33.1328 65.9682 33.5913 65.5406 34.1308L65.3084 37.731L65.6285 37.7516C66.3041 37.7952 66.8394 38.0778 67.2343 38.5995C67.6291 39.1211 67.8428 39.6843 67.8752 40.2889L68.8348 25.4119C68.3552 25.0974 67.8256 24.7266 67.2461 24.2993C66.6689 23.8368 66.0958 23.5871 65.5268 23.5504C65.2067 23.5298 64.8798 23.615 64.5461 23.8062C64.2503 23.9643 64.0898 24.2375 64.0648 24.6257C64.0556 24.7669 64.0999 24.9115 64.1975 25.0596C64.295 25.2077 64.4327 25.2874 64.6105 25.2989C64.8595 25.315 64.9919 25.1994 65.0078 24.9524L64.7151 24.5082C64.9535 24.1337 65.3217 23.9625 65.8195 23.9946C66.2463 24.0222 66.6094 24.2051 66.909 24.5434C67.2464 24.8487 67.4003 25.2307 67.3707 25.6896C67.3456 26.0778 67.1973 26.4404 66.9256 26.7773C66.6539 27.1142 66.3357 27.3418 65.9709 27.46ZM63.3959 32.5039C64.0542 32.2628 64.6373 31.8043 65.1451 31.1282L65.3739 27.581L65.1606 27.5672C64.4493 27.5214 63.8963 27.2376 63.5014 26.7159C63.1065 26.1943 62.8763 25.6123 62.8106 24.9701L61.8509 39.8471C62.295 40.1593 62.8234 40.5478 63.4362 41.0127C64.0513 41.4422 64.6433 41.6753 65.2123 41.712C65.5324 41.7327 65.8403 41.6639 66.1362 41.5058C66.4344 41.3124 66.596 41.0215 66.621 40.6333C66.6301 40.4921 66.5847 40.3651 66.4849 40.2524C66.3873 40.1043 66.2496 40.0245 66.0718 40.0131C65.8229 39.997 65.6904 40.1125 65.6745 40.3596L65.9707 40.7508C65.6611 41.1207 65.293 41.2919 64.8662 41.2644C64.4039 41.2346 64.023 41.0505 63.7234 40.7122C63.4239 40.3739 63.2878 39.993 63.3151 39.5694C63.3401 39.1812 63.4885 38.8186 63.7602 38.4817C64.0319 38.1448 64.349 37.9349 64.7114 37.8519L64.9539 34.093C64.5991 33.503 64.0798 32.9733 63.3959 32.5039ZM67.8602 41.3512C67.7103 42.0149 67.3894 42.5613 66.8975 42.9903C66.4033 43.4546 65.8426 43.8438 65.2152 44.1577C64.5879 44.4717 63.9273 44.748 63.2334 44.9868C62.5751 45.2279 61.9879 45.4736 61.4718 45.7238C61.061 45.4492 60.617 45.137 60.1396 44.7872C59.6978 44.4398 59.2193 44.1076 58.7041 43.7909C58.2221 43.5117 57.7012 43.2832 57.1413 43.1053C56.6148 42.965 56.0802 42.9482 55.5377 43.055C55.8805 42.7227 56.1522 42.3858 56.3528 42.0443C56.5533 41.7028 56.6696 41.285 56.7014 40.7909L57.0224 35.8142C56.8674 35.4498 56.6556 35.1349 56.3871 34.8695C56.1563 34.571 55.8866 34.3233 55.578 34.1262C56.2741 33.8521 56.8239 33.3559 57.2274 32.6377L57.5484 27.661C57.5734 27.2728 57.4895 26.9129 57.2966 26.5815C57.1416 26.2171 56.8742 25.934 56.4944 25.7323C56.7524 25.6072 57.1395 25.4195 57.6555 25.1692C58.1739 24.8837 58.71 24.5993 59.2639 24.3161C59.8179 24.0328 60.3328 23.8002 60.8087 23.6183C61.3225 23.4033 61.7039 23.3039 61.9528 23.3199C62.1307 23.3314 62.305 23.3958 62.476 23.5131C62.6493 23.5952 62.7658 23.7268 62.8255 23.9078C62.9755 23.2441 63.2786 22.6966 63.7349 22.2653C64.2291 21.801 64.7898 21.4118 65.4172 21.0979C66.08 20.7862 66.7406 20.5098 67.399 20.2688C68.0928 20.03 68.6978 19.7855 69.2139 19.5352C69.7268 19.8873 70.2042 20.2371 70.646 20.5845C71.0878 20.932 71.5319 21.2442 71.9783 21.5211C72.4625 21.765 72.949 21.9736 73.4377 22.1469C73.9643 22.2872 74.5333 22.3239 75.1447 22.257C74.4258 22.884 74.039 23.6211 73.9843 24.4681L73.6599 29.4977C73.8172 29.8269 74.0112 30.1406 74.2419 30.439C74.4749 30.7022 74.7636 30.9334 75.1078 31.1329C74.3715 31.4752 73.8217 31.9714 73.4584 32.6214L73.1374 37.598C73.1123 37.9863 73.1773 38.3626 73.3324 38.727C73.5253 39.0584 73.8116 39.325 74.1914 39.5267C73.9334 39.6518 73.5452 39.8572 73.0268 40.1427C72.5107 40.393 71.9757 40.6597 71.4218 40.943C70.8679 41.2262 70.334 41.4753 69.8202 41.6903C69.3443 41.8722 68.9818 41.9552 68.7329 41.9391C68.5551 41.9276 68.3796 41.8809 68.2063 41.7988C68.0353 41.6815 67.92 41.5322 67.8602 41.3512Z" fill="#FFED00"/>
<path d="M88.6573 20.4704C88.9947 20.7757 89.3809 21.1551 89.8159 21.6084C90.2531 22.0265 90.7082 22.4457 91.181 22.8661C91.6561 23.2511 92.1524 23.5844 92.6698 23.8659C93.2252 24.1144 93.7896 24.2217 94.3631 24.1878C93.7978 24.6475 93.4648 25.1045 93.3641 25.5587C93.2657 25.9777 93.1937 26.5401 93.1482 27.246L88.0972 29.1531L88.2646 26.5589C88.1624 26.4814 87.9771 26.31 87.7085 26.0445C87.4755 25.7814 87.207 25.516 86.9029 25.2483C86.6366 24.9476 86.368 24.6822 86.0972 24.452C85.8619 24.2242 85.7087 24.108 85.6376 24.1034L85.4976 26.2741C85.9166 26.9745 86.4537 27.5053 87.1089 27.8666C86.3371 28.2067 85.7362 28.6641 85.3063 29.2389L85.1595 31.5154L94.0537 28.1551C93.8084 28.6354 93.6033 29.0475 93.4383 29.3913C93.2733 29.7351 93.1438 30.0811 93.0499 30.4295C92.9916 30.7802 92.9321 31.1485 92.8715 31.5344C92.8465 31.9227 92.8169 32.3815 92.7827 32.9109C92.9423 33.2048 93.1386 33.4832 93.3716 33.7464C93.6046 34.0095 93.8755 34.2396 94.1841 34.4367C93.8882 34.5949 93.5901 34.7883 93.2897 35.017C93.0271 35.2127 92.7966 35.4637 92.5983 35.7699L92.3251 40.0053C92.2682 40.8877 92.5961 41.6177 93.3087 42.1953L80.9016 46.8708C80.5642 46.5655 80.178 46.1861 79.743 45.7328C79.3057 45.3147 78.8329 44.8943 78.3245 44.4717C77.8494 44.0866 77.3354 43.7522 76.7823 43.4684C76.2626 43.2223 75.7337 43.1173 75.1957 43.1534C75.8367 42.6277 76.192 42.1013 76.2617 41.5741C76.3337 41.0117 76.3936 40.3599 76.4414 39.6187L81.4924 37.7116L81.2943 40.7823L83.9055 42.652L84.0592 40.2696C83.6401 39.5691 83.103 39.0383 82.4478 38.677C83.2197 38.337 83.8205 37.8795 84.2504 37.3047L84.3904 35.1341L75.713 38.4553C76.0294 37.9795 76.2625 37.4097 76.4125 36.746C76.5647 36.047 76.6757 35.4339 76.7454 34.9068C76.3975 34.2109 75.8982 33.6471 75.2476 33.2152C75.9082 32.9389 76.4757 32.4439 76.9503 31.7302L77.2337 27.3359C77.2611 26.9124 77.1794 26.5172 76.9888 26.1505C76.8005 25.7485 76.5543 25.4136 76.2502 25.1459L88.6573 20.4704ZM85.1076 24.016L84.7875 23.9954C84.3964 23.9702 83.9673 23.9779 83.5005 24.0187C83.0715 24.0265 82.6912 24.1083 82.3598 24.2641L81.81 32.7879L84.609 31.7457L84.7729 29.2045C84.3539 28.504 83.8168 27.9732 83.1616 27.612C83.8577 27.3379 84.4586 26.8804 84.9642 26.2397L85.1076 24.016ZM84.4184 43.0041C84.6582 43.1613 84.9015 43.2656 85.1481 43.3169C85.4303 43.3706 85.6959 43.4054 85.9449 43.4215C86.1582 43.4353 86.3727 43.4314 86.5884 43.4098C86.804 43.3883 87.003 43.348 87.1854 43.2889L87.7933 33.865L84.9409 34.9038L84.7838 37.3392C85.2029 38.0396 85.74 38.5704 86.3952 38.9317C85.6233 39.2717 85.0225 39.7292 84.5926 40.304L84.4184 43.0041Z" fill="#FFED00"/>
<path d="M133.443 32.2907C134.437 30.1575 134.999 28.3684 135.128 26.9236C135.292 25.4811 135.136 24.3014 134.66 23.3846C134.186 22.4326 133.483 21.6961 132.553 21.1753C131.624 20.6193 130.581 20.1799 129.424 19.8571C128.266 19.5343 127.052 19.2611 125.781 19.0373C124.545 18.8158 123.384 18.546 122.298 18.2278L121.475 30.9871C122.06 31.8755 122.816 32.6154 123.742 33.2067C123.727 32.8868 123.748 32.5515 123.807 32.2008C123.867 31.8148 123.982 31.4147 124.152 31.0003L126.985 25.2819C126.469 26.6309 126.415 27.7439 126.823 28.6208C127.269 29.4647 127.99 30.1846 128.987 30.7806C129.986 31.3412 131.169 31.8251 132.536 32.2322C133.94 32.6063 135.361 32.9993 136.798 33.411C138.271 33.825 139.651 34.3038 140.937 34.8475C142.259 35.3935 143.32 36.1 144.122 36.9668C144.961 37.8007 145.464 38.8609 145.63 40.1476C145.797 41.4343 145.445 43.0242 144.573 44.9173C144.123 45.8097 143.631 46.7881 143.098 47.8524C142.601 48.9191 142.126 49.9163 141.673 50.844C141.015 52.1838 139.94 53.3549 138.447 54.3573C136.989 55.362 135.277 56.173 133.308 56.7904C131.338 57.443 129.183 57.9065 126.845 58.181C124.506 58.4554 122.144 58.5334 119.759 58.415C119.796 58.9491 119.928 59.4006 120.154 59.7696C119.881 59.5747 119.607 59.3799 119.334 59.1851C119.097 58.9926 118.901 58.7141 118.745 58.3497C116.899 58.1951 115.242 57.8578 113.776 57.338C112.345 56.8204 111.082 56.1896 109.988 55.4455C108.893 54.7015 107.964 53.8796 107.201 52.9797C106.473 52.0822 105.906 51.1773 105.501 50.2651C105.034 49.2071 104.794 48.217 104.782 47.2947C104.806 46.3748 104.97 45.4816 105.276 44.6153C105.58 43.7843 105.973 42.9413 106.457 42.0865C106.978 41.1986 107.466 40.2908 107.918 39.3631C107.911 41.1347 108.093 42.7414 108.464 44.183C108.871 45.6269 109.504 46.8905 110.362 47.9737C111.254 49.0945 112.391 50.0184 113.772 50.7455C115.189 51.4749 116.905 52.0108 118.918 52.3533L120.028 35.1468C119.507 34.3689 118.939 33.7652 118.324 33.3357L117.176 51.1245C116.119 50.3475 114.993 49.5306 113.799 48.6738C112.638 47.8546 111.258 47.0923 109.661 46.3867C109.995 46.1956 110.274 46.0187 110.499 45.856C110.759 45.6956 110.97 45.4787 111.13 45.2056C111.288 44.9677 111.398 44.6557 111.458 44.2698C111.557 43.8508 111.629 43.2884 111.674 42.5825L112.166 34.9587C111.608 33.6468 110.726 32.6507 109.52 31.9704C110.806 31.4153 111.809 30.5231 112.531 29.2938L112.753 25.8525C112.79 25.2878 112.662 24.7833 112.369 24.3391C112.114 23.8619 111.765 23.4673 111.321 23.1551C110.914 22.8099 110.448 22.5671 109.921 22.4269C109.433 22.2536 108.954 22.2049 108.484 22.281C109.788 21.4436 111.14 20.4144 112.54 19.1933C113.943 17.937 115.258 16.6396 116.487 15.3012C117.467 17.2783 118.915 18.9134 120.831 20.2066C120.391 20.3908 120.051 20.6702 119.813 21.0447C119.574 21.4192 119.388 21.8147 119.254 22.2314C119.12 22.6481 119.022 23.067 118.959 23.4883C118.934 23.8765 118.913 24.1942 118.897 24.4413L118.371 32.5945C119.114 32.1462 119.755 31.6205 120.294 31.0173L121.145 17.8345C120.343 17.5347 119.555 17.0054 118.783 16.2467C118.013 15.4528 117.464 14.549 117.137 13.5355C116.812 12.4867 116.812 11.3704 117.139 10.1864C117.467 8.96709 118.329 7.78222 119.725 6.63175C119.595 6.97783 119.549 7.41787 119.586 7.95189C119.623 8.48591 119.713 9.02336 119.857 9.56427C120.038 10.0722 120.258 10.5471 120.515 10.989C120.808 11.4331 121.144 11.7561 121.524 11.9578C121.567 11.2872 121.61 10.6166 121.653 9.94597C121.697 9.27536 121.555 8.69916 121.229 8.21738C121.673 8.52957 122.012 8.81722 122.245 9.08035C122.48 9.30817 122.624 9.56556 122.677 9.85252C122.766 10.1418 122.796 10.4982 122.769 10.9217C122.742 11.3452 122.707 11.8747 122.666 12.51C123.588 13.1719 124.631 13.6114 125.795 13.8282C126.995 14.0474 128.216 14.2148 129.459 14.3304C130.739 14.413 131.98 14.5462 133.183 14.7301C134.423 14.8809 135.544 15.2191 136.545 15.7444C138.235 16.6686 139.466 17.7936 140.238 19.1192C141.009 20.4449 141.275 21.862 141.035 23.3706C140.795 24.8791 140.053 26.4084 138.811 27.9586C137.568 29.5088 135.779 30.9528 133.443 32.2907ZM120.085 52.5349C122.034 52.767 124.064 52.8448 126.176 52.7683C128.288 52.6919 130.321 52.4509 132.275 52.0454C134.263 51.6774 136.1 51.1579 137.786 50.4869C139.472 49.816 140.899 49.0042 142.067 48.0518C141.773 47.0759 141.142 46.344 140.174 45.8562C139.205 45.3685 138.07 44.9763 136.768 44.6796C135.468 44.3477 134.078 44.0277 132.598 43.7195C131.156 43.3784 129.83 42.903 128.619 42.2933C127.411 41.6483 126.397 40.7677 125.576 39.6515C124.793 38.5022 124.393 36.9524 124.376 35.002C124.05 34.5202 123.853 33.9759 123.785 33.369C122.755 33.8342 121.893 34.4697 121.198 35.2755L120.085 52.5349ZM142.752 47.4048C142.957 45.894 142.733 44.6568 142.081 43.6932C141.467 42.6967 140.591 41.8782 139.454 41.2378C138.317 40.5974 137.012 40.0701 135.539 39.6561C134.103 39.2091 132.667 38.7798 131.229 38.3681C129.792 37.9564 128.463 37.5162 127.244 37.0477C126.06 36.5815 125.154 35.9559 124.526 35.1712C124.899 36.5775 125.633 37.6527 126.728 38.3967C127.823 39.1407 129.036 39.7151 130.366 40.12C131.697 40.5248 133.035 40.8237 134.379 41.0168C135.762 41.1768 136.927 41.3761 137.876 41.6145C138.754 41.8483 139.517 42.1988 140.165 42.6659C140.814 43.133 141.333 43.6627 141.723 44.255C142.151 44.8142 142.435 45.3996 142.574 46.0111C142.715 46.5873 142.718 47.1014 142.582 47.5533L142.752 47.4048Z" fill="#FFED00"/>
<path d="M152.295 24.469L156.955 16.1572L153.203 17.0316L148.847 15.6342L152.295 24.469ZM153.188 39.6782L152.795 45.7666L153.398 46.3903L153.88 38.9253L153.188 39.6782ZM154.444 38.4833L153.904 46.8483C154.004 46.961 154.173 47.1137 154.41 47.3062C154.686 47.4657 155.017 47.5934 155.403 47.6892C155.112 47.7768 154.776 48.0032 154.395 48.3685C154.048 48.7714 153.701 49.1743 153.353 49.5772C153.039 50.0177 152.745 50.424 152.471 50.7962C152.233 51.1707 152.057 51.4075 151.943 51.5065C151.634 51.3093 151.294 51.057 150.921 50.7494C150.581 50.4794 150.207 50.1894 149.798 49.8795C149.423 49.6072 149.028 49.3691 148.613 49.1651C148.233 48.9634 147.847 48.8499 147.456 48.8247C147.136 48.804 146.813 48.8363 146.486 48.9216C147.205 48.2945 147.591 47.5575 147.646 46.7104L148.124 39.2984C147.778 38.5672 147.278 38.021 146.623 37.6598C147.321 37.3504 147.889 36.8554 148.326 36.1747C148.41 34.8688 148.444 33.5065 148.429 32.0878C148.448 30.6714 148.62 29.3889 148.945 28.2402C149.269 27.0915 149.864 26.1729 150.729 25.4845C151.597 24.7607 152.956 24.4585 154.805 24.5778L155.338 24.6122L154.485 37.8479L155.051 38.2035L154.444 38.4833ZM153.982 37.337L154.761 25.266C154.409 25.7395 154.178 26.274 154.068 26.8694C153.994 27.4672 153.937 28.066 153.899 28.666L153.393 36.5016L153.982 37.337Z" fill="#FFED00"/>
<path d="M167.57 17.4798L168.204 25.9205L161.303 18.2984L167.57 17.4798ZM161.799 52.1422C161.286 51.7901 160.808 51.4403 160.366 51.0929C159.922 50.7807 159.459 50.485 158.977 50.2058C158.529 49.9642 158.06 49.7568 157.571 49.5835C157.08 49.4455 156.529 49.4099 155.918 49.4768C156.637 48.8498 157.023 48.1127 157.078 47.2657L157.529 40.2772C157.181 39.5813 156.682 39.0175 156.031 38.5857C156.729 38.2763 157.297 37.7813 157.734 37.1006L157.922 34.1887C157.979 33.3063 157.626 32.6811 156.864 32.313L169.697 26.0169C170.108 26.2915 170.534 26.6025 170.976 26.95C171.454 27.2998 171.932 27.6319 172.412 27.9464C172.929 28.2278 173.45 28.4564 173.974 28.632C174.501 28.7722 175.036 28.789 175.578 28.6822C175.048 29.1443 174.673 29.7048 174.452 30.364C174.269 30.9901 174.153 31.6738 174.105 32.415C174.06 33.1209 174.049 33.8467 174.072 34.5925C174.098 35.303 174.092 35.9406 174.056 36.5054L166.101 40.2453L165.76 45.5396L166.403 45.528C166.901 45.5601 167.334 45.7652 167.703 46.1434C168.073 46.4863 168.278 46.9071 168.318 47.4059L168.683 41.7409L167.373 41.2843L173.957 38.0407C173.929 38.4643 173.855 39.062 173.734 39.8339C173.615 40.5705 173.529 41.3447 173.477 42.1565C173.425 42.9683 173.465 43.7329 173.597 44.4503C173.767 45.1346 174.111 45.6176 174.628 45.899C172.422 46.8909 170.25 47.9026 168.112 48.9343C166.01 49.9683 163.905 51.0376 161.799 52.1422ZM165.547 40.5286L162.454 41.9771L162.171 46.3714C162.65 46.6859 163.112 46.9992 163.556 47.3114C164.036 47.6259 164.537 47.8885 165.059 48.0994L165.079 47.7818C164.906 47.6997 164.752 47.6012 164.616 47.4861C164.519 47.338 164.476 47.1758 164.487 46.9993C164.517 46.5404 164.756 46.1483 165.206 45.8229L165.547 40.5286ZM165.589 48.1868C165.911 48.1721 166.203 48.0846 166.463 47.9242C166.761 47.7308 166.922 47.4576 166.944 47.1046C166.956 46.9281 166.894 46.7824 166.758 46.6673C166.661 46.5192 166.523 46.4395 166.345 46.428C166.096 46.412 165.91 46.524 165.788 46.7642C165.703 46.9714 165.781 47.1536 166.02 47.3108L165.613 47.8162L165.589 48.1868ZM168.97 37.2937L169.322 31.8406L166.757 30.0803L166.59 32.6745C166.942 33.2997 167.479 33.8306 168.201 34.267C167.465 34.6094 166.863 35.0844 166.395 35.6922L166.207 38.6041L168.97 37.2937ZM166.244 29.7282C166.177 29.653 166.037 29.6086 165.824 29.5948C165.613 29.5457 165.472 29.5189 165.401 29.5143C165.045 29.4914 164.669 29.5026 164.274 29.5479C163.916 29.5603 163.571 29.6444 163.24 29.8002L162.557 40.3888L165.653 38.8873L165.862 35.6578C165.407 34.9551 164.853 34.4055 164.2 34.0089C164.859 33.7679 165.477 33.3116 166.056 32.6401L166.244 29.7282Z" fill="#FFED00"/>
<path d="M188.581 31.5412C189.061 31.2886 189.556 31.0902 190.065 30.9458C190.612 30.7684 191.153 30.697 191.686 30.7314C192.113 30.7589 192.496 30.9077 192.836 31.1777C193.213 31.4147 193.386 31.7802 193.354 32.2744C193.32 32.8038 193.08 33.1959 192.635 33.4508C192.19 33.7056 191.719 33.817 191.221 33.7849C191.295 33.1871 191.151 32.6639 190.787 32.2151C190.425 31.731 189.942 31.4695 189.338 31.4305C189.231 31.4236 189.105 31.4332 188.961 31.4594C188.816 31.4855 188.69 31.5127 188.581 31.5412ZM177.562 32.957C177.3 32.5856 177.055 32.2331 176.827 31.8994C176.601 31.5304 176.356 31.1779 176.092 30.8419C176.533 31.1894 177.074 31.3838 177.714 31.425C178.639 31.4847 179.562 31.2961 180.483 30.8593C181.442 30.3895 182.403 29.8845 183.366 29.3441C184.331 28.7684 185.292 28.2633 186.249 27.8288C187.243 27.3613 188.238 27.1597 189.234 27.2239C190.372 27.2973 191.289 27.7464 191.986 28.571C192.683 29.3957 193.25 30.2829 193.689 31.2327C193.116 30.6996 192.421 30.4066 191.603 30.3539C190.963 30.3126 190.296 30.4113 189.602 30.6501C188.946 30.8559 188.286 31.1323 187.62 31.4792C186.958 31.7909 186.31 32.139 185.678 32.5235C185.046 32.9081 184.454 33.242 183.9 33.5252L183.565 38.7137C183.984 39.4141 184.521 39.9449 185.176 40.3062C184.404 40.6462 183.804 41.1037 183.374 41.6785L182.94 48.4022C183.553 48.8671 184.25 49.1247 185.033 49.1752L185.303 49.1394C184.577 49.8724 183.891 50.537 183.246 51.1333C182.598 51.7649 181.961 52.5036 181.335 53.3492C180.993 53.1145 180.618 52.8422 180.21 52.5323C179.834 52.26 179.425 51.9678 178.981 51.6556C178.534 51.3787 178.086 51.1371 177.635 50.9308C177.219 50.7268 176.798 50.6111 176.372 50.5835C176.051 50.5629 175.728 50.5952 175.401 50.6804C176.12 50.0534 176.507 49.3163 176.561 48.4693L177.026 41.269C176.678 40.5732 176.179 40.0093 175.528 39.5775C176.224 39.3034 176.791 38.826 177.227 38.1454L177.562 32.957ZM181.711 47.5255L182.43 47.9972L182.84 41.6441C182.745 41.4607 182.63 41.3115 182.494 41.1964C182.397 41.0484 182.281 40.8992 182.148 40.7488L181.711 47.5255ZM183.346 33.8085L182.575 34.1309L182.23 39.4782C182.381 39.3462 182.514 39.2307 182.627 39.1316C182.779 38.9996 182.913 38.8488 183.032 38.6792L183.346 33.8085Z" fill="#FFED00"/>
<path d="M197.749 54.3548C197.236 54.0028 196.759 53.653 196.317 53.3055C195.873 52.9933 195.41 52.6976 194.928 52.4185C194.479 52.1769 194.011 51.9694 193.522 51.7961C193.031 51.6581 192.48 51.6226 191.868 51.6895C192.587 51.0624 192.974 50.3254 193.029 49.4783L193.479 42.4898C193.131 41.794 192.632 41.2301 191.982 40.7983C192.68 40.4889 193.248 39.9939 193.684 39.3132L193.872 36.4014C193.929 35.519 193.577 34.8937 192.815 34.5256L205.648 28.2295C206.059 28.5041 206.485 28.8151 206.927 29.1626C207.404 29.5124 207.883 29.8445 208.362 30.159C208.88 30.4405 209.401 30.669 209.925 30.8446C210.451 30.9849 210.986 31.0017 211.529 30.8949C210.999 31.3569 210.623 31.9175 210.402 32.5766C210.219 33.2028 210.104 33.8864 210.056 34.6276C210.01 35.3335 209.999 36.0594 210.022 36.8052C210.048 37.5157 210.043 38.1533 210.006 38.718L202.052 42.458L201.71 47.7523L202.354 47.7406C202.852 47.7727 203.285 47.9779 203.653 48.3561C204.024 48.699 204.229 49.1198 204.268 49.6185L204.633 43.9536L203.324 43.497L209.907 40.2534C209.88 40.6769 209.806 41.2746 209.684 42.0465C209.565 42.7832 209.48 43.5574 209.427 44.3692C209.375 45.181 209.415 45.9455 209.547 46.6629C209.717 47.3473 210.061 47.8302 210.579 48.1117C208.372 49.1035 206.2 50.1153 204.062 51.147C201.96 52.181 199.856 53.2503 197.749 54.3548ZM201.498 42.7412L198.405 44.1898L198.121 48.584C198.601 48.8985 199.063 49.2119 199.507 49.524C199.987 49.8385 200.487 50.1012 201.009 50.3121L201.03 49.9944C200.857 49.9124 200.702 49.8138 200.567 49.6987C200.469 49.5507 200.426 49.3884 200.438 49.2119C200.467 48.7531 200.707 48.361 201.156 48.0355L201.498 42.7412ZM201.539 50.3994C201.862 50.3848 202.153 50.2972 202.413 50.1368C202.712 49.9434 202.872 49.6702 202.895 49.3173C202.906 49.1408 202.844 48.995 202.709 48.88C202.611 48.7319 202.473 48.6521 202.296 48.6407C202.047 48.6246 201.861 48.7367 201.738 48.9768C201.654 49.184 201.731 49.3662 201.971 49.5235L201.563 50.0288L201.539 50.3994ZM204.92 39.5064L205.272 34.0532L202.707 32.2929L202.54 34.8871C202.893 35.5124 203.43 36.0432 204.151 36.4796C203.415 36.822 202.813 37.2971 202.345 37.9049L202.158 40.8167L204.92 39.5064ZM202.194 31.9409C202.128 31.8657 201.988 31.8212 201.775 31.8074C201.563 31.7584 201.422 31.7316 201.351 31.727C200.996 31.704 200.62 31.7152 200.224 31.7606C199.866 31.773 199.522 31.857 199.19 32.0129L198.507 42.6015L201.604 41.1L201.812 37.8705C201.357 37.1677 200.804 36.6181 200.151 36.2216C200.809 35.9805 201.428 35.5242 202.007 34.8527L202.194 31.9409Z" fill="#FFED00"/>
<path d="M224.514 29.2338C224.851 29.5391 225.237 29.9184 225.672 30.3718C226.11 30.7899 226.565 31.2091 227.037 31.6295C227.513 32.0145 228.009 32.3478 228.526 32.6293C229.082 32.8778 229.646 32.985 230.22 32.9512C229.654 33.4109 229.321 33.8679 229.221 34.3221C229.122 34.7411 229.05 35.3035 229.005 36.0094L223.954 37.9165L224.121 35.3223C224.019 35.2448 223.834 35.0733 223.565 34.8079C223.332 34.5448 223.063 34.2794 222.759 34.0117C222.493 33.711 222.224 33.4455 221.954 33.2154C221.718 32.9876 221.565 32.8714 221.494 32.8668L221.354 35.0375C221.773 35.7379 222.31 36.2687 222.965 36.63C222.194 36.97 221.593 37.4275 221.163 38.0023L221.016 40.2788L229.91 36.9184C229.665 37.3988 229.46 37.8109 229.295 38.1547C229.13 38.4984 229 38.8445 228.906 39.1929C228.848 39.5435 228.789 39.9118 228.728 40.2978C228.703 40.6861 228.673 41.1449 228.639 41.6743C228.799 41.9682 228.995 42.2466 229.228 42.5098C229.461 42.7729 229.732 43.003 230.041 43.2001C229.745 43.3583 229.447 43.5517 229.146 43.7804C228.884 43.9761 228.653 44.2271 228.455 44.5332L228.182 48.7687C228.125 49.6511 228.453 50.3811 229.165 50.9587L216.758 55.6342C216.421 55.3289 216.034 54.9495 215.599 54.4962C215.162 54.0781 214.689 53.6577 214.181 53.2351C213.706 52.85 213.192 52.5156 212.639 52.2318C212.119 51.9856 211.59 51.8806 211.052 51.9168C211.693 51.3911 212.048 50.8647 212.118 50.3375C212.19 49.7751 212.25 49.1233 212.298 48.3821L217.349 46.475L217.151 49.5457L219.762 51.4154L219.916 49.0329C219.497 48.3325 218.959 47.8017 218.304 47.4404C219.076 47.1004 219.677 46.6429 220.107 46.0681L220.247 43.8975L211.569 47.2187C211.886 46.7429 212.119 46.1731 212.269 45.5094C212.421 44.8104 212.532 44.1973 212.602 43.6701C212.254 42.9743 211.755 42.4105 211.104 41.9786C211.765 41.7023 212.332 41.2072 212.807 40.4936L213.09 36.0993C213.118 35.6758 213.036 35.2806 212.845 34.9139C212.657 34.5119 212.411 34.177 212.107 33.9093L224.514 29.2338ZM220.964 32.7794L220.644 32.7588C220.253 32.7336 219.824 32.7413 219.357 32.7821C218.928 32.7899 218.548 32.8717 218.216 33.0275L217.666 41.5513L220.465 40.5091L220.629 37.9679C220.21 37.2674 219.673 36.7366 219.018 36.3753C219.714 36.1013 220.315 35.6438 220.821 35.003L220.964 32.7794ZM220.275 51.7674C220.515 51.9247 220.758 52.029 221.005 52.0803C221.287 52.134 221.552 52.1688 221.801 52.1849C222.015 52.1987 222.229 52.1948 222.445 52.1732C222.66 52.1517 222.859 52.1114 223.042 52.0523L223.65 42.6284L220.797 43.6672L220.64 46.1025C221.059 46.803 221.596 47.3338 222.252 47.6951C221.48 48.0351 220.879 48.4926 220.449 49.0674L220.275 51.7674Z" fill="#FFED00"/>
</svg>
