<svg width="105" height="110" viewBox="0 0 105 110" fill="none" xmlns="http://www.w3.org/2000/svg">
<path d="M29.9 96.8C30.0333 97.4667 30.3333 98.0333 30.8 98.5C31.3333 99.0333 31.9 99.4333 32.5 99.7C33.1667 100.033 33.8333 100.267 34.5 100.4C35.2333 100.6 35.9 100.7 36.5 100.7C36.1667 101.233 35.7 101.633 35.1 101.9C34.5667 102.233 33.9333 102.467 33.2 102.6C32.5333 102.8 31.8333 102.933 31.1 103C30.4333 103.067 29.8333 103.1 29.3 103.1C27.3667 103.1 25.4333 102.8 23.5 102.2C21.6333 101.6 19.9333 100.733 18.4 99.6C16.9333 98.4667 15.7 97.0667 14.7 95.4C13.7667 93.8 13.3 91.9333 13.3 89.8C13.3 88.4 13.5667 86.9 14.1 85.3C14.7 83.7667 15.5 82.3333 16.5 81C17.5 79.6667 18.6667 78.5333 20 77.6C21.3333 76.7333 22.7667 76.3 24.3 76.3C25.5 76.3 26.5 76.6 27.3 77.2C28.1667 77.8667 28.6 78.8667 28.6 80.2C28.6 81.2667 28.3667 82.2667 27.9 83.2C27.4333 84.2 26.8 85.0333 26 85.7C25.2667 86.3667 24.4 86.8667 23.4 87.2C22.4 87.5333 21.3667 87.6 20.3 87.4C20.5667 88.9333 21.1667 90.2333 22.1 91.3C23.1 92.3667 24.4 92.9 26 92.9C27.1333 92.9 28.2 92.6333 29.2 92.1C30.2667 91.6333 31.1667 91 31.9 90.2C32.7 89.4 33.3333 88.4667 33.8 87.4C34.2667 86.4 34.5 85.3333 34.5 84.2C34.5 82.3333 34.0333 80.6667 33.1 79.2C32.2333 77.7333 31.1 76.4667 29.7 75.4C28.3 74.3333 26.7333 73.5 25 72.9C23.2667 72.3667 21.5667 72.1 19.9 72.1C17.3667 72.1 14.9333 72.6 12.6 73.6C10.2667 74.6667 8.2 76.0667 6.4 77.8C4.6 79.6 3.16667 81.6333 2.1 83.9C1.03333 86.2333 0.5 88.7 0.5 91.3C0.5 94.0333 1.1 96.5333 2.3 98.8C3.56667 101.067 5.16667 103.033 7.1 104.7C9.1 106.367 11.3333 107.667 13.8 108.6C16.2667 109.533 18.7667 110 21.3 110C24.8333 110 28 109.167 30.8 107.5C33.6667 105.833 36.0667 103.567 38 100.7C39.9333 100.567 41.7 100 43.3 99C44.9 98 46.3667 96.8 47.7 95.4C49.1 94 50.4667 92.5 51.8 90.9C53.1333 89.3 54.5 87.8 55.9 86.4C57.3 85.0667 58.8 83.9333 60.4 83C62.0667 82.1333 63.9 81.7 65.9 81.7C67.1 81.7 68.3333 81.9667 69.6 82.5C68.0667 81.5 66.4333 80.6333 64.7 79.9C63.0333 79.2333 61.2667 78.9 59.4 78.9C57.1333 78.9 55.0333 79.4333 53.1 80.5C51.2333 81.5667 49.4667 82.8667 47.8 84.4C46.1333 85.9333 44.5333 87.5333 43 89.2C41.5333 90.9333 40.0667 92.4667 38.6 93.8C37.2 95.1333 35.7667 96.1 34.3 96.7C32.9 97.3667 31.4333 97.4 29.9 96.8ZM37 37.7C37.6 37.3667 38.1667 36.9667 38.7 36.5C39.3 36.0333 39.8 35.5333 40.2 35V19.7C39.0667 17.9667 37.5333 16.6667 35.6 15.8C33.6667 14.8667 31.6667 14.4 29.6 14.4C28.6667 14.4 27.6 14.6 26.4 15C25.2 15.3333 24.0333 15.8333 22.9 16.5C21.8333 17.1667 20.9 17.9333 20.1 18.8C19.3667 19.6667 19 20.6333 19 21.7C19 22.7 19.3333 23.6 20 24.4C20.7333 25.2 21.6333 25.6 22.7 25.6C23.6333 25.6 24.4333 25.4 25.1 25C25.7667 24.5333 26.2667 23.9667 26.6 23.3C26.9333 22.6333 27.1333 21.9 27.2 21.1C27.3333 20.2333 27.3333 19.4 27.2 18.6L28.6 18.5C30.2 18.5 31.5 19 32.5 20C33.5667 20.9333 34.1 22.2 34.1 23.8C34.1 25.9333 33.3333 27.7 31.8 29.1C30.3333 30.5 28.5333 31.2 26.4 31.2C24.6667 31.2 23.0667 30.8333 21.6 30.1C20.2 29.3 19 28.3 18 27.1C17 25.8333 16.2 24.4333 15.6 22.9C15.0667 21.3 14.8 19.7 14.8 18.1C14.8 16.1 15.1333 14.2 15.8 12.4C16.4667 10.6 17.4 9.03333 18.6 7.7C19.8 6.36667 21.2333 5.3 22.9 4.5C24.5667 3.7 26.4333 3.29999 28.5 3.29999C31.6333 3.29999 34.1 4.03333 35.9 5.5C37.7667 6.96666 39.1667 8.8 40.1 11C41.1 13.2 41.7333 15.6333 42 18.3C42.2667 20.9 42.4 23.4 42.4 25.8V35.7L42.9 36.2H44.4V14.2C44.4 11.8667 43.8333 9.73333 42.7 7.8C41.5667 5.86666 39.8333 4.53333 37.5 3.79999C38.7 2.79999 40 1.93333 41.4 1.2C42.8667 0.399996 44.4 -4.76837e-06 46 -4.76837e-06C48.2 -4.76837e-06 49.9667 0.733329 51.3 2.2C52.7 3.6 53.7333 5.4 54.4 7.6C55.1333 9.8 55.6 12.2333 55.8 14.9C56 17.5667 56.0667 20.1667 56 22.7C56 25.1667 55.9333 27.4 55.8 29.4C55.6667 31.4 55.6 32.8333 55.6 33.7C56.6667 35.5667 58.0333 36.9 59.7 37.7C58.8333 38.1667 58.0333 38.7333 57.3 39.4C56.6333 40.0667 56.0667 40.8333 55.6 41.7V56C55.6 56.8 55.6333 58.3 55.7 60.5C55.7667 62.7 55.9 65 56.1 67.4C56.3667 69.8 56.7 72 57.1 74C57.5667 76.0667 58.1667 77.3667 58.9 77.9C56.1 78.2333 53.5333 79.0667 51.2 80.4C48.8667 81.8 46.6333 83.3667 44.5 85.1L44.4 39.2H42.9L42.4 39.6C42.4 40.6 42.4 42.3667 42.4 44.9C42.4 47.3667 42.3667 50.2333 42.3 53.5C42.3 56.7 42.3 60.1 42.3 63.7C42.3667 67.2333 42.4333 70.5333 42.5 73.6C42.5667 76.6667 42.6667 79.2667 42.8 81.4C43 83.5333 43.2333 84.8 43.5 85.2C42.3667 84.5333 41.5333 83.8667 41 83.2C40.4667 82.6 40.2 81.6333 40.2 80.3V40.4C39.8 39.8667 39.3 39.3667 38.7 38.9C38.1667 38.4333 37.6 38.0333 37 37.7ZM87.0688 43.1V50.1C87.8021 51.1667 88.8354 52.1 90.1688 52.9C88.8354 53.7 87.8021 54.6333 87.0688 55.7V62.5H87.6688C88.9354 62.5 89.9688 62.9667 90.7688 63.9C91.5688 64.8333 92.0354 65.8667 92.1688 67V38.9C91.2354 38.3667 90.2021 37.7333 89.0688 37C87.9354 36.2 86.8354 35.8 85.7688 35.8C85.1688 35.8 84.5688 36 83.9688 36.4C83.4354 36.7333 83.1688 37.2667 83.1688 38C83.1688 38.2667 83.2688 38.5333 83.4688 38.8C83.6688 39.0667 83.9354 39.2 84.2688 39.2C84.7354 39.2 84.9688 38.9667 84.9688 38.5L84.3688 37.7C84.7688 36.9667 85.4354 36.6 86.3688 36.6C87.1688 36.6 87.8688 36.9 88.4688 37.5C89.1354 38.0333 89.4688 38.7333 89.4688 39.6C89.4688 40.3333 89.2354 41.0333 88.7688 41.7C88.3021 42.3667 87.7354 42.8333 87.0688 43.1ZM82.8688 52.9C84.0688 52.3667 85.1021 51.4333 85.9688 50.1V43.4H85.5688C84.2354 43.4 83.1688 42.9333 82.3688 42C81.5688 41.0667 81.0688 40 80.8688 38.8V66.9C81.7354 67.4333 82.7688 68.1 83.9688 68.9C85.1688 69.6333 86.3021 70 87.3688 70C87.9688 70 88.5354 69.8333 89.0688 69.5C89.6021 69.1 89.8688 68.5333 89.8688 67.8C89.8688 67.5333 89.7688 67.3 89.5688 67.1C89.3688 66.8333 89.1021 66.7 88.7688 66.7C88.3021 66.7 88.0688 66.9333 88.0688 67.4L88.6688 68.1C88.1354 68.8333 87.4688 69.2 86.6688 69.2C85.8021 69.2 85.0688 68.9 84.4688 68.3C83.8688 67.7 83.5688 67 83.5688 66.2C83.5688 65.4667 83.8021 64.7667 84.2688 64.1C84.7354 63.4333 85.3021 63 85.9688 62.8V55.7C85.2354 54.6333 84.2021 53.7 82.8688 52.9ZM92.2688 69C92.0688 70.2667 91.5354 71.3333 90.6688 72.2C89.8021 73.1333 88.8021 73.9333 87.6688 74.6C86.5354 75.2667 85.3354 75.8667 84.0688 76.4C82.8688 76.9333 81.8021 77.4667 80.8688 78C80.0688 77.5333 79.2021 77 78.2688 76.4C77.4021 75.8 76.4688 75.2333 75.4688 74.7C74.5354 74.2333 73.5354 73.8667 72.4688 73.6C71.4688 73.4 70.4688 73.4333 69.4688 73.7C70.0688 73.0333 70.5354 72.3667 70.8688 71.7C71.2021 71.0333 71.3688 70.2333 71.3688 69.3V59.9C71.0354 59.2333 70.6021 58.6667 70.0688 58.2C69.6021 57.6667 69.0688 57.2333 68.4688 56.9C69.7354 56.3 70.7021 55.3 71.3688 53.9V44.5C71.3688 43.7667 71.1688 43.1 70.7688 42.5C70.4354 41.8333 69.9021 41.3333 69.1688 41C69.6354 40.7333 70.3354 40.3333 71.2687 39.8C72.2021 39.2 73.1688 38.6 74.1688 38C75.1688 37.4 76.1021 36.9 76.9688 36.5C77.9021 36.0333 78.6021 35.8 79.0688 35.8C79.4021 35.8 79.7354 35.9 80.0688 36.1C80.4021 36.2333 80.6354 36.4667 80.7688 36.8C80.9688 35.5333 81.4688 34.4667 82.2688 33.6C83.1354 32.6667 84.1354 31.8667 85.2688 31.2C86.4688 30.5333 87.6688 29.9333 88.8688 29.4C90.1354 28.8667 91.2354 28.3333 92.1688 27.8C93.1688 28.4 94.1021 29 94.9688 29.6C95.8354 30.2 96.7021 30.7333 97.5688 31.2C98.5021 31.6 99.4354 31.9333 100.369 32.2C101.369 32.4 102.435 32.4 103.569 32.2C102.302 33.4667 101.669 34.9 101.669 36.5V46C102.002 46.6 102.402 47.1667 102.869 47.7C103.335 48.1667 103.902 48.5667 104.569 48.9C103.235 49.6333 102.269 50.6333 101.669 51.9V61.3C101.669 62.0333 101.835 62.7333 102.169 63.4C102.569 64 103.135 64.4667 103.869 64.8C103.402 65.0667 102.702 65.5 101.769 66.1C100.835 66.6333 99.8688 67.2 98.8688 67.8C97.8688 68.4 96.9021 68.9333 95.9688 69.4C95.1021 69.8 94.4354 70 93.9688 70C93.6354 70 93.3021 69.9333 92.9688 69.8C92.6354 69.6 92.4021 69.3333 92.2688 69Z" fill="#E6007E"/>
</svg>
