<svg width="135" height="139" viewBox="0 0 135 139" fill="none" xmlns="http://www.w3.org/2000/svg">
<path d="M54.937 117.526C55.2392 118.172 55.6864 118.676 56.2788 119.035C56.9557 119.446 57.6334 119.713 58.3118 119.835C59.0749 120.009 59.8131 120.081 60.5263 120.051C61.3241 120.072 62.029 120.008 62.641 119.858C62.434 120.486 62.0577 121.01 61.5122 121.431C61.0513 121.904 60.4634 122.3 59.7487 122.619C59.1185 122.989 58.4378 123.3 57.7064 123.55C57.043 123.785 56.4394 123.968 55.8954 124.101C53.9234 124.583 51.8766 124.759 49.7551 124.629C47.7016 124.482 45.7516 124.022 43.9051 123.248C42.1266 122.458 40.5197 121.337 39.0843 119.886C37.7335 118.487 36.7922 116.699 36.2605 114.523C35.9115 113.095 35.8096 111.499 35.9548 109.734C36.1846 108.02 36.6433 106.359 37.331 104.75C38.0186 103.141 38.9261 101.694 40.0535 100.409C41.1974 99.1931 42.5514 98.3939 44.1154 98.0117C45.3393 97.7126 46.4341 97.7693 47.3996 98.1819C48.4498 98.6459 49.1411 99.5579 49.4734 100.918C49.7393 102.006 49.7505 103.084 49.5072 104.152C49.2804 105.289 48.8422 106.296 48.1923 107.176C47.6105 108.039 46.8512 108.765 45.9143 109.354C44.9774 109.943 43.94 110.269 42.8022 110.331C43.4563 111.828 44.3924 113.004 45.6102 113.86C46.8961 114.699 48.355 114.919 49.987 114.52C51.143 114.237 52.1645 113.699 53.0515 112.906C54.0232 112.164 54.7833 111.294 55.3319 110.295C55.9485 109.28 56.3619 108.17 56.572 106.966C56.7987 105.829 56.7708 104.683 56.4883 103.527C56.0231 101.623 55.1316 100.04 53.8141 98.7762C52.5645 97.4962 51.0928 96.4867 49.399 95.7477C47.7051 95.0087 45.8994 94.5492 43.9819 94.3693C42.081 94.2573 40.2805 94.409 38.5805 94.8245C35.9966 95.4559 33.6392 96.5724 31.5085 98.174C29.3944 99.8436 27.6354 101.787 26.2315 104.003C24.8442 106.288 23.889 108.719 23.366 111.297C22.8596 113.943 22.9305 116.592 23.5785 119.244C24.2598 122.032 25.495 124.432 27.2839 126.445C29.1409 128.441 31.2631 130.048 33.6505 131.266C36.1059 132.468 38.7079 133.237 41.4565 133.574C44.2051 133.912 46.8714 133.764 49.4553 133.133C53.0593 132.252 56.0815 130.613 58.5221 128.215C61.0306 125.801 62.9136 122.89 64.171 119.485C66.1098 118.867 67.7705 117.848 69.1532 116.43C70.5359 115.011 71.7328 113.421 72.7438 111.661C73.8228 109.884 74.8429 108.013 75.8041 106.049C76.7653 104.085 77.7854 102.214 78.8644 100.437C79.96 98.7281 81.2075 97.1982 82.6069 95.8474C84.0908 94.548 85.8528 93.6491 87.8928 93.1506C89.1167 92.8514 90.4412 92.816 91.8661 93.0443C90.0529 92.4065 88.1709 91.9296 86.2201 91.6137C84.354 91.3491 82.4689 91.4495 80.5649 91.9148C78.253 92.4797 76.2439 93.5472 74.5378 95.1171C72.8997 96.6703 71.4218 98.4366 70.104 100.416C68.7862 102.395 67.5531 104.426 66.4045 106.508C65.3406 108.642 64.2268 110.572 63.0631 112.297C61.9675 114.006 60.7465 115.349 59.4 116.327C58.1382 117.356 56.6506 117.755 54.937 117.526ZM47.4479 55.4747C47.9768 54.9851 48.4551 54.4359 48.8828 53.827C49.3784 53.2014 49.7638 52.5668 50.0389 51.9231L46.2252 36.3173C44.6372 34.8318 42.7492 33.888 40.5612 33.4859C38.3566 33.0158 36.2003 33.0384 34.0923 33.5535C33.1403 33.7861 32.1022 34.256 30.9779 34.9631C29.837 35.6022 28.7717 36.403 27.7819 37.3655C26.86 38.3113 26.0992 39.326 25.4992 40.4094C24.9672 41.4761 24.8342 42.5535 25.1 43.6415C25.3493 44.6615 25.9136 45.4964 26.793 46.1462C27.7404 46.7794 28.7581 46.9631 29.8461 46.6972C30.7981 46.4646 31.5642 46.0612 32.1445 45.487C32.7082 44.8448 33.0769 44.1422 33.2507 43.3791C33.4246 42.6161 33.4458 41.8182 33.3144 40.9856C33.2344 40.0684 33.0266 39.2184 32.6912 38.4357L34.0943 37.9847C35.7263 37.5859 37.1769 37.7718 38.4461 38.5426C39.7667 39.2287 40.6265 40.3877 41.0253 42.0197C41.557 44.1957 41.2154 46.1888 40.0004 47.9989C38.8533 49.7925 37.1918 50.9551 35.0159 51.4869C33.2479 51.9189 31.5245 51.9437 29.8458 51.5613C28.2184 51.0943 26.7451 50.3734 25.426 49.3987C24.0903 48.356 22.9254 47.1274 21.9312 45.713C20.9884 44.2139 20.3176 42.6484 19.9188 41.0164C19.4203 38.9765 19.2867 36.9554 19.518 34.9533C19.7493 32.9511 20.3108 31.1205 21.2025 29.4614C22.0941 27.8023 23.2902 26.3571 24.7908 25.1257C26.2914 23.8942 28.0956 23.021 30.2036 22.5058C33.3996 21.7248 36.0983 21.858 38.2999 22.9053C40.5694 23.936 42.4544 25.457 43.9547 27.4684C45.5231 29.4631 46.7756 31.7872 47.7123 34.4407C48.6323 37.0262 49.3915 39.5429 49.9897 41.9909L52.4573 52.0887L53.0919 52.4741L54.6219 52.1002L49.1383 29.6605C48.5567 27.2805 47.4469 25.2458 45.8091 23.5563C44.1712 21.8668 42.0709 20.9389 39.5081 20.7725C40.4828 19.4534 41.5928 18.2454 42.838 17.1485C44.1346 15.9669 45.5988 15.1767 47.2308 14.7779C49.4748 14.2295 51.4595 14.5372 53.1851 15.7008C54.962 16.7798 56.4647 18.3582 57.693 20.436C58.9894 22.4972 60.0719 24.8629 60.9406 27.533C61.8093 30.2031 62.5253 32.8384 63.0888 35.439C63.7036 37.955 64.1923 40.2496 64.5548 42.3228C64.9173 44.396 65.2066 45.8746 65.4226 46.7586C66.9759 48.3967 68.7022 49.416 70.6016 49.8166C69.8339 50.5086 69.1592 51.286 68.5773 52.1487C68.0635 52.9949 67.6766 53.9181 67.4167 54.9185L70.981 69.5043C71.1804 70.3202 71.5883 71.8419 72.2047 74.0693C72.821 76.2966 73.5303 78.6094 74.3325 81.0075C75.2027 83.389 76.0911 85.5498 76.9976 87.4901C77.9887 89.4818 78.9248 90.6582 79.8057 91.0194C77.0328 92.0573 74.6226 93.5471 72.5749 95.4886C70.5439 97.4982 68.6565 99.6529 66.9125 101.953L55.3697 55.1602L53.8397 55.534L53.4294 56.0667C53.6787 57.0867 54.119 58.8886 54.7505 61.4726C55.3653 63.9886 56.0458 66.9208 56.7921 70.2694C57.5897 73.5334 58.4372 77.0013 59.3345 80.6733C60.2832 84.2606 61.1737 87.6099 62.0061 90.7213C62.8385 93.8326 63.5886 96.4596 64.2563 98.6024C64.9921 100.728 65.5458 101.962 65.9175 102.304C64.5953 101.906 63.5792 101.434 62.869 100.887C62.1754 100.408 61.6625 99.4884 61.3302 98.1285L51.3848 57.431C50.8439 56.9867 50.2093 56.6014 49.481 56.2749C48.8207 55.9319 48.143 55.6651 47.4479 55.4747ZM99.8633 48.5027L101.608 55.6426C102.622 56.5478 103.909 57.2422 105.468 57.7258C104.307 58.8742 103.486 60.0837 103.004 61.3545L104.699 68.2904L105.311 68.1408C106.603 67.8251 107.773 68.0435 108.822 68.7961C109.87 69.5487 110.604 70.4864 111.022 71.6091L104.018 42.9475C102.933 42.6362 101.722 42.2477 100.383 41.7822C99.0274 41.2487 97.8057 41.1149 96.7177 41.3808C96.1058 41.5303 95.5436 41.8839 95.0313 42.4414C94.5704 42.9144 94.4314 43.5248 94.6141 44.2728C94.6806 44.5448 94.8491 44.7919 95.1195 45.014C95.39 45.2362 95.6952 45.3057 96.0352 45.2226C96.5112 45.1063 96.6911 44.8101 96.5747 44.3342L95.7634 43.6677C95.9886 42.82 96.5772 42.2799 97.5291 42.0472C98.3451 41.8478 99.1339 41.9793 99.8954 42.4418C100.708 42.8196 101.223 43.4505 101.439 44.3345C101.622 45.0825 101.558 45.8546 101.248 46.6509C100.938 47.4472 100.477 48.0645 99.8633 48.5027ZM98.0221 59.5454C99.1131 58.7023 99.9345 57.4927 100.486 55.9167L98.8161 49.0828L98.4081 49.1825C97.0481 49.5149 95.8438 49.3048 94.7952 48.5522C93.7466 47.7996 92.9707 46.8362 92.4676 45.6621L99.4717 74.3237C100.489 74.6517 101.709 75.0741 103.132 75.591C104.539 76.0399 105.786 76.1314 106.874 75.8655C107.486 75.7159 108.023 75.4047 108.484 74.9318C108.928 74.3908 109.059 73.7464 108.876 72.9984C108.809 72.7264 108.649 72.5133 108.395 72.3592C108.125 72.137 107.82 72.0675 107.48 72.1506C107.004 72.2669 106.824 72.5631 106.94 73.0391L107.727 73.6035C107.365 74.4844 106.777 75.0246 105.961 75.224C105.077 75.44 104.254 75.3168 103.493 74.8544C102.731 74.3919 102.251 73.7527 102.051 72.9367C101.868 72.1887 101.932 71.4166 102.242 70.6203C102.552 69.824 103.022 69.2407 103.652 68.8706L101.882 61.6287C100.868 60.7235 99.5815 60.029 98.0221 59.5454ZM111.623 73.6242C111.735 74.966 111.457 76.1869 110.789 77.2869C110.137 78.4549 109.317 79.5202 108.327 80.4827C107.337 81.4451 106.263 82.3562 105.104 83.216C104.013 84.0591 103.057 84.8689 102.238 85.6456C101.306 85.369 100.289 85.041 99.1877 84.6616C98.1541 84.2657 97.0609 83.9203 95.908 83.6256C94.8397 83.3822 93.7283 83.2575 92.5738 83.2514C91.504 83.2966 90.4923 83.5799 89.5388 84.1011C89.9846 83.2716 90.2944 82.4753 90.4683 81.7122C90.6421 80.9491 90.6127 80.0916 90.38 79.1396L88.037 69.5517C87.5309 68.9548 86.9476 68.4849 86.2873 68.1418C85.6784 67.7141 85.0264 67.4051 84.3313 67.2146C85.4737 66.2869 86.2105 65.026 86.5415 63.4318L84.1985 53.844C84.0157 53.096 83.6455 52.4658 83.088 51.9535C82.5818 51.3566 81.9132 50.9796 81.0821 50.8224C81.4916 50.4341 82.1059 49.8516 82.925 49.0749C83.7274 48.2303 84.5638 47.3774 85.4343 46.5161C86.3047 45.6549 87.1321 44.9122 87.9163 44.2882C88.752 43.5796 89.4078 43.1671 89.8838 43.0508C90.2238 42.9677 90.5888 42.9866 90.9786 43.1075C91.3518 43.1605 91.648 43.3403 91.8671 43.6471C91.7553 42.3052 91.9995 41.0926 92.5994 40.0092C93.2508 38.8412 94.0714 37.776 95.0612 36.8135C96.119 35.8344 97.1934 34.9233 98.2845 34.0802C99.4435 33.2205 100.433 32.4023 101.252 31.6257C102.421 31.9884 103.523 32.3677 104.556 32.7637C105.59 33.1597 106.607 33.4877 107.607 33.7476C108.659 33.923 109.694 34.0303 110.712 34.0697C111.782 34.0244 112.87 33.7586 113.976 33.2721C113 34.8798 112.711 36.4996 113.11 38.1316L115.478 47.8215C115.967 48.3504 116.517 48.8287 117.126 49.2563C117.718 49.616 118.396 49.8828 119.159 50.0566C117.982 51.1369 117.245 52.3979 116.949 53.8394L119.292 63.4273C119.474 64.1752 119.819 64.8477 120.325 65.4446C120.883 65.9569 121.577 66.2916 122.408 66.4488C121.998 66.8372 121.392 67.4536 120.59 68.2983C119.771 69.0749 118.926 69.8938 118.056 70.7551C117.185 71.6163 116.332 72.4013 115.497 73.1099C114.712 73.7339 114.082 74.1041 113.606 74.2204C113.266 74.3035 112.91 74.3186 112.536 74.2657C112.147 74.1448 111.842 73.9309 111.623 73.6242Z" fill="#009FE3"/>
</svg>
