<svg width="190" height="96" viewBox="0 0 190 96" fill="none" xmlns="http://www.w3.org/2000/svg">
<path d="M20.3 87.1C21.5 87.7 22.8333 88 24.3 88C26.6333 88 28.9333 87.3667 31.2 86.1C33.5333 84.8333 35.8667 83.4333 38.2 81.9C40.5333 80.3667 42.9 78.9667 45.3 77.7C47.7667 76.4333 50.3 75.8 52.9 75.8C55.2333 75.8 57.3333 76.3667 59.2 77.5C61.1333 78.7 62.8667 80.1333 64.4 81.8C62.8667 80.8 61.1667 80.3 59.3 80.3C56.5 80.3 53.9667 80.9667 51.7 82.3C49.4333 83.6333 47.2 85.1 45 86.7C42.8667 88.3667 40.6667 89.8667 38.4 91.2C36.1333 92.5333 33.6 93.2 30.8 93.2C29.9333 93.2 28.9 93.1 27.7 92.9C26.5 92.7 25.3333 92.3667 24.2 91.9C23.1333 91.4333 22.2 90.8 21.4 90C20.6667 89.2 20.3 88.2333 20.3 87.1ZM20 39.1C17.5333 39.1 15.1333 38.6333 12.8 37.7C10.4667 36.7667 8.4 35.5 6.6 33.9C4.8 32.2333 3.36667 30.3 2.3 28.1C1.16667 25.8333 0.599999 23.4333 0.599999 20.9C0.599999 18.1667 1.23333 15.5667 2.5 13.1C3.7 10.6333 5.3 8.46667 7.3 6.6C9.3 4.73333 11.5667 3.26666 14.1 2.2C16.7 1.06666 19.3333 0.499995 22 0.499995C24.3333 0.499995 26.5667 0.899996 28.7 1.7C30.8333 2.5 32.8 3.63333 34.6 5.1C37.4 4.96666 39.8 5.66666 41.8 7.2C43.8 8.66667 45.3333 10.6333 46.4 13.1C47.2667 11.1 48.3667 9.26666 49.7 7.6C51.1 5.86666 52.6333 4.33333 54.3 3C53.9 4.8 53.7 6.63333 53.7 8.5C53.7 11.9667 54.3 15.4667 55.5 19C56.7 22.5333 58.2 26 60 29.4C61.8667 32.8 63.9 36.0667 66.1 39.2C68.3667 42.2667 70.5333 45.1 72.6 47.7C75.4 45.9667 77.7667 43.6333 79.7 40.7C81.7 37.7667 83.5 34.6333 85.1 31.3C86.7667 27.9 88.3333 24.4667 89.8 21C91.2667 17.5333 92.9 14.4 94.7 11.6C96.5667 8.8 98.6667 6.53333 101 4.8C103.333 3 106.167 2.1 109.5 2.1C110.433 2.1 111.3 2.16666 112.1 2.3C112.967 2.43333 113.833 2.6 114.7 2.79999C113.567 2.86666 112.367 3.3 111.1 4.1C109.9 4.83333 108.767 5.8 107.7 6.99999C106.7 8.13333 105.833 9.33333 105.1 10.6C104.433 11.8667 104.1 13.0333 104.1 14.1L104 45.6C104.867 47.2667 106.2 48.5667 108 49.5C106.267 50.4333 104.933 51.7667 104 53.5V53.4L103.9 86.2C103.9 88.0667 104.233 89.8 104.9 91.4C105.633 93 106.833 94.3 108.5 95.3H92.6C94.1333 94.2333 95.1 92.8667 95.5 91.2C95.9 89.6 96.1 87.9333 96.1 86.2L96.3 51H95.2L94.4 51.9C94.4667 58.1 94.4667 64.2333 94.4 70.3C94.3333 76.4333 94.3 82.6 94.3 88.8C94.3 90.1333 94.0333 91.1 93.5 91.7C92.9667 92.3667 92.1667 93 91.1 93.6C91.4333 93.1333 91.7 91.8333 91.9 89.7C92.1 87.6333 92.2333 85.1667 92.3 82.3C92.4333 79.4333 92.5 76.3333 92.5 73C92.5 69.7333 92.4667 66.6333 92.4 63.7C92.3333 60.7 92.2667 58.1333 92.2 56C92.2 53.8 92.2 52.3667 92.2 51.7C91.4 50.8333 90.4667 50.1 89.4 49.5C90.4667 49.0333 91.4 48.3333 92.2 47.4C92.2 46.4 92.1667 45.5 92.1 44.7C92.1 43.9 92.1667 43.1667 92.3 42.5C92.4333 41.7667 92.7 41.1333 93.1 40.6C93.5667 40 94.3 39.4333 95.3 38.9C94.7 39.9 94.4 41 94.4 42.2V47.1L95.2 48H96.3V31.9C95.4333 33.9 94.4333 36.0667 93.3 38.4C92.1667 40.6667 90.8333 42.7667 89.3 44.7C87.7667 46.6333 86 48.2333 84 49.5C82 50.7667 79.7 51.4 77.1 51.4L75.5 51.3C76.1667 52.1 76.8 52.8667 77.4 53.6C78 54.3333 78.5333 55.1 79 55.9C79.4667 56.7 79.8333 57.5667 80.1 58.5C80.4333 59.3667 80.6 60.3667 80.6 61.5C80.6 62.7 80.3667 63.9667 79.9 65.3C79.4333 66.5667 78.7667 67.7667 77.9 68.9C77.1 70.0333 76.1667 71.0333 75.1 71.9C74.0333 72.7667 72.9 73.3333 71.7 73.6C71.9 75.9333 71.4 78.0667 70.2 80C69.0667 81.9333 67.7 83.6667 66.1 85.2C67.1667 83.6 67.7 81.9 67.7 80.1C67.7 77.6333 67.1 75.4 65.9 73.4C64.7 71.4667 63.3667 69.6 61.9 67.8C60.5 65.9333 59.2 64.0333 58 62.1C56.8 60.1 56.2 57.9 56.2 55.5C56.2 54.0333 56.3333 52.5667 56.6 51.1C56.9333 49.6333 57.4667 48.2333 58.2 46.9C56.2667 44.3667 54.3667 41.8 52.5 39.2C50.7 36.5333 49.1333 33.7 47.8 30.7V45.6C48.6667 47.3333 49.9667 48.6333 51.7 49.5C50.0333 50.3667 48.7333 51.7 47.8 53.5C47.8 54.5 47.8 56.0667 47.8 58.2C47.8 60.2667 47.9 62.4667 48.1 64.8C48.3 67.0667 48.6 69.1667 49 71.1C49.4667 73.0333 50.1333 74.3 51 74.9C48.2667 75.2333 45.7333 76.0667 43.4 77.4C41.1333 78.8 38.9333 80.3333 36.8 82V51H35.3L34.8 51.4C34.8 52.2 34.7667 53.4667 34.7 55.2C34.7 56.9333 34.7 58.8667 34.7 61C34.7 63.0667 34.7 65.2667 34.7 67.6C34.7 69.8667 34.7333 72 34.8 74C34.8667 76 34.9667 77.7 35.1 79.1C35.3 80.5667 35.5333 81.5333 35.8 82C34.6667 81.3333 33.8667 80.6667 33.4 80C32.9333 79.3333 32.7 78.3333 32.7 77C32.7 72.8 32.7 68.6667 32.7 64.6C32.7 60.5333 32.6667 56.4 32.6 52.2C31.8667 51.2 30.8333 50.3 29.5 49.5C30.7667 48.9 31.8 48 32.6 46.8V33.7C31 35.5 29.0667 36.8667 26.8 37.8C24.6 38.6667 22.3333 39.1 20 39.1ZM34.8 47.6L35.2 48H36.8V14.9C36.8 13.3667 36.5333 11.7333 36 10C35.4667 8.26666 34.6 6.86666 33.4 5.8C32.8667 5.73333 32.3 5.66666 31.7 5.59999C31.1667 5.53333 30.6333 5.5 30.1 5.5C28.2333 5.5 26.3 5.86666 24.3 6.6C22.3667 7.33333 20.6 8.33333 19 9.6C17.4 10.8667 16.0667 12.3667 15 14.1C14 15.8333 13.5 17.7 13.5 19.7C13.5 21.3 13.8333 22.9333 14.5 24.6C15.1667 26.2667 16.0667 27.7667 17.2 29.1C18.4 30.3667 19.7667 31.4333 21.3 32.3C22.8333 33.1 24.4667 33.5 26.2 33.5C27.3333 33.5 28.4333 33.2 29.5 32.6C30.6333 31.9333 31.2 30.9333 31.2 29.6C31.2 28.7333 30.9667 27.9 30.5 27.1C30.1 26.3 29.5333 25.6 28.8 25C28.1333 24.3333 27.3667 23.8333 26.5 23.5C25.7 23.1 24.8667 22.9 24 22.9C23.4667 22.9 22.9667 22.9667 22.5 23.1C22.1 23.2333 21.6667 23.4 21.2 23.6V22.9C21.2 20.9667 21.7 19.4333 22.7 18.3C23.7667 17.1667 25.2667 16.6 27.2 16.6C28.1333 16.6 29.0667 16.7667 30 17.1C31 17.4333 31.8667 17.8667 32.6 18.4V11.4C32.6 10.8 32.5 10.2 32.3 9.6C32.1667 9 31.9333 8.43333 31.6 7.89999C32.8 8.63333 33.6333 9.46667 34.1 10.4C34.6333 11.3333 34.9333 12.3667 35 13.5C35.1333 14.6333 35.1333 15.8333 35 17.1C34.8667 18.3 34.8 19.5333 34.8 20.8C35.6 22.2 36 23.7333 36 25.4C36 27.0667 35.6333 28.7333 34.9 30.4L34.8 30.5V47.6ZM59.3 95.3C58.2333 95.3 57.1667 94.9333 56.1 94.2C55.0333 93.5333 54.5 92.6 54.5 91.4C54.5 90.6 54.7667 89.8667 55.3 89.2C55.8333 88.5333 56.5333 88.2 57.4 88.2C58.2667 88.2 58.9333 88.6667 59.4 89.6C58.6667 89.6667 58.1 89.9667 57.7 90.5C57.3 91.0333 57.1 91.6333 57.1 92.3C57.1 92.7667 57.2 93.1667 57.4 93.5C57.6 93.9 57.9667 94.1 58.5 94.1C59.5667 94.1 60.3667 93.5333 60.9 92.4C61.5 91.3333 61.8 90.3333 61.8 89.4C61.8 87.9333 61.2667 86.7667 60.2 85.9C59.1333 85.0333 57.9 84.6 56.5 84.6C56.1667 84.6 55.7333 84.6333 55.2 84.7C54.7333 84.8333 54.2333 85 53.7 85.2C53.2333 85.4 52.8333 85.6333 52.5 85.9C52.1667 86.2333 52 86.6 52 87L51.5 87.1C51.9667 85.3667 52.8333 83.9667 54.1 82.9C55.4333 81.8333 57.0333 81.3 58.9 81.3C60.8333 81.3 62.5333 81.9 64 83.1C65.5333 84.3 66.3 85.9 66.3 87.9C66.3 89.8333 65.6333 91.5333 64.3 93C62.9667 94.5333 61.3 95.3 59.3 95.3ZM59.7 49C59.7 50.6667 60.1667 52.4 61.1 54.2C62.1 56 63.2333 57.8 64.5 59.6C65.8333 61.4 67.1 63.2333 68.3 65.1C69.5667 66.9 70.5 68.7 71.1 70.5L71.2 69.3C71.2 67.7 70.7667 66 69.9 64.2C69.0333 62.3333 68 60.4667 66.8 58.6C65.6 56.7333 64.3333 54.9667 63 53.3C61.7333 51.6333 60.6333 50.2 59.7 49ZM133.381 27.6C134.381 28.1333 135.315 28.7 136.181 29.3C137.048 29.8333 137.915 30.3333 138.781 30.8C139.648 31.2 140.548 31.5 141.481 31.7C142.415 31.9 143.448 31.9 144.581 31.7C143.981 32.3 143.515 32.9333 143.181 33.6C142.848 34.2 142.681 34.9333 142.681 35.8V50.2C143.415 51.5333 144.415 52.5 145.681 53.1C144.348 53.9 143.348 54.8667 142.681 56V68.7C143.548 69.5 144.215 70.1 144.681 70.5C145.148 70.9667 145.981 71.5 147.181 72.1L139.881 77.8C138.548 77 137.215 76.2667 135.881 75.6C134.615 75 133.148 74.9 131.481 75.3C132.481 74.3 133.048 73.3667 133.181 72.5C133.315 71.6333 133.381 70.5333 133.381 69.2C133.315 70.3333 132.815 71.3333 131.881 72.2C130.948 73.0667 129.848 73.8333 128.581 74.5C127.381 75.2333 126.148 75.8667 124.881 76.4C123.681 76.9333 122.715 77.4 121.981 77.8C121.181 77.4 120.315 76.9 119.381 76.3C118.515 75.7 117.581 75.1333 116.581 74.6C115.581 74.1333 114.548 73.7667 113.481 73.5C112.481 73.3 111.481 73.3333 110.481 73.6C111.748 72.3333 112.381 70.9 112.381 69.3V57.8C112.381 57.0667 112.181 56.4 111.781 55.8C111.381 55.2 110.848 54.7333 110.181 54.4L133.381 44.1V38.1C132.581 37.6333 131.581 37 130.381 36.2C129.181 35.4 128.115 35 127.181 35C126.448 35 125.548 35.1 124.481 35.3C123.481 35.5 122.648 35.8 121.981 36.2V45.5L110.581 50.2L112.181 47V41.6C112.181 40.0667 111.481 38.9667 110.081 38.3L133.381 27.6ZM133.381 67.3V46.5L127.981 50V54.7C128.381 55.3 128.848 55.8333 129.381 56.3C129.981 56.7 130.615 57.0667 131.281 57.4C130.615 57.7333 129.981 58.1333 129.381 58.6C128.848 59.0667 128.381 59.6 127.981 60.2V62.6L128.681 62.5C130.015 62.5 131.081 62.9667 131.881 63.9C132.748 64.8333 133.248 65.9667 133.381 67.3ZM123.781 57.4C125.115 56.8 126.181 55.9 126.981 54.7V50.5L121.981 53.8V66.9C122.781 67.4333 123.581 67.9333 124.381 68.4C125.248 68.8667 126.115 69.3333 126.981 69.8V69.1C126.315 68.9667 125.748 68.6333 125.281 68.1C124.881 67.5667 124.681 66.9333 124.681 66.2C124.681 65.4667 124.915 64.8 125.381 64.2C125.848 63.6 126.381 63.1667 126.981 62.9V60.2C126.115 58.9333 125.048 58 123.781 57.4ZM127.981 70H128.481C129.081 70 129.648 69.8333 130.181 69.5C130.781 69.1 131.081 68.5333 131.081 67.8C131.081 67.5333 130.981 67.3 130.781 67.1C130.581 66.8333 130.315 66.7 129.981 66.7C129.448 66.7 129.181 66.9333 129.181 67.4L129.881 68.1C129.348 68.7667 128.715 69.1333 127.981 69.2V70ZM189.379 71C189.379 71.8667 189.179 72.7333 188.779 73.6C188.446 74.4667 187.946 75.2333 187.279 75.9C186.612 76.5667 185.846 77.1 184.979 77.5C184.179 77.9 183.346 78.1 182.479 78.1C181.079 78.1 179.679 77.5667 178.279 76.5C176.879 75.4333 175.579 74.1667 174.379 72.7C173.179 71.3 172.079 69.8667 171.079 68.4C170.079 66.9333 169.279 65.8 168.679 65C168.346 65.6667 167.912 66.4667 167.379 67.4C166.846 68.2667 166.312 69.2 165.779 70.2C165.312 71.2 164.879 72.1667 164.479 73.1C164.146 74.1 163.979 75 163.979 75.8C163.979 76.2 164.012 76.5667 164.079 76.9C164.146 77.3 164.246 77.6667 164.379 78C163.312 77.0667 162.079 76.6 160.679 76.6C159.346 76.6 158.012 76.7333 156.679 77C155.412 77.2667 154.112 77.5 152.779 77.7C152.446 77.1 151.946 76.3 151.279 75.3C150.612 74.3667 149.946 73.3667 149.279 72.3C148.612 71.2333 148.012 70.2 147.479 69.2C147.012 68.2 146.779 67.3667 146.779 66.7C146.779 65.9667 146.946 65.1667 147.279 64.3C147.546 63.4333 147.946 62.6667 148.479 62C149.012 61.2667 149.646 60.6667 150.379 60.2C151.112 59.7333 151.879 59.5 152.679 59.5C153.746 59.5 154.579 59.9 155.179 60.7C155.846 61.5 156.179 62.4 156.179 63.4C156.179 64.3333 155.879 65.2 155.279 66C154.679 66.7333 153.879 67.1 152.879 67.1C151.546 67.1 150.812 66.3667 150.679 64.9C150.812 64.9 151.012 64.8333 151.279 64.7C151.546 64.5 151.679 64.3 151.679 64.1C151.679 63.5667 151.446 63.3 150.979 63.3C150.579 63.3 150.246 63.5333 149.979 64C149.712 64.4 149.579 64.8 149.579 65.2C149.579 66.1333 149.912 66.8 150.579 67.2C151.312 67.5333 152.079 67.7 152.879 67.7C153.679 67.7 154.479 67.6 155.279 67.4C156.146 67.2 156.979 67.0333 157.779 66.9L162.579 57.2L150.279 40.7C149.212 39.3667 147.779 38.5333 145.979 38.2C146.979 37.8 147.746 37.2 148.279 36.4C148.879 35.6 149.346 34.7333 149.679 33.8C150.012 32.8 150.279 31.8 150.479 30.8C150.679 29.7333 150.912 28.7667 151.179 27.9C152.912 27.7667 154.712 27.6667 156.579 27.6C158.512 27.5333 160.379 27.5 162.179 27.5C162.912 27.5 163.612 27.7333 164.279 28.2C164.946 28.6 165.546 29.1333 166.079 29.8C166.612 30.4667 167.046 31.1667 167.379 31.9C167.712 32.6333 167.879 33.3333 167.879 34C167.879 34.9333 167.546 35.8 166.879 36.6C166.279 37.3333 165.479 37.7 164.479 37.7H163.879L168.779 44.3C169.179 43.5 169.712 42.4667 170.379 41.2C171.112 39.8667 171.812 38.5 172.479 37.1C173.212 35.6333 173.812 34.2333 174.279 32.9C174.812 31.5667 175.079 30.4333 175.079 29.5C175.079 29.1 175.046 28.7333 174.979 28.4C174.912 28 174.812 27.6333 174.679 27.3C175.812 28.2333 177.079 28.7 178.479 28.7C179.212 28.7 179.946 28.6333 180.679 28.5C181.412 28.3667 182.146 28.2333 182.879 28.1C183.479 29.7667 184.246 31.3667 185.179 32.9C186.179 34.4333 187.246 35.8667 188.379 37.2C187.046 37.2 185.846 37.2667 184.779 37.4C183.712 37.4667 182.546 37.7667 181.279 38.3L174.779 52.7L179.179 58.6C180.179 58.9333 181.146 59.1 182.079 59.1L183.479 59C182.946 60.2667 182.679 61.5 182.679 62.7V63.3L188.079 70.4L189.279 70L189.379 71ZM168.279 45.3C168.146 45.1 167.646 44.5 166.779 43.5C165.912 42.5 164.979 41.4 163.979 40.2C163.046 39 162.179 37.8333 161.379 36.7C160.646 35.5 160.279 34.6 160.279 34C160.279 33.3333 160.479 32.7333 160.879 32.2C161.279 31.6667 161.812 31.4 162.479 31.4C162.746 31.4 163.079 31.4667 163.479 31.6C163.346 31.8667 163.346 32.1333 163.479 32.4C163.679 32.6 163.879 32.7667 164.079 32.9C164.546 32.9 164.779 32.6333 164.779 32.1C164.779 31.5667 164.546 31.1333 164.079 30.8C163.679 30.4 163.212 30.2 162.679 30.2C161.946 30.2 161.346 30.4667 160.879 31C160.479 31.5333 160.112 32.2 159.779 33C159.512 33.7333 159.279 34.5 159.079 35.3C158.946 36.1 158.812 36.7333 158.679 37.2L166.979 47.9L168.279 45.3ZM177.979 62.6C178.179 62.0667 178.312 61.5333 178.379 61C178.446 60.4667 178.479 59.9333 178.479 59.4L174.279 53.8L172.979 56.2L177.979 62.6ZM181.679 63.7C180.879 63.4333 179.979 63.3 178.979 63.3H178.479C178.946 63.9 179.446 64.6333 179.979 65.5C180.512 66.3 181.079 67.1 181.679 67.9C182.346 68.6333 183.046 69.2667 183.779 69.8C184.579 70.3333 185.446 70.6 186.379 70.6H186.879L181.679 63.7Z" fill="#E6007E"/>
</svg>
