<svg width="216" height="142" viewBox="0 0 216 142" fill="none" xmlns="http://www.w3.org/2000/svg">
<path d="M22.1007 93.5672C23.19 94.4604 24.4856 95.0775 25.9874 95.4183C28.3766 95.9605 30.8789 95.8464 33.4943 95.0761C36.1779 94.3213 38.8924 93.43 41.638 92.4021C44.3835 91.3743 47.1323 90.4907 49.8841 89.7514C52.7042 89.0275 55.4454 88.9677 58.1077 89.5719C60.497 90.1141 62.5156 91.1823 64.1637 92.7766C65.8645 94.4546 67.3063 96.3251 68.4891 98.388C67.1514 97.0077 65.5268 96.1007 63.6154 95.6669C60.7483 95.0163 57.9994 95.1102 55.3685 95.9488C52.7377 96.7874 50.1101 97.7702 47.4855 98.8973C44.9138 100.108 42.3125 101.133 39.6817 101.971C37.0509 102.81 34.3019 102.904 31.4348 102.253C30.5474 102.052 29.5125 101.709 28.3302 101.226C27.148 100.742 26.0308 100.13 24.9787 99.3885C23.995 98.6628 23.1864 97.7974 22.5532 96.7923C21.9881 95.8027 21.8373 94.7277 22.1007 93.5672ZM32.9476 44.3472C30.4218 43.774 28.0727 42.7385 25.9004 41.2406C23.728 39.7427 21.9061 37.9654 20.4348 35.9088C18.979 33.7839 17.9605 31.4712 17.3796 28.9706C16.7458 26.3862 16.7232 23.797 17.3119 21.203C17.9471 18.4042 19.1998 15.889 21.07 13.6576C22.8719 11.4107 25.0138 9.5639 27.4955 8.11725C29.9772 6.6706 32.639 5.69551 35.4809 5.19197C38.4065 4.63565 41.2347 4.66733 43.9652 5.287C46.3545 5.82921 48.5484 6.75777 50.5469 8.07268C52.5455 9.38759 54.2959 11.0051 55.7982 12.9252C58.6963 13.4393 60.9912 14.7138 62.6828 16.7486C64.3899 18.7152 65.503 21.0853 66.022 23.8589C67.3742 22.0124 68.9266 20.3907 70.6791 18.994C72.5155 17.5444 74.4419 16.3307 76.4583 15.3527C75.6304 17.1029 74.9996 18.9336 74.5659 20.845C73.7603 24.3948 73.5613 28.1181 73.969 32.0149C74.3767 35.9118 75.1071 39.8101 76.1602 43.7099C77.2815 47.6251 78.6044 51.4425 80.129 55.1622C81.7374 58.8291 83.2976 62.2338 84.8096 65.3763C88.0795 64.2521 91.0451 62.4128 93.7064 59.8585C96.436 57.3196 99.0072 54.5294 101.42 51.488C103.917 48.3938 106.319 45.2423 108.626 42.0334C110.934 38.8245 113.334 35.9956 115.828 33.5468C118.39 31.1134 121.067 29.2804 123.859 28.0478C126.667 26.7469 129.777 26.4837 133.19 27.2583C134.146 27.4752 135.018 27.7448 135.806 28.0673C136.663 28.4052 137.511 28.7772 138.352 29.1834C137.176 28.9883 135.847 29.1532 134.364 29.678C132.965 30.1501 131.58 30.8765 130.208 31.8574C128.921 32.7855 127.755 33.8129 126.71 34.9395C125.733 36.0816 125.12 37.1988 124.872 38.291L117.45 70.5226C117.95 72.4306 119.013 74.0716 120.64 75.4456C118.648 75.9985 116.973 77.054 115.614 78.6119L115.638 78.5095L107.913 112.072C107.479 113.984 107.418 115.836 107.729 117.629C108.108 119.438 109.035 121.048 110.509 122.459L94.2278 118.765C96.0457 118.029 97.3531 116.854 98.15 115.24C98.9314 113.695 99.5235 112.035 99.9263 110.26L108.311 74.2627L107.184 74.0071L106.156 74.7428C104.784 81.1068 103.358 87.3872 101.88 93.5837C100.387 99.8485 98.9197 106.155 97.4789 112.504C97.1691 113.869 96.6714 114.797 95.9859 115.287C95.2849 115.846 94.3185 116.309 93.0869 116.675C93.5366 116.275 94.1118 115.006 94.8123 112.868C95.4973 110.798 96.2071 108.303 96.9415 105.383C97.7441 102.479 98.5328 99.3201 99.3074 95.9069C100.066 92.562 100.753 89.3799 101.366 86.3608C101.995 83.2734 102.523 80.6298 102.951 78.4298C103.462 76.1771 103.795 74.7094 103.95 74.0268C103.332 72.9534 102.547 71.9856 101.594 71.1234C102.795 70.8934 103.913 70.3935 104.949 69.6237C105.181 68.5998 105.356 67.6704 105.474 66.8358C105.66 66.0166 105.899 65.2812 106.19 64.6295C106.497 63.9096 106.917 63.3231 107.451 62.8699C108.068 62.364 108.951 61.9541 110.098 61.6404C109.252 62.5249 108.689 63.5816 108.41 64.8103L107.271 69.8278L107.881 70.9352L109.008 71.1908L112.749 54.705C111.397 56.5516 109.869 58.5378 108.167 60.6637C106.48 62.7213 104.626 64.5618 102.607 66.1851C100.588 67.8085 98.4068 69.0363 96.0645 69.8686C93.7222 70.7008 91.22 70.8149 88.5577 70.2107L86.9425 69.7365C87.4393 70.7106 87.9096 71.6428 88.3536 72.5331C88.7976 73.4235 89.1655 74.3324 89.4575 75.26C89.7494 76.1877 89.9235 77.1603 89.9797 78.178C90.1196 79.1429 90.0579 80.2055 89.7945 81.366C89.5157 82.5948 88.9824 83.8376 88.1947 85.0944C87.4225 86.283 86.461 87.3569 85.3102 88.316C84.2277 89.2905 83.0396 90.0976 81.746 90.7372C80.4524 91.3768 79.1602 91.6936 77.8695 91.6878C77.5321 94.1236 76.5244 96.1918 74.8463 97.8926C73.2366 99.609 71.4344 101.066 69.4397 102.265C70.9038 100.874 71.8449 99.2572 72.2632 97.4141C72.8364 94.8883 72.741 92.462 71.977 90.1353C71.1975 87.8768 70.266 85.6555 69.1824 83.4716C68.1827 81.2348 67.293 78.9872 66.5135 76.7287C65.7495 74.4019 65.6464 72.0098 66.2041 69.5523C66.5449 68.0505 67.0222 66.5796 67.6361 65.1398C68.3183 63.7154 69.1897 62.4058 70.2504 61.2109C68.8595 58.1676 67.5104 55.0979 66.2031 52.0019C64.9797 48.853 64.0339 45.5877 63.3657 42.206L59.9033 57.4631C60.388 59.4393 61.417 61.0726 62.9905 62.3628C61.0825 62.8629 59.4415 63.9261 58.0675 65.5524C57.8352 66.5763 57.4711 68.1806 56.9754 70.365C56.4951 72.4812 56.0863 74.7572 55.7489 77.1929C55.4269 79.5603 55.2461 81.7804 55.2065 83.853C55.235 85.9411 55.6233 87.393 56.3714 88.2088C53.4951 87.915 50.7074 88.1796 48.0083 89.0027C45.362 89.9095 42.753 90.9683 40.1812 92.1792L47.3849 60.4363L45.8489 60.0878L45.244 60.3812C45.0581 61.2003 44.7296 62.4896 44.2586 64.249C43.8558 66.0239 43.4065 68.0035 42.9108 70.188C42.4305 72.3042 41.9193 74.5569 41.3771 76.9461C40.8504 79.2671 40.3888 81.4593 39.9923 83.5227C39.5958 85.5862 39.3032 87.3501 39.1144 88.8147C38.9783 90.363 38.9926 91.407 39.1572 91.9468C38.1517 91.0008 37.4874 90.1323 37.1645 89.3412C36.8415 88.5501 36.835 87.4719 37.1448 86.1066C38.1208 81.806 39.0813 77.5736 40.0263 73.4095C40.9713 69.2454 41.8977 65.0052 42.8054 60.6891C42.2868 59.4947 41.4379 58.333 40.2585 57.204C41.6949 56.884 42.9622 56.2026 44.0602 55.1597L47.1043 41.7458C45.0477 43.2171 42.7505 44.1673 40.2126 44.5962C37.7585 44.9725 35.3368 44.8895 32.9476 44.3472ZM46.127 56.4901L46.4437 56.9926L48.082 57.3644L55.7737 23.4713C56.13 21.9012 56.2365 20.1667 56.0931 18.2679C55.9498 16.3691 55.3877 14.7342 54.4068 13.3631C53.8762 13.1709 53.3114 12.971 52.7125 12.7633C52.1819 12.5711 51.6436 12.413 51.0974 12.2891C49.186 11.8553 47.1212 11.7815 44.9028 12.0676C42.7528 12.3693 40.7114 12.9827 38.7787 13.9079C36.846 14.8332 35.1322 16.0593 33.6372 17.5863C32.2104 19.1288 31.2647 20.924 30.7999 22.9719C30.4281 24.6102 30.3899 26.3602 30.6852 28.2217C30.9806 30.0832 31.5536 31.8283 32.4042 33.457C33.3386 35.0328 34.4902 36.4426 35.8589 37.6864C37.2431 38.8619 38.8226 39.651 40.5974 40.0538C41.7579 40.3171 42.954 40.2656 44.1857 39.8991C45.5011 39.4798 46.3137 38.5875 46.6235 37.2222C46.8249 36.3348 46.7796 35.4272 46.4877 34.4996C46.264 33.5875 45.8464 32.7391 45.235 31.9543C44.7072 31.1167 44.0384 30.4266 43.2284 29.8839C42.5022 29.2884 41.6954 28.8899 40.8079 28.6885C40.2618 28.5646 39.7343 28.5167 39.2255 28.5448C38.7849 28.5883 38.3025 28.6583 37.7782 28.7547L37.9408 28.0379C38.3901 26.0582 39.2584 24.6043 40.5457 23.6762C41.9013 22.7636 43.5689 22.5319 45.5486 22.9812C46.5043 23.1981 47.4212 23.5856 48.2995 24.1438C49.246 24.7175 50.0327 25.3626 50.6597 26.0791L52.2863 18.9114C52.4258 18.297 52.4628 17.6594 52.3974 16.9985C52.4003 16.3532 52.2931 15.7187 52.0757 15.0951C53.134 16.1249 53.7937 17.1719 54.0547 18.236C54.3839 19.3156 54.4509 20.4434 54.2559 21.6194C54.129 22.8109 53.8502 24.0397 53.4193 25.3057C53.0039 26.5035 52.6491 27.7509 52.3547 29.0479C52.8486 30.6673 52.9018 32.3304 52.5145 34.037C52.1272 35.7436 51.3645 37.365 50.2263 38.9012L50.1007 38.9803L46.127 56.4901ZM60.1298 111.026C59.0375 110.779 58.0305 110.155 57.1087 109.156C56.1714 108.226 55.8422 107.146 56.121 105.918C56.3069 105.098 56.7504 104.409 57.4514 103.851C58.1525 103.292 58.9467 103.113 59.8341 103.315C60.7216 103.516 61.2958 104.149 61.5567 105.213C60.7903 105.111 60.1404 105.286 59.6068 105.74C59.0733 106.193 58.7291 106.761 58.5742 107.443C58.4657 107.921 58.4752 108.354 58.6025 108.742C58.7144 109.198 59.0433 109.488 59.5895 109.612C60.6817 109.86 61.6325 109.465 62.442 108.429C63.3043 107.476 63.8438 106.522 64.0607 105.566C64.4015 104.064 64.1265 102.746 63.2357 101.61C62.3448 100.475 61.1827 99.7447 59.7491 99.4193C59.4078 99.3419 58.9563 99.2753 58.3947 99.2196C57.8859 99.2477 57.3352 99.3022 56.7426 99.383C56.2183 99.4794 55.7545 99.6254 55.3512 99.821C54.9324 100.085 54.6765 100.422 54.5836 100.831L54.0483 100.817C54.929 99.1509 56.1417 97.9188 57.6866 97.1209C59.2998 96.3385 61.0621 96.1642 62.9735 96.5979C64.9531 97.0472 66.5544 98.0566 67.7774 99.6262C69.0686 101.211 69.4819 103.028 69.0171 105.076C68.5678 107.055 67.4902 108.641 65.7841 109.833C64.0625 111.093 62.1777 111.491 60.1298 111.026ZM71.2984 63.7098C70.9111 65.4164 70.9862 67.2997 71.5236 69.3598C72.1293 71.4353 72.8715 73.5418 73.7502 75.6792C74.6972 77.8322 75.5682 80.0038 76.3632 82.1941C77.242 84.3316 77.7794 86.3916 77.9755 88.3741L78.3567 87.1686C78.7285 85.5303 78.6799 83.6888 78.2107 81.6443C77.757 79.5315 77.1327 77.38 76.3377 75.1897C75.5427 72.9995 74.6562 70.8962 73.6783 68.8797C72.7685 66.8788 71.9752 65.1555 71.2984 63.7098ZM151.718 58.9188C152.618 59.6973 153.442 60.4944 154.19 61.3102C154.954 62.0577 155.725 62.7711 156.504 63.4503C157.298 64.0613 158.15 64.5776 159.06 64.9993C159.969 65.421 161.027 65.6611 162.234 65.7197C161.48 66.1946 160.855 66.7347 160.359 67.3399C159.878 67.8768 159.537 68.589 159.336 69.4764L155.989 84.2215C156.43 85.7572 157.23 86.9794 158.387 87.8881C156.836 88.3974 155.588 89.1549 154.642 90.1605L151.69 103.165C152.392 104.185 152.935 104.955 153.32 105.473C153.689 106.059 154.419 106.799 155.508 107.692L146.709 111.832C145.529 110.703 144.334 109.642 143.124 108.65C141.966 107.741 140.488 107.298 138.688 107.32C139.945 106.529 140.742 105.705 141.08 104.848C141.418 103.992 141.741 102.881 142.051 101.516C141.72 102.661 140.975 103.568 139.818 104.239C138.661 104.91 137.357 105.439 135.905 105.827C134.506 106.299 133.095 106.661 131.674 106.913C130.322 107.18 129.224 107.433 128.38 107.673C127.653 107.077 126.882 106.364 126.066 105.533C125.318 104.717 124.494 103.92 123.594 103.141C122.678 102.431 121.705 101.815 120.675 101.294C119.698 100.857 118.666 100.659 117.58 100.7C119.171 99.697 120.153 98.3765 120.525 96.7382L123.197 84.9626C123.368 84.2117 123.318 83.4826 123.048 82.7752C122.777 82.0679 122.34 81.4661 121.735 80.9699L147.884 75.8142L149.278 69.6704C148.567 69.0067 147.691 68.1258 146.648 67.0277C145.605 65.9297 144.606 65.2723 143.65 65.0554C142.899 64.885 141.954 64.7782 140.816 64.7352C139.745 64.7076 138.822 64.8211 138.047 65.0758L135.885 74.5986L123.12 76.7622L125.502 73.8573L126.757 68.3279C127.113 66.7578 126.652 65.4688 125.373 64.4608L151.718 58.9188ZM142.493 99.5701L147.326 78.2717L140.984 80.6007L139.891 85.4134C140.162 86.1207 140.515 86.7753 140.953 87.377C141.475 87.926 142.038 88.4487 142.643 88.9449C141.883 89.1313 141.141 89.3937 140.419 89.7322C139.764 90.0861 139.162 90.5237 138.613 91.0452L138.056 93.5027L138.796 93.5629C140.161 93.8728 141.145 94.5985 141.747 95.7401C142.417 96.8972 142.666 98.1739 142.493 99.5701ZM134.963 87.2021C136.468 86.8975 137.769 86.2238 138.867 85.181L139.843 80.8803L133.957 83.0975L130.913 96.5115C131.608 97.2435 132.311 97.9414 133.022 98.6051C133.801 99.2844 134.58 99.9636 135.359 100.643L135.521 99.9261C134.87 99.6346 134.367 99.1616 134.013 98.5071C133.727 97.868 133.67 97.173 133.84 96.4221C134.01 95.6712 134.404 95.0428 135.021 94.5368C135.639 94.0309 136.286 93.7111 136.962 93.5775L137.589 90.8128C136.996 89.3144 136.121 88.1108 134.963 87.2021ZM136.336 101.08L136.848 101.196C137.462 101.336 138.081 101.297 138.705 101.079C139.412 100.809 139.851 100.299 140.022 99.5477C140.083 99.2746 140.035 99.0124 139.877 98.7612C139.734 98.4416 139.492 98.2431 139.151 98.1657C138.605 98.0418 138.277 98.2187 138.169 98.6966L138.723 99.576C138.022 100.135 137.288 100.363 136.522 100.261L136.336 101.08ZM198.973 116.371C198.771 117.259 198.365 118.1 197.754 118.894C197.211 119.704 196.521 120.373 195.684 120.901C194.846 121.428 193.937 121.796 192.957 122.005C192.045 122.228 191.145 122.239 190.257 122.038C188.824 121.713 187.514 120.841 186.329 119.424C185.143 118.006 184.106 116.407 183.218 114.626C182.315 112.914 181.521 111.191 180.838 109.457C180.155 107.722 179.599 106.376 179.171 105.417C178.675 106.023 178.045 106.741 177.282 107.573C176.534 108.336 175.771 109.168 174.993 110.068C174.283 110.984 173.614 111.873 172.988 112.735C172.414 113.682 172.034 114.565 171.848 115.384C171.756 115.794 171.704 116.177 171.695 116.534C171.671 116.959 171.688 117.357 171.747 117.73C170.872 116.526 169.717 115.762 168.284 115.436C166.918 115.126 165.522 114.953 164.095 114.916C162.736 114.895 161.35 114.832 159.939 114.727C159.737 114.035 159.411 113.1 158.96 111.921C158.495 110.81 158.044 109.631 157.61 108.384C157.175 107.137 156.801 105.94 156.487 104.792C156.241 103.659 156.196 102.752 156.351 102.069C156.521 101.318 156.878 100.538 157.421 99.7277C157.895 98.9023 158.483 98.2102 159.184 97.6515C159.9 97.0245 160.688 96.5573 161.548 96.2499C162.407 95.9424 163.246 95.8816 164.065 96.0675C165.158 96.3154 165.918 96.9186 166.346 97.8772C166.843 98.8513 166.975 99.8504 166.743 100.874C166.526 101.83 166.018 102.648 165.217 103.327C164.433 103.939 163.528 104.129 162.504 103.896C161.139 103.586 160.558 102.665 160.763 101.132C160.899 101.163 161.119 101.141 161.424 101.067C161.743 100.924 161.926 100.75 161.973 100.545C162.096 99.9993 161.92 99.672 161.442 99.5636C161.032 99.4706 160.637 99.6321 160.255 100.048C159.889 100.396 159.66 100.774 159.567 101.184C159.35 102.139 159.536 102.9 160.126 103.464C160.799 103.976 161.546 104.325 162.365 104.511C163.184 104.696 164.026 104.78 164.892 104.761C165.826 104.758 166.718 104.781 167.568 104.83L174.737 96.013L165.977 76.2593C165.194 74.6462 163.92 73.4598 162.155 72.7002C163.271 72.523 164.196 72.0868 164.928 71.3915C165.728 70.7118 166.407 69.9328 166.966 69.0546C167.539 68.1081 168.045 67.1461 168.482 66.1686C168.935 65.1228 169.398 64.1872 169.873 63.3617C171.678 63.628 173.545 63.9439 175.472 64.3094C177.467 64.6904 179.386 65.09 181.229 65.5083C181.98 65.6787 182.643 66.0803 183.217 66.7131C183.806 67.2776 184.297 67.9631 184.688 68.7697C185.079 69.5763 185.36 70.3937 185.531 71.2221C185.702 72.0505 185.71 72.806 185.555 73.4886C185.338 74.4443 184.796 75.2543 183.927 75.9185C183.142 76.53 182.238 76.7196 181.214 76.4872L180.6 76.3478L184.083 84.2446C184.679 83.5183 185.465 82.5842 186.442 81.4421C187.503 80.2472 188.537 79.0104 189.545 77.7318C190.637 76.4004 191.577 75.1063 192.364 73.8494C193.22 72.6081 193.757 71.5096 193.974 70.5539C194.066 70.1443 194.118 69.7611 194.127 69.4043C194.151 68.9792 194.134 68.5805 194.075 68.2082C195.019 69.4273 196.207 70.1995 197.641 70.5248C198.392 70.6952 199.158 70.7973 199.94 70.8312C200.722 70.8651 201.504 70.899 202.286 70.9329C202.513 72.7789 202.926 74.5954 203.525 76.3824C204.193 78.1848 204.952 79.9004 205.803 81.529C204.438 81.2192 203.193 81.0086 202.07 80.8972C200.962 80.7176 199.698 80.7537 198.277 81.0055L188.275 94.2401L191.41 101.304C192.356 101.878 193.307 102.273 194.263 102.49L195.72 102.713C194.879 103.886 194.32 105.087 194.041 106.316L193.901 106.93L197.781 115.455L199.103 115.324L198.973 116.371ZM183.339 85.1523C183.249 84.9166 182.876 84.186 182.221 82.9606C181.566 81.7353 180.866 80.392 180.121 78.9309C179.444 77.4853 178.828 76.0892 178.272 74.7429C177.8 73.3437 177.634 72.3369 177.773 71.7225C177.928 71.0399 178.272 70.472 178.806 70.0188C179.339 69.5657 179.947 69.4165 180.63 69.5715C180.903 69.6334 181.229 69.7792 181.608 70.0086C181.409 70.2507 181.347 70.5238 181.422 70.8278C181.58 71.0791 181.746 71.2962 181.92 71.4792C182.398 71.5877 182.699 71.3688 182.823 70.8227C182.946 70.2766 182.808 69.7786 182.408 69.3289C182.091 68.8263 181.66 68.5131 181.114 68.3892C180.363 68.2188 179.686 68.3524 179.085 68.7901C178.551 69.2432 178.021 69.8407 177.494 70.5824C177.05 71.2713 176.633 72.0021 176.242 72.7748C175.92 73.563 175.636 74.1806 175.391 74.6274L181.404 87.5126L183.339 85.1523ZM189.251 105.121C189.58 104.621 189.841 104.106 190.033 103.576C190.225 103.045 190.383 102.507 190.507 101.96L187.508 95.2503L185.619 97.4057L189.251 105.121ZM192.784 107.107C192.027 106.648 191.137 106.302 190.113 106.07L189.601 105.954C189.939 106.677 190.281 107.544 190.625 108.555C190.986 109.498 191.38 110.449 191.808 111.408C192.321 112.314 192.89 113.125 193.517 113.841C194.212 114.573 195.038 115.048 195.994 115.265L196.506 115.381L192.784 107.107Z" fill="#FFED00"/>
</svg>
