<svg width="186" height="138" viewBox="0 0 186 138" fill="none" xmlns="http://www.w3.org/2000/svg">
<path d="M101.277 83.7082C99.179 85.3966 97.7249 87.2814 96.9148 89.3627C96.1602 91.3621 95.473 93.5266 94.8535 95.8563C94.3159 98.2415 93.5721 100.666 92.6222 103.131C91.7542 105.651 90.138 108.174 87.7737 110.698C85.478 113.208 82.1737 115.664 77.8607 118.065C73.561 120.535 67.766 122.831 60.4758 124.951L60.6748 125.982C60.9402 127.357 61.5439 128.452 62.4857 129.268C61.3486 128.918 60.411 128.493 59.673 127.994C58.9483 127.563 58.4044 126.777 58.0413 125.635C56.1832 126.35 53.894 126.864 51.1737 127.175C48.5354 127.542 45.7475 127.688 42.8101 127.613C39.886 127.608 36.9432 127.32 33.9816 126.751C31.0334 126.251 28.3069 125.423 25.8023 124.267C23.2977 123.111 21.1591 121.635 19.3863 119.838C17.6956 118.097 16.6047 115.955 16.1137 113.412C15.5696 110.594 15.6019 107.807 16.2106 105.052C16.888 102.283 18.0508 99.8131 19.699 97.6413C21.3471 95.4694 23.3975 93.719 25.85 92.3899C28.3712 91.0476 31.2247 90.3184 34.4105 90.2024C31.6276 91.6665 29.2915 93.0444 27.4021 94.336C25.5814 95.6143 24.0833 96.9017 22.9077 98.1981C21.7189 99.4257 20.8116 100.635 20.1859 101.825C19.5602 103.015 19.0919 104.282 18.7809 105.625C19.9966 108.599 21.972 110.891 24.7069 112.501C27.5239 114.168 30.6392 115.348 34.053 116.044C37.48 116.808 40.9649 117.133 44.5076 117.02C48.0635 116.975 51.2505 116.68 54.0684 116.136C54.4121 116.07 54.7557 116.003 55.0994 115.937C55.4563 115.939 55.7933 115.839 56.1104 115.635L54.3787 106.665C53.4501 105.918 52.4661 105.252 51.4266 104.669C50.4691 104.141 49.4285 103.736 48.3046 103.454C50.2917 101.929 51.7723 100.182 52.7464 98.2116L51.0942 89.6546C45.3133 87.7765 40.535 84.8136 36.7592 80.766C33.0521 76.7052 30.8896 71.5975 30.2716 65.443C28.0647 62.8748 26.6295 59.8725 25.966 56.4359C25.4883 53.9616 25.5248 51.5663 26.0757 49.2498C26.6265 46.9334 27.1641 44.5482 27.6884 42.0944C26.2389 41.2335 24.8871 40.14 23.6329 38.8137C22.4342 37.4054 21.6822 35.9109 21.377 34.3301C21.178 33.2991 21.2948 32.2428 21.7276 31.1611C22.6514 32.6225 23.8525 33.6738 25.3309 34.3152C26.8648 34.8746 28.4963 35.2012 30.2254 35.2951C31.9413 35.3202 33.665 35.2013 35.3966 34.9383C37.1968 34.662 38.8186 34.3845 40.262 34.1058L39.3662 29.4665C39.1141 28.1606 38.5382 27.0242 37.6386 26.0572C38.8444 26.3947 39.741 26.792 40.3283 27.2489C40.971 27.6239 41.4274 28.1417 41.6976 28.8025C42.0232 29.3812 42.2313 30.0896 42.3218 30.9277C42.4678 31.6837 42.6403 32.5772 42.8394 33.6082C47.0452 32.8674 50.8718 32.3781 54.3193 32.1402C57.8221 31.8204 60.9778 32.1022 63.7862 32.9858C66.6501 33.7874 69.1867 35.2939 71.396 37.5051C73.674 39.7031 75.7188 42.9086 77.5303 47.1216C78.0176 48.1682 78.4638 49.1871 78.8691 50.1782C79.261 51.1006 79.5698 52.1461 79.7954 53.3145C80.3395 56.1324 80.0479 58.684 78.9207 60.9691C77.7935 63.2543 75.6147 64.7087 72.3844 65.3324C71.0097 65.5978 69.6851 65.5684 68.4106 65.2441C67.1227 64.8512 65.9458 64.2942 64.8798 63.5732C63.8692 62.7702 63.0106 61.831 62.3039 60.7554C61.5839 59.6112 61.0978 58.3861 60.8457 57.0802C60.4741 55.1558 60.782 53.2427 61.7694 51.341C62.8123 49.3574 64.4334 48.1532 66.6327 47.7285C68.0074 47.4631 69.2964 47.6776 70.4999 48.3721C71.7721 49.0533 72.5409 50.0811 72.8063 51.4558C73.0319 52.6242 72.7854 53.5629 72.0668 54.272C71.4036 54.8991 70.5289 55.3532 69.4424 55.6342C69.2567 54.672 68.7749 53.8382 67.997 53.1329C67.2747 52.3456 66.3637 52.0581 65.264 52.2704C64.5079 52.4164 63.9081 52.8174 63.4644 53.4734C63.0762 54.0474 62.955 54.7124 63.101 55.4684C63.247 56.2245 63.6413 56.79 64.2841 57.1649C64.9268 57.5399 65.6594 57.8262 66.4818 58.0239C67.2909 58.1528 68.1211 58.2064 68.9724 58.1846C69.8237 58.1628 70.5587 58.0922 71.1772 57.9728C72.2769 57.7604 73.2681 57.3552 74.1507 56.757C75.02 56.0901 75.732 55.3467 76.2866 54.5267C76.8966 53.6247 77.315 52.6527 77.5416 51.6109C77.8369 50.5557 77.885 49.5127 77.686 48.4818C77.195 45.9387 75.7448 44.1512 73.3355 43.1193C70.9129 42.0186 68.1575 41.4099 65.0694 41.2932C61.968 41.1078 58.892 41.2383 55.8413 41.6848C52.7773 42.0625 50.3175 42.4305 48.4618 42.7888L44.7503 43.5054L48.5523 63.1967C51.7864 64.0694 55.6246 64.9324 60.0669 65.7857C64.5092 66.639 68.9504 67.6708 73.3903 68.881C77.8857 70.0093 82.0773 71.41 85.965 73.0834C89.8528 74.7567 92.797 76.8973 94.7977 79.5053C96.322 81.4924 98.4818 82.8934 101.277 83.7082ZM48.2477 74.9119C45.6165 74.2079 43.0276 73.3532 40.4808 72.3478C38.0027 71.3291 35.6844 70.0301 33.5258 68.4507C35.336 70.8103 37.6019 72.7611 40.3236 74.3031C43.032 75.7763 45.8592 76.9415 48.8051 77.7986L48.2477 74.9119ZM90.3157 100.048C91.1453 99.1744 91.8994 98.2803 92.5782 97.365C93.2703 96.5184 93.9147 95.6098 94.5115 94.639L94.3359 93.1758C94.243 92.6947 94.0139 92.0616 93.6484 91.2767C93.3517 90.4785 92.9929 89.7279 92.572 89.0249C92.1378 88.2532 91.6205 87.6045 91.0199 87.0789C90.4749 86.4712 89.9418 86.1107 89.4209 85.9974L89.5041 85.8744C87.4275 84.3504 84.7246 83.09 81.3952 82.0931C78.1213 81.0142 74.6677 80.1125 71.0345 79.3882C67.4568 78.5818 63.8712 77.9196 60.2778 77.4014C56.7399 76.8012 53.6276 76.1902 50.941 75.5682L51.5182 78.558C53.6972 79.1354 56.1035 79.5976 58.737 79.9446C61.3706 80.2916 64.0174 80.7074 66.6775 81.1919C69.3376 81.6764 71.9488 82.2772 74.5113 82.9945C77.1292 83.6297 79.5186 84.5586 81.6795 85.7811C83.8405 87.0036 85.6698 88.5396 87.1676 90.3892C88.6522 92.1701 89.6599 94.4351 90.1907 97.1843C90.2968 97.7342 90.3554 98.2219 90.3663 98.6476C90.3771 99.0732 90.3603 99.5399 90.3157 100.048ZM27.6884 42.0944C27.6765 43.879 27.8033 45.4586 28.0687 46.8332C28.5199 49.17 29.296 51.159 30.3971 52.8C31.4849 54.3723 32.7867 55.7607 34.3025 56.9651C35.8738 58.0876 37.638 59.1015 39.5951 60.0069C41.539 60.8436 43.6137 61.6193 45.8192 62.3342L42.1729 44.003C39.5611 44.5073 37.0615 44.6691 34.674 44.4885C32.3551 44.2945 30.0266 43.4965 27.6884 42.0944ZM58.5648 115.054C61.0813 114.425 63.6533 113.715 66.2807 112.923C68.9081 112.13 71.4746 111.207 73.9802 110.153C76.4991 109.167 78.916 108.023 81.2311 106.721C83.5594 105.487 85.7382 104.033 87.7675 102.358C87.174 100.761 86.1327 99.4293 84.6434 98.3623C83.1541 97.2953 81.4098 96.3845 79.4105 95.6298C77.4112 94.8752 75.2255 94.2634 72.8537 93.7946C70.4818 93.3257 68.1231 92.9256 65.7778 92.5942C63.5012 92.2496 61.2999 91.926 59.174 91.6236C57.1168 91.3078 55.3346 90.939 53.8273 90.5171L55.2207 97.7338C56.0805 98.4946 57.0235 99.1324 58.0497 99.6472C59.1447 100.149 60.2607 100.575 61.3978 100.926C59.4529 102.299 57.938 104.053 56.853 106.188L58.5648 115.054ZM118.339 95.0646C117.189 94.645 116.107 94.2122 115.094 93.7662C114.095 93.3889 113.067 93.0525 112.012 92.7572C111.039 92.5173 110.045 92.3528 109.029 92.2637C108.027 92.2433 106.962 92.449 105.833 92.8808C106.887 91.3228 107.255 89.719 106.936 88.0694L104.309 74.4608C103.301 73.3009 102.071 72.469 100.619 71.9651C101.792 71.0256 102.624 69.7956 103.114 68.275L102.02 62.6048C101.688 60.8865 100.706 59.864 99.0747 59.5374L120.326 41.1045C121.243 41.4263 122.209 41.8103 123.221 42.2563C124.303 42.6891 125.378 43.0876 126.447 43.4516C127.57 43.7337 128.674 43.9126 129.758 43.9885C130.829 43.9956 131.853 43.7622 132.831 43.2882C132.055 44.4363 131.621 45.6964 131.529 47.0686C131.493 48.3588 131.615 49.7256 131.893 51.169C132.159 52.5436 132.5 53.9393 132.916 55.3561C133.319 56.7042 133.626 57.928 133.838 59.0277L120.585 70.1418L122.576 80.4514L123.793 80.1094C124.755 79.9237 125.681 80.1014 126.569 80.6428C127.445 81.1154 128.044 81.8195 128.367 82.7552L126.238 71.7239L123.521 71.4999L134.416 62.0175C134.575 62.8423 134.732 64.024 134.886 65.5626C135.028 67.0325 135.251 68.5578 135.556 70.1386C135.861 71.7194 136.318 73.164 136.927 74.4722C137.592 75.6985 138.486 76.4526 139.61 76.7347C135.911 79.7303 132.287 82.747 128.739 85.7848C125.259 88.8093 121.792 91.9026 118.339 95.0646ZM119.674 70.9595L114.517 75.2701L116.169 83.8271C117.238 84.1912 118.272 84.5619 119.272 84.9392C120.34 85.3032 121.423 85.5576 122.52 85.7022L122.401 85.0836C122.03 85.0125 121.688 84.9004 121.373 84.7473C121.114 84.5122 120.951 84.2228 120.885 83.8791C120.712 82.9856 120.972 82.1156 121.664 81.269L119.674 70.9595ZM123.571 85.6062C124.176 85.418 124.686 85.1057 125.101 84.6691C125.571 84.1506 125.74 83.5477 125.607 82.8604C125.541 82.5167 125.35 82.2683 125.036 82.1152C124.776 81.8801 124.475 81.7957 124.131 81.8621C123.65 81.955 123.353 82.2619 123.24 82.7828C123.182 83.2217 123.42 83.5322 123.954 83.7142L123.432 84.8845L123.571 85.6062ZM124.565 63.0639L122.515 52.445L116.763 50.3474L117.739 55.3991C118.72 56.4216 120.006 57.1715 121.595 57.6488C120.366 58.6703 119.459 59.8792 118.873 61.2756L119.968 66.9458L124.565 63.0639ZM115.613 49.9279C115.449 49.817 115.161 49.8013 114.748 49.8809C114.323 49.8918 114.041 49.9106 113.904 49.9371C113.216 50.0698 112.508 50.2779 111.778 50.5613C111.104 50.7627 110.491 51.095 109.939 51.5581L113.92 72.1773L119.057 67.7635L117.842 61.4746C116.628 60.3545 115.301 59.5769 113.863 59.1417C114.994 58.353 115.942 57.1718 116.708 55.5982L115.613 49.9279ZM158.539 33.4055C159.525 33.7141 160.525 34.0914 161.538 34.5375C162.619 34.9703 163.694 35.3687 164.763 35.7328C165.818 36.0281 166.887 36.2137 167.971 36.2895C169.042 36.2967 170.101 36.0566 171.147 35.5694C170.662 36.3761 170.279 37.1629 169.999 37.9299C169.788 38.6835 169.776 39.5415 169.961 40.5037L172.669 54.5248C173.69 55.7534 174.913 56.5509 176.339 56.9174C175.11 57.9388 174.278 59.1688 173.843 60.6074L175.396 68.6489C175.542 69.4049 175.853 70.0934 176.329 70.7144C176.861 71.2533 177.538 71.6216 178.36 71.8193L156.077 87.6713L156.096 87.7744C154.017 86.6074 151.869 85.6321 149.65 84.8485C147.444 84.1336 145.162 83.5762 142.804 83.176C143.425 82.6997 143.882 82.1124 144.174 81.4142C144.454 80.6473 144.521 79.8858 144.375 79.1298L141.986 66.7583C140.978 65.5984 139.748 64.7665 138.296 64.2626C139.525 63.2411 140.364 62.0455 140.812 60.6756L132.531 17.7877C132.385 17.0317 132.053 16.4185 131.534 15.9483C131.016 15.4781 130.407 15.0965 129.709 14.8036C129.08 14.4973 128.402 14.3075 127.674 14.234C126.934 14.0918 126.241 14.0117 125.596 13.9936L133.554 6.46856C135.088 7.02792 136.574 7.52519 138.013 7.96035C139.52 8.38225 141.093 8.22112 142.731 7.47698C142.232 8.21499 141.85 9.00182 141.583 9.83748C141.372 10.5911 141.353 11.4147 141.525 12.3082L155.241 83.3413L160.76 77.0355L158.033 62.9114C157.065 61.9577 155.814 61.2011 154.28 60.6418C155.495 59.5516 156.375 58.3837 156.918 57.138L155.625 50.4368C153.507 50.9169 151.882 50.6246 150.75 49.56C149.604 48.4266 148.899 47.1727 148.633 45.798C148.355 44.3547 148.528 43.0379 149.154 41.8477C149.848 40.6443 150.707 39.5517 151.729 38.5701C152.82 37.5752 154 36.6701 155.269 35.8548C156.537 35.0396 157.627 34.2231 158.539 33.4055ZM161.755 76.0949L165.864 71.3448L160.728 44.746C159.66 44.382 158.434 43.9414 157.051 43.4242C155.668 42.907 154.426 42.7546 153.327 42.9669C152.777 43.0731 152.232 43.3921 151.694 43.9239C151.21 44.3737 151.035 44.9423 151.167 45.6296C151.234 45.9733 151.397 46.2626 151.656 46.4977C151.902 46.6641 152.197 46.7141 152.54 46.6478C153.09 46.5416 153.319 46.248 153.226 45.7669L152.365 45.1845C152.769 44.3223 153.417 43.805 154.311 43.6325C155.135 43.4732 155.917 43.6432 156.655 44.1423C157.38 44.5727 157.822 45.2003 157.981 46.0251C158.127 46.7811 158.047 47.4739 157.741 48.1033C157.503 48.7195 157.149 49.2869 156.679 49.8054L158.052 56.9191C158.516 57.4713 159.068 57.9349 159.711 58.3098C160.423 58.6715 161.121 58.9645 161.806 59.1887C160.675 59.9774 159.795 61.1453 159.167 62.6924L161.755 76.0949Z" fill="#E6007E"/>
</svg>
