<svg width="358" height="103" viewBox="0 0 358 103" fill="none" xmlns="http://www.w3.org/2000/svg">
<path d="M85.8 67C83.5333 68.2 81.8333 69.7 80.7 71.5C79.6333 73.2333 78.6 75.1333 77.6 77.2C76.6667 79.3333 75.5333 81.4667 74.2 83.6C72.9333 85.8 70.9667 87.8667 68.3 89.8C65.7 91.7333 62.1667 93.4333 57.7 94.9C53.2333 96.4333 47.4 97.5333 40.2 98.2V99.2C40.2 100.533 40.5667 101.667 41.3 102.6C40.3 102.067 39.5 101.5 38.9 100.9C38.3 100.367 37.9333 99.5333 37.8 98.4C35.9333 98.7333 33.7 98.8 31.1 98.6C28.5667 98.4667 25.9333 98.1 23.2 97.5C20.4667 96.9667 17.7667 96.1667 15.1 95.1C12.4333 94.1 10.0333 92.8333 7.9 91.3C5.76667 89.7667 4.03333 88 2.7 86C1.43333 84.0667 0.8 81.8667 0.8 79.4C0.8 76.6667 1.33333 74.0667 2.4 71.6C3.53333 69.1333 5.06667 67.0333 7 65.3C8.93333 63.5667 11.1667 62.3 13.7 61.5C16.3 60.7 19.1 60.5333 22.1 61C19.2333 61.8667 16.8 62.7333 14.8 63.6C12.8667 64.4667 11.2333 65.4 9.9 66.4C8.56667 67.3333 7.5 68.3 6.7 69.3C5.9 70.3 5.23333 71.4 4.7 72.6C5.3 75.6 6.73333 78.1 9 80.1C11.3333 82.1667 14.0333 83.8333 17.1 85.1C20.1667 86.4333 23.3667 87.3667 26.7 87.9C30.0333 88.5 33.0667 88.8 35.8 88.8C36.1333 88.8 36.4667 88.8 36.8 88.8C37.1333 88.8667 37.4667 88.8333 37.8 88.7V80C37.0667 79.1333 36.2667 78.3333 35.4 77.6C34.6 76.9333 33.7 76.3667 32.7 75.9C34.8333 74.8333 36.5333 73.4667 37.8 71.8V63.5C32.7333 60.7 28.8 57.0667 26 52.6C23.2667 48.1333 22.1667 42.9667 22.7 37.1C21.1 34.3 20.3 31.2333 20.3 27.9C20.3 25.5 20.7667 23.2667 21.7 21.2C22.6333 19.1333 23.5667 17 24.5 14.8C23.3 13.7333 22.2333 12.4667 21.3 11C20.4333 9.46667 20 7.93333 20 6.4C20 5.4 20.3 4.43333 20.9 3.49999C21.5 5.03333 22.4333 6.23333 23.7 7.1C25.0333 7.9 26.5 8.5 28.1 8.9C29.7 9.23333 31.3333 9.43333 33 9.49999C34.7333 9.56666 36.3 9.6 37.7 9.6V5.1C37.7 3.83333 37.3667 2.66666 36.7 1.6C37.7667 2.13333 38.5333 2.66666 39 3.2C39.5333 3.66666 39.8667 4.23333 40 4.89999C40.2 5.49999 40.2667 6.2 40.2 7C40.2 7.73333 40.2 8.6 40.2 9.6C44.2667 9.66667 47.9333 9.9 51.2 10.3C54.5333 10.6333 57.4333 11.4667 59.9 12.8C62.4333 14.0667 64.5333 15.9333 66.2 18.4C67.9333 20.8667 69.2667 24.2333 70.2 28.5C70.4667 29.5667 70.7 30.6 70.9 31.6C71.1 32.5333 71.2 33.5667 71.2 34.7C71.2 37.4333 70.4667 39.7667 69 41.7C67.5333 43.6333 65.2333 44.6 62.1 44.6C60.7667 44.6 59.5333 44.3333 58.4 43.8C57.2667 43.2 56.2667 42.4667 55.4 41.6C54.6 40.6667 53.9667 39.6333 53.5 38.5C53.0333 37.3 52.8 36.0667 52.8 34.8C52.8 32.9333 53.4333 31.2 54.7 29.6C56.0333 27.9333 57.7667 27.1 59.9 27.1C61.2333 27.1 62.4 27.5333 63.4 28.4C64.4667 29.2667 65 30.3667 65 31.7C65 32.8333 64.6 33.6667 63.8 34.2C63.0667 34.6667 62.1667 34.9333 61.1 35C61.1 34.0667 60.8 33.2 60.2 32.4C59.6667 31.5333 58.8667 31.1 57.8 31.1C57.0667 31.1 56.4333 31.3667 55.9 31.9C55.4333 32.3667 55.2 32.9667 55.2 33.7C55.2 34.4333 55.4667 35.0333 56 35.5C56.5333 35.9667 57.1667 36.3667 57.9 36.7C58.6333 36.9667 59.4 37.1667 60.2 37.3C61 37.4333 61.7 37.5 62.3 37.5C63.3667 37.5 64.3667 37.3 65.3 36.9C66.2333 36.4333 67.0333 35.8667 67.7 35.2C68.4333 34.4667 69 33.6333 69.4 32.7C69.8667 31.7667 70.1 30.8 70.1 29.8C70.1 27.3333 69.0667 25.4 67 24C64.9333 22.5333 62.4667 21.4667 59.6 20.8C56.7333 20.0667 53.8333 19.6333 50.9 19.5C47.9667 19.3 45.6 19.2 43.8 19.2H40.2V38.3C43.0667 39.7 46.5 41.2 50.5 42.8C54.5 44.4 58.4667 46.1667 62.4 48.1C66.4 49.9667 70.0667 52.0333 73.4 54.3C76.7333 56.5667 79.1 59.1 80.5 61.9C81.5667 64.0333 83.3333 65.7333 85.8 67ZM37.8 49.2C35.4667 48.0667 33.2 46.8 31 45.4C28.8667 44 26.9333 42.3667 25.2 40.5C26.4667 43.0333 28.2333 45.2667 30.5 47.2C32.7667 49.0667 35.2 50.6667 37.8 52V49.2ZM72.6 80.3C73.5333 79.6333 74.4 78.9333 75.2 78.2C76 77.5333 76.7667 76.8 77.5 76L77.6 74.6C77.6 74.1333 77.5 73.5 77.3 72.7C77.1667 71.9 76.9667 71.1333 76.7 70.4C76.4333 69.6 76.0667 68.9 75.6 68.3C75.2 67.6333 74.7667 67.2 74.3 67L74.4 66.9C72.7333 65.1 70.4333 63.4333 67.5 61.9C64.6333 60.3 61.5667 58.8333 58.3 57.5C55.1 56.1 51.8667 54.8333 48.6 53.7C45.4 52.5 42.6 51.3667 40.2 50.3V53.2C42.1333 54.1333 44.3 55 46.7 55.8C49.1 56.6 51.5 57.4667 53.9 58.4C56.3 59.3333 58.6333 60.3667 60.9 61.5C63.2333 62.5667 65.3 63.8667 67.1 65.4C68.9 66.9333 70.3333 68.7 71.4 70.7C72.4667 72.6333 73 74.9333 73 77.6C73 78.1333 72.9667 78.6 72.9 79C72.8333 79.4 72.7333 79.8333 72.6 80.3ZM24.5 14.8C24.1667 16.4667 24 17.9667 24 19.3C24 21.5667 24.3667 23.5667 25.1 25.3C25.8333 26.9667 26.8 28.5 28 29.9C29.2667 31.2333 30.7333 32.5 32.4 33.7C34.0667 34.8333 35.8667 35.9333 37.8 37L37.7 19.2C35.1667 19.2 32.8 18.9 30.6 18.3C28.4667 17.7 26.4333 16.5333 24.5 14.8ZM40.2 88.6C42.6667 88.4667 45.2 88.2667 47.8 88C50.4 87.7333 52.9667 87.3333 55.5 86.8C58.0333 86.3333 60.5 85.7 62.9 84.9C65.3 84.1667 67.6 83.2 69.8 82C69.5333 80.4 68.8 78.9667 67.6 77.7C66.4 76.4333 64.9333 75.2667 63.2 74.2C61.4667 73.1333 59.5333 72.1667 57.4 71.3C55.2667 70.4333 53.1333 69.6333 51 68.9C48.9333 68.1667 46.9333 67.4667 45 66.8C43.1333 66.1333 41.5333 65.4667 40.2 64.8V71.8C40.8667 72.6667 41.6333 73.4333 42.5 74.1C43.4333 74.7667 44.4 75.3667 45.4 75.9C43.3333 76.8333 41.6 78.2 40.2 80V88.6ZM102.005 31.3L104.205 15.5L115.805 17.8L102.005 31.3ZM99.7047 80.9C98.7047 80.3 97.7714 79.7 96.9047 79.1C96.038 78.5667 95.138 78.0667 94.2047 77.6C93.338 77.2 92.438 76.8667 91.5047 76.6C90.5714 76.4 89.538 76.4 88.4047 76.6C89.6714 75.3333 90.3047 73.9 90.3047 72.3V59.1C89.5714 57.8333 88.5714 56.8333 87.3047 56.1C88.5714 55.4333 89.5714 54.4333 90.3047 53.1V47.6C90.3047 45.9333 89.5714 44.8 88.1047 44.2L111.305 30.8C112.105 31.2667 112.938 31.8 113.805 32.4C114.738 33 115.671 33.5667 116.605 34.1C117.605 34.5667 118.605 34.9333 119.605 35.2C120.605 35.4 121.605 35.3667 122.605 35.1C121.671 36.0333 121.038 37.1333 120.705 38.4C120.438 39.6 120.305 40.9 120.305 42.3C120.305 43.6333 120.371 45 120.505 46.4C120.638 47.7333 120.705 48.9333 120.705 50L106.305 58V68L107.505 67.9C108.438 67.9 109.271 68.2333 110.005 68.9C110.738 69.5 111.171 70.2667 111.305 71.2V60.5L108.805 59.8L120.705 52.9C120.705 53.7 120.638 54.8333 120.505 56.3C120.371 57.7 120.305 59.1667 120.305 60.7C120.305 62.2333 120.471 63.6667 120.805 65C121.205 66.2667 121.905 67.1333 122.905 67.6C118.905 69.7333 114.971 71.9 111.105 74.1C107.305 76.3 103.505 78.5667 99.7047 80.9ZM105.305 58.6L99.7047 61.7V70C100.638 70.5333 101.538 71.0667 102.405 71.6C103.338 72.1333 104.305 72.5667 105.305 72.9V72.3C104.971 72.1667 104.671 72 104.405 71.8C104.205 71.5333 104.105 71.2333 104.105 70.9C104.105 70.0333 104.505 69.2667 105.305 68.6V58.6ZM106.305 73C106.905 72.9333 107.438 72.7333 107.905 72.4C108.438 72 108.705 71.4667 108.705 70.8C108.705 70.4667 108.571 70.2 108.305 70C108.105 69.7333 107.838 69.6 107.505 69.6C107.038 69.6 106.705 69.8333 106.505 70.3C106.371 70.7 106.538 71.0333 107.005 71.3L106.305 72.3V73ZM111.305 52.1V41.8L106.305 38.8V43.7C107.038 44.8333 108.105 45.7667 109.505 46.5C108.171 47.2333 107.105 48.2 106.305 49.4V54.9L111.305 52.1ZM105.305 38.2C105.171 38.0667 104.905 38 104.505 38C104.105 37.9333 103.838 37.9 103.705 37.9C103.038 37.9 102.338 37.9667 101.605 38.1C100.938 38.1667 100.305 38.3667 99.7047 38.7V58.7L105.305 55.5V49.4C104.371 48.1333 103.271 47.1667 102.005 46.5C103.205 45.9667 104.305 45.0333 105.305 43.7V38.2ZM149.6 30.3C150.467 30.7667 151.333 31.3 152.2 31.9C153.133 32.5 154.067 33.0667 155 33.6C155.933 34.0667 156.9 34.4333 157.9 34.7C158.9 34.9 159.933 34.8667 161 34.6C160.4 35.2667 159.9 35.9333 159.5 36.6C159.167 37.2667 159 38.0667 159 39V52.6C159.733 53.9333 160.733 54.9 162 55.5C160.667 56.2333 159.667 57.2333 159 58.5V66.3C159 67.0333 159.167 67.7333 159.5 68.4C159.9 69 160.467 69.4667 161.2 69.8L137.5 80.6V80.7C135.767 79.2333 133.933 77.9333 132 76.8C130.067 75.7333 128.033 74.8 125.9 74C126.567 73.6667 127.1 73.2 127.5 72.6C127.9 71.9333 128.1 71.2333 128.1 70.5V58.5C127.367 57.2333 126.367 56.2333 125.1 55.5C126.433 54.7667 127.433 53.8 128.1 52.6V11C128.1 10.2667 127.9 9.63333 127.5 9.09999C127.1 8.56666 126.6 8.1 126 7.69999C125.467 7.3 124.867 7 124.2 6.79999C123.533 6.53333 122.9 6.33333 122.3 6.2L131.1 0.599996C132.433 1.4 133.733 2.13333 135 2.8C136.333 3.46666 137.833 3.6 139.5 3.2C138.9 3.8 138.4 4.46666 138 5.2C137.667 5.86666 137.5 6.63333 137.5 7.5V76.4L143.8 71.5V57.8C143.067 56.7333 142.033 55.8 140.7 55C142.033 54.2 143.067 53.2667 143.8 52.2V45.7C141.733 45.7667 140.267 45.2 139.4 44C138.533 42.7333 138.1 41.4333 138.1 40.1C138.1 38.7 138.5 37.5 139.3 36.5C140.167 35.5 141.167 34.6333 142.3 33.9C143.5 33.1667 144.767 32.5333 146.1 32C147.433 31.4667 148.6 30.9 149.6 30.3ZM144.9 70.8L149.6 67.1V41.3C148.667 40.7667 147.6 40.1333 146.4 39.4C145.2 38.6667 144.067 38.3 143 38.3C142.467 38.3 141.9 38.5 141.3 38.9C140.767 39.2333 140.5 39.7333 140.5 40.4C140.5 40.7333 140.6 41.0333 140.8 41.3C141 41.5 141.267 41.6 141.6 41.6C142.133 41.6 142.4 41.3667 142.4 40.9L141.7 40.2C142.233 39.4667 142.933 39.1 143.8 39.1C144.6 39.1 145.3 39.4 145.9 40C146.5 40.5333 146.8 41.2 146.8 42C146.8 42.7333 146.6 43.3667 146.2 43.9C145.867 44.4333 145.433 44.9 144.9 45.3V52.2C145.233 52.8 145.667 53.3333 146.2 53.8C146.8 54.2667 147.4 54.6667 148 55C146.8 55.5333 145.767 56.4667 144.9 57.8V70.8ZM187.174 30.6C188.174 31.1333 189.108 31.7 189.974 32.3C190.841 32.8333 191.708 33.3333 192.574 33.8C193.441 34.2 194.341 34.5 195.274 34.7C196.208 34.9 197.241 34.9 198.374 34.7C197.774 35.3 197.308 35.9333 196.974 36.6C196.641 37.2 196.474 37.9333 196.474 38.8V53.2C197.208 54.5333 198.208 55.5 199.474 56.1C198.141 56.9 197.141 57.8667 196.474 59V71.7C197.341 72.5 198.008 73.1 198.474 73.5C198.941 73.9667 199.774 74.5 200.974 75.1L193.674 80.8C192.341 80 191.008 79.2667 189.674 78.6C188.408 78 186.941 77.9 185.274 78.3C186.274 77.3 186.841 76.3667 186.974 75.5C187.108 74.6333 187.174 73.5333 187.174 72.2C187.108 73.3333 186.608 74.3333 185.674 75.2C184.741 76.0667 183.641 76.8333 182.374 77.5C181.174 78.2333 179.941 78.8667 178.674 79.4C177.474 79.9333 176.508 80.4 175.774 80.8C174.974 80.4 174.108 79.9 173.174 79.3C172.308 78.7 171.374 78.1333 170.374 77.6C169.374 77.1333 168.341 76.7667 167.274 76.5C166.274 76.3 165.274 76.3333 164.274 76.6C165.541 75.3333 166.174 73.9 166.174 72.3V60.8C166.174 60.0667 165.974 59.4 165.574 58.8C165.174 58.2 164.641 57.7333 163.974 57.4L187.174 47.1V41.1C186.374 40.6333 185.374 40 184.174 39.2C182.974 38.4 181.908 38 180.974 38C180.241 38 179.341 38.1 178.274 38.3C177.274 38.5 176.441 38.8 175.774 39.2V48.5L164.374 53.2L165.974 50V44.6C165.974 43.0667 165.274 41.9667 163.874 41.3L187.174 30.6ZM187.174 70.3V49.5L181.774 53V57.7C182.174 58.3 182.641 58.8333 183.174 59.3C183.774 59.7 184.408 60.0667 185.074 60.4C184.408 60.7333 183.774 61.1333 183.174 61.6C182.641 62.0667 182.174 62.6 181.774 63.2V65.6L182.474 65.5C183.808 65.5 184.874 65.9667 185.674 66.9C186.541 67.8333 187.041 68.9667 187.174 70.3ZM177.574 60.4C178.908 59.8 179.974 58.9 180.774 57.7V53.5L175.774 56.8V69.9C176.574 70.4333 177.374 70.9333 178.174 71.4C179.041 71.8667 179.908 72.3333 180.774 72.8V72.1C180.108 71.9667 179.541 71.6333 179.074 71.1C178.674 70.5667 178.474 69.9333 178.474 69.2C178.474 68.4667 178.708 67.8 179.174 67.2C179.641 66.6 180.174 66.1667 180.774 65.9V63.2C179.908 61.9333 178.841 61 177.574 60.4ZM181.774 73H182.274C182.874 73 183.441 72.8333 183.974 72.5C184.574 72.1 184.874 71.5333 184.874 70.8C184.874 70.5333 184.774 70.3 184.574 70.1C184.374 69.8333 184.108 69.7 183.774 69.7C183.241 69.7 182.974 69.9333 182.974 70.4L183.674 71.1C183.141 71.7667 182.508 72.1333 181.774 72.2V73ZM223.991 30.2C224.657 30.7333 225.424 31.4 226.291 32.2C227.157 32.9333 228.057 33.6667 228.991 34.4C229.924 35.0667 230.891 35.6333 231.891 36.1C232.957 36.5 234.024 36.6333 235.091 36.5C234.091 37.4333 233.524 38.3333 233.391 39.2C233.257 40 233.191 41.0667 233.191 42.4L223.991 46.6V41.7C223.791 41.5667 223.424 41.2667 222.891 40.8C222.424 40.3333 221.891 39.8667 221.291 39.4C220.757 38.8667 220.224 38.4 219.691 38C219.224 37.6 218.924 37.4 218.791 37.4V41.5C219.657 42.7667 220.724 43.7 221.991 44.3C220.591 45.0333 219.524 45.9667 218.791 47.1V51.4L234.991 44C234.591 44.9333 234.257 45.7333 233.991 46.4C233.724 47.0667 233.524 47.7333 233.391 48.4C233.324 49.0667 233.257 49.7667 233.191 50.5C233.191 51.2333 233.191 52.1 233.191 53.1C233.524 53.6333 233.924 54.1333 234.391 54.6C234.857 55.0667 235.391 55.4667 235.991 55.8C235.457 56.1333 234.924 56.5333 234.391 57C233.924 57.4 233.524 57.9 233.191 58.5V66.5C233.191 68.1667 233.891 69.5 235.291 70.5L212.691 80.8C212.024 80.2667 211.257 79.6 210.391 78.8C209.524 78.0667 208.591 77.3333 207.591 76.6C206.657 75.9333 205.657 75.3667 204.591 74.9C203.591 74.5 202.591 74.3667 201.591 74.5C202.724 73.4333 203.324 72.4 203.391 71.4C203.457 70.3333 203.491 69.1 203.491 67.7L212.691 63.5V69.3L217.791 72.5V68C216.924 66.7333 215.857 65.8 214.591 65.2C215.991 64.4667 217.057 63.5333 217.791 62.4V58.3L201.991 65.6C202.524 64.6667 202.891 63.5667 203.091 62.3C203.291 60.9667 203.424 59.8 203.491 58.8C202.757 57.5333 201.757 56.5333 200.491 55.8C201.691 55.2 202.691 54.2 203.491 52.8V44.5C203.491 43.7 203.291 42.9667 202.891 42.3C202.491 41.5667 201.991 40.9667 201.391 40.5L223.991 30.2ZM217.791 37.3H217.191C216.457 37.3 215.657 37.3667 214.791 37.5C213.991 37.5667 213.291 37.7667 212.691 38.1V54.2L217.791 51.9V47.1C216.924 45.8333 215.857 44.9 214.591 44.3C215.857 43.7 216.924 42.7667 217.791 41.5V37.3ZM218.791 73.1C219.257 73.3667 219.724 73.5333 220.191 73.6C220.724 73.6667 221.224 73.7 221.691 73.7C222.091 73.7 222.491 73.6667 222.891 73.6C223.291 73.5333 223.657 73.4333 223.991 73.3V55.5L218.791 57.8V62.4C219.657 63.6667 220.724 64.6 221.991 65.2C220.591 65.9333 219.524 66.8667 218.791 68V73.1ZM242.128 57.5C243.661 56.6333 244.861 55.4333 245.728 53.9V47.6C242.661 47.6667 240.228 47 238.428 45.6C236.628 44.2 235.761 41.5333 235.828 37.6C236.295 38.2 236.961 38.6667 237.828 39C238.695 39.2667 239.595 39.4667 240.528 39.6C241.461 39.6667 242.395 39.7 243.328 39.7C244.261 39.6333 245.061 39.5667 245.728 39.5V36.8C245.728 36.2667 245.828 35.3333 246.028 34C246.228 32.6667 246.795 31.3 247.728 29.9C248.661 28.4333 250.061 27.1667 251.928 26.1C253.861 24.9667 256.495 24.4 259.828 24.4C259.028 24.9333 258.328 25.5333 257.728 26.2C257.195 26.8667 256.728 27.7333 256.328 28.8C255.995 29.8667 255.728 31.2 255.528 32.8C255.328 34.3333 255.228 36.2667 255.228 38.6C257.828 38.4667 260.128 39 262.128 40.2C264.128 41.3333 265.395 43.4 265.928 46.4C264.595 45.8667 263.161 45.6 261.628 45.6C260.161 45.5333 258.761 45.6 257.428 45.8V71C258.295 71.5333 259.361 72.1667 260.628 72.9C261.895 73.5667 262.995 74 263.928 74.2C263.195 74.4 262.428 74.7667 261.628 75.3C260.895 75.9 260.161 76.5333 259.428 77.2C258.695 77.8667 257.961 78.5333 257.228 79.2C256.495 79.8667 255.795 80.4 255.128 80.8C254.528 80.4667 253.828 80.0333 253.028 79.5C252.228 78.9667 251.361 78.4333 250.428 77.9C249.561 77.4333 248.661 77.0333 247.728 76.7C246.861 76.3667 246.061 76.2 245.328 76.2C244.928 76.2 244.395 76.2667 243.728 76.4C244.995 75.1333 245.628 73.7 245.628 72.1V61C244.828 59.4667 243.661 58.3 242.128 57.5ZM255.128 69.7L256.328 70.4V46L255.228 46.2L255.128 69.7ZM273.844 30L281.544 13.8L274.644 15.9L266.344 13.8L273.844 30ZM277.344 58.5V70L278.544 71.1V57L277.344 58.5ZM279.544 56.1V71.9C279.744 72.1 280.077 72.3667 280.544 72.7C281.077 72.9667 281.71 73.1667 282.444 73.3C281.91 73.5 281.31 73.9667 280.644 74.7C280.044 75.5 279.444 76.3 278.844 77.1C278.31 77.9667 277.81 78.7667 277.344 79.5C276.944 80.2333 276.644 80.7 276.444 80.9C275.844 80.5667 275.177 80.1333 274.444 79.6C273.777 79.1333 273.044 78.6333 272.244 78.1C271.51 77.6333 270.744 77.2333 269.944 76.9C269.21 76.5667 268.477 76.4 267.744 76.4C267.144 76.4 266.544 76.5 265.944 76.7C267.21 75.4333 267.844 74 267.844 72.4V58.4C267.11 57.0667 266.11 56.1 264.844 55.5C266.11 54.8333 267.11 53.8333 267.844 52.5C267.844 50.0333 267.744 47.4667 267.544 44.8C267.41 42.1333 267.577 39.7 268.044 37.5C268.51 35.3 269.51 33.5 271.044 32.1C272.577 30.6333 275.077 29.9 278.544 29.9H279.544V54.9L280.644 55.5L279.544 56.1ZM278.544 54V31.2C277.944 32.1333 277.577 33.1667 277.444 34.3C277.377 35.4333 277.344 36.5667 277.344 37.7V52.5L278.544 54ZM294.92 80.7C293.92 80.1 292.986 79.5 292.12 78.9C291.253 78.3667 290.353 77.8667 289.42 77.4C288.553 77 287.653 76.6667 286.72 76.4C285.786 76.2 284.753 76.2 283.62 76.4C284.886 75.1333 285.52 73.7 285.52 72.1V58.9C284.786 57.6333 283.786 56.6333 282.52 55.9C283.786 55.2333 284.786 54.2333 285.52 52.9V47.4C285.52 45.7333 284.786 44.6 283.32 44L306.52 30.6C307.32 31.0667 308.153 31.6 309.02 32.2C309.953 32.8 310.886 33.3667 311.82 33.9C312.82 34.3667 313.82 34.7333 314.82 35C315.82 35.2 316.82 35.1667 317.82 34.9C316.886 35.8333 316.253 36.9333 315.92 38.2C315.653 39.4 315.52 40.7 315.52 42.1C315.52 43.4333 315.586 44.8 315.72 46.2C315.853 47.5333 315.92 48.7333 315.92 49.8L301.52 57.8V67.8L302.72 67.7C303.653 67.7 304.486 68.0333 305.22 68.7C305.953 69.3 306.386 70.0667 306.52 71V60.3L304.02 59.6L315.92 52.7C315.92 53.5 315.853 54.6333 315.72 56.1C315.586 57.5 315.52 58.9667 315.52 60.5C315.52 62.0333 315.686 63.4667 316.02 64.8C316.42 66.0667 317.12 66.9333 318.12 67.4C314.12 69.5333 310.186 71.7 306.32 73.9C302.52 76.1 298.72 78.3667 294.92 80.7ZM300.52 58.4L294.92 61.5V69.8C295.853 70.3333 296.753 70.8667 297.62 71.4C298.553 71.9333 299.52 72.3667 300.52 72.7V72.1C300.186 71.9667 299.886 71.8 299.62 71.6C299.42 71.3333 299.32 71.0333 299.32 70.7C299.32 69.8333 299.72 69.0667 300.52 68.4V58.4ZM301.52 72.8C302.12 72.7333 302.653 72.5333 303.12 72.2C303.653 71.8 303.92 71.2667 303.92 70.6C303.92 70.2667 303.786 70 303.52 69.8C303.32 69.5333 303.053 69.4 302.72 69.4C302.253 69.4 301.92 69.6333 301.72 70.1C301.586 70.5 301.753 70.8333 302.22 71.1L301.52 72.1V72.8ZM306.52 51.9V41.6L301.52 38.6V43.5C302.253 44.6333 303.32 45.5667 304.72 46.3C303.386 47.0333 302.32 48 301.52 49.2V54.7L306.52 51.9ZM300.52 38C300.386 37.8667 300.12 37.8 299.72 37.8C299.32 37.7333 299.053 37.7 298.92 37.7C298.253 37.7 297.553 37.7667 296.82 37.9C296.153 37.9667 295.52 38.1667 294.92 38.5V58.5L300.52 55.3V49.2C299.586 47.9333 298.486 46.9667 297.22 46.3C298.42 45.7667 299.52 44.8333 300.52 43.5V38ZM337.038 45.6V54C337.772 55.1333 338.838 56.0667 340.238 56.8C338.838 57.5333 337.772 58.4667 337.038 59.6V75.1L337.638 75.4L328.138 80.9C327.338 80.4333 326.605 80 325.938 79.6C325.338 79.2 324.738 78.8667 324.138 78.6C323.538 78.4 322.905 78.2667 322.238 78.2C321.572 78.1333 320.772 78.1667 319.838 78.3C321.105 77.0333 321.738 75.6 321.738 74V59.9C321.005 58.5667 320.005 57.6 318.738 57C320.005 56.3333 321.005 55.3333 321.738 54V39.1C321.738 38.3667 321.538 37.7 321.138 37.1C320.805 36.4333 320.272 35.9333 319.538 35.6C320.072 35.5333 320.938 35.3 322.138 34.9C323.338 34.4333 324.605 33.9333 325.938 33.4C327.272 32.8 328.505 32.2333 329.638 31.7C330.772 31.1667 331.538 30.8 331.938 30.6C331.738 30.7333 331.572 31.1 331.438 31.7C331.372 32.2333 331.305 32.8667 331.238 33.6C331.238 34.2667 331.238 34.9667 331.238 35.7C331.238 36.3667 331.238 36.9333 331.238 37.4C331.505 36.8 332.105 36.1667 333.038 35.5C333.972 34.8333 335.005 34.1667 336.138 33.5C337.338 32.8333 338.472 32.2333 339.538 31.7C340.672 31.1667 341.505 30.7333 342.038 30.4C343.038 31 343.972 31.6 344.838 32.2C345.705 32.8 346.572 33.3333 347.438 33.8C348.372 34.2 349.305 34.5333 350.238 34.8C351.238 35 352.305 35 353.438 34.8C352.172 36.0667 351.538 37.5 351.538 39.1V53.4C352.405 55.0667 353.605 56.3 355.138 57.1C354.405 57.5667 353.705 58.1 353.038 58.7C352.438 59.3 351.938 60 351.538 60.8V71.6C352.605 72.2667 353.672 72.9 354.738 73.5C355.805 74.1 356.872 74.7333 357.938 75.4L348.438 80.9C347.638 80.4333 346.905 80 346.238 79.6C345.638 79.2 345.038 78.8667 344.438 78.6C343.838 78.4 343.205 78.2667 342.538 78.2C341.872 78.1333 341.072 78.1667 340.138 78.3C341.405 77.0333 342.038 75.6 342.038 74V41.5C341.105 40.9667 340.038 40.3333 338.838 39.6C337.705 38.8 336.605 38.4 335.538 38.4C335.005 38.4 334.438 38.6 333.838 39C333.305 39.3333 333.038 39.8333 333.038 40.5C333.038 40.8333 333.138 41.1333 333.338 41.4C333.538 41.6667 333.805 41.8 334.138 41.8C334.605 41.8 334.838 41.5667 334.838 41.1L334.238 40.3C334.638 39.5667 335.305 39.2 336.238 39.2C337.038 39.2 337.738 39.5 338.338 40.1C339.005 40.6333 339.338 41.3333 339.338 42.2C339.338 42.8667 339.105 43.5333 338.638 44.2C338.172 44.8667 337.638 45.3333 337.038 45.6ZM331.238 43.2V71.6L336.038 74.4V59.6C335.305 58.4667 334.238 57.5333 332.838 56.8C334.105 56.2 335.172 55.2667 336.038 54V45.9L335.138 46C334.272 46 333.472 45.7333 332.738 45.2C332.072 44.6667 331.572 44 331.238 43.2Z" fill="#E6007E"/>
</svg>
