<svg width="311" height="194" viewBox="0 0 311 194" fill="none" xmlns="http://www.w3.org/2000/svg">
<path d="M107.094 130.174C105.233 132.121 104.037 134.179 103.505 136.348C103.017 138.429 102.618 140.664 102.307 143.055C102.085 145.49 101.663 147.991 101.042 150.558C100.51 153.17 99.236 155.881 97.2204 158.692C95.2713 161.48 92.315 164.345 88.3515 167.288C84.4101 170.297 78.9634 173.327 72.0114 176.379L72.3431 177.375C72.7852 178.704 73.5264 179.711 74.5665 180.398C73.3934 180.198 72.4084 179.899 71.6117 179.5C70.8371 179.168 70.1954 178.459 69.6868 177.374C67.9376 178.325 65.7348 179.132 63.0782 179.795C60.5101 180.503 57.7651 181.011 54.843 181.319C51.943 181.695 48.9878 181.793 45.9774 181.615C42.9891 181.503 40.178 181.037 37.5442 180.217C34.9104 179.397 32.5976 178.211 30.606 176.661C28.703 175.155 27.3424 173.173 26.5244 170.716C25.6179 167.993 25.287 165.226 25.5317 162.414C25.8427 159.581 26.6739 156.98 28.0251 154.613C29.3764 152.245 31.1813 150.242 33.4398 148.605C35.7648 146.946 38.499 145.851 41.6426 145.321C39.074 147.135 36.9372 148.805 35.2321 150.332C33.5935 151.837 32.2758 153.308 31.2791 154.747C30.2603 156.119 29.5182 157.435 29.0528 158.697C28.5874 159.959 28.2881 161.276 28.1547 162.648C29.7473 165.438 32.0044 167.453 34.9258 168.694C37.9358 169.979 41.1784 170.744 44.6536 170.989C48.151 171.3 51.6485 171.169 55.1462 170.595C58.666 170.087 61.7875 169.38 64.5106 168.473C64.8427 168.363 65.1748 168.252 65.5068 168.142C65.861 168.098 66.1821 167.954 66.4699 167.711L63.5847 159.043C62.5667 158.423 61.5044 157.891 60.3978 157.448C59.3797 157.049 58.2952 156.783 57.1442 156.65C58.9158 154.88 60.1562 152.954 60.8654 150.874L58.1128 142.605C52.1366 141.496 47.013 139.18 42.7422 135.659C38.5379 132.116 35.7285 127.333 34.3143 121.312C31.7917 119.053 29.9777 116.263 28.8723 112.942C28.0764 110.551 27.8006 108.171 28.0451 105.803C28.2896 103.434 28.5119 100.999 28.7122 98.4982C27.1629 97.8334 25.6802 96.9253 24.264 95.7736C22.892 94.5334 21.9518 93.1496 21.4433 91.622C21.1117 90.6257 21.09 89.5632 21.3782 88.4344C22.4845 89.763 23.8123 90.649 25.3616 91.0923C26.9552 91.4471 28.6154 91.5585 30.3421 91.4264C32.0466 91.2279 33.7401 90.8854 35.4227 90.3991C37.1716 89.8907 38.7435 89.4044 40.1382 88.9401L38.6459 84.457C38.2258 83.195 37.5068 82.1433 36.4889 81.3017C37.7285 81.4793 38.6691 81.7564 39.3109 82.133C39.997 82.421 40.517 82.875 40.8709 83.495C41.2692 84.0264 41.5677 84.7017 41.7666 85.5208C42.0098 86.2513 42.2972 87.1148 42.6289 88.111C46.7024 86.8288 50.4327 85.8453 53.8198 85.1604C57.2512 84.3871 60.4167 84.2556 63.3163 84.7659C66.2602 85.1877 68.9714 86.3509 71.4498 88.2556C73.9947 90.1382 76.4395 93.0501 78.7843 96.9913C79.4037 97.9655 79.9789 98.9176 80.5097 99.8475C81.0185 100.711 81.4608 101.707 81.8367 102.836C82.7431 105.559 82.7864 108.127 81.9663 110.54C81.1463 112.952 79.1755 114.678 76.0539 115.717C74.7256 116.159 73.4084 116.303 72.1025 116.147C70.7744 115.925 69.535 115.526 68.3841 114.95C67.2776 114.286 66.304 113.466 65.4632 112.492C64.6003 111.451 63.9588 110.3 63.5388 109.038C62.9197 107.178 62.9759 105.241 63.7072 103.227C64.4828 101.125 65.9333 99.7198 68.0586 99.0123C69.3869 98.5701 70.6929 98.6149 71.9766 99.1467C73.3267 99.6564 74.2228 100.575 74.665 101.904C75.0409 103.033 74.9187 103.996 74.2986 104.792C73.7228 105.5 72.9146 106.065 71.874 106.485C71.5645 105.555 70.9782 104.791 70.1151 104.193C69.2964 103.506 68.3557 103.34 67.293 103.694C66.5624 103.937 66.0199 104.413 65.6654 105.121C65.3553 105.741 65.3218 106.416 65.565 107.146C65.8082 107.877 66.2728 108.386 66.9589 108.674C67.645 108.962 68.4086 109.151 69.2498 109.24C70.0688 109.262 70.8989 109.207 71.7401 109.075C72.5813 108.942 73.3008 108.776 73.8986 108.577C74.9613 108.224 75.8912 107.693 76.6884 106.985C77.4634 106.21 78.0725 105.38 78.5156 104.495C79.003 103.521 79.2912 102.503 79.3801 101.441C79.5355 100.356 79.4474 99.3158 79.1158 98.3195C78.2978 95.8621 76.6272 94.2787 74.1039 93.5693C71.5586 92.7935 68.7475 92.5489 65.6704 92.8354C62.5713 93.0555 59.5385 93.5855 56.5719 94.4255C53.5833 95.199 51.1923 95.8842 49.399 96.4812L45.8125 97.6751L52.1467 116.703C55.4669 117.148 59.3848 117.503 63.9004 117.771C68.4161 118.038 72.9538 118.483 77.5135 119.105C82.1176 119.638 86.4559 120.481 90.5284 121.633C94.601 122.786 97.7989 124.525 100.122 126.85C101.892 128.622 104.216 129.73 107.094 130.174ZM53.3705 128.359C50.67 128.003 47.9918 127.493 45.3357 126.828C42.7461 126.141 40.2784 125.155 37.9325 123.87C40.0345 125.973 42.5352 127.613 45.4346 128.787C48.3118 129.895 51.2666 130.682 54.299 131.148L53.3705 128.359ZM98.3538 147.801C99.0626 146.828 99.6939 145.843 100.248 144.847C100.824 143.917 101.344 142.933 101.809 141.892L101.445 140.464C101.29 140 100.98 139.402 100.516 138.671C100.118 137.918 99.6642 137.221 99.1553 136.579C98.6243 135.87 98.0269 135.294 97.363 134.851C96.7434 134.32 96.168 134.032 95.6368 133.987L95.7032 133.855C93.4459 132.614 90.6018 131.716 87.1709 131.162C83.7844 130.518 80.2428 130.074 76.5462 129.829C72.8939 129.495 69.2526 129.306 65.6224 129.26C62.0364 129.126 58.871 128.925 56.1263 128.659L57.088 131.548C59.3236 131.836 61.7696 131.981 64.4259 131.982C67.0822 131.983 69.7606 132.051 72.4612 132.185C75.1617 132.319 77.829 132.574 80.463 132.952C83.1413 133.241 85.6314 133.85 87.9331 134.781C90.2349 135.712 92.2487 136.996 93.9747 138.635C95.6785 140.208 96.9726 142.322 97.8569 144.979C98.0338 145.51 98.1554 145.986 98.2216 146.407C98.2878 146.827 98.3319 147.292 98.3538 147.801ZM28.7122 98.4982C28.9328 100.269 29.2642 101.819 29.7064 103.147C30.4581 105.405 31.4866 107.276 32.7921 108.76C34.0754 110.177 35.5469 111.384 37.2067 112.381C38.9108 113.289 40.792 114.065 42.8504 114.707C44.8867 115.284 47.0447 115.783 49.3246 116.204L43.3219 98.5041C40.7981 99.3443 38.3408 99.8303 35.95 99.9621C33.6257 100.072 31.2131 99.5838 28.7122 98.4982ZM68.8278 166.815C71.241 165.864 73.6985 164.825 76.2003 163.697C78.7021 162.569 81.1265 161.319 83.4735 159.948C85.8426 158.643 88.09 157.194 90.2157 155.601C92.3635 154.074 94.3343 152.349 96.1281 150.423C95.3318 148.918 94.1259 147.733 92.5103 146.869C90.8948 146.005 89.0467 145.329 86.9661 144.841C84.8855 144.354 82.6389 144.032 80.2261 143.876C77.8133 143.72 75.4227 143.63 73.0542 143.607C70.752 143.562 68.5274 143.528 66.3802 143.505C64.2995 143.46 62.4844 143.326 60.9349 143.104L63.2564 150.078C64.2079 150.72 65.226 151.23 66.3105 151.607C67.4614 151.961 68.6234 152.238 69.7966 152.438C68.0472 154.053 66.7736 155.99 65.9757 158.247L68.8278 166.815ZM124.558 84.0781C126.306 84.8978 128.121 85.4741 130.003 85.8069C131.951 86.1176 133.899 86.3176 135.846 86.407C134.761 87.3584 133.776 88.2766 132.89 89.1617C132.071 90.0247 131.351 91.0758 130.731 92.3152L136.103 108.454C137.342 109.518 138.637 110.193 139.987 110.482C138.902 111.654 138.271 112.971 138.093 114.432L140.116 120.509C143.281 121.816 145.416 124.131 146.521 127.451C147.406 130.108 147.748 132.908 147.547 135.852C147.369 138.863 147.224 141.751 147.112 144.518C147.045 146.311 146.635 147.96 145.881 149.465C145.195 150.948 144.242 152.298 143.024 153.515C141.873 154.71 140.555 155.739 139.072 156.601C137.588 157.464 136.05 158.161 134.456 158.691C132.862 159.222 131.024 159.575 128.943 159.752C126.951 159.972 124.97 159.894 123 159.517C121.118 159.184 119.37 158.475 117.754 157.39C116.228 156.349 115.143 154.865 114.502 152.939C113.861 151.013 113.652 148.943 113.874 146.73C114.118 144.582 114.274 142.502 114.341 140.487C114.517 143.011 115.203 145.07 116.398 146.664C117.681 148.303 119.241 149.554 121.078 150.418C122.915 151.282 124.907 151.726 127.054 151.749C129.29 151.816 131.47 151.496 133.595 150.788C136.518 149.816 139.053 148.234 141.201 146.043C143.349 143.853 144.9 141.308 145.853 138.408C145.278 137.124 144.581 136.139 143.762 135.452C143.032 134.81 142.202 134.312 141.272 133.957C140.431 133.647 139.535 133.392 138.583 133.192C137.654 133.059 136.757 132.804 135.894 132.428C135.053 132.117 134.301 131.63 133.637 130.966C132.973 130.301 132.442 129.261 132.044 127.844C132.243 128.884 132.021 129.991 131.379 131.164C130.803 132.315 130.028 133.421 129.053 134.483C128.101 135.612 127.115 136.641 126.097 137.57C125.1 138.566 124.281 139.429 123.639 140.159C122.93 140.026 122.089 139.826 121.115 139.56C120.142 139.294 119.134 139.039 118.094 138.796C117.076 138.618 116.08 138.507 115.106 138.462C114.132 138.418 113.28 138.517 112.549 138.76C112.217 138.871 111.918 138.97 111.652 139.058C111.409 139.213 111.132 139.379 110.822 139.556C111.664 137.874 111.82 136.236 111.289 134.642L107.741 123.982C106.568 122.897 105.251 122.266 103.79 122.088C104.831 121.004 105.496 119.676 105.784 118.104L101.274 104.555C101.031 103.825 100.61 103.227 100.013 102.762C99.4596 102.208 98.7624 101.887 97.9213 101.798C99.9806 100.227 101.708 98.435 103.103 96.4212C104.499 94.4074 105.772 92.2496 106.924 89.948L115.912 116.946L119.498 115.753C120.473 114.469 121.049 113.097 121.226 111.636C122.421 112.788 123.705 113.541 125.077 113.895L127.169 113.199L120.47 93.0747C119.94 91.4807 118.833 90.2627 117.151 89.4209C119.011 89.2446 120.439 88.6585 121.435 87.6628C122.41 86.6007 123.451 85.4058 124.558 84.0781ZM125.409 114.892C124.523 115.998 123.947 117.37 123.68 119.008C122.486 117.857 121.202 117.104 119.83 116.749L116.243 117.943L119.958 129.101C121.064 129.323 122.315 129.644 123.709 130.065C125.081 130.42 126.299 130.42 127.362 130.067C127.959 129.868 128.469 129.514 128.889 129.005C129.355 128.407 129.477 127.776 129.255 127.112C129.012 126.382 128.592 126.116 127.994 126.315C127.728 126.403 127.485 126.669 127.263 127.111C127.396 127.51 127.684 127.709 128.126 127.709C127.838 128.617 127.296 129.203 126.499 129.469C125.635 129.756 124.805 129.7 124.008 129.302C123.212 128.903 122.681 128.305 122.415 127.508C122.039 126.379 122.139 125.35 122.715 124.42C123.336 123.402 124.144 122.727 125.14 122.396C126.468 121.953 127.653 122.076 128.693 122.762C129.799 123.427 130.64 124.291 131.215 125.353L127.501 114.195L125.409 114.892ZM150.59 137.385C150.679 136.101 150.923 134.839 151.322 133.6C151.809 132.405 152.584 131.409 153.647 130.613L145.92 107.4C144.858 106.425 143.541 105.794 141.97 105.506C143.011 104.421 143.675 103.094 143.964 101.522L129.77 58.8823C129.195 57.1555 128.044 55.9154 126.318 55.1621C126.982 55.1624 127.613 55.063 128.211 54.864C128.941 54.6208 129.683 54.1895 130.436 53.57C131.233 52.862 131.986 52.1318 132.695 51.3794C133.448 50.5386 134.145 49.753 134.788 49.0228C135.408 48.2262 135.928 47.5734 136.349 47.0644C137.544 47.3305 138.872 47.5524 140.333 47.7301C141.838 47.8193 143.31 48.0302 144.749 48.3628C146.188 48.6954 147.471 49.2272 148.6 49.9582C149.707 50.6227 150.492 51.6523 150.956 53.0471C151.42 54.4419 151.431 55.9139 150.988 57.4632C150.611 58.9905 149.625 60.0194 148.031 60.55C147.035 60.8816 146.006 60.7816 144.943 60.2499C143.947 59.6961 143.273 58.8879 142.919 57.8252C142.654 57.0282 142.72 56.2313 143.119 55.4346C143.518 54.6378 144.116 54.1068 144.913 53.8415C145.71 53.5762 146.54 53.7426 147.403 54.3406L147.037 55.237C147.436 55.547 147.801 55.6468 148.133 55.5362C148.731 55.3373 148.93 54.9389 148.731 54.3411C148.488 53.6106 148.034 53.1345 147.37 52.9128C146.773 52.6691 146.142 52.6578 145.478 52.8788C144.747 53.122 144.083 53.5645 143.485 54.2062C142.865 54.7815 142.278 55.3457 141.724 55.8989L155.653 97.7415C156.759 98.6274 158.132 99.2035 159.769 99.4698C159.216 100.023 158.762 100.654 158.407 101.362C158.097 101.982 157.798 102.634 157.51 103.321L166.398 130.02C167.659 130.264 169.142 130.619 170.847 131.084C172.551 131.55 174.277 131.971 176.026 132.348C177.841 132.703 179.556 132.87 181.172 132.848C182.877 132.871 184.272 132.518 185.356 131.788C184.891 133.492 184.182 135.019 183.23 136.369C182.299 137.785 180.971 138.781 179.244 139.356C177.783 139.842 176.222 140.03 174.562 139.918C172.902 139.807 171.231 139.552 169.548 139.152C167.866 138.753 166.162 138.288 164.436 137.756C162.731 137.29 161.049 136.891 159.389 136.558C157.818 136.27 156.268 136.159 154.741 136.224C153.213 136.29 151.83 136.677 150.59 137.385ZM173.204 130.189C174.2 130.521 175.23 130.511 176.292 130.157C177.687 129.693 178.717 128.797 179.382 127.469C180.046 126.141 180.224 124.791 179.914 123.418C181.132 123.308 182.338 123.497 183.533 123.984C184.795 124.449 185.636 125.313 186.056 126.575C186.432 127.704 186.287 128.711 185.623 129.596C185.047 130.526 184.228 131.167 183.165 131.521C181.571 132.052 179.856 132.106 178.018 131.685C176.27 131.308 174.665 130.809 173.204 130.189ZM140.96 56.9279L139.997 58.0232L153.959 99.9655L154.657 98.0731L140.96 56.9279ZM154.821 102.556L163.841 129.654L165.236 129.854L156.514 103.652C156.27 103.364 155.983 103.165 155.651 103.054C155.363 102.855 155.086 102.689 154.821 102.556ZM160.491 71.6742C162.173 72.0734 163.722 72.4061 165.139 72.6723C166.6 72.85 168.127 72.4521 169.721 71.4788C169.323 72.2755 169.034 73.0723 168.857 73.8691C168.746 74.6438 168.845 75.4961 169.155 76.426L179.933 108.804C181.04 109.026 182.29 109.347 183.685 109.769C185.123 110.101 186.374 110.091 187.437 109.737C188.034 109.538 188.544 109.184 188.964 108.675C189.429 108.078 189.54 107.414 189.297 106.683C189.209 106.417 189.032 106.218 188.766 106.085C188.479 105.886 188.169 105.841 187.837 105.952C187.305 106.129 187.117 106.45 187.272 106.915L188.201 107.38C187.913 108.287 187.337 108.885 186.474 109.172C185.677 109.437 184.858 109.415 184.017 109.105C183.22 108.706 182.678 108.075 182.391 107.211C182.037 106.149 182.137 105.119 182.691 104.124C183.311 103.106 184.119 102.431 185.115 102.099C185.846 101.856 186.687 101.834 187.639 102.034L185.583 95.857C184.476 94.9711 183.104 94.395 181.466 94.1287C182.618 92.9338 183.371 91.6502 183.726 90.2779L178.386 74.2383C177.014 74.5476 175.719 75.0894 174.501 75.8637C175.52 74.4917 176.306 72.9757 176.86 71.3157C177.392 69.5893 177.636 67.8849 177.593 66.2026C178.501 65.6053 179.585 65.0966 180.847 64.6765C182.906 63.9912 184.766 63.9255 186.426 64.4796C188.13 64.9452 189.635 65.8091 190.94 67.0714C192.224 68.2672 193.341 69.7397 194.292 71.4888C195.221 73.1716 195.962 74.8431 196.515 76.5035C197.156 78.4296 197.664 80.732 198.039 83.4106C198.459 86.0007 198.679 88.7677 198.7 91.7118C198.765 94.5674 198.587 97.4671 198.165 100.411C197.81 103.333 197.134 106.066 196.136 108.612C195.206 111.135 193.943 113.326 192.349 115.184C190.776 117.11 188.794 118.47 186.403 119.266C185.075 119.708 183.78 119.807 182.518 119.563C181.279 119.386 180.017 119.142 178.733 118.831C177.45 118.521 176.133 118.332 174.782 118.265C173.499 118.176 172.17 118.508 170.798 119.26C171.196 118.463 171.451 117.677 171.562 116.903C171.74 116.106 171.674 115.242 171.364 114.313L167.55 102.856C166.201 101.461 164.563 100.641 162.637 100.397C163.301 99.7327 163.822 98.9692 164.199 98.1061C164.575 97.2429 164.874 96.3687 165.096 95.4833L160.586 81.9343C159.391 81.2255 158.163 80.749 156.901 80.505C155.639 80.261 154.322 80.183 152.95 80.271C154.456 79.032 155.862 77.7155 157.168 76.3214C158.475 74.9274 159.582 73.3783 160.491 71.6742ZM188.901 102.499C189.874 102.986 190.593 103.706 191.058 104.658C191.567 105.522 191.909 106.441 192.086 107.415C193.127 106.33 193.946 105.135 194.545 103.83C195.187 102.435 195.708 101.008 196.107 99.5469C196.484 98.0197 196.75 96.4924 196.906 94.9651C197.061 93.4378 197.239 91.9769 197.439 90.5824C196.753 88.7448 195.847 86.7965 194.718 84.7374C193.657 82.6562 192.374 80.7962 190.869 79.1576C189.342 77.4525 187.605 76.1125 185.658 75.1377C183.777 74.1409 181.707 73.7969 179.449 74.1059L184.722 89.9463C186.005 90.9208 187.378 91.4969 188.839 91.6746C187.687 92.8695 186.934 94.153 186.579 95.5253L188.901 102.499ZM216.837 53.3604C218.01 53.5601 219.128 53.8152 220.19 54.1255C221.23 54.3694 222.26 54.5801 223.278 54.7576C224.274 54.8687 225.27 54.8691 226.266 54.7588C227.262 54.6486 228.292 54.3059 229.355 53.7308C228.956 54.5275 228.701 55.3132 228.59 56.088C228.457 56.7962 228.534 57.5821 228.821 58.4455L233.597 72.7916C234.77 73.8767 236.086 74.5081 237.547 74.6858C236.484 75.925 235.809 77.2197 235.52 78.5698L239.732 91.2223C240.861 91.7318 241.724 92.1085 242.321 92.3522C242.941 92.6624 243.948 92.9174 245.343 93.1172L239.96 101.217C238.367 100.862 236.795 100.573 235.246 100.352C233.785 100.174 232.291 100.561 230.763 101.512C231.427 100.184 231.682 99.0662 231.528 98.1585C231.373 97.2509 231.075 96.1329 230.633 94.8046C230.942 95.9558 230.776 97.1178 230.133 98.2908C229.491 99.4637 228.649 100.592 227.608 101.677C226.656 102.805 225.637 103.845 224.552 104.796C223.534 105.726 222.725 106.511 222.127 107.153C221.198 107.02 220.169 106.809 219.04 106.521C217.977 106.21 216.86 105.955 215.686 105.756C214.535 105.622 213.384 105.6 212.233 105.688C211.171 105.82 210.185 106.185 209.278 106.782C210.12 105.1 210.275 103.462 209.745 101.868L205.931 90.4115C205.688 89.681 205.267 89.0831 204.67 88.618C204.072 88.1529 203.386 87.8649 202.611 87.7539L222.309 69.7986L220.319 63.8211C219.367 63.6215 218.161 63.3221 216.7 62.9231C215.239 62.5241 214.044 62.4793 213.114 62.7888C212.384 63.032 211.52 63.4301 210.524 63.9831C209.594 64.514 208.863 65.0892 208.332 65.7088L211.416 74.974L201.617 83.437L202.15 79.7183L200.359 74.3386C199.851 72.811 198.788 71.9472 197.173 71.7474L216.837 53.3604ZM230.003 92.9117L223.105 72.1896L218.886 77.4673L220.444 82.1497C221.042 82.6148 221.684 82.9914 222.37 83.2794C223.1 83.4789 223.853 83.6342 224.627 83.7452C224.074 84.2984 223.575 84.9069 223.132 85.5708C222.756 86.2126 222.468 86.8987 222.268 87.6291L223.064 90.0201L223.728 89.6883C225.057 89.2462 226.274 89.3573 227.381 90.0219C228.554 90.6643 229.428 91.6276 230.003 92.9117ZM217.155 86.2324C218.285 85.1925 219.049 83.9421 219.448 82.4813L218.055 78.2971L214.168 83.2429L218.513 96.2938C219.487 96.5598 220.449 96.7926 221.401 96.9922C222.419 97.1697 223.437 97.3473 224.456 97.5248L224.223 96.8274C223.515 96.9156 222.84 96.7715 222.198 96.3949C221.623 95.9962 221.214 95.4316 220.97 94.701C220.727 93.9704 220.739 93.2289 221.004 92.4763C221.27 91.7238 221.658 91.1153 222.167 90.6506L221.272 87.9607C219.988 86.9862 218.616 86.4101 217.155 86.2324ZM225.518 97.3924L226.016 97.2266C226.614 97.0276 227.123 96.6736 227.544 96.1647C228.009 95.5672 228.12 94.9031 227.877 94.1726C227.789 93.9069 227.612 93.7076 227.346 93.5747C227.058 93.3753 226.748 93.3309 226.416 93.4415C225.885 93.6183 225.697 93.9392 225.851 94.4042L226.781 94.8694C226.471 95.7104 225.961 96.2858 225.253 96.5954L225.518 97.3924ZM239.549 45.1359L241.848 26.4431L235.67 30.8234L226.705 31.4839L239.549 45.1359ZM252.488 72.3684L256.301 83.8253L257.862 84.5233L253.186 70.4761L252.488 72.3684ZM253.884 69.2478L259.123 84.9886C259.389 85.1216 259.809 85.2767 260.385 85.454C261.005 85.5428 261.702 85.532 262.477 85.4217C262.012 85.7978 261.569 86.4617 261.148 87.4133C260.815 88.4093 260.483 89.4053 260.15 90.4013C259.907 91.4416 259.674 92.4044 259.452 93.2897C259.297 94.153 259.153 94.7174 259.02 94.983C258.311 94.8499 257.503 94.6392 256.596 94.3511C255.777 94.1073 254.881 93.8523 253.907 93.5863C253.021 93.3646 252.125 93.2203 251.217 93.1536C250.376 93.0647 249.59 93.1418 248.86 93.385C248.262 93.584 247.698 93.8826 247.166 94.2808C248.008 92.5988 248.164 90.9609 247.633 89.3668L242.99 75.4193C241.817 74.3342 240.501 73.7027 239.04 73.5251C240.08 72.4408 240.745 71.1129 241.033 69.5414C240.215 67.084 239.265 64.5601 238.181 61.9697C237.164 59.3573 236.523 56.8778 236.258 54.5313C235.994 52.1848 236.393 50.0599 237.456 48.1566C238.497 46.1869 240.745 44.6273 244.199 43.4776L245.195 43.146L253.486 68.0523L254.78 68.2853L253.884 69.2478ZM252.191 67.4873L244.63 44.7728C244.341 45.9016 244.319 47.0526 244.562 48.2259C244.871 49.3771 245.214 50.5173 245.59 51.6464L250.498 66.3909L252.191 67.4873ZM271.099 51.8973L273.885 60.2658C274.991 61.1517 276.364 61.7278 278.002 61.9941C276.85 63.1889 276.097 64.4725 275.742 65.8448L280.882 81.2867L281.58 81.3866L273.939 90.0165C272.988 89.8169 272.113 89.6284 271.316 89.451C270.586 89.2515 269.878 89.1184 269.192 89.0517C268.527 89.0514 267.852 89.1286 267.166 89.2833C266.48 89.4379 265.694 89.7364 264.808 90.1788C265.65 88.4968 265.806 86.8588 265.275 85.2648L260.599 71.2176C259.426 70.1325 258.109 69.5011 256.649 69.3234C257.689 68.2392 258.354 66.9113 258.642 65.3398L253.701 50.4956C253.458 49.765 253.038 49.1672 252.44 48.7021C251.887 48.1484 251.19 47.8272 250.349 47.7383C250.858 47.495 251.644 46.9751 252.707 46.1787C253.747 45.3158 254.844 44.3976 255.995 43.4241C257.124 42.3842 258.165 41.4106 259.117 40.5034C260.07 39.5962 260.712 38.9767 261.044 38.6448C260.889 38.8439 260.844 39.2645 260.911 39.9065C261.021 40.4599 261.165 41.113 261.341 41.8657C261.563 42.5299 261.795 43.2272 262.038 43.9578C262.259 44.622 262.447 45.1865 262.602 45.6514C262.668 44.9653 263.056 44.1353 263.765 43.1616C264.474 42.1879 265.282 41.1811 266.19 40.1411C267.164 39.0789 268.094 38.1053 268.98 37.2203C269.933 36.3131 270.619 35.605 271.04 35.096C272.235 35.3622 273.364 35.6504 274.426 35.9607C275.489 36.2711 276.529 36.515 277.547 36.6925C278.61 36.7815 279.65 36.804 280.668 36.7602C281.731 36.6278 282.794 36.2741 283.856 35.699C283.014 37.3809 282.859 39.0189 283.389 40.613L288.132 54.8594C289.548 56.2324 291.152 57.0631 292.945 57.3516C292.369 58.0597 291.849 58.8232 291.384 59.6421C290.985 60.4388 290.719 61.302 290.586 62.2316L294.167 72.9912C295.451 73.3016 296.724 73.5788 297.986 73.8228C299.247 74.0669 300.52 74.3441 301.804 74.6545L294.163 83.2844C293.211 83.0848 292.337 82.8963 291.54 82.7189C290.81 82.5193 290.102 82.3862 289.415 82.3195C288.751 82.3193 288.076 82.3965 287.39 82.5511C286.704 82.7058 285.918 83.0043 285.032 83.4467C285.874 81.7647 286.03 80.1267 285.499 78.5327L274.721 46.1545C273.614 45.9326 272.342 45.6554 270.903 45.3228C269.508 44.9016 268.28 44.8679 267.217 45.2217C266.686 45.3986 266.188 45.7857 265.723 46.3832C265.302 46.8922 265.202 47.4787 265.423 48.1429C265.534 48.475 265.733 48.7407 266.02 48.94C266.308 49.1394 266.618 49.1838 266.95 49.0732C267.415 48.9185 267.57 48.6086 267.415 48.1437L266.552 47.5457C266.707 46.6824 267.25 46.0961 268.18 45.7865C268.977 45.5212 269.774 45.588 270.57 45.9867C271.412 46.297 271.976 46.8838 272.263 47.7472C272.484 48.4114 272.473 49.153 272.229 49.9719C271.985 50.7908 271.609 51.4326 271.099 51.8973ZM264.525 51.4297L273.943 79.7233L279.654 80.921L274.746 66.1764C273.639 65.2905 272.267 64.7144 270.629 64.4481C271.692 63.4303 272.445 62.1468 272.889 60.5974L270.203 52.5278L269.339 52.9259C268.476 53.2133 267.59 53.2129 266.683 52.9248C265.842 52.6145 265.123 52.1162 264.525 51.4297Z" fill="#E6007E"/>
</svg>
