<svg width="279" height="103" viewBox="0 0 279 103" fill="none" xmlns="http://www.w3.org/2000/svg">
<path d="M85.8 67C83.5333 68.2 81.8333 69.7 80.7 71.5C79.6333 73.2333 78.6 75.1333 77.6 77.2C76.6667 79.3333 75.5333 81.4667 74.2 83.6C72.9333 85.8 70.9667 87.8667 68.3 89.8C65.7 91.7333 62.1667 93.4333 57.7 94.9C53.2333 96.4333 47.4 97.5333 40.2 98.2V99.2C40.2 100.533 40.5667 101.667 41.3 102.6C40.3 102.067 39.5 101.5 38.9 100.9C38.3 100.367 37.9333 99.5333 37.8 98.4C35.9333 98.7333 33.7 98.8 31.1 98.6C28.5667 98.4667 25.9333 98.1 23.2 97.5C20.4667 96.9667 17.7667 96.1667 15.1 95.1C12.4333 94.1 10.0333 92.8333 7.9 91.3C5.76667 89.7667 4.03333 88 2.7 86C1.43333 84.0667 0.8 81.8667 0.8 79.4C0.8 76.6667 1.33333 74.0667 2.4 71.6C3.53333 69.1333 5.06667 67.0333 7 65.3C8.93333 63.5667 11.1667 62.3 13.7 61.5C16.3 60.7 19.1 60.5333 22.1 61C19.2333 61.8667 16.8 62.7333 14.8 63.6C12.8667 64.4667 11.2333 65.4 9.9 66.4C8.56667 67.3333 7.5 68.3 6.7 69.3C5.9 70.3 5.23333 71.4 4.7 72.6C5.3 75.6 6.73333 78.1 9 80.1C11.3333 82.1667 14.0333 83.8333 17.1 85.1C20.1667 86.4333 23.3667 87.3667 26.7 87.9C30.0333 88.5 33.0667 88.8 35.8 88.8C36.1333 88.8 36.4667 88.8 36.8 88.8C37.1333 88.8667 37.4667 88.8333 37.8 88.7V80C37.0667 79.1333 36.2667 78.3333 35.4 77.6C34.6 76.9333 33.7 76.3667 32.7 75.9C34.8333 74.8333 36.5333 73.4667 37.8 71.8V63.5C32.7333 60.7 28.8 57.0667 26 52.6C23.2667 48.1333 22.1667 42.9667 22.7 37.1C21.1 34.3 20.3 31.2333 20.3 27.9C20.3 25.5 20.7667 23.2667 21.7 21.2C22.6333 19.1333 23.5667 17 24.5 14.8C23.3 13.7333 22.2333 12.4667 21.3 11C20.4333 9.46667 20 7.93333 20 6.4C20 5.4 20.3 4.43333 20.9 3.49999C21.5 5.03333 22.4333 6.23333 23.7 7.1C25.0333 7.9 26.5 8.5 28.1 8.9C29.7 9.23333 31.3333 9.43333 33 9.49999C34.7333 9.56666 36.3 9.6 37.7 9.6V5.1C37.7 3.83333 37.3667 2.66666 36.7 1.6C37.7667 2.13333 38.5333 2.66666 39 3.2C39.5333 3.66666 39.8667 4.23333 40 4.89999C40.2 5.49999 40.2667 6.2 40.2 7C40.2 7.73333 40.2 8.6 40.2 9.6C44.2667 9.66667 47.9333 9.9 51.2 10.3C54.5333 10.6333 57.4333 11.4667 59.9 12.8C62.4333 14.0667 64.5333 15.9333 66.2 18.4C67.9333 20.8667 69.2667 24.2333 70.2 28.5C70.4667 29.5667 70.7 30.6 70.9 31.6C71.1 32.5333 71.2 33.5667 71.2 34.7C71.2 37.4333 70.4667 39.7667 69 41.7C67.5333 43.6333 65.2333 44.6 62.1 44.6C60.7667 44.6 59.5333 44.3333 58.4 43.8C57.2667 43.2 56.2667 42.4667 55.4 41.6C54.6 40.6667 53.9667 39.6333 53.5 38.5C53.0333 37.3 52.8 36.0667 52.8 34.8C52.8 32.9333 53.4333 31.2 54.7 29.6C56.0333 27.9333 57.7667 27.1 59.9 27.1C61.2333 27.1 62.4 27.5333 63.4 28.4C64.4667 29.2667 65 30.3667 65 31.7C65 32.8333 64.6 33.6667 63.8 34.2C63.0667 34.6667 62.1667 34.9333 61.1 35C61.1 34.0667 60.8 33.2 60.2 32.4C59.6667 31.5333 58.8667 31.1 57.8 31.1C57.0667 31.1 56.4333 31.3667 55.9 31.9C55.4333 32.3667 55.2 32.9667 55.2 33.7C55.2 34.4333 55.4667 35.0333 56 35.5C56.5333 35.9667 57.1667 36.3667 57.9 36.7C58.6333 36.9667 59.4 37.1667 60.2 37.3C61 37.4333 61.7 37.5 62.3 37.5C63.3667 37.5 64.3667 37.3 65.3 36.9C66.2333 36.4333 67.0333 35.8667 67.7 35.2C68.4333 34.4667 69 33.6333 69.4 32.7C69.8667 31.7667 70.1 30.8 70.1 29.8C70.1 27.3333 69.0667 25.4 67 24C64.9333 22.5333 62.4667 21.4667 59.6 20.8C56.7333 20.0667 53.8333 19.6333 50.9 19.5C47.9667 19.3 45.6 19.2 43.8 19.2H40.2V38.3C43.0667 39.7 46.5 41.2 50.5 42.8C54.5 44.4 58.4667 46.1667 62.4 48.1C66.4 49.9667 70.0667 52.0333 73.4 54.3C76.7333 56.5667 79.1 59.1 80.5 61.9C81.5667 64.0333 83.3333 65.7333 85.8 67ZM37.8 49.2C35.4667 48.0667 33.2 46.8 31 45.4C28.8667 44 26.9333 42.3667 25.2 40.5C26.4667 43.0333 28.2333 45.2667 30.5 47.2C32.7667 49.0667 35.2 50.6667 37.8 52V49.2ZM72.6 80.3C73.5333 79.6333 74.4 78.9333 75.2 78.2C76 77.5333 76.7667 76.8 77.5 76L77.6 74.6C77.6 74.1333 77.5 73.5 77.3 72.7C77.1667 71.9 76.9667 71.1333 76.7 70.4C76.4333 69.6 76.0667 68.9 75.6 68.3C75.2 67.6333 74.7667 67.2 74.3 67L74.4 66.9C72.7333 65.1 70.4333 63.4333 67.5 61.9C64.6333 60.3 61.5667 58.8333 58.3 57.5C55.1 56.1 51.8667 54.8333 48.6 53.7C45.4 52.5 42.6 51.3667 40.2 50.3V53.2C42.1333 54.1333 44.3 55 46.7 55.8C49.1 56.6 51.5 57.4667 53.9 58.4C56.3 59.3333 58.6333 60.3667 60.9 61.5C63.2333 62.5667 65.3 63.8667 67.1 65.4C68.9 66.9333 70.3333 68.7 71.4 70.7C72.4667 72.6333 73 74.9333 73 77.6C73 78.1333 72.9667 78.6 72.9 79C72.8333 79.4 72.7333 79.8333 72.6 80.3ZM24.5 14.8C24.1667 16.4667 24 17.9667 24 19.3C24 21.5667 24.3667 23.5667 25.1 25.3C25.8333 26.9667 26.8 28.5 28 29.9C29.2667 31.2333 30.7333 32.5 32.4 33.7C34.0667 34.8333 35.8667 35.9333 37.8 37L37.7 19.2C35.1667 19.2 32.8 18.9 30.6 18.3C28.4667 17.7 26.4333 16.5333 24.5 14.8ZM40.2 88.6C42.6667 88.4667 45.2 88.2667 47.8 88C50.4 87.7333 52.9667 87.3333 55.5 86.8C58.0333 86.3333 60.5 85.7 62.9 84.9C65.3 84.1667 67.6 83.2 69.8 82C69.5333 80.4 68.8 78.9667 67.6 77.7C66.4 76.4333 64.9333 75.2667 63.2 74.2C61.4667 73.1333 59.5333 72.1667 57.4 71.3C55.2667 70.4333 53.1333 69.6333 51 68.9C48.9333 68.1667 46.9333 67.4667 45 66.8C43.1333 66.1333 41.5333 65.4667 40.2 64.8V71.8C40.8667 72.6667 41.6333 73.4333 42.5 74.1C43.4333 74.7667 44.4 75.3667 45.4 75.9C43.3333 76.8333 41.6 78.2 40.2 80V88.6ZM115.447 30.6C116.78 31.8667 118.247 32.9333 119.847 33.8C121.514 34.6667 123.214 35.4333 124.947 36.1C123.68 36.6333 122.514 37.1667 121.447 37.7C120.447 38.2333 119.48 38.9667 118.547 39.9V56.1C119.347 57.4333 120.314 58.4333 121.447 59.1C120.114 59.8333 119.147 60.8333 118.547 62.1V68.2C121.014 70.3333 122.247 73.0667 122.247 76.4C122.247 79.0667 121.714 81.7 120.647 84.3C119.58 86.9667 118.58 89.5333 117.647 92C117.047 93.6 116.18 94.9667 115.047 96.1C113.98 97.2333 112.714 98.1667 111.247 98.9C109.847 99.6333 108.347 100.167 106.747 100.5C105.147 100.833 103.547 101 101.947 101C100.347 101 98.5802 100.767 96.6469 100.3C94.7802 99.9 93.0135 99.2333 91.3469 98.3C89.7469 97.4333 88.3802 96.2667 87.2469 94.8C86.1802 93.4 85.6469 91.7333 85.6469 89.8C85.6469 87.8667 86.0802 85.9333 86.9469 84C87.8135 82.1333 88.5802 80.3 89.2469 78.5C88.6469 80.8333 88.6469 82.9 89.2469 84.7C89.9135 86.5667 90.9469 88.1667 92.3469 89.5C93.7469 90.8333 95.4135 91.8333 97.3469 92.5C99.3469 93.2333 101.414 93.6 103.547 93.6C106.48 93.6 109.247 92.9333 111.847 91.6C114.447 90.2667 116.614 88.4333 118.347 86.1C118.214 84.7667 117.88 83.6667 117.347 82.8C116.88 82 116.28 81.3 115.547 80.7C114.88 80.1667 114.147 79.6667 113.347 79.2C112.547 78.8 111.814 78.3 111.147 77.7C110.48 77.1667 109.947 76.5 109.547 75.7C109.147 74.9 108.98 73.8 109.047 72.4C108.914 73.4 108.38 74.3333 107.447 75.2C106.58 76.0667 105.547 76.8333 104.347 77.5C103.147 78.2333 101.947 78.8667 100.747 79.4C99.5469 80 98.5469 80.5333 97.7469 81C97.1469 80.6667 96.4469 80.2333 95.6469 79.7C94.8469 79.1667 94.0135 78.6333 93.1469 78.1C92.2802 77.6333 91.4135 77.2333 90.5469 76.9C89.6802 76.5667 88.8802 76.4 88.1469 76.4C87.8135 76.4 87.5135 76.4 87.2469 76.4C86.9802 76.4667 86.6802 76.5333 86.3469 76.6C87.6135 75.3333 88.2469 73.9 88.2469 72.3V61.6C87.5135 60.2667 86.5135 59.3 85.2469 58.7C86.5135 58.0333 87.5135 57.0333 88.2469 55.7V42.1C88.2469 41.3667 88.0469 40.7 87.6469 40.1C87.3135 39.4333 86.7802 38.9333 86.0469 38.6C88.3802 37.8 90.4802 36.7 92.3469 35.3C94.2135 33.9 96.0135 32.3333 97.7469 30.6V57.7H101.347C102.614 56.8333 103.547 55.7667 104.147 54.5C104.88 55.9 105.814 56.9667 106.947 57.7H109.047V37.5C109.047 35.9 108.414 34.4667 107.147 33.2C108.88 33.6 110.347 33.5 111.547 32.9C112.747 32.2333 114.047 31.4667 115.447 30.6ZM106.947 58.7C105.814 59.4333 104.88 60.5 104.147 61.9C103.414 60.5 102.48 59.4333 101.347 58.7H97.7469V69.9C98.6802 70.4333 99.7135 71.1 100.847 71.9C101.98 72.6333 103.08 73 104.147 73C104.747 73 105.314 72.8333 105.847 72.5C106.447 72.1 106.747 71.5667 106.747 70.9C106.747 70.1667 106.447 69.8 105.847 69.8C105.58 69.8 105.28 69.9667 104.947 70.3C104.947 70.7 105.147 70.9667 105.547 71.1C105.014 71.8333 104.347 72.2 103.547 72.2C102.68 72.2 101.947 71.9 101.347 71.3C100.747 70.7 100.447 70 100.447 69.2C100.447 68.0667 100.847 67.1667 101.647 66.5C102.514 65.7667 103.447 65.4 104.447 65.4C105.78 65.4 106.814 65.8667 107.547 66.8C108.347 67.7333 108.847 68.7667 109.047 69.9V58.7H106.947ZM122.935 86.6C123.402 85.4667 124.002 84.4 124.735 83.4C125.535 82.4667 126.535 81.8 127.735 81.4V58.1C127.068 56.9 126.068 55.9333 124.735 55.2C126.002 54.5333 127.002 53.5333 127.735 52.2V9.4C127.735 7.66666 127.068 6.2 125.735 5C126.335 5.2 126.935 5.3 127.535 5.3C128.268 5.3 129.068 5.13333 129.935 4.8C130.868 4.4 131.768 3.96666 132.635 3.49999C133.568 2.96666 134.435 2.46666 135.235 2C136.035 1.46666 136.702 1.03333 137.235 0.699995C138.235 1.3 139.368 1.9 140.635 2.5C141.968 3.03333 143.235 3.66666 144.435 4.4C145.635 5.13333 146.635 6 147.435 7C148.235 7.93333 148.635 9.1 148.635 10.5C148.635 11.9 148.202 13.2333 147.335 14.5C146.535 15.7667 145.335 16.4 143.735 16.4C142.735 16.4 141.835 16 141.035 15.2C140.302 14.4 139.935 13.4667 139.935 12.4C139.935 11.6 140.235 10.9 140.835 10.3C141.435 9.7 142.135 9.4 142.935 9.4C143.735 9.4 144.435 9.8 145.035 10.6L144.435 11.3C144.702 11.7 145.002 11.9 145.335 11.9C145.935 11.9 146.235 11.6 146.235 11C146.235 10.2667 145.968 9.7 145.435 9.3C144.968 8.9 144.402 8.7 143.735 8.7C143.002 8.7 142.268 8.9 141.535 9.3C140.802 9.63333 140.102 9.96666 139.435 10.3V52.3C140.168 53.4333 141.235 54.3667 142.635 55.1C141.968 55.4333 141.368 55.8667 140.835 56.4C140.368 56.8667 139.902 57.3667 139.435 57.9V84.7C140.502 85.3 141.735 86.0667 143.135 87C144.535 87.9333 145.968 88.8333 147.435 89.7C148.968 90.5667 150.468 91.2333 151.935 91.7C153.468 92.2333 154.835 92.3333 156.035 92C155.102 93.4 154.002 94.5667 152.735 95.5C151.468 96.5 149.968 97 148.235 97C146.768 97 145.302 96.7 143.835 96.1C142.368 95.5 140.935 94.7667 139.535 93.9C138.135 93.0333 136.735 92.1 135.335 91.1C133.935 90.1667 132.535 89.3 131.135 88.5C129.802 87.7667 128.435 87.2 127.035 86.8C125.635 86.4 124.268 86.3333 122.935 86.6ZM145.535 86.9C146.335 87.5 147.268 87.8 148.335 87.8C149.735 87.8 150.935 87.3 151.935 86.3C152.935 85.3 153.502 84.1333 153.635 82.8C154.768 83.0667 155.802 83.6 156.735 84.4C157.735 85.2 158.235 86.2333 158.235 87.5C158.235 88.6333 157.802 89.5 156.935 90.1C156.135 90.7667 155.202 91.1 154.135 91.1C152.535 91.1 150.968 90.6333 149.435 89.7C147.968 88.8333 146.668 87.9 145.535 86.9ZM138.435 11L137.235 11.7V53.8L138.435 52.3V11ZM137.235 56.4V83.6L138.435 84.2V57.9C138.302 57.5667 138.102 57.3 137.835 57.1C137.635 56.8333 137.435 56.6 137.235 56.4ZM151.648 30.2C153.048 31.0667 154.348 31.8333 155.548 32.5C156.814 33.1 158.314 33.2 160.048 32.8C159.448 33.4 158.948 34.0333 158.548 34.7C158.214 35.3667 158.048 36.1667 158.048 37.1V69.6C158.981 70.1333 160.014 70.8 161.148 71.6C162.348 72.3333 163.481 72.7 164.548 72.7C165.148 72.7 165.714 72.5333 166.248 72.2C166.848 71.8 167.148 71.2333 167.148 70.5C167.148 70.2333 167.048 70 166.848 69.8C166.648 69.5333 166.381 69.4 166.048 69.4C165.514 69.4 165.248 69.6333 165.248 70.1L165.948 70.8C165.414 71.5333 164.714 71.9 163.848 71.9C163.048 71.9 162.314 71.6333 161.648 71.1C161.048 70.5 160.748 69.7667 160.748 68.9C160.748 67.8333 161.148 66.9333 161.948 66.2C162.814 65.4667 163.748 65.1 164.748 65.1C165.481 65.1 166.248 65.3333 167.048 65.8V59.6C166.314 58.4667 165.248 57.5333 163.848 56.8C165.248 56.0667 166.314 55.1333 167.048 54V37.9C165.714 37.7667 164.381 37.8667 163.048 38.2C164.381 37.2667 165.548 36.1333 166.548 34.8C167.548 33.4 168.281 31.9333 168.748 30.4C169.748 30.1333 170.881 30 172.148 30C174.214 30 175.914 30.5 177.248 31.5C178.648 32.4333 179.748 33.6667 180.548 35.2C181.348 36.6667 181.914 38.3333 182.248 40.2C182.581 42 182.748 43.7333 182.748 45.4C182.748 47.3333 182.514 49.5667 182.048 52.1C181.648 54.5667 181.014 57.1333 180.148 59.8C179.348 62.4 178.314 64.9667 177.048 67.5C175.848 70.0333 174.414 72.3 172.748 74.3C171.148 76.3 169.348 77.9 167.348 79.1C165.348 80.3667 163.148 81 160.748 81C159.414 81 158.214 80.7 157.148 80.1C156.081 79.5667 155.014 78.9667 153.948 78.3C152.881 77.6333 151.748 77.0667 150.548 76.6C149.414 76.1333 148.114 76.0333 146.648 76.3C147.248 75.7 147.714 75.0667 148.048 74.4C148.448 73.7333 148.648 72.9333 148.648 72V60.5C147.848 58.8333 146.614 57.6 144.948 56.8C145.748 56.4 146.448 55.8667 147.048 55.2C147.648 54.5333 148.181 53.8333 148.648 53.1V39.5C147.781 38.5 146.814 37.7 145.748 37.1C144.681 36.5 143.514 36.0333 142.248 35.7C143.981 35.0333 145.648 34.2667 147.248 33.4C148.848 32.5333 150.314 31.4667 151.648 30.2ZM168.048 66.6C168.781 67.3333 169.214 68.2 169.348 69.2C169.548 70.1333 169.581 71.0667 169.448 72C170.714 71.3333 171.814 70.5 172.748 69.5C173.748 68.4333 174.648 67.3 175.448 66.1C176.248 64.8333 176.948 63.5333 177.548 62.2C178.148 60.8667 178.748 59.6 179.348 58.4C179.281 56.5333 179.048 54.5 178.648 52.3C178.314 50.1 177.714 48.0333 176.848 46.1C175.981 44.1 174.814 42.3667 173.348 40.9C171.948 39.4333 170.181 38.5 168.048 38.1V54C168.914 55.2667 169.981 56.2 171.248 56.8C169.848 57.5333 168.781 58.4667 168.048 59.6V66.6ZM208.073 30.6C209.073 31.1333 210.006 31.7 210.873 32.3C211.739 32.8333 212.606 33.3333 213.473 33.8C214.339 34.2 215.239 34.5 216.173 34.7C217.106 34.9 218.139 34.9 219.273 34.7C218.673 35.3 218.206 35.9333 217.873 36.6C217.539 37.2 217.373 37.9333 217.373 38.8V53.2C218.106 54.5333 219.106 55.5 220.373 56.1C219.039 56.9 218.039 57.8667 217.373 59V71.7C218.239 72.5 218.906 73.1 219.373 73.5C219.839 73.9667 220.673 74.5 221.873 75.1L214.573 80.8C213.239 80 211.906 79.2667 210.573 78.6C209.306 78 207.839 77.9 206.173 78.3C207.173 77.3 207.739 76.3667 207.873 75.5C208.006 74.6333 208.073 73.5333 208.073 72.2C208.006 73.3333 207.506 74.3333 206.573 75.2C205.639 76.0667 204.539 76.8333 203.273 77.5C202.073 78.2333 200.839 78.8667 199.573 79.4C198.373 79.9333 197.406 80.4 196.673 80.8C195.873 80.4 195.006 79.9 194.073 79.3C193.206 78.7 192.273 78.1333 191.273 77.6C190.273 77.1333 189.239 76.7667 188.173 76.5C187.173 76.3 186.173 76.3333 185.173 76.6C186.439 75.3333 187.073 73.9 187.073 72.3V60.8C187.073 60.0667 186.873 59.4 186.473 58.8C186.073 58.2 185.539 57.7333 184.873 57.4L208.073 47.1V41.1C207.273 40.6333 206.273 40 205.073 39.2C203.873 38.4 202.806 38 201.873 38C201.139 38 200.239 38.1 199.173 38.3C198.173 38.5 197.339 38.8 196.673 39.2V48.5L185.273 53.2L186.873 50V44.6C186.873 43.0667 186.173 41.9667 184.773 41.3L208.073 30.6ZM208.073 70.3V49.5L202.673 53V57.7C203.073 58.3 203.539 58.8333 204.073 59.3C204.673 59.7 205.306 60.0667 205.973 60.4C205.306 60.7333 204.673 61.1333 204.073 61.6C203.539 62.0667 203.073 62.6 202.673 63.2V65.6L203.373 65.5C204.706 65.5 205.773 65.9667 206.573 66.9C207.439 67.8333 207.939 68.9667 208.073 70.3ZM198.473 60.4C199.806 59.8 200.873 58.9 201.673 57.7V53.5L196.673 56.8V69.9C197.473 70.4333 198.273 70.9333 199.073 71.4C199.939 71.8667 200.806 72.3333 201.673 72.8V72.1C201.006 71.9667 200.439 71.6333 199.973 71.1C199.573 70.5667 199.373 69.9333 199.373 69.2C199.373 68.4667 199.606 67.8 200.073 67.2C200.539 66.6 201.073 66.1667 201.673 65.9V63.2C200.806 61.9333 199.739 61 198.473 60.4ZM202.673 73H203.173C203.773 73 204.339 72.8333 204.873 72.5C205.473 72.1 205.773 71.5333 205.773 70.8C205.773 70.5333 205.673 70.3 205.473 70.1C205.273 69.8333 205.006 69.7 204.673 69.7C204.139 69.7 203.873 69.9333 203.873 70.4L204.573 71.1C204.039 71.7667 203.406 72.1333 202.673 72.2V73ZM231.07 30L238.77 13.8L231.87 15.9L223.57 13.8L231.07 30ZM234.57 58.5V70L235.77 71.1V57L234.57 58.5ZM236.77 56.1V71.9C236.97 72.1 237.304 72.3667 237.77 72.7C238.304 72.9667 238.937 73.1667 239.67 73.3C239.137 73.5 238.537 73.9667 237.87 74.7C237.27 75.5 236.67 76.3 236.07 77.1C235.537 77.9667 235.037 78.7667 234.57 79.5C234.17 80.2333 233.87 80.7 233.67 80.9C233.07 80.5667 232.404 80.1333 231.67 79.6C231.004 79.1333 230.27 78.6333 229.47 78.1C228.737 77.6333 227.97 77.2333 227.17 76.9C226.437 76.5667 225.704 76.4 224.97 76.4C224.37 76.4 223.77 76.5 223.17 76.7C224.437 75.4333 225.07 74 225.07 72.4V58.4C224.337 57.0667 223.337 56.1 222.07 55.5C223.337 54.8333 224.337 53.8333 225.07 52.5C225.07 50.0333 224.97 47.4667 224.77 44.8C224.637 42.1333 224.804 39.7 225.27 37.5C225.737 35.3 226.737 33.5 228.27 32.1C229.804 30.6333 232.304 29.9 235.77 29.9H236.77V54.9L237.87 55.5L236.77 56.1ZM235.77 54V31.2C235.17 32.1333 234.804 33.1667 234.67 34.3C234.604 35.4333 234.57 36.5667 234.57 37.7V52.5L235.77 54ZM257.546 45.6V54C258.279 55.1333 259.346 56.0667 260.746 56.8C259.346 57.5333 258.279 58.4667 257.546 59.6V75.1L258.146 75.4L248.646 80.9C247.846 80.4333 247.113 80 246.446 79.6C245.846 79.2 245.246 78.8667 244.646 78.6C244.046 78.4 243.413 78.2667 242.746 78.2C242.079 78.1333 241.279 78.1667 240.346 78.3C241.613 77.0333 242.246 75.6 242.246 74V59.9C241.513 58.5667 240.513 57.6 239.246 57C240.513 56.3333 241.513 55.3333 242.246 54V39.1C242.246 38.3667 242.046 37.7 241.646 37.1C241.313 36.4333 240.779 35.9333 240.046 35.6C240.579 35.5333 241.446 35.3 242.646 34.9C243.846 34.4333 245.113 33.9333 246.446 33.4C247.779 32.8 249.013 32.2333 250.146 31.7C251.279 31.1667 252.046 30.8 252.446 30.6C252.246 30.7333 252.079 31.1 251.946 31.7C251.879 32.2333 251.813 32.8667 251.746 33.6C251.746 34.2667 251.746 34.9667 251.746 35.7C251.746 36.3667 251.746 36.9333 251.746 37.4C252.013 36.8 252.613 36.1667 253.546 35.5C254.479 34.8333 255.513 34.1667 256.646 33.5C257.846 32.8333 258.979 32.2333 260.046 31.7C261.179 31.1667 262.013 30.7333 262.546 30.4C263.546 31 264.479 31.6 265.346 32.2C266.213 32.8 267.079 33.3333 267.946 33.8C268.879 34.2 269.813 34.5333 270.746 34.8C271.746 35 272.813 35 273.946 34.8C272.679 36.0667 272.046 37.5 272.046 39.1V53.4C272.913 55.0667 274.113 56.3 275.646 57.1C274.913 57.5667 274.213 58.1 273.546 58.7C272.946 59.3 272.446 60 272.046 60.8V71.6C273.113 72.2667 274.179 72.9 275.246 73.5C276.313 74.1 277.379 74.7333 278.446 75.4L268.946 80.9C268.146 80.4333 267.413 80 266.746 79.6C266.146 79.2 265.546 78.8667 264.946 78.6C264.346 78.4 263.713 78.2667 263.046 78.2C262.379 78.1333 261.579 78.1667 260.646 78.3C261.913 77.0333 262.546 75.6 262.546 74V41.5C261.613 40.9667 260.546 40.3333 259.346 39.6C258.213 38.8 257.113 38.4 256.046 38.4C255.513 38.4 254.946 38.6 254.346 39C253.813 39.3333 253.546 39.8333 253.546 40.5C253.546 40.8333 253.646 41.1333 253.846 41.4C254.046 41.6667 254.313 41.8 254.646 41.8C255.113 41.8 255.346 41.5667 255.346 41.1L254.746 40.3C255.146 39.5667 255.813 39.2 256.746 39.2C257.546 39.2 258.246 39.5 258.846 40.1C259.513 40.6333 259.846 41.3333 259.846 42.2C259.846 42.8667 259.613 43.5333 259.146 44.2C258.679 44.8667 258.146 45.3333 257.546 45.6ZM251.746 43.2V71.6L256.546 74.4V59.6C255.813 58.4667 254.746 57.5333 253.346 56.8C254.613 56.2 255.679 55.2667 256.546 54V45.9L255.646 46C254.779 46 253.979 45.7333 253.246 45.2C252.579 44.6667 252.079 44 251.746 43.2Z" fill="#E6007E"/>
</svg>
