<svg width="27" height="31" viewBox="0 0 27 31" fill="none" xmlns="http://www.w3.org/2000/svg">
<path d="M26.625 13.0547H26.5664C23.8711 13.0547 21.4102 12.2344 19.418 10.7695V21.2578C19.418 26.5312 15.1406 30.75 9.86719 30.75C4.59375 30.75 0.375 26.5312 0.375 21.2578C0.375 15.9844 4.59375 11.707 9.86719 11.707C10.3359 11.707 10.7461 11.7656 11.2148 11.8242V17.0977C10.7461 16.9219 10.3359 16.8633 9.86719 16.8633C7.46484 16.8633 5.47266 18.8555 5.47266 21.2578C5.47266 23.6602 7.46484 25.6523 9.86719 25.6523C12.2695 25.6523 14.2617 23.6602 14.2617 21.2578V0.75H19.418C19.418 0.808594 19.418 0.808594 19.418 0.867188C19.418 1.27734 19.418 1.6875 19.5352 2.09766C19.8867 4.03125 21.0586 5.73047 22.6992 6.78516C23.8125 7.54688 25.1602 7.95703 26.5664 7.95703C26.5664 7.95703 26.5664 7.95703 26.625 7.95703V13.0547Z" fill="black"/>
</svg>
