<svg width="720" height="100" viewBox="0 0 720 100" fill="none" xmlns="http://www.w3.org/2000/svg">
<path d="M50.632 48.04C52.168 44.072 52.968 40.776 53.032 38.152C53.16 35.528 52.744 33.416 51.784 31.816C50.824 30.152 49.48 28.904 47.752 28.072C46.024 27.176 44.104 26.504 41.992 26.056C39.88 25.608 37.672 25.256 35.368 25C33.128 24.744 31.016 24.392 29.032 23.944V47.08C30.184 48.616 31.624 49.864 33.352 50.824C33.288 50.248 33.288 49.64 33.352 49C33.416 48.296 33.576 47.56 33.832 46.792L38.248 36.136C37.48 38.632 37.512 40.648 38.344 42.184C39.24 43.656 40.616 44.872 42.472 45.832C44.328 46.728 46.504 47.464 49 48.04C51.56 48.552 54.152 49.096 56.776 49.672C59.464 50.248 61.992 50.952 64.36 51.784C66.792 52.616 68.776 53.768 70.312 55.24C71.912 56.648 72.936 58.504 73.384 60.808C73.832 63.112 73.384 66.024 72.04 69.544C71.336 71.208 70.568 73.032 69.736 75.016C68.968 77 68.232 78.856 67.528 80.584C66.504 83.08 64.712 85.32 62.152 87.304C59.656 89.288 56.68 90.952 53.224 92.296C49.768 93.704 45.96 94.792 41.8 95.56C37.64 96.328 33.416 96.744 29.128 96.808C29.256 97.768 29.544 98.568 29.992 99.208C29.48 98.888 28.968 98.568 28.456 98.248C28.008 97.928 27.624 97.448 27.304 96.808C23.976 96.744 20.968 96.328 18.28 95.56C15.656 94.792 13.32 93.8 11.272 92.584C9.224 91.368 7.464 89.992 5.992 88.456C4.584 86.92 3.464 85.352 2.632 83.752C1.672 81.896 1.128 80.136 1 78.472C0.936 76.808 1.128 75.176 1.576 73.576C2.024 72.04 2.632 70.472 3.4 68.872C4.232 67.208 5 65.512 5.704 63.784C5.896 66.984 6.408 69.864 7.24 72.424C8.136 74.984 9.416 77.192 11.08 79.048C12.808 80.968 14.952 82.504 17.512 83.656C20.136 84.808 23.272 85.576 26.92 85.96V54.76C25.896 53.416 24.808 52.392 23.656 51.688V83.944C21.672 82.664 19.56 81.32 17.32 79.912C15.144 78.568 12.584 77.352 9.64 76.264C10.216 75.88 10.696 75.528 11.08 75.208C11.528 74.888 11.88 74.472 12.136 73.96C12.392 73.512 12.552 72.936 12.616 72.232C12.744 71.464 12.808 70.44 12.808 69.16V55.336C11.656 53.032 9.96 51.336 7.72 50.248C9.96 49.096 11.656 47.368 12.808 45.064V38.824C12.808 37.8 12.52 36.904 11.944 36.136C11.432 35.304 10.76 34.632 9.928 34.12C9.16 33.544 8.296 33.16 7.336 32.968C6.44 32.712 5.576 32.68 4.744 32.872C6.984 31.208 9.288 29.192 11.656 26.824C14.024 24.392 16.232 21.896 18.28 19.336C20.264 22.792 23.048 25.576 26.632 27.688C25.864 28.072 25.288 28.616 24.904 29.32C24.52 30.024 24.232 30.76 24.04 31.528C23.848 32.296 23.72 33.064 23.656 33.832C23.656 34.536 23.656 35.112 23.656 35.56V50.344C24.936 49.448 26.024 48.424 26.92 47.272V23.368C25.448 22.92 23.976 22.056 22.504 20.776C21.032 19.432 19.944 17.864 19.24 16.072C18.536 14.216 18.408 12.2 18.856 10.024C19.304 7.784 20.712 5.544 23.08 3.304C22.888 3.944 22.856 4.744 22.984 5.704C23.112 6.664 23.336 7.624 23.656 8.584C24.04 9.48 24.488 10.312 25 11.08C25.576 11.848 26.216 12.392 26.92 12.712C26.92 11.496 26.92 10.28 26.92 9.064C26.92 7.848 26.6 6.824 25.96 5.992C26.792 6.504 27.432 6.984 27.88 7.432C28.328 7.816 28.616 8.264 28.744 8.776C28.936 9.288 29.032 9.928 29.032 10.696C29.032 11.464 29.032 12.424 29.032 13.576C30.76 14.664 32.68 15.336 34.792 15.592C36.968 15.848 39.176 16.008 41.416 16.072C43.72 16.072 45.96 16.168 48.136 16.36C50.376 16.488 52.424 16.968 54.28 17.8C57.416 19.272 59.752 21.16 61.288 23.464C62.824 25.768 63.464 28.296 63.208 31.048C62.952 33.8 61.8 36.648 59.752 39.592C57.704 42.536 54.664 45.352 50.632 48.04ZM29.032 86.152C32.552 86.344 36.2 86.248 39.976 85.864C43.752 85.48 47.368 84.808 50.824 83.848C54.344 82.952 57.576 81.8 60.52 80.392C63.464 78.984 65.928 77.352 67.912 75.496C67.272 73.768 66.056 72.52 64.264 71.752C62.472 70.984 60.392 70.408 58.024 70.024C55.656 69.576 53.128 69.16 50.44 68.776C47.816 68.328 45.384 67.624 43.144 66.664C40.904 65.64 38.984 64.168 37.384 62.248C35.848 60.264 34.952 57.512 34.696 53.992C34.056 53.16 33.64 52.2 33.448 51.112C31.656 52.072 30.184 53.32 29.032 54.856V86.152ZM69.064 74.248C69.256 71.496 68.712 69.288 67.432 67.624C66.216 65.896 64.552 64.52 62.44 63.496C60.328 62.472 57.928 61.672 55.24 61.096C52.616 60.456 49.992 59.848 47.368 59.272C44.744 58.696 42.312 58.056 40.072 57.352C37.896 56.648 36.2 55.624 34.984 54.28C35.816 56.776 37.256 58.632 39.304 59.848C41.352 61.064 43.592 61.96 46.024 62.536C48.456 63.112 50.888 63.496 53.32 63.688C55.816 63.816 57.928 64.04 59.656 64.36C61.256 64.68 62.664 65.224 63.88 65.992C65.096 66.76 66.088 67.656 66.856 68.68C67.688 69.64 68.264 70.664 68.584 71.752C68.904 72.776 68.968 73.704 68.776 74.536L69.064 74.248ZM72.799 86.056C73.247 84.968 73.823 83.944 74.527 82.984C75.295 82.088 76.255 81.448 77.407 81.064V58.696C76.767 57.544 75.807 56.616 74.527 55.912C75.743 55.272 76.703 54.312 77.407 53.032V11.944C77.407 10.28 76.767 8.872 75.487 7.72C76.063 7.912 76.639 8.008 77.215 8.008C77.919 8.008 78.687 7.848 79.519 7.528C80.415 7.144 81.279 6.728 82.111 6.27999C83.007 5.768 83.839 5.288 84.607 4.84C85.375 4.328 86.015 3.91199 86.527 3.592C87.487 4.168 88.575 4.744 89.791 5.32C91.071 5.832 92.287 6.44 93.439 7.144C94.591 7.848 95.551 8.68 96.319 9.64C97.087 10.536 97.471 11.656 97.471 13C97.471 14.344 97.055 15.624 96.223 16.84C95.455 18.056 94.303 18.664 92.767 18.664C91.807 18.664 90.943 18.28 90.175 17.512C89.471 16.744 89.119 15.848 89.119 14.824C89.119 14.056 89.407 13.384 89.983 12.808C90.559 12.232 91.231 11.944 91.999 11.944C92.767 11.944 93.439 12.328 94.015 13.096L93.439 13.768C93.695 14.152 93.983 14.344 94.303 14.344C94.879 14.344 95.167 14.056 95.167 13.48C95.167 12.776 94.911 12.232 94.399 11.848C93.951 11.464 93.407 11.272 92.767 11.272C92.063 11.272 91.359 11.464 90.655 11.848C89.951 12.168 89.279 12.488 88.639 12.808V53.128C89.343 54.216 90.367 55.112 91.711 55.816C91.071 56.136 90.495 56.552 89.983 57.064C89.535 57.512 89.087 57.992 88.639 58.504V84.232C89.663 84.808 90.847 85.544 92.191 86.44C93.535 87.336 94.911 88.2 96.319 89.032C97.791 89.864 99.231 90.504 100.639 90.952C102.111 91.464 103.423 91.56 104.575 91.24C103.679 92.584 102.623 93.704 101.407 94.6C100.191 95.56 98.751 96.04 97.087 96.04C95.679 96.04 94.271 95.752 92.863 95.176C91.455 94.6 90.079 93.896 88.735 93.064C87.391 92.232 86.047 91.336 84.703 90.376C83.359 89.48 82.015 88.648 80.671 87.88C79.391 87.176 78.079 86.632 76.735 86.248C75.391 85.864 74.079 85.8 72.799 86.056ZM94.495 86.344C95.263 86.92 96.159 87.208 97.183 87.208C98.527 87.208 99.679 86.728 100.639 85.768C101.599 84.808 102.143 83.688 102.271 82.408C103.359 82.664 104.351 83.176 105.247 83.944C106.207 84.712 106.687 85.704 106.687 86.92C106.687 88.008 106.271 88.84 105.439 89.416C104.671 90.056 103.775 90.376 102.751 90.376C101.215 90.376 99.711 89.928 98.239 89.032C96.831 88.2 95.583 87.304 94.495 86.344ZM87.679 13.48L86.527 14.152V54.568L87.679 53.128V13.48ZM86.527 57.064V83.176L87.679 83.752V58.504C87.551 58.184 87.359 57.928 87.103 57.736C86.911 57.48 86.719 57.256 86.527 57.064ZM110.274 47.176V53.896C110.978 54.92 111.97 55.816 113.25 56.584C111.97 57.352 110.978 58.248 110.274 59.272V65.8H110.85C112.066 65.8 113.058 66.248 113.826 67.144C114.594 68.04 115.042 69.032 115.17 70.12V43.144C114.274 42.632 113.282 42.024 112.194 41.32C111.106 40.552 110.05 40.168 109.026 40.168C108.45 40.168 107.874 40.36 107.298 40.744C106.786 41.064 106.53 41.576 106.53 42.28C106.53 42.536 106.626 42.792 106.818 43.048C107.01 43.304 107.266 43.432 107.586 43.432C108.034 43.432 108.258 43.208 108.258 42.76L107.682 41.992C108.066 41.288 108.706 40.936 109.602 40.936C110.37 40.936 111.042 41.224 111.618 41.8C112.258 42.312 112.578 42.984 112.578 43.816C112.578 44.52 112.354 45.192 111.906 45.832C111.458 46.472 110.914 46.92 110.274 47.176ZM106.242 56.584C107.394 56.072 108.386 55.176 109.218 53.896V47.464H108.834C107.554 47.464 106.53 47.016 105.762 46.12C104.994 45.224 104.514 44.2 104.322 43.048V70.024C105.154 70.536 106.146 71.176 107.298 71.944C108.45 72.648 109.538 73 110.562 73C111.138 73 111.682 72.84 112.194 72.52C112.706 72.136 112.962 71.592 112.962 70.888C112.962 70.632 112.866 70.408 112.674 70.216C112.482 69.96 112.226 69.832 111.906 69.832C111.458 69.832 111.234 70.056 111.234 70.504L111.81 71.176C111.298 71.88 110.658 72.232 109.89 72.232C109.058 72.232 108.354 71.944 107.778 71.368C107.202 70.792 106.914 70.12 106.914 69.352C106.914 68.648 107.138 67.976 107.586 67.336C108.034 66.696 108.578 66.28 109.218 66.088V59.272C108.514 58.248 107.522 57.352 106.242 56.584ZM115.266 72.04C115.074 73.256 114.562 74.28 113.73 75.112C112.898 76.008 111.938 76.776 110.85 77.416C109.762 78.056 108.61 78.632 107.394 79.144C106.242 79.656 105.218 80.168 104.322 80.68C103.554 80.232 102.722 79.72 101.826 79.144C100.994 78.568 100.098 78.024 99.1375 77.512C98.2415 77.064 97.2815 76.712 96.2575 76.456C95.2975 76.264 94.3375 76.296 93.3775 76.552C93.9535 75.912 94.4015 75.272 94.7215 74.632C95.0415 73.992 95.2015 73.224 95.2015 72.328V63.304C94.8815 62.664 94.4655 62.12 93.9535 61.672C93.5055 61.16 92.9935 60.744 92.4175 60.424C93.6335 59.848 94.5615 58.888 95.2015 57.544V48.52C95.2015 47.816 95.0095 47.176 94.6255 46.6C94.3055 45.96 93.7935 45.48 93.0895 45.16C93.5375 44.904 94.2095 44.52 95.1055 44.008C96.0015 43.432 96.9295 42.856 97.8895 42.28C98.8495 41.704 99.7455 41.224 100.578 40.84C101.474 40.392 102.146 40.168 102.594 40.168C102.914 40.168 103.234 40.264 103.554 40.456C103.874 40.584 104.098 40.808 104.226 41.128C104.418 39.912 104.898 38.888 105.666 38.056C106.498 37.16 107.458 36.392 108.546 35.752C109.698 35.112 110.85 34.536 112.002 34.024C113.218 33.512 114.274 33 115.17 32.488C116.13 33.064 117.026 33.64 117.858 34.216C118.69 34.792 119.522 35.304 120.354 35.752C121.25 36.136 122.146 36.456 123.042 36.712C124.002 36.904 125.026 36.904 126.114 36.712C124.898 37.928 124.29 39.304 124.29 40.84V49.96C124.61 50.536 124.994 51.08 125.442 51.592C125.89 52.04 126.434 52.424 127.074 52.744C125.794 53.448 124.866 54.408 124.29 55.624V64.648C124.29 65.352 124.45 66.024 124.77 66.664C125.154 67.24 125.698 67.688 126.402 68.008C125.954 68.264 125.282 68.68 124.386 69.256C123.49 69.768 122.562 70.312 121.602 70.888C120.642 71.464 119.714 71.976 118.818 72.424C117.986 72.808 117.346 73 116.898 73C116.578 73 116.258 72.936 115.938 72.808C115.618 72.616 115.394 72.36 115.266 72.04ZM145.494 46.696V54.76C146.198 55.848 147.222 56.744 148.566 57.448C147.222 58.152 146.198 59.048 145.494 60.136V75.016L146.07 75.304L136.95 80.584C136.182 80.136 135.478 79.72 134.838 79.336C134.262 78.952 133.686 78.632 133.11 78.376C132.534 78.184 131.926 78.056 131.286 77.992C130.646 77.928 129.878 77.96 128.982 78.088C130.198 76.872 130.806 75.496 130.806 73.96V60.424C130.102 59.144 129.142 58.216 127.926 57.64C129.142 57 130.102 56.04 130.806 54.76V40.456C130.806 39.752 130.614 39.112 130.23 38.536C129.91 37.896 129.398 37.416 128.694 37.096C129.206 37.032 130.038 36.808 131.19 36.424C132.342 35.976 133.558 35.496 134.838 34.984C136.118 34.408 137.302 33.864 138.39 33.352C139.478 32.84 140.214 32.488 140.598 32.296C140.406 32.424 140.246 32.776 140.118 33.352C140.054 33.864 139.99 34.472 139.926 35.176C139.926 35.816 139.926 36.488 139.926 37.192C139.926 37.832 139.926 38.376 139.926 38.824C140.182 38.248 140.758 37.64 141.654 37C142.55 36.36 143.542 35.72 144.63 35.08C145.782 34.44 146.87 33.864 147.894 33.352C148.982 32.84 149.782 32.424 150.294 32.104C151.254 32.68 152.15 33.256 152.982 33.832C153.814 34.408 154.646 34.92 155.478 35.368C156.374 35.752 157.27 36.072 158.166 36.328C159.126 36.52 160.15 36.52 161.238 36.328C160.022 37.544 159.414 38.92 159.414 40.456V54.184C160.246 55.784 161.398 56.968 162.87 57.736C162.166 58.184 161.494 58.696 160.854 59.272C160.278 59.848 159.798 60.52 159.414 61.288V71.656C160.438 72.296 161.462 72.904 162.486 73.48C163.51 74.056 164.534 74.664 165.558 75.304L156.438 80.584C155.67 80.136 154.966 79.72 154.326 79.336C153.75 78.952 153.174 78.632 152.598 78.376C152.022 78.184 151.414 78.056 150.774 77.992C150.134 77.928 149.366 77.96 148.47 78.088C149.686 76.872 150.294 75.496 150.294 73.96V42.76C149.398 42.248 148.374 41.64 147.222 40.936C146.134 40.168 145.078 39.784 144.054 39.784C143.542 39.784 142.998 39.976 142.422 40.36C141.91 40.68 141.654 41.16 141.654 41.8C141.654 42.12 141.75 42.408 141.942 42.664C142.134 42.92 142.39 43.048 142.71 43.048C143.158 43.048 143.382 42.824 143.382 42.376L142.806 41.608C143.19 40.904 143.83 40.552 144.726 40.552C145.494 40.552 146.166 40.84 146.742 41.416C147.382 41.928 147.702 42.6 147.702 43.432C147.702 44.072 147.478 44.712 147.03 45.352C146.582 45.992 146.07 46.44 145.494 46.696ZM139.926 44.392V71.656L144.534 74.344V60.136C143.83 59.048 142.806 58.152 141.462 57.448C142.678 56.872 143.702 55.976 144.534 54.76V46.984L143.67 47.08C142.838 47.08 142.07 46.824 141.366 46.312C140.726 45.8 140.246 45.16 139.926 44.392ZM176.884 80.584C175.924 80.008 175.028 79.432 174.196 78.856C173.364 78.344 172.5 77.864 171.604 77.416C170.772 77.032 169.876 76.712 168.916 76.456C168.02 76.264 167.028 76.264 165.94 76.456C167.156 75.24 167.764 73.864 167.764 72.328V59.368C167.188 58.152 166.26 57.192 164.98 56.488C166.26 55.912 167.188 54.984 167.764 53.704V45.256C167.764 44.552 167.572 43.912 167.188 43.336C166.868 42.76 166.388 42.312 165.748 41.992L188.404 31.528V13.768C188.404 12.36 187.828 11.336 186.676 10.696C185.588 9.992 184.436 9.512 183.22 9.256L191.668 3.784C192.948 4.552 194.164 5.25599 195.316 5.89599C196.532 6.536 197.972 6.664 199.636 6.27999C198.42 7.49599 197.812 8.872 197.812 10.408C197.812 13.224 197.78 16.552 197.716 20.392C197.716 24.168 197.716 28.072 197.716 32.104C197.716 36.136 197.684 40.072 197.62 43.912C197.62 47.688 197.62 50.984 197.62 53.8C198.388 55.08 199.316 55.976 200.404 56.488C199.124 57.256 198.164 58.184 197.524 59.272V70.888C197.524 71.592 197.716 72.264 198.1 72.904C198.484 73.48 198.996 73.928 199.636 74.248C197.588 75.016 195.636 75.912 193.78 76.936C191.924 78.024 190.164 79.272 188.5 80.68C188.5 77.16 188.5 73.512 188.5 69.736C188.5 65.896 188.5 62.024 188.5 58.12C188.5 54.216 188.468 50.376 188.404 46.6C188.404 42.76 188.404 39.08 188.404 35.56L182.452 40.264V53.608C182.772 54.184 183.188 54.696 183.7 55.144C184.276 55.592 184.852 55.976 185.428 56.296C184.148 57.064 183.156 57.96 182.452 58.984V65.8L183.412 65.704C185.076 65.704 186.228 66.344 186.868 67.624C187.508 68.904 187.828 70.248 187.828 71.656C187.828 72.872 187.412 73.928 186.58 74.824C185.748 75.72 184.756 76.52 183.604 77.224C182.452 77.928 181.236 78.536 179.956 79.048C178.74 79.624 177.716 80.136 176.884 80.584ZM181.396 41.032L176.884 44.488V70.024C177.78 70.536 178.772 71.176 179.86 71.944C181.012 72.648 182.068 73 183.028 73C183.604 73 184.148 72.808 184.66 72.424C185.236 72.04 185.524 71.528 185.524 70.888C185.524 70.568 185.428 70.312 185.236 70.12C185.108 69.864 184.884 69.736 184.564 69.736C184.052 69.736 183.796 69.96 183.796 70.408L184.372 71.176C183.988 71.88 183.348 72.232 182.452 72.232C181.684 72.232 180.98 71.976 180.34 71.464C179.764 70.888 179.476 70.184 179.476 69.352C179.476 68.712 179.668 68.104 180.052 67.528C180.436 66.952 180.884 66.504 181.396 66.184V58.984C180.692 57.96 179.7 57.064 178.42 56.296C179.572 55.784 180.564 54.888 181.396 53.608V41.032ZM213.904 80.392C212.944 79.816 212.048 79.24 211.216 78.664C210.384 78.152 209.52 77.672 208.624 77.224C207.792 76.84 206.928 76.52 206.032 76.264C205.136 76.072 204.144 76.072 203.056 76.264C204.272 75.048 204.88 73.672 204.88 72.136V59.464C204.176 58.248 203.216 57.288 202 56.584C203.216 55.944 204.176 54.984 204.88 53.704V48.424C204.88 46.824 204.176 45.736 202.768 45.16L225.04 32.296C225.808 32.744 226.608 33.256 227.44 33.832C228.336 34.408 229.232 34.952 230.128 35.464C231.088 35.912 232.048 36.264 233.008 36.52C233.968 36.712 234.928 36.68 235.888 36.424C234.992 37.32 234.384 38.376 234.064 39.592C233.808 40.744 233.68 41.992 233.68 43.336C233.68 44.616 233.744 45.928 233.872 47.272C234 48.552 234.064 49.704 234.064 50.728L220.24 58.408V68.008L221.392 67.912C222.288 67.912 223.088 68.232 223.792 68.872C224.496 69.448 224.912 70.184 225.04 71.08V60.808L222.64 60.136L234.064 53.512C234.064 54.28 234 55.368 233.872 56.776C233.744 58.12 233.68 59.528 233.68 61C233.68 62.472 233.84 63.848 234.16 65.128C234.544 66.344 235.216 67.176 236.176 67.624C232.336 69.672 228.56 71.752 224.848 73.864C221.2 75.976 217.552 78.152 213.904 80.392ZM219.28 58.984L213.904 61.96V69.928C214.8 70.44 215.664 70.952 216.496 71.464C217.392 71.976 218.32 72.392 219.28 72.712V72.136C218.96 72.008 218.672 71.848 218.416 71.656C218.224 71.4 218.128 71.112 218.128 70.792C218.128 69.96 218.512 69.224 219.28 68.584V58.984ZM220.24 72.808C220.816 72.744 221.328 72.552 221.776 72.232C222.288 71.848 222.544 71.336 222.544 70.696C222.544 70.376 222.416 70.12 222.16 69.928C221.968 69.672 221.712 69.544 221.392 69.544C220.944 69.544 220.624 69.768 220.432 70.216C220.304 70.6 220.464 70.92 220.912 71.176L220.24 72.136V72.808ZM225.04 52.744V42.856L220.24 39.976V44.68C220.944 45.768 221.968 46.664 223.312 47.368C222.032 48.072 221.008 49 220.24 50.152V55.432L225.04 52.744ZM219.28 39.4C219.152 39.272 218.896 39.208 218.512 39.208C218.128 39.144 217.872 39.112 217.744 39.112C217.104 39.112 216.432 39.176 215.728 39.304C215.088 39.368 214.48 39.56 213.904 39.88V59.08L219.28 56.008V50.152C218.384 48.936 217.328 48.008 216.112 47.368C217.264 46.856 218.32 45.96 219.28 44.68V39.4ZM349.854 88.648C348.19 89.672 346.622 90.856 345.15 92.2C343.742 93.544 342.494 95.048 341.406 96.712C339.422 94.28 337.31 91.944 335.07 89.704C332.83 87.528 330.43 85.512 327.87 83.656C328.702 83.784 329.598 83.752 330.558 83.56C331.518 83.368 332.414 83.016 333.246 82.504C334.078 82.056 334.75 81.448 335.262 80.68C335.774 79.912 336.03 79.016 336.03 77.992V53.032C335.518 54.312 334.718 55.4 333.63 56.296C332.606 57.192 331.422 57.992 330.078 58.696C328.798 59.4 327.486 60.04 326.142 60.616C324.798 61.192 323.55 61.736 322.398 62.248V67.72C322.974 68.488 323.646 69.16 324.414 69.736C325.182 70.312 325.982 70.856 326.814 71.368C325.022 72.264 323.55 73.48 322.398 75.016C322.398 76.36 322.334 77.896 322.206 79.624C322.142 81.416 322.526 82.92 323.358 84.136C322.334 83.56 321.598 82.984 321.15 82.408C320.702 81.896 320.414 81.288 320.286 80.584C320.158 79.944 320.126 79.176 320.19 78.28C320.254 77.448 320.286 76.488 320.286 75.4C319.198 73.736 317.662 72.392 315.678 71.368C317.662 70.344 319.198 69 320.286 67.336V63.4C317.598 64.872 315.422 66.6 313.758 68.584C312.094 70.568 311.006 73.096 310.494 76.168C309.918 74.696 309.406 73.192 308.958 71.656C308.574 70.056 308.382 68.424 308.382 66.76C308.382 64.904 308.702 63.304 309.342 61.96C310.046 60.616 310.942 59.464 312.03 58.504C313.182 57.48 314.462 56.616 315.87 55.912C317.278 55.144 318.75 54.408 320.286 53.704V51.592C319.006 52.168 317.534 52.84 315.87 53.608C314.27 54.376 312.734 55.272 311.262 56.296C309.79 57.256 308.478 58.376 307.326 59.656C306.238 60.872 305.566 62.28 305.31 63.88L304.542 61.768V75.688C304.542 78.376 304.542 80.584 304.542 82.312C304.542 84.104 304.382 85.704 304.062 87.112C303.742 88.584 303.198 90.056 302.43 91.528C301.726 93 300.606 94.728 299.07 96.712L289.662 88.648C290.942 87.88 291.934 86.696 292.638 85.096C293.342 83.496 293.694 81.96 293.694 80.488V62.152C293.246 61.128 292.638 60.2 291.87 59.368L291.774 74.344C291.774 76.2 291.678 77.992 291.486 79.72C291.358 81.512 290.846 83.272 289.95 85L290.046 84.904H290.142L289.854 85.096C289.598 85.608 289.342 86.024 289.086 86.344C288.894 86.664 288.702 86.984 288.51 87.304C288.318 87.624 288.158 87.976 288.03 88.36C287.966 88.744 287.934 89.256 287.934 89.896C287.934 91.176 288.254 92.264 288.894 93.16C289.534 94.056 290.494 94.664 291.774 94.984C291.326 95.496 290.814 95.944 290.238 96.328C289.662 96.712 289.022 96.904 288.318 96.904C287.166 96.904 286.238 96.456 285.534 95.56C284.83 94.664 284.478 93.672 284.478 92.584C284.478 91.496 284.766 90.472 285.342 89.512C284.19 89.96 282.91 90.184 281.502 90.184C279.966 90.184 278.558 89.896 277.278 89.32C276.062 88.744 275.006 87.944 274.11 86.92C273.214 85.896 272.51 84.712 271.998 83.368C271.55 82.088 271.326 80.712 271.326 79.24C271.326 78.024 271.518 76.84 271.902 75.688C272.35 74.536 272.926 73.512 273.63 72.616C274.398 71.72 275.294 70.984 276.318 70.408C277.406 69.832 278.59 69.544 279.87 69.544C281.406 69.544 282.718 70.088 283.806 71.176C284.958 72.264 285.534 73.576 285.534 75.112C285.534 76.328 285.15 77.288 284.382 77.992C283.678 78.696 282.75 79.048 281.598 79.048L280.542 78.952C280.734 77.736 280.574 76.552 280.062 75.4C279.55 74.248 278.59 73.672 277.182 73.672C276.414 73.672 275.742 73.96 275.166 74.536C274.654 75.176 274.398 75.88 274.398 76.648C274.398 77.416 274.686 78.12 275.262 78.76C275.838 79.464 276.51 80.04 277.278 80.488C278.11 81 278.974 81.384 279.87 81.64C280.766 81.896 281.566 82.024 282.27 82.024C283.678 82.024 285.022 81.736 286.302 81.16C287.646 80.648 288.766 79.848 289.662 78.76V57.448L288.126 56.584L289.662 55.72V24.712C289.662 23.432 289.918 22.472 290.43 21.832C291.006 21.192 291.806 20.616 292.83 20.104C292.19 20.936 291.87 21.992 291.87 23.272V53.8C292.574 52.84 293.214 51.912 293.79 51.016V20.104C295.838 21.768 297.982 23.272 300.222 24.616C302.526 25.96 305.022 26.792 307.71 27.112C307.006 27.624 306.43 28.456 305.982 29.608C305.598 30.76 305.278 32.008 305.022 33.352C304.83 34.632 304.702 35.944 304.638 37.288C304.574 38.568 304.542 39.592 304.542 40.36V53.992C305.118 52.712 306.014 51.56 307.23 50.536C308.51 49.448 309.918 48.488 311.454 47.656C312.99 46.824 314.526 46.056 316.062 45.352C317.662 44.648 319.07 43.976 320.286 43.336V24.808C320.286 24.296 320.222 23.784 320.094 23.272C319.966 22.696 319.71 22.184 319.326 21.736C320.286 22.248 321.022 22.824 321.534 23.464C322.11 24.04 322.398 24.936 322.398 26.152V42.184C324.446 40.968 326.238 39.56 327.774 37.96C329.31 36.296 330.302 34.248 330.75 31.816C331.39 32.904 331.902 34.056 332.286 35.272C332.734 36.424 332.958 37.64 332.958 38.92C332.958 40.392 332.606 41.736 331.902 42.952C331.262 44.104 330.43 45.16 329.406 46.12C328.382 47.016 327.23 47.848 325.95 48.616C324.734 49.32 323.55 49.96 322.398 50.536V52.744C323.806 52.104 325.15 51.4 326.43 50.632C327.774 49.864 328.958 49 329.982 48.04C331.07 47.016 331.966 45.896 332.67 44.68C333.438 43.4 333.982 41.896 334.302 40.168C335.006 41.768 335.582 43.336 336.03 44.872V23.656C336.03 23.208 336.03 22.696 336.03 22.12C336.03 21.544 335.966 20.968 335.838 20.392C335.774 19.816 335.582 19.304 335.262 18.856C335.006 18.408 334.622 18.088 334.11 17.896C333.022 18.344 331.87 18.664 330.654 18.856C329.438 19.048 328.222 19.144 327.006 19.144C325.534 19.144 324.094 18.952 322.686 18.568C321.342 18.184 320.126 17.608 319.038 16.84C317.95 16.072 317.054 15.112 316.35 13.96C315.71 12.744 315.39 11.304 315.39 9.64C315.39 8.296 315.678 7.04799 316.254 5.89599C316.83 4.744 317.598 3.752 318.558 2.92C319.518 2.024 320.606 1.32 321.822 0.807997C323.038 0.295996 324.286 0.0399952 325.566 0.0399952C326.526 0.0399952 327.454 0.199995 328.35 0.519995C329.31 0.839994 330.142 1.32 330.846 1.96C331.614 2.536 332.222 3.24 332.67 4.07199C333.182 4.904 333.438 5.832 333.438 6.856C333.438 8.072 332.958 9.192 331.998 10.216C331.102 11.24 330.014 11.752 328.734 11.752C327.774 11.752 327.006 11.432 326.43 10.792C325.854 10.152 325.47 9.384 325.278 8.488C326.174 8.36 326.974 7.976 327.678 7.336C328.446 6.696 328.83 5.896 328.83 4.936C328.83 4.168 328.574 3.56 328.062 3.112C327.55 2.59999 326.91 2.34399 326.142 2.34399C325.438 2.34399 324.862 2.536 324.414 2.92C324.03 3.304 323.71 3.784 323.454 4.36C323.198 4.936 323.006 5.576 322.878 6.27999C322.814 6.91999 322.782 7.49599 322.782 8.008C322.782 10.312 323.582 12.264 325.182 13.864C326.846 15.464 328.83 16.264 331.134 16.264C332.286 16.264 333.406 16.072 334.494 15.688L334.59 15.592C336.83 14.696 338.91 13.672 340.83 12.52C342.814 11.368 344.798 10.152 346.782 8.872L346.878 43.912V43.816C348.094 46.12 349.79 47.848 351.966 49C349.726 50.152 348.03 51.848 346.878 54.088V81.064C346.878 82.408 347.038 83.816 347.358 85.288C347.678 86.824 348.51 87.944 349.854 88.648ZM273.054 42.376C270.686 42.376 268.382 41.928 266.142 41.032C263.902 40.136 261.886 38.888 260.094 37.288C258.366 35.688 256.99 33.832 255.966 31.72C254.878 29.544 254.334 27.24 254.334 24.808C254.334 22.248 254.91 19.816 256.062 17.512C257.214 15.144 258.718 13.096 260.574 11.368C262.43 9.576 264.574 8.168 267.006 7.144C269.438 6.12 271.902 5.608 274.398 5.608C276.83 5.608 279.134 6.056 281.31 6.952C283.486 7.848 285.47 9.096 287.262 10.696C289.758 10.248 292.126 10.568 294.366 11.656C296.606 12.68 298.846 13.96 301.086 15.496C303.326 16.968 305.598 18.376 307.902 19.72C310.27 21 312.766 21.64 315.39 21.64C317.502 21.64 319.39 21 321.054 19.72C319.582 21.448 317.854 22.952 315.87 24.232C313.886 25.448 311.71 26.056 309.342 26.056C306.91 26.056 304.542 25.512 302.238 24.424C299.998 23.272 297.822 22.024 295.71 20.68C293.598 19.272 291.55 18.024 289.566 16.936C287.646 15.784 285.822 15.208 284.094 15.208C282.814 15.208 281.694 15.592 280.734 16.36C280.734 15.72 280.894 15.112 281.214 14.536C281.534 13.96 281.95 13.448 282.462 13C282.974 12.552 283.518 12.168 284.094 11.848C284.734 11.528 285.31 11.272 285.822 11.08C285.374 10.696 284.862 10.44 284.286 10.312C283.774 10.184 283.262 10.12 282.75 10.12C280.958 10.12 279.102 10.472 277.182 11.176C275.326 11.88 273.63 12.84 272.094 14.056C270.558 15.208 269.278 16.616 268.254 18.28C267.294 19.944 266.814 21.736 266.814 23.656C266.814 25.192 267.134 26.76 267.774 28.36C268.414 29.96 269.278 31.4 270.366 32.68C271.518 33.96 272.83 35.016 274.302 35.848C275.774 36.616 277.342 37 279.006 37C280.094 37 281.15 36.712 282.174 36.136C283.262 35.496 283.806 34.536 283.806 33.256C283.806 32.424 283.582 31.624 283.134 30.856C282.75 30.088 282.206 29.416 281.502 28.84C280.862 28.2 280.126 27.72 279.294 27.4C278.526 27.016 277.726 26.824 276.894 26.824C276.382 26.824 275.902 26.888 275.454 27.016C275.07 27.144 274.654 27.304 274.206 27.496V26.44C274.206 24.712 274.75 23.336 275.838 22.312C276.926 21.224 278.302 20.68 279.966 20.68C282.334 20.68 284.318 21.512 285.918 23.176C287.582 24.776 288.414 26.76 288.414 29.128C288.414 31.176 287.966 33.032 287.07 34.696C286.174 36.296 284.99 37.672 283.518 38.824C282.046 39.976 280.382 40.872 278.526 41.512C276.734 42.088 274.91 42.376 273.054 42.376ZM364.748 80.392C363.788 79.816 362.892 79.24 362.06 78.664C361.228 78.152 360.364 77.672 359.468 77.224C358.636 76.84 357.772 76.52 356.876 76.264C355.98 76.072 354.988 76.072 353.9 76.264C355.116 75.048 355.724 73.672 355.724 72.136V59.464C355.02 58.248 354.06 57.288 352.844 56.584C354.06 55.944 355.02 54.984 355.724 53.704V48.424C355.724 46.824 355.02 45.736 353.612 45.16L375.884 32.296C376.652 32.744 377.452 33.256 378.284 33.832C379.18 34.408 380.076 34.952 380.972 35.464C381.932 35.912 382.892 36.264 383.852 36.52C384.812 36.712 385.772 36.68 386.732 36.424C385.836 37.32 385.228 38.376 384.908 39.592C384.652 40.744 384.524 41.992 384.524 43.336C384.524 44.616 384.588 45.928 384.716 47.272C384.844 48.552 384.908 49.704 384.908 50.728L371.084 58.408V68.008L372.236 67.912C373.132 67.912 373.932 68.232 374.636 68.872C375.34 69.448 375.756 70.184 375.884 71.08V60.808L373.484 60.136L384.908 53.512C384.908 54.28 384.844 55.368 384.716 56.776C384.588 58.12 384.524 59.528 384.524 61C384.524 62.472 384.684 63.848 385.004 65.128C385.388 66.344 386.06 67.176 387.02 67.624C383.18 69.672 379.404 71.752 375.692 73.864C372.044 75.976 368.396 78.152 364.748 80.392ZM370.124 58.984L364.748 61.96V69.928C365.644 70.44 366.508 70.952 367.34 71.464C368.236 71.976 369.164 72.392 370.124 72.712V72.136C369.804 72.008 369.516 71.848 369.26 71.656C369.068 71.4 368.972 71.112 368.972 70.792C368.972 69.96 369.356 69.224 370.124 68.584V58.984ZM371.084 72.808C371.66 72.744 372.172 72.552 372.62 72.232C373.132 71.848 373.388 71.336 373.388 70.696C373.388 70.376 373.26 70.12 373.004 69.928C372.812 69.672 372.556 69.544 372.236 69.544C371.788 69.544 371.468 69.768 371.276 70.216C371.148 70.6 371.308 70.92 371.756 71.176L371.084 72.136V72.808ZM375.884 52.744V42.856L371.084 39.976V44.68C371.788 45.768 372.812 46.664 374.156 47.368C372.876 48.072 371.852 49 371.084 50.152V55.432L375.884 52.744ZM370.124 39.4C369.996 39.272 369.74 39.208 369.356 39.208C368.972 39.144 368.716 39.112 368.588 39.112C367.948 39.112 367.276 39.176 366.572 39.304C365.932 39.368 365.324 39.56 364.748 39.88V59.08L370.124 56.008V50.152C369.228 48.936 368.172 48.008 366.956 47.368C368.108 46.856 369.164 45.96 370.124 44.68V39.4ZM385.549 86.056C385.997 84.968 386.573 83.944 387.277 82.984C388.045 82.088 389.005 81.448 390.157 81.064V58.696C389.517 57.544 388.557 56.616 387.277 55.912C388.493 55.272 389.453 54.312 390.157 53.032V11.944C390.157 10.28 389.517 8.872 388.237 7.72C388.813 7.912 389.389 8.008 389.965 8.008C390.669 8.008 391.437 7.848 392.269 7.528C393.165 7.144 394.029 6.728 394.861 6.27999C395.757 5.768 396.589 5.288 397.357 4.84C398.125 4.328 398.765 3.91199 399.277 3.592C400.237 4.168 401.325 4.744 402.541 5.32C403.821 5.832 405.037 6.44 406.189 7.144C407.341 7.848 408.301 8.68 409.069 9.64C409.837 10.536 410.221 11.656 410.221 13C410.221 14.344 409.805 15.624 408.973 16.84C408.205 18.056 407.053 18.664 405.517 18.664C404.557 18.664 403.693 18.28 402.925 17.512C402.221 16.744 401.869 15.848 401.869 14.824C401.869 14.056 402.157 13.384 402.733 12.808C403.309 12.232 403.981 11.944 404.749 11.944C405.517 11.944 406.189 12.328 406.765 13.096L406.189 13.768C406.445 14.152 406.733 14.344 407.053 14.344C407.629 14.344 407.917 14.056 407.917 13.48C407.917 12.776 407.661 12.232 407.149 11.848C406.701 11.464 406.157 11.272 405.517 11.272C404.813 11.272 404.109 11.464 403.405 11.848C402.701 12.168 402.029 12.488 401.389 12.808V53.128C402.093 54.216 403.117 55.112 404.461 55.816C403.821 56.136 403.245 56.552 402.733 57.064C402.285 57.512 401.837 57.992 401.389 58.504V84.232C402.413 84.808 403.597 85.544 404.941 86.44C406.285 87.336 407.661 88.2 409.069 89.032C410.541 89.864 411.981 90.504 413.389 90.952C414.861 91.464 416.173 91.56 417.325 91.24C416.429 92.584 415.373 93.704 414.157 94.6C412.941 95.56 411.501 96.04 409.837 96.04C408.429 96.04 407.021 95.752 405.613 95.176C404.205 94.6 402.829 93.896 401.485 93.064C400.141 92.232 398.797 91.336 397.453 90.376C396.109 89.48 394.765 88.648 393.421 87.88C392.141 87.176 390.829 86.632 389.485 86.248C388.141 85.864 386.829 85.8 385.549 86.056ZM407.245 86.344C408.013 86.92 408.909 87.208 409.933 87.208C411.277 87.208 412.429 86.728 413.389 85.768C414.349 84.808 414.893 83.688 415.021 82.408C416.109 82.664 417.101 83.176 417.997 83.944C418.957 84.712 419.437 85.704 419.437 86.92C419.437 88.008 419.021 88.84 418.189 89.416C417.421 90.056 416.525 90.376 415.501 90.376C413.965 90.376 412.461 89.928 410.989 89.032C409.581 88.2 408.333 87.304 407.245 86.344ZM400.429 13.48L399.277 14.152V54.568L400.429 53.128V13.48ZM399.277 57.064V83.176L400.429 83.752V58.504C400.301 58.184 400.109 57.928 399.853 57.736C399.661 57.48 399.469 57.256 399.277 57.064ZM409.924 86.056C410.372 84.968 410.948 83.944 411.652 82.984C412.42 82.088 413.38 81.448 414.532 81.064V58.696C413.892 57.544 412.932 56.616 411.652 55.912C412.868 55.272 413.828 54.312 414.532 53.032V11.944C414.532 10.28 413.892 8.872 412.612 7.72C413.188 7.912 413.764 8.008 414.34 8.008C415.044 8.008 415.812 7.848 416.644 7.528C417.54 7.144 418.404 6.728 419.236 6.27999C420.132 5.768 420.964 5.288 421.732 4.84C422.5 4.328 423.14 3.91199 423.652 3.592C424.612 4.168 425.7 4.744 426.916 5.32C428.196 5.832 429.412 6.44 430.564 7.144C431.716 7.848 432.676 8.68 433.444 9.64C434.212 10.536 434.596 11.656 434.596 13C434.596 14.344 434.18 15.624 433.348 16.84C432.58 18.056 431.428 18.664 429.892 18.664C428.932 18.664 428.068 18.28 427.3 17.512C426.596 16.744 426.244 15.848 426.244 14.824C426.244 14.056 426.532 13.384 427.108 12.808C427.684 12.232 428.356 11.944 429.124 11.944C429.892 11.944 430.564 12.328 431.14 13.096L430.564 13.768C430.82 14.152 431.108 14.344 431.428 14.344C432.004 14.344 432.292 14.056 432.292 13.48C432.292 12.776 432.036 12.232 431.524 11.848C431.076 11.464 430.532 11.272 429.892 11.272C429.188 11.272 428.484 11.464 427.78 11.848C427.076 12.168 426.404 12.488 425.764 12.808V53.128C426.468 54.216 427.492 55.112 428.836 55.816C428.196 56.136 427.62 56.552 427.108 57.064C426.66 57.512 426.212 57.992 425.764 58.504V84.232C426.788 84.808 427.972 85.544 429.316 86.44C430.66 87.336 432.036 88.2 433.444 89.032C434.916 89.864 436.356 90.504 437.764 90.952C439.236 91.464 440.548 91.56 441.7 91.24C440.804 92.584 439.748 93.704 438.532 94.6C437.316 95.56 435.876 96.04 434.212 96.04C432.804 96.04 431.396 95.752 429.988 95.176C428.58 94.6 427.204 93.896 425.86 93.064C424.516 92.232 423.172 91.336 421.828 90.376C420.484 89.48 419.14 88.648 417.796 87.88C416.516 87.176 415.204 86.632 413.86 86.248C412.516 85.864 411.204 85.8 409.924 86.056ZM431.62 86.344C432.388 86.92 433.284 87.208 434.308 87.208C435.652 87.208 436.804 86.728 437.764 85.768C438.724 84.808 439.268 83.688 439.396 82.408C440.484 82.664 441.476 83.176 442.372 83.944C443.332 84.712 443.812 85.704 443.812 86.92C443.812 88.008 443.396 88.84 442.564 89.416C441.796 90.056 440.9 90.376 439.876 90.376C438.34 90.376 436.836 89.928 435.364 89.032C433.956 88.2 432.708 87.304 431.62 86.344ZM424.804 13.48L423.652 14.152V54.568L424.804 53.128V13.48ZM423.652 57.064V83.176L424.804 83.752V58.504C424.676 58.184 424.484 57.928 424.228 57.736C424.036 57.48 423.844 57.256 423.652 57.064ZM442.842 80.392C441.882 79.816 440.986 79.24 440.154 78.664C439.322 78.152 438.458 77.672 437.562 77.224C436.73 76.84 435.866 76.52 434.97 76.264C434.074 76.072 433.082 76.072 431.994 76.264C433.21 75.048 433.818 73.672 433.818 72.136V59.464C433.114 58.248 432.154 57.288 430.938 56.584C432.154 55.944 433.114 54.984 433.818 53.704V48.424C433.818 46.824 433.114 45.736 431.706 45.16L453.978 32.296C454.746 32.744 455.546 33.256 456.378 33.832C457.274 34.408 458.17 34.952 459.066 35.464C460.026 35.912 460.986 36.264 461.946 36.52C462.906 36.712 463.866 36.68 464.826 36.424C463.93 37.32 463.322 38.376 463.002 39.592C462.746 40.744 462.618 41.992 462.618 43.336C462.618 44.616 462.682 45.928 462.81 47.272C462.938 48.552 463.002 49.704 463.002 50.728L449.178 58.408V68.008L450.33 67.912C451.226 67.912 452.026 68.232 452.73 68.872C453.434 69.448 453.85 70.184 453.978 71.08V60.808L451.578 60.136L463.002 53.512C463.002 54.28 462.938 55.368 462.81 56.776C462.682 58.12 462.618 59.528 462.618 61C462.618 62.472 462.778 63.848 463.098 65.128C463.482 66.344 464.154 67.176 465.114 67.624C461.274 69.672 457.498 71.752 453.786 73.864C450.138 75.976 446.49 78.152 442.842 80.392ZM448.218 58.984L442.842 61.96V69.928C443.738 70.44 444.602 70.952 445.434 71.464C446.33 71.976 447.258 72.392 448.218 72.712V72.136C447.898 72.008 447.61 71.848 447.354 71.656C447.162 71.4 447.066 71.112 447.066 70.792C447.066 69.96 447.45 69.224 448.218 68.584V58.984ZM449.178 72.808C449.754 72.744 450.266 72.552 450.714 72.232C451.226 71.848 451.482 71.336 451.482 70.696C451.482 70.376 451.354 70.12 451.098 69.928C450.906 69.672 450.65 69.544 450.33 69.544C449.882 69.544 449.562 69.768 449.37 70.216C449.242 70.6 449.402 70.92 449.85 71.176L449.178 72.136V72.808ZM453.978 52.744V42.856L449.178 39.976V44.68C449.882 45.768 450.906 46.664 452.25 47.368C450.97 48.072 449.946 49 449.178 50.152V55.432L453.978 52.744ZM448.218 39.4C448.09 39.272 447.834 39.208 447.45 39.208C447.066 39.144 446.81 39.112 446.682 39.112C446.042 39.112 445.37 39.176 444.666 39.304C444.026 39.368 443.418 39.56 442.842 39.88V59.08L448.218 56.008V50.152C447.322 48.936 446.266 48.008 445.049 47.368C446.202 46.856 447.258 45.96 448.218 44.68V39.4ZM487.906 31.912C488.546 32.424 489.282 33.064 490.114 33.832C490.946 34.536 491.81 35.24 492.706 35.944C493.602 36.584 494.53 37.128 495.49 37.576C496.514 37.96 497.538 38.088 498.562 37.96C497.602 38.856 497.058 39.72 496.93 40.552C496.802 41.32 496.738 42.344 496.738 43.624L487.906 47.656V42.952C487.714 42.824 487.362 42.536 486.85 42.088C486.402 41.64 485.89 41.192 485.314 40.744C484.802 40.232 484.29 39.784 483.778 39.4C483.33 39.016 483.042 38.824 482.914 38.824V42.76C483.746 43.976 484.77 44.872 485.986 45.448C484.642 46.152 483.618 47.048 482.914 48.136V52.264L498.466 45.16C498.082 46.056 497.762 46.824 497.506 47.464C497.25 48.104 497.058 48.744 496.93 49.384C496.866 50.024 496.802 50.696 496.738 51.4C496.738 52.104 496.738 52.936 496.738 53.896C497.058 54.408 497.442 54.888 497.89 55.336C498.338 55.784 498.85 56.168 499.426 56.488C498.914 56.808 498.402 57.192 497.89 57.64C497.442 58.024 497.058 58.504 496.738 59.08V66.76C496.738 68.36 497.41 69.64 498.754 70.6L477.058 80.488C476.418 79.976 475.682 79.336 474.85 78.568C474.018 77.864 473.122 77.16 472.162 76.456C471.266 75.816 470.306 75.272 469.282 74.824C468.322 74.44 467.362 74.312 466.402 74.44C467.49 73.416 468.066 72.424 468.13 71.464C468.194 70.44 468.226 69.256 468.226 67.912L477.058 63.88V69.448L481.954 72.52V68.2C481.122 66.984 480.098 66.088 478.882 65.512C480.226 64.808 481.25 63.912 481.954 62.824V58.888L466.786 65.896C467.298 65 467.65 63.944 467.842 62.728C468.034 61.448 468.162 60.328 468.226 59.368C467.522 58.152 466.562 57.192 465.346 56.488C466.498 55.912 467.458 54.952 468.226 53.608V45.64C468.226 44.872 468.034 44.168 467.65 43.528C467.266 42.824 466.786 42.248 466.21 41.8L487.906 31.912ZM481.954 38.728H481.378C480.674 38.728 479.906 38.792 479.074 38.92C478.306 38.984 477.634 39.176 477.058 39.496V54.952L481.954 52.744V48.136C481.122 46.92 480.098 46.024 478.882 45.448C480.098 44.872 481.122 43.976 481.954 42.76V38.728ZM482.914 73.096C483.362 73.352 483.81 73.512 484.258 73.576C484.77 73.64 485.25 73.672 485.698 73.672C486.082 73.672 486.466 73.64 486.85 73.576C487.234 73.512 487.586 73.416 487.906 73.288V56.2L482.914 58.408V62.824C483.746 64.04 484.77 64.936 485.986 65.512C484.642 66.216 483.618 67.112 482.914 68.2V73.096ZM569.538 48.04C571.074 44.072 571.874 40.776 571.938 38.152C572.066 35.528 571.65 33.416 570.69 31.816C569.73 30.152 568.386 28.904 566.658 28.072C564.93 27.176 563.01 26.504 560.898 26.056C558.786 25.608 556.578 25.256 554.274 25C552.034 24.744 549.922 24.392 547.938 23.944V47.08C549.09 48.616 550.53 49.864 552.258 50.824C552.194 50.248 552.194 49.64 552.258 49C552.322 48.296 552.482 47.56 552.738 46.792L557.154 36.136C556.386 38.632 556.418 40.648 557.25 42.184C558.146 43.656 559.522 44.872 561.378 45.832C563.234 46.728 565.41 47.464 567.906 48.04C570.466 48.552 573.058 49.096 575.682 49.672C578.37 50.248 580.898 50.952 583.266 51.784C585.698 52.616 587.682 53.768 589.218 55.24C590.818 56.648 591.842 58.504 592.29 60.808C592.738 63.112 592.29 66.024 590.946 69.544C590.242 71.208 589.474 73.032 588.642 75.016C587.874 77 587.138 78.856 586.434 80.584C585.41 83.08 583.618 85.32 581.058 87.304C578.562 89.288 575.586 90.952 572.13 92.296C568.674 93.704 564.866 94.792 560.706 95.56C556.546 96.328 552.322 96.744 548.034 96.808C548.162 97.768 548.45 98.568 548.898 99.208C548.386 98.888 547.874 98.568 547.362 98.248C546.914 97.928 546.53 97.448 546.21 96.808C542.882 96.744 539.874 96.328 537.186 95.56C534.562 94.792 532.226 93.8 530.178 92.584C528.13 91.368 526.37 89.992 524.898 88.456C523.49 86.92 522.37 85.352 521.538 83.752C520.578 81.896 520.034 80.136 519.906 78.472C519.842 76.808 520.034 75.176 520.482 73.576C520.93 72.04 521.538 70.472 522.306 68.872C523.138 67.208 523.906 65.512 524.61 63.784C524.802 66.984 525.314 69.864 526.146 72.424C527.042 74.984 528.322 77.192 529.986 79.048C531.714 80.968 533.858 82.504 536.418 83.656C539.042 84.808 542.178 85.576 545.826 85.96V54.76C544.802 53.416 543.714 52.392 542.562 51.688V83.944C540.578 82.664 538.466 81.32 536.226 79.912C534.05 78.568 531.49 77.352 528.546 76.264C529.122 75.88 529.602 75.528 529.986 75.208C530.434 74.888 530.786 74.472 531.042 73.96C531.298 73.512 531.458 72.936 531.522 72.232C531.65 71.464 531.714 70.44 531.714 69.16V55.336C530.562 53.032 528.866 51.336 526.626 50.248C528.866 49.096 530.562 47.368 531.714 45.064V38.824C531.714 37.8 531.426 36.904 530.85 36.136C530.338 35.304 529.666 34.632 528.834 34.12C528.066 33.544 527.202 33.16 526.242 32.968C525.346 32.712 524.482 32.68 523.65 32.872C525.89 31.208 528.194 29.192 530.562 26.824C532.93 24.392 535.138 21.896 537.186 19.336C539.17 22.792 541.954 25.576 545.538 27.688C544.77 28.072 544.194 28.616 543.81 29.32C543.426 30.024 543.138 30.76 542.946 31.528C542.754 32.296 542.626 33.064 542.562 33.832C542.562 34.536 542.562 35.112 542.562 35.56V50.344C543.842 49.448 544.93 48.424 545.826 47.272V23.368C544.354 22.92 542.882 22.056 541.41 20.776C539.938 19.432 538.85 17.864 538.146 16.072C537.442 14.216 537.314 12.2 537.762 10.024C538.21 7.784 539.618 5.544 541.986 3.304C541.794 3.944 541.762 4.744 541.89 5.704C542.018 6.664 542.242 7.624 542.562 8.584C542.946 9.48 543.394 10.312 543.906 11.08C544.482 11.848 545.122 12.392 545.826 12.712C545.826 11.496 545.826 10.28 545.826 9.064C545.826 7.848 545.506 6.824 544.866 5.992C545.698 6.504 546.338 6.984 546.786 7.432C547.234 7.816 547.522 8.264 547.65 8.776C547.842 9.288 547.938 9.928 547.938 10.696C547.938 11.464 547.938 12.424 547.938 13.576C549.666 14.664 551.586 15.336 553.698 15.592C555.874 15.848 558.082 16.008 560.322 16.072C562.626 16.072 564.866 16.168 567.042 16.36C569.282 16.488 571.33 16.968 573.186 17.8C576.322 19.272 578.658 21.16 580.194 23.464C581.73 25.768 582.37 28.296 582.114 31.048C581.858 33.8 580.706 36.648 578.658 39.592C576.61 42.536 573.57 45.352 569.538 48.04ZM547.938 86.152C551.458 86.344 555.106 86.248 558.882 85.864C562.658 85.48 566.274 84.808 569.73 83.848C573.25 82.952 576.482 81.8 579.426 80.392C582.37 78.984 584.834 77.352 586.818 75.496C586.178 73.768 584.962 72.52 583.17 71.752C581.378 70.984 579.298 70.408 576.93 70.024C574.562 69.576 572.034 69.16 569.346 68.776C566.722 68.328 564.29 67.624 562.05 66.664C559.81 65.64 557.89 64.168 556.29 62.248C554.754 60.264 553.858 57.512 553.602 53.992C552.962 53.16 552.546 52.2 552.354 51.112C550.562 52.072 549.09 53.32 547.938 54.856V86.152ZM587.97 74.248C588.162 71.496 587.618 69.288 586.338 67.624C585.122 65.896 583.458 64.52 581.346 63.496C579.234 62.472 576.834 61.672 574.146 61.096C571.522 60.456 568.898 59.848 566.274 59.272C563.65 58.696 561.218 58.056 558.978 57.352C556.802 56.648 555.106 55.624 553.89 54.28C554.722 56.776 556.162 58.632 558.21 59.848C560.258 61.064 562.498 61.96 564.93 62.536C567.362 63.112 569.794 63.496 572.226 63.688C574.722 63.816 576.834 64.04 578.562 64.36C580.162 64.68 581.57 65.224 582.786 65.992C584.002 66.76 584.994 67.656 585.762 68.68C586.594 69.64 587.17 70.664 587.49 71.752C587.81 72.776 587.874 73.704 587.682 74.536L587.97 74.248ZM591.705 86.056C592.153 84.968 592.729 83.944 593.433 82.984C594.201 82.088 595.161 81.448 596.313 81.064V58.696C595.673 57.544 594.713 56.616 593.433 55.912C594.649 55.272 595.609 54.312 596.313 53.032V11.944C596.313 10.28 595.673 8.872 594.393 7.72C594.969 7.912 595.545 8.008 596.121 8.008C596.825 8.008 597.593 7.848 598.425 7.528C599.321 7.144 600.185 6.728 601.017 6.27999C601.913 5.768 602.745 5.288 603.513 4.84C604.281 4.328 604.921 3.91199 605.433 3.592C606.393 4.168 607.481 4.744 608.697 5.32C609.977 5.832 611.193 6.44 612.345 7.144C613.497 7.848 614.457 8.68 615.225 9.64C615.993 10.536 616.377 11.656 616.377 13C616.377 14.344 615.961 15.624 615.129 16.84C614.361 18.056 613.209 18.664 611.673 18.664C610.713 18.664 609.849 18.28 609.081 17.512C608.377 16.744 608.025 15.848 608.025 14.824C608.025 14.056 608.313 13.384 608.889 12.808C609.465 12.232 610.137 11.944 610.905 11.944C611.673 11.944 612.345 12.328 612.921 13.096L612.345 13.768C612.601 14.152 612.889 14.344 613.209 14.344C613.785 14.344 614.073 14.056 614.073 13.48C614.073 12.776 613.817 12.232 613.305 11.848C612.857 11.464 612.313 11.272 611.673 11.272C610.969 11.272 610.265 11.464 609.561 11.848C608.857 12.168 608.185 12.488 607.545 12.808V53.128C608.249 54.216 609.273 55.112 610.617 55.816C609.977 56.136 609.401 56.552 608.889 57.064C608.441 57.512 607.993 57.992 607.545 58.504V84.232C608.569 84.808 609.753 85.544 611.097 86.44C612.441 87.336 613.817 88.2 615.225 89.032C616.697 89.864 618.137 90.504 619.545 90.952C621.017 91.464 622.329 91.56 623.481 91.24C622.585 92.584 621.529 93.704 620.313 94.6C619.097 95.56 617.657 96.04 615.993 96.04C614.585 96.04 613.177 95.752 611.769 95.176C610.361 94.6 608.985 93.896 607.641 93.064C606.297 92.232 604.953 91.336 603.609 90.376C602.265 89.48 600.921 88.648 599.577 87.88C598.297 87.176 596.985 86.632 595.641 86.248C594.297 85.864 592.985 85.8 591.705 86.056ZM613.401 86.344C614.169 86.92 615.065 87.208 616.089 87.208C617.433 87.208 618.585 86.728 619.545 85.768C620.505 84.808 621.049 83.688 621.177 82.408C622.265 82.664 623.257 83.176 624.153 83.944C625.113 84.712 625.593 85.704 625.593 86.92C625.593 88.008 625.177 88.84 624.345 89.416C623.577 90.056 622.681 90.376 621.657 90.376C620.121 90.376 618.617 89.928 617.145 89.032C615.737 88.2 614.489 87.304 613.401 86.344ZM606.585 13.48L605.433 14.152V54.568L606.585 53.128V13.48ZM605.433 57.064V83.176L606.585 83.752V58.504C606.457 58.184 606.265 57.928 606.009 57.736C605.817 57.48 605.625 57.256 605.433 57.064ZM629.18 47.176V53.896C629.884 54.92 630.876 55.816 632.156 56.584C630.876 57.352 629.884 58.248 629.18 59.272V65.8H629.756C630.972 65.8 631.964 66.248 632.732 67.144C633.5 68.04 633.948 69.032 634.076 70.12V43.144C633.18 42.632 632.188 42.024 631.1 41.32C630.012 40.552 628.956 40.168 627.932 40.168C627.356 40.168 626.78 40.36 626.204 40.744C625.692 41.064 625.436 41.576 625.436 42.28C625.436 42.536 625.532 42.792 625.724 43.048C625.916 43.304 626.172 43.432 626.492 43.432C626.94 43.432 627.164 43.208 627.164 42.76L626.588 41.992C626.972 41.288 627.612 40.936 628.508 40.936C629.276 40.936 629.948 41.224 630.524 41.8C631.164 42.312 631.484 42.984 631.484 43.816C631.484 44.52 631.26 45.192 630.812 45.832C630.364 46.472 629.82 46.92 629.18 47.176ZM625.148 56.584C626.3 56.072 627.292 55.176 628.124 53.896V47.464H627.74C626.46 47.464 625.436 47.016 624.668 46.12C623.9 45.224 623.42 44.2 623.228 43.048V70.024C624.06 70.536 625.052 71.176 626.204 71.944C627.356 72.648 628.444 73 629.468 73C630.044 73 630.588 72.84 631.1 72.52C631.612 72.136 631.868 71.592 631.868 70.888C631.868 70.632 631.772 70.408 631.58 70.216C631.388 69.96 631.132 69.832 630.812 69.832C630.364 69.832 630.14 70.056 630.14 70.504L630.716 71.176C630.204 71.88 629.564 72.232 628.796 72.232C627.964 72.232 627.26 71.944 626.684 71.368C626.108 70.792 625.82 70.12 625.82 69.352C625.82 68.648 626.044 67.976 626.492 67.336C626.94 66.696 627.484 66.28 628.124 66.088V59.272C627.42 58.248 626.428 57.352 625.148 56.584ZM634.172 72.04C633.98 73.256 633.468 74.28 632.636 75.112C631.804 76.008 630.844 76.776 629.756 77.416C628.668 78.056 627.516 78.632 626.3 79.144C625.148 79.656 624.124 80.168 623.228 80.68C622.46 80.232 621.628 79.72 620.732 79.144C619.9 78.568 619.004 78.024 618.044 77.512C617.148 77.064 616.188 76.712 615.164 76.456C614.204 76.264 613.244 76.296 612.284 76.552C612.86 75.912 613.308 75.272 613.628 74.632C613.948 73.992 614.108 73.224 614.108 72.328V63.304C613.788 62.664 613.372 62.12 612.86 61.672C612.412 61.16 611.9 60.744 611.324 60.424C612.54 59.848 613.468 58.888 614.108 57.544V48.52C614.108 47.816 613.916 47.176 613.532 46.6C613.212 45.96 612.7 45.48 611.996 45.16C612.444 44.904 613.116 44.52 614.012 44.008C614.908 43.432 615.836 42.856 616.796 42.28C617.756 41.704 618.652 41.224 619.484 40.84C620.38 40.392 621.052 40.168 621.5 40.168C621.82 40.168 622.14 40.264 622.46 40.456C622.78 40.584 623.004 40.808 623.132 41.128C623.324 39.912 623.804 38.888 624.572 38.056C625.404 37.16 626.364 36.392 627.452 35.752C628.604 35.112 629.756 34.536 630.908 34.024C632.124 33.512 633.18 33 634.076 32.488C635.036 33.064 635.932 33.64 636.764 34.216C637.596 34.792 638.428 35.304 639.26 35.752C640.156 36.136 641.052 36.456 641.948 36.712C642.908 36.904 643.932 36.904 645.02 36.712C643.804 37.928 643.196 39.304 643.196 40.84V49.96C643.516 50.536 643.9 51.08 644.348 51.592C644.796 52.04 645.34 52.424 645.98 52.744C644.7 53.448 643.772 54.408 643.196 55.624V64.648C643.196 65.352 643.356 66.024 643.676 66.664C644.06 67.24 644.604 67.688 645.308 68.008C644.86 68.264 644.188 68.68 643.292 69.256C642.396 69.768 641.468 70.312 640.508 70.888C639.548 71.464 638.62 71.976 637.724 72.424C636.892 72.808 636.252 73 635.804 73C635.484 73 635.164 72.936 634.844 72.808C634.524 72.616 634.3 72.36 634.172 72.04ZM664.401 46.696V54.76C665.105 55.848 666.129 56.744 667.473 57.448C666.129 58.152 665.105 59.048 664.401 60.136V75.016L664.977 75.304L655.857 80.584C655.089 80.136 654.385 79.72 653.745 79.336C653.169 78.952 652.593 78.632 652.017 78.376C651.441 78.184 650.833 78.056 650.193 77.992C649.553 77.928 648.785 77.96 647.889 78.088C649.105 76.872 649.713 75.496 649.713 73.96V60.424C649.009 59.144 648.049 58.216 646.832 57.64C648.049 57 649.009 56.04 649.713 54.76V40.456C649.713 39.752 649.521 39.112 649.137 38.536C648.817 37.896 648.305 37.416 647.601 37.096C648.113 37.032 648.945 36.808 650.097 36.424C651.249 35.976 652.465 35.496 653.745 34.984C655.025 34.408 656.209 33.864 657.297 33.352C658.385 32.84 659.121 32.488 659.505 32.296C659.313 32.424 659.153 32.776 659.025 33.352C658.961 33.864 658.897 34.472 658.833 35.176C658.833 35.816 658.833 36.488 658.833 37.192C658.833 37.832 658.833 38.376 658.833 38.824C659.089 38.248 659.665 37.64 660.561 37C661.457 36.36 662.449 35.72 663.537 35.08C664.689 34.44 665.777 33.864 666.801 33.352C667.889 32.84 668.689 32.424 669.201 32.104C670.161 32.68 671.057 33.256 671.889 33.832C672.721 34.408 673.553 34.92 674.385 35.368C675.281 35.752 676.177 36.072 677.073 36.328C678.033 36.52 679.057 36.52 680.145 36.328C678.929 37.544 678.321 38.92 678.321 40.456V54.184C679.153 55.784 680.305 56.968 681.777 57.736C681.073 58.184 680.401 58.696 679.761 59.272C679.185 59.848 678.705 60.52 678.321 61.288V71.656C679.345 72.296 680.369 72.904 681.393 73.48C682.417 74.056 683.441 74.664 684.465 75.304L675.345 80.584C674.577 80.136 673.873 79.72 673.233 79.336C672.657 78.952 672.081 78.632 671.505 78.376C670.929 78.184 670.321 78.056 669.681 77.992C669.041 77.928 668.273 77.96 667.377 78.088C668.593 76.872 669.201 75.496 669.201 73.96V42.76C668.305 42.248 667.281 41.64 666.129 40.936C665.041 40.168 663.985 39.784 662.961 39.784C662.449 39.784 661.905 39.976 661.329 40.36C660.817 40.68 660.561 41.16 660.561 41.8C660.561 42.12 660.657 42.408 660.849 42.664C661.041 42.92 661.297 43.048 661.617 43.048C662.065 43.048 662.289 42.824 662.289 42.376L661.713 41.608C662.097 40.904 662.737 40.552 663.633 40.552C664.401 40.552 665.073 40.84 665.649 41.416C666.289 41.928 666.609 42.6 666.609 43.432C666.609 44.072 666.385 44.712 665.937 45.352C665.489 45.992 664.977 46.44 664.401 46.696ZM658.833 44.392V71.656L663.441 74.344V60.136C662.737 59.048 661.713 58.152 660.369 57.448C661.585 56.872 662.609 55.976 663.441 54.76V46.984L662.577 47.08C661.745 47.08 660.977 46.824 660.273 46.312C659.633 45.8 659.153 45.16 658.833 44.392ZM695.79 80.584C694.83 80.008 693.934 79.432 693.102 78.856C692.27 78.344 691.406 77.864 690.51 77.416C689.678 77.032 688.782 76.712 687.822 76.456C686.926 76.264 685.934 76.264 684.846 76.456C686.062 75.24 686.67 73.864 686.67 72.328V59.368C686.094 58.152 685.166 57.192 683.886 56.488C685.166 55.912 686.094 54.984 686.67 53.704V45.256C686.67 44.552 686.478 43.912 686.094 43.336C685.774 42.76 685.294 42.312 684.654 41.992L707.31 31.528V13.768C707.31 12.36 706.734 11.336 705.582 10.696C704.494 9.992 703.342 9.512 702.126 9.256L710.574 3.784C711.854 4.552 713.07 5.25599 714.222 5.89599C715.438 6.536 716.878 6.664 718.542 6.27999C717.326 7.49599 716.718 8.872 716.718 10.408C716.718 13.224 716.686 16.552 716.622 20.392C716.622 24.168 716.622 28.072 716.622 32.104C716.622 36.136 716.59 40.072 716.526 43.912C716.526 47.688 716.526 50.984 716.526 53.8C717.294 55.08 718.222 55.976 719.31 56.488C718.03 57.256 717.07 58.184 716.43 59.272V70.888C716.43 71.592 716.622 72.264 717.006 72.904C717.39 73.48 717.902 73.928 718.542 74.248C716.494 75.016 714.542 75.912 712.686 76.936C710.83 78.024 709.07 79.272 707.406 80.68C707.406 77.16 707.406 73.512 707.406 69.736C707.406 65.896 707.406 62.024 707.406 58.12C707.406 54.216 707.374 50.376 707.31 46.6C707.31 42.76 707.31 39.08 707.31 35.56L701.358 40.264V53.608C701.678 54.184 702.094 54.696 702.606 55.144C703.182 55.592 703.758 55.976 704.334 56.296C703.054 57.064 702.062 57.96 701.358 58.984V65.8L702.318 65.704C703.982 65.704 705.134 66.344 705.774 67.624C706.414 68.904 706.734 70.248 706.734 71.656C706.734 72.872 706.318 73.928 705.486 74.824C704.654 75.72 703.662 76.52 702.51 77.224C701.358 77.928 700.142 78.536 698.862 79.048C697.646 79.624 696.622 80.136 695.79 80.584ZM700.302 41.032L695.79 44.488V70.024C696.686 70.536 697.678 71.176 698.766 71.944C699.918 72.648 700.974 73 701.934 73C702.51 73 703.054 72.808 703.566 72.424C704.142 72.04 704.43 71.528 704.43 70.888C704.43 70.568 704.334 70.312 704.142 70.12C704.014 69.864 703.79 69.736 703.47 69.736C702.958 69.736 702.702 69.96 702.702 70.408L703.278 71.176C702.894 71.88 702.254 72.232 701.358 72.232C700.59 72.232 699.886 71.976 699.246 71.464C698.67 70.888 698.382 70.184 698.382 69.352C698.382 68.712 698.574 68.104 698.958 67.528C699.342 66.952 699.79 66.504 700.302 66.184V58.984C699.598 57.96 698.606 57.064 697.326 56.296C698.478 55.784 699.47 54.888 700.302 53.608V41.032Z" fill="#E6007E"/>
</svg>
