<svg width="688" height="97" viewBox="0 0 688 97" fill="none" xmlns="http://www.w3.org/2000/svg">
<path d="M50.632 45.04C52.168 41.072 52.968 37.776 53.032 35.152C53.16 32.528 52.744 30.416 51.784 28.816C50.824 27.152 49.48 25.904 47.752 25.072C46.024 24.176 44.104 23.504 41.992 23.056C39.88 22.608 37.672 22.256 35.368 22C33.128 21.744 31.016 21.392 29.032 20.944V44.08C30.184 45.616 31.624 46.864 33.352 47.824C33.288 47.248 33.288 46.64 33.352 46C33.416 45.296 33.576 44.56 33.832 43.792L38.248 33.136C37.48 35.632 37.512 37.648 38.344 39.184C39.24 40.656 40.616 41.872 42.472 42.832C44.328 43.728 46.504 44.464 49 45.04C51.56 45.552 54.152 46.096 56.776 46.672C59.464 47.248 61.992 47.952 64.36 48.784C66.792 49.616 68.776 50.768 70.312 52.24C71.912 53.648 72.936 55.504 73.384 57.808C73.832 60.112 73.384 63.024 72.04 66.544C71.336 68.208 70.568 70.032 69.736 72.016C68.968 74 68.232 75.856 67.528 77.584C66.504 80.08 64.712 82.32 62.152 84.304C59.656 86.288 56.68 87.952 53.224 89.296C49.768 90.704 45.96 91.792 41.8 92.56C37.64 93.328 33.416 93.744 29.128 93.808C29.256 94.768 29.544 95.568 29.992 96.208C29.48 95.888 28.968 95.568 28.456 95.248C28.008 94.928 27.624 94.448 27.304 93.808C23.976 93.744 20.968 93.328 18.28 92.56C15.656 91.792 13.32 90.8 11.272 89.584C9.224 88.368 7.464 86.992 5.992 85.456C4.584 83.92 3.464 82.352 2.632 80.752C1.672 78.896 1.128 77.136 1 75.472C0.936 73.808 1.128 72.176 1.576 70.576C2.024 69.04 2.632 67.472 3.4 65.872C4.232 64.208 5 62.512 5.704 60.784C5.896 63.984 6.408 66.864 7.24 69.424C8.136 71.984 9.416 74.192 11.08 76.048C12.808 77.968 14.952 79.504 17.512 80.656C20.136 81.808 23.272 82.576 26.92 82.96V51.76C25.896 50.416 24.808 49.392 23.656 48.688V80.944C21.672 79.664 19.56 78.32 17.32 76.912C15.144 75.568 12.584 74.352 9.64 73.264C10.216 72.88 10.696 72.528 11.08 72.208C11.528 71.888 11.88 71.472 12.136 70.96C12.392 70.512 12.552 69.936 12.616 69.232C12.744 68.464 12.808 67.44 12.808 66.16V52.336C11.656 50.032 9.96 48.336 7.72 47.248C9.96 46.096 11.656 44.368 12.808 42.064V35.824C12.808 34.8 12.52 33.904 11.944 33.136C11.432 32.304 10.76 31.632 9.928 31.12C9.16 30.544 8.296 30.16 7.336 29.968C6.44 29.712 5.576 29.68 4.744 29.872C6.984 28.208 9.288 26.192 11.656 23.824C14.024 21.392 16.232 18.896 18.28 16.336C20.264 19.792 23.048 22.576 26.632 24.688C25.864 25.072 25.288 25.616 24.904 26.32C24.52 27.024 24.232 27.76 24.04 28.528C23.848 29.296 23.72 30.064 23.656 30.832C23.656 31.536 23.656 32.112 23.656 32.56V47.344C24.936 46.448 26.024 45.424 26.92 44.272V20.368C25.448 19.92 23.976 19.056 22.504 17.776C21.032 16.432 19.944 14.864 19.24 13.072C18.536 11.216 18.408 9.2 18.856 7.024C19.304 4.784 20.712 2.544 23.08 0.303999C22.888 0.943998 22.856 1.744 22.984 2.704C23.112 3.664 23.336 4.624 23.656 5.584C24.04 6.48 24.488 7.312 25 8.08C25.576 8.848 26.216 9.392 26.92 9.712C26.92 8.496 26.92 7.28 26.92 6.064C26.92 4.848 26.6 3.824 25.96 2.992C26.792 3.504 27.432 3.984 27.88 4.432C28.328 4.816 28.616 5.264 28.744 5.776C28.936 6.288 29.032 6.928 29.032 7.696C29.032 8.464 29.032 9.424 29.032 10.576C30.76 11.664 32.68 12.336 34.792 12.592C36.968 12.848 39.176 13.008 41.416 13.072C43.72 13.072 45.96 13.168 48.136 13.36C50.376 13.488 52.424 13.968 54.28 14.8C57.416 16.272 59.752 18.16 61.288 20.464C62.824 22.768 63.464 25.296 63.208 28.048C62.952 30.8 61.8 33.648 59.752 36.592C57.704 39.536 54.664 42.352 50.632 45.04ZM29.032 83.152C32.552 83.344 36.2 83.248 39.976 82.864C43.752 82.48 47.368 81.808 50.824 80.848C54.344 79.952 57.576 78.8 60.52 77.392C63.464 75.984 65.928 74.352 67.912 72.496C67.272 70.768 66.056 69.52 64.264 68.752C62.472 67.984 60.392 67.408 58.024 67.024C55.656 66.576 53.128 66.16 50.44 65.776C47.816 65.328 45.384 64.624 43.144 63.664C40.904 62.64 38.984 61.168 37.384 59.248C35.848 57.264 34.952 54.512 34.696 50.992C34.056 50.16 33.64 49.2 33.448 48.112C31.656 49.072 30.184 50.32 29.032 51.856V83.152ZM69.064 71.248C69.256 68.496 68.712 66.288 67.432 64.624C66.216 62.896 64.552 61.52 62.44 60.496C60.328 59.472 57.928 58.672 55.24 58.096C52.616 57.456 49.992 56.848 47.368 56.272C44.744 55.696 42.312 55.056 40.072 54.352C37.896 53.648 36.2 52.624 34.984 51.28C35.816 53.776 37.256 55.632 39.304 56.848C41.352 58.064 43.592 58.96 46.024 59.536C48.456 60.112 50.888 60.496 53.32 60.688C55.816 60.816 57.928 61.04 59.656 61.36C61.256 61.68 62.664 62.224 63.88 62.992C65.096 63.76 66.088 64.656 66.856 65.68C67.688 66.64 68.264 67.664 68.584 68.752C68.904 69.776 68.968 70.704 68.776 71.536L69.064 71.248ZM96.2095 37.264C97.0415 36.752 97.9055 36.336 98.8015 36.016C99.7615 35.632 100.722 35.44 101.682 35.44C102.45 35.44 103.154 35.664 103.794 36.112C104.498 36.496 104.85 37.136 104.85 38.032C104.85 38.992 104.466 39.728 103.698 40.24C102.93 40.752 102.098 41.008 101.202 41.008C101.266 39.92 100.946 38.992 100.242 38.224C99.5375 37.392 98.6415 36.976 97.5535 36.976C97.3615 36.976 97.1375 37.008 96.8815 37.072C96.6255 37.136 96.4015 37.2 96.2095 37.264ZM76.6255 41.104C76.1135 40.464 75.6335 39.856 75.1855 39.28C74.7375 38.64 74.2575 38.032 73.7455 37.456C74.5775 38.032 75.5695 38.32 76.7215 38.32C78.3855 38.32 80.0175 37.872 81.6175 36.976C83.2815 36.016 84.9455 34.992 86.6095 33.904C88.2735 32.752 89.9375 31.728 91.6015 30.832C93.3295 29.872 95.0895 29.392 96.8815 29.392C98.9295 29.392 100.626 30.096 101.97 31.504C103.314 32.912 104.434 34.448 105.33 36.112C104.242 35.216 102.962 34.768 101.49 34.768C100.338 34.768 99.1535 35.024 97.9375 35.536C96.7855 35.984 95.6335 36.56 94.4815 37.264C93.3295 37.904 92.2095 38.608 91.1215 39.376C90.0335 40.144 89.0095 40.816 88.0495 41.392V50.8C88.8815 52.016 89.9055 52.912 91.1215 53.488C89.7775 54.192 88.7535 55.088 88.0495 56.176V68.368C89.2015 69.136 90.4815 69.52 91.8895 69.52L92.3695 69.424C91.1535 70.832 90.0015 72.112 88.9135 73.264C87.8255 74.48 86.7695 75.888 85.7455 77.488C85.1055 77.104 84.4015 76.656 83.6335 76.144C82.9295 75.696 82.1615 75.216 81.3295 74.704C80.4975 74.256 79.6655 73.872 78.8335 73.552C78.0655 73.232 77.2975 73.072 76.5295 73.072C75.9535 73.072 75.3775 73.168 74.8015 73.36C76.0175 72.144 76.6255 70.768 76.6255 69.232V56.176C75.9215 54.96 74.9615 54 73.7455 53.296C74.9615 52.72 75.9215 51.792 76.6255 50.512V41.104ZM85.7455 66.928L87.0895 67.696V56.176C86.8975 55.856 86.6735 55.6 86.4175 55.408C86.2255 55.152 86.0015 54.896 85.7455 54.64V66.928ZM87.0895 41.968L85.7455 42.64V52.336C86.0015 52.08 86.2255 51.856 86.4175 51.664C86.6735 51.408 86.8975 51.12 87.0895 50.8V41.968ZM123.385 54.736C122.681 53.648 121.657 52.752 120.313 52.048C121.657 51.344 122.681 50.448 123.385 49.36V34.48L122.809 34.192L131.929 28.912C132.697 29.424 133.369 29.872 133.945 30.256C134.585 30.576 135.193 30.864 135.769 31.12C136.345 31.312 136.953 31.44 137.593 31.504C138.233 31.568 139.001 31.536 139.897 31.408C138.681 32.624 138.073 34 138.073 35.536V49.072C138.777 50.352 139.737 51.28 140.953 51.856C139.673 52.56 138.713 53.52 138.073 54.736V69.04C138.073 69.744 138.233 70.384 138.553 70.96C138.937 71.6 139.481 72.08 140.185 72.4C139.673 72.464 138.841 72.72 137.689 73.168C136.537 73.616 135.321 74.096 134.041 74.608C132.761 75.12 131.577 75.632 130.489 76.144C129.401 76.656 128.665 77.008 128.281 77.2C128.473 77.072 128.601 76.72 128.665 76.144C128.793 75.632 128.857 75.024 128.857 74.32C128.921 73.68 128.953 73.008 128.953 72.304C128.953 71.664 128.953 71.12 128.953 70.672C128.697 71.248 128.121 71.856 127.225 72.496C126.329 73.136 125.305 73.776 124.153 74.416C123.065 75.056 121.977 75.632 120.889 76.144C119.865 76.656 119.097 77.072 118.585 77.392C117.625 76.816 116.729 76.24 115.897 75.664C115.065 75.152 114.201 74.672 113.305 74.224C112.473 73.776 111.577 73.424 110.617 73.168C109.721 72.976 108.729 72.976 107.641 73.168C108.857 71.952 109.465 70.576 109.465 69.04V55.312C108.633 53.712 107.481 52.528 106.009 51.76C106.713 51.312 107.353 50.8 107.929 50.224C108.569 49.648 109.081 48.976 109.465 48.208V38.704C109.465 38.256 109.401 37.584 109.273 36.688C109.209 35.792 108.857 35.184 108.217 34.864C108.921 34.608 109.881 34.256 111.097 33.808C112.313 33.36 113.561 32.88 114.841 32.368C116.121 31.856 117.305 31.344 118.393 30.832C119.481 30.256 120.249 29.744 120.697 29.296C120.377 29.616 120.089 30.032 119.833 30.544C119.577 31.056 119.353 31.632 119.161 32.272C118.969 32.848 118.809 33.456 118.681 34.096C118.617 34.672 118.585 35.152 118.585 35.536V66.736C119.481 67.248 120.473 67.888 121.561 68.656C122.713 69.36 123.801 69.712 124.825 69.712C125.337 69.712 125.849 69.552 126.361 69.232C126.937 68.848 127.225 68.336 127.225 67.696C127.225 67.376 127.129 67.088 126.937 66.832C126.745 66.576 126.489 66.448 126.169 66.448C125.721 66.448 125.497 66.672 125.497 67.12L126.073 67.888C125.689 68.592 125.049 68.944 124.153 68.944C123.385 68.944 122.681 68.688 122.041 68.176C121.465 67.6 121.177 66.896 121.177 66.064C121.177 65.424 121.401 64.784 121.849 64.144C122.297 63.504 122.809 63.056 123.385 62.8V54.736ZM128.953 37.84L124.345 35.152V49.36C125.049 50.448 126.073 51.344 127.417 52.048C126.201 52.624 125.177 53.52 124.345 54.736V62.512L125.209 62.416C126.041 62.416 126.777 62.672 127.417 63.184C128.121 63.696 128.633 64.336 128.953 65.104V37.84ZM160.401 43.696V51.76C161.105 52.848 162.129 53.744 163.473 54.448C162.129 55.152 161.105 56.048 160.401 57.136V72.016L160.977 72.304L151.857 77.584C151.089 77.136 150.385 76.72 149.745 76.336C149.169 75.952 148.593 75.632 148.017 75.376C147.441 75.184 146.833 75.056 146.193 74.992C145.553 74.928 144.785 74.96 143.889 75.088C145.105 73.872 145.713 72.496 145.713 70.96V57.424C145.009 56.144 144.049 55.216 142.832 54.64C144.049 54 145.009 53.04 145.713 51.76V37.456C145.713 36.752 145.521 36.112 145.137 35.536C144.817 34.896 144.305 34.416 143.601 34.096C144.113 34.032 144.945 33.808 146.097 33.424C147.249 32.976 148.465 32.496 149.745 31.984C151.025 31.408 152.209 30.864 153.297 30.352C154.385 29.84 155.121 29.488 155.505 29.296C155.313 29.424 155.153 29.776 155.025 30.352C154.961 30.864 154.897 31.472 154.833 32.176C154.833 32.816 154.833 33.488 154.833 34.192C154.833 34.832 154.833 35.376 154.833 35.824C155.089 35.248 155.665 34.64 156.561 34C157.457 33.36 158.449 32.72 159.537 32.08C160.689 31.44 161.777 30.864 162.801 30.352C163.889 29.84 164.689 29.424 165.201 29.104C166.161 29.68 167.057 30.256 167.889 30.832C168.721 31.408 169.553 31.92 170.385 32.368C171.281 32.752 172.177 33.072 173.073 33.328C174.033 33.52 175.057 33.52 176.145 33.328C174.929 34.544 174.321 35.92 174.321 37.456V51.184C175.153 52.784 176.305 53.968 177.777 54.736C177.073 55.184 176.401 55.696 175.761 56.272C175.185 56.848 174.705 57.52 174.321 58.288V68.656C175.345 69.296 176.369 69.904 177.393 70.48C178.417 71.056 179.441 71.664 180.465 72.304L171.345 77.584C170.577 77.136 169.873 76.72 169.233 76.336C168.657 75.952 168.081 75.632 167.505 75.376C166.929 75.184 166.321 75.056 165.681 74.992C165.041 74.928 164.273 74.96 163.377 75.088C164.593 73.872 165.201 72.496 165.201 70.96V39.76C164.305 39.248 163.281 38.64 162.129 37.936C161.041 37.168 159.985 36.784 158.961 36.784C158.449 36.784 157.905 36.976 157.329 37.36C156.817 37.68 156.561 38.16 156.561 38.8C156.561 39.12 156.657 39.408 156.849 39.664C157.041 39.92 157.297 40.048 157.617 40.048C158.065 40.048 158.289 39.824 158.289 39.376L157.713 38.608C158.097 37.904 158.737 37.552 159.633 37.552C160.401 37.552 161.073 37.84 161.649 38.416C162.289 38.928 162.609 39.6 162.609 40.432C162.609 41.072 162.385 41.712 161.937 42.352C161.489 42.992 160.977 43.44 160.401 43.696ZM154.833 41.392V68.656L159.441 71.344V57.136C158.737 56.048 157.713 55.152 156.369 54.448C157.585 53.872 158.609 52.976 159.441 51.76V43.984L158.577 44.08C157.745 44.08 156.977 43.824 156.273 43.312C155.633 42.8 155.153 42.16 154.833 41.392ZM192.248 77.392C191.288 76.816 190.392 76.24 189.56 75.664C188.728 75.152 187.864 74.672 186.968 74.224C186.136 73.84 185.272 73.52 184.376 73.264C183.48 73.072 182.488 73.072 181.4 73.264C182.616 72.048 183.224 70.672 183.224 69.136V56.464C182.52 55.248 181.56 54.288 180.344 53.584C181.56 52.944 182.52 51.984 183.224 50.704V45.424C183.224 43.824 182.52 42.736 181.112 42.16L203.384 29.296C204.152 29.744 204.952 30.256 205.784 30.832C206.68 31.408 207.576 31.952 208.472 32.464C209.432 32.912 210.392 33.264 211.352 33.52C212.312 33.712 213.272 33.68 214.232 33.424C213.336 34.32 212.728 35.376 212.408 36.592C212.152 37.744 212.024 38.992 212.024 40.336C212.024 41.616 212.088 42.928 212.216 44.272C212.344 45.552 212.408 46.704 212.408 47.728L198.584 55.408V65.008L199.736 64.912C200.632 64.912 201.432 65.232 202.136 65.872C202.84 66.448 203.256 67.184 203.384 68.08V57.808L200.984 57.136L212.408 50.512C212.408 51.28 212.344 52.368 212.216 53.776C212.088 55.12 212.024 56.528 212.024 58C212.024 59.472 212.184 60.848 212.504 62.128C212.888 63.344 213.56 64.176 214.52 64.624C210.68 66.672 206.904 68.752 203.192 70.864C199.544 72.976 195.896 75.152 192.248 77.392ZM197.624 55.984L192.248 58.96V66.928C193.144 67.44 194.008 67.952 194.84 68.464C195.736 68.976 196.664 69.392 197.624 69.712V69.136C197.304 69.008 197.016 68.848 196.76 68.656C196.568 68.4 196.472 68.112 196.472 67.792C196.472 66.96 196.856 66.224 197.624 65.584V55.984ZM198.584 69.808C199.16 69.744 199.672 69.552 200.12 69.232C200.632 68.848 200.888 68.336 200.888 67.696C200.888 67.376 200.76 67.12 200.504 66.928C200.312 66.672 200.056 66.544 199.736 66.544C199.288 66.544 198.968 66.768 198.776 67.216C198.648 67.6 198.808 67.92 199.256 68.176L198.584 69.136V69.808ZM203.384 49.744V39.856L198.584 36.976V41.68C199.288 42.768 200.312 43.664 201.656 44.368C200.376 45.072 199.352 46 198.584 47.152V52.432L203.384 49.744ZM197.624 36.4C197.496 36.272 197.24 36.208 196.856 36.208C196.472 36.144 196.216 36.112 196.088 36.112C195.448 36.112 194.776 36.176 194.072 36.304C193.432 36.368 192.824 36.56 192.248 36.88V56.08L197.624 53.008V47.152C196.728 45.936 195.672 45.008 194.456 44.368C195.608 43.856 196.664 42.96 197.624 41.68V36.4ZM277.798 45.232H284.806C286.406 44.016 287.622 42.544 288.454 40.816C289.414 42.608 290.662 44.08 292.198 45.232H299.878C299.238 40.624 298.278 36.592 296.998 33.136C295.718 29.68 294.15 26.544 292.294 23.728C290.566 21.168 288.678 18.896 286.63 16.912C284.582 14.864 282.47 13.232 280.294 12.016C278.118 10.736 275.91 9.936 273.67 9.616C271.494 9.232 269.414 9.36 267.43 10L262.918 13.552C265.414 15.408 267.398 17.232 268.87 19.024C270.406 20.752 271.558 22.512 272.326 24.304C273.094 26.096 273.51 27.952 273.574 29.872C273.702 31.728 273.606 33.68 273.286 35.728C274.63 37.2 275.654 38.736 276.358 40.336C277.126 41.936 277.606 43.568 277.798 45.232ZM272.422 39.664C271.59 42.736 270.502 45.776 269.158 48.784C267.814 51.728 266.534 54.576 265.318 57.328C264.166 60.08 263.238 62.704 262.534 65.2C261.83 67.696 261.734 69.968 262.246 72.016C262.246 70.608 262.534 69.136 263.11 67.6C263.75 65.872 264.582 63.888 265.606 61.648C266.694 59.344 267.718 56.944 268.678 54.448C269.702 51.952 270.566 49.456 271.27 46.96C272.038 44.4 272.422 41.968 272.422 39.664ZM262.63 76.528C260.966 76.272 259.27 75.472 257.542 74.128C255.814 72.784 254.31 71.12 253.03 69.136C251.814 67.088 250.982 64.816 250.534 62.32C250.086 59.824 250.31 57.264 251.206 54.64C252.166 51.952 253.478 48.944 255.142 45.616C256.87 42.288 258.438 38.864 259.846 35.344C261.254 31.76 262.246 28.208 262.822 24.688C263.398 21.104 263.046 17.712 261.766 14.512L260.518 15.472C260.71 15.216 260.87 14.992 260.998 14.8C261.19 14.544 261.382 14.32 261.574 14.128C261.446 13.872 261.318 13.648 261.19 13.456C261.126 13.2 261.03 12.944 260.902 12.688C259.686 11.728 258.47 11.056 257.254 10.672C256.038 10.288 254.854 10.16 253.702 10.288C252.55 10.352 251.43 10.64 250.342 11.152C249.254 11.6 248.294 12.176 247.462 12.88V25.744C248.23 25.616 248.87 25.264 249.382 24.688C249.894 24.048 250.182 23.344 250.246 22.576C250.374 21.744 250.246 20.912 249.862 20.08C249.478 19.184 248.742 18.384 247.654 17.68C248.614 16.4 249.606 15.632 250.63 15.376C251.718 15.12 252.71 15.216 253.606 15.664C254.566 16.112 255.334 16.816 255.91 17.776C256.55 18.736 256.87 19.824 256.87 21.04C256.934 22.192 256.646 23.376 256.006 24.592C255.43 25.744 254.342 26.768 252.742 27.664C250.886 28.432 249.126 28.784 247.462 28.72V42.544C248.55 44.08 250.054 45.36 251.974 46.384C250.118 47.344 248.614 48.656 247.462 50.32V69.232C248.678 69.168 249.926 69.488 251.206 70.192C252.486 70.896 253.798 71.792 255.142 72.88C256.486 73.968 257.894 75.184 259.366 76.528C260.902 77.936 262.534 79.28 264.262 80.56C263.558 79.344 263.014 78 262.63 76.528ZM269.542 84.016C271.142 84.912 272.87 85.616 274.726 86.128C276.582 86.704 278.534 86.992 280.582 86.992C282.63 87.056 284.806 86.768 287.11 86.128C289.414 85.552 291.878 84.56 294.502 83.152C295.91 81.168 297.062 78.832 297.958 76.144C298.918 73.456 299.622 70.576 300.07 67.504C300.518 64.368 300.742 61.104 300.742 57.712C300.742 54.32 300.55 50.928 300.166 47.536H292.198C290.726 48.624 289.478 50.096 288.454 51.952C287.494 50.16 286.246 48.688 284.71 47.536H277.99C277.99 49.84 277.67 52.176 277.03 54.544C276.454 56.848 275.686 59.152 274.726 61.456C273.83 63.696 272.902 65.904 271.942 68.08C270.982 70.192 270.182 72.208 269.542 74.128C268.902 76.112 268.518 77.936 268.39 79.6C268.326 81.264 268.71 82.736 269.542 84.016ZM309.19 40.912C310.598 43.28 312.518 45.04 314.95 46.192C312.646 47.472 310.886 49.36 309.67 51.856C309.606 54.8 309.382 57.68 308.998 60.496C308.614 63.248 308.038 65.84 307.27 68.272C306.502 70.64 305.542 72.784 304.39 74.704C303.238 76.688 301.894 78.288 300.358 79.504L291.334 86.512L290.854 86.992C287.206 89.616 283.814 91.44 280.678 92.464C277.542 93.552 274.63 94.096 271.942 94.096C269.254 94.096 266.758 93.648 264.454 92.752C262.15 91.92 259.974 90.832 257.926 89.488C255.942 88.208 254.086 86.8 252.358 85.264C250.63 83.728 248.998 82.32 247.462 81.04V88.144C247.462 89.808 247.11 90.928 246.406 91.504C245.766 92.08 244.998 92.624 244.102 93.136C244.806 92.24 245.158 91.088 245.158 89.68V79.216C243.686 78.064 242.246 77.2 240.838 76.624C239.494 76.112 238.15 76.112 236.806 76.624L232.966 79.696C233.542 78.928 234.182 78.256 234.886 77.68L243.814 70.672C244.326 70.224 244.774 69.936 245.158 69.808V50.032C243.942 48.432 242.502 47.216 240.838 46.384C242.63 45.488 244.07 44.304 245.158 42.832V28.336C243.174 27.76 241.414 26.736 239.878 25.264C238.342 23.728 237.19 22 236.422 20.08C235.718 18.096 235.494 16.048 235.75 13.936C236.006 11.76 236.966 9.776 238.63 7.984C240.23 6.192 241.99 5.072 243.91 4.62399C245.83 4.112 247.782 4.112 249.766 4.62399C251.75 5.136 253.702 6.064 255.622 7.408C257.542 8.752 259.334 10.352 260.998 12.208C261.254 12.4 261.478 12.592 261.67 12.784C261.926 12.912 262.182 13.072 262.438 13.264C262.63 13.008 262.822 12.784 263.014 12.592C263.27 12.4 263.494 12.208 263.686 12.016L272.71 5.008C274.822 3.344 277.126 2.448 279.622 2.32C282.118 2.192 284.614 2.704 287.11 3.856C289.67 4.944 292.166 6.608 294.598 8.848C297.03 11.024 299.238 13.616 301.222 16.624C303.27 19.696 304.966 23.216 306.31 27.184C307.718 31.152 308.678 35.728 309.19 40.912ZM245.158 25.264V15.568C244.774 16.272 244.422 17.104 244.102 18.064C243.782 19.024 243.558 19.952 243.43 20.848C243.366 21.744 243.462 22.608 243.718 23.44C243.974 24.208 244.454 24.816 245.158 25.264ZM331.791 54.736C331.087 53.648 330.063 52.752 328.719 52.048C330.063 51.344 331.087 50.448 331.791 49.36V34.48L331.215 34.192L340.335 28.912C341.103 29.424 341.775 29.872 342.351 30.256C342.991 30.576 343.599 30.864 344.175 31.12C344.751 31.312 345.359 31.44 345.999 31.504C346.639 31.568 347.407 31.536 348.303 31.408C347.087 32.624 346.479 34 346.479 35.536V49.072C347.183 50.352 348.143 51.28 349.359 51.856C348.079 52.56 347.119 53.52 346.479 54.736V69.04C346.479 69.744 346.639 70.384 346.959 70.96C347.343 71.6 347.887 72.08 348.591 72.4C348.079 72.464 347.247 72.72 346.095 73.168C344.943 73.616 343.727 74.096 342.447 74.608C341.167 75.12 339.983 75.632 338.895 76.144C337.807 76.656 337.071 77.008 336.687 77.2C336.879 77.072 337.007 76.72 337.071 76.144C337.199 75.632 337.263 75.024 337.263 74.32C337.327 73.68 337.359 73.008 337.359 72.304C337.359 71.664 337.359 71.12 337.359 70.672C337.103 71.248 336.527 71.856 335.631 72.496C334.735 73.136 333.711 73.776 332.559 74.416C331.471 75.056 330.383 75.632 329.295 76.144C328.271 76.656 327.503 77.072 326.991 77.392C326.031 76.816 325.135 76.24 324.303 75.664C323.471 75.152 322.607 74.672 321.711 74.224C320.879 73.776 319.983 73.424 319.023 73.168C318.127 72.976 317.135 72.976 316.047 73.168C317.263 71.952 317.871 70.576 317.871 69.04V55.312C317.039 53.712 315.887 52.528 314.415 51.76C315.119 51.312 315.759 50.8 316.335 50.224C316.975 49.648 317.487 48.976 317.871 48.208V38.704C317.871 38.256 317.807 37.584 317.679 36.688C317.615 35.792 317.263 35.184 316.623 34.864C317.327 34.608 318.287 34.256 319.503 33.808C320.719 33.36 321.967 32.88 323.247 32.368C324.527 31.856 325.711 31.344 326.799 30.832C327.887 30.256 328.655 29.744 329.103 29.296C328.783 29.616 328.495 30.032 328.239 30.544C327.983 31.056 327.759 31.632 327.567 32.272C327.375 32.848 327.215 33.456 327.087 34.096C327.023 34.672 326.991 35.152 326.991 35.536V66.736C327.887 67.248 328.879 67.888 329.967 68.656C331.119 69.36 332.207 69.712 333.231 69.712C333.743 69.712 334.255 69.552 334.767 69.232C335.343 68.848 335.631 68.336 335.631 67.696C335.631 67.376 335.535 67.088 335.343 66.832C335.151 66.576 334.895 66.448 334.575 66.448C334.127 66.448 333.903 66.672 333.903 67.12L334.479 67.888C334.095 68.592 333.455 68.944 332.559 68.944C331.791 68.944 331.087 68.688 330.447 68.176C329.871 67.6 329.583 66.896 329.583 66.064C329.583 65.424 329.807 64.784 330.255 64.144C330.703 63.504 331.215 63.056 331.791 62.8V54.736ZM337.359 37.84L332.751 35.152V49.36C333.455 50.448 334.479 51.344 335.823 52.048C334.607 52.624 333.583 53.52 332.751 54.736V62.512L333.615 62.416C334.447 62.416 335.183 62.672 335.823 63.184C336.527 63.696 337.039 64.336 337.359 65.104V37.84ZM368.807 43.696V51.76C369.511 52.848 370.535 53.744 371.879 54.448C370.535 55.152 369.511 56.048 368.807 57.136V72.016L369.383 72.304L360.263 77.584C359.495 77.136 358.791 76.72 358.151 76.336C357.575 75.952 356.999 75.632 356.423 75.376C355.847 75.184 355.239 75.056 354.599 74.992C353.959 74.928 353.191 74.96 352.295 75.088C353.511 73.872 354.119 72.496 354.119 70.96V57.424C353.415 56.144 352.455 55.216 351.239 54.64C352.455 54 353.415 53.04 354.119 51.76V37.456C354.119 36.752 353.927 36.112 353.543 35.536C353.223 34.896 352.711 34.416 352.007 34.096C352.519 34.032 353.351 33.808 354.503 33.424C355.655 32.976 356.871 32.496 358.151 31.984C359.431 31.408 360.615 30.864 361.703 30.352C362.791 29.84 363.527 29.488 363.911 29.296C363.719 29.424 363.559 29.776 363.431 30.352C363.367 30.864 363.303 31.472 363.239 32.176C363.239 32.816 363.239 33.488 363.239 34.192C363.239 34.832 363.239 35.376 363.239 35.824C363.495 35.248 364.071 34.64 364.967 34C365.863 33.36 366.855 32.72 367.943 32.08C369.095 31.44 370.183 30.864 371.207 30.352C372.295 29.84 373.095 29.424 373.607 29.104C374.567 29.68 375.463 30.256 376.295 30.832C377.127 31.408 377.959 31.92 378.791 32.368C379.687 32.752 380.583 33.072 381.479 33.328C382.439 33.52 383.463 33.52 384.551 33.328C383.335 34.544 382.727 35.92 382.727 37.456V51.184C383.559 52.784 384.711 53.968 386.183 54.736C385.479 55.184 384.807 55.696 384.167 56.272C383.591 56.848 383.111 57.52 382.727 58.288V68.656C383.751 69.296 384.775 69.904 385.799 70.48C386.823 71.056 387.847 71.664 388.871 72.304L379.751 77.584C378.983 77.136 378.279 76.72 377.639 76.336C377.063 75.952 376.487 75.632 375.911 75.376C375.335 75.184 374.727 75.056 374.087 74.992C373.447 74.928 372.679 74.96 371.783 75.088C372.999 73.872 373.607 72.496 373.607 70.96V39.76C372.711 39.248 371.687 38.64 370.535 37.936C369.447 37.168 368.391 36.784 367.367 36.784C366.855 36.784 366.311 36.976 365.735 37.36C365.223 37.68 364.967 38.16 364.967 38.8C364.967 39.12 365.063 39.408 365.255 39.664C365.447 39.92 365.703 40.048 366.023 40.048C366.471 40.048 366.695 39.824 366.695 39.376L366.119 38.608C366.503 37.904 367.143 37.552 368.039 37.552C368.807 37.552 369.479 37.84 370.055 38.416C370.695 38.928 371.015 39.6 371.015 40.432C371.015 41.072 370.791 41.712 370.343 42.352C369.895 42.992 369.383 43.44 368.807 43.696ZM363.239 41.392V68.656L367.847 71.344V57.136C367.143 56.048 366.119 55.152 364.775 54.448C365.991 53.872 367.015 52.976 367.847 51.76V43.984L366.983 44.08C366.151 44.08 365.383 43.824 364.679 43.312C364.039 42.8 363.559 42.16 363.239 41.392ZM411.812 28.72C413.093 29.168 414.469 29.584 415.941 29.968C417.413 30.288 418.789 30.736 420.069 31.312C421.349 31.824 422.405 32.56 423.237 33.52C424.069 34.416 424.485 35.696 424.485 37.36C424.485 38.64 424.101 39.792 423.333 40.816C422.565 41.776 421.509 42.256 420.165 42.256C419.269 42.256 418.405 41.936 417.573 41.296C416.741 40.656 416.325 39.824 416.325 38.8C416.325 38.032 416.613 37.36 417.189 36.784C417.829 36.144 418.533 35.824 419.301 35.824C419.877 35.824 420.421 36.08 420.933 36.592C420.613 36.784 420.485 37.04 420.549 37.36C420.677 37.68 420.901 37.904 421.221 38.032C421.477 38.032 421.669 37.936 421.797 37.744C421.989 37.488 422.085 37.232 422.085 36.976C422.085 36.4 421.829 35.952 421.317 35.632C420.869 35.248 420.389 35.056 419.877 35.056C419.493 35.056 418.853 35.376 417.957 36.016C417.061 36.592 416.037 37.328 414.885 38.224C413.733 39.12 412.517 40.144 411.237 41.296C409.957 42.384 408.741 43.44 407.589 44.464C406.437 45.488 405.413 46.416 404.517 47.248C403.685 48.016 403.077 48.528 402.693 48.784V51.088C405.445 51.216 407.749 51.888 409.605 53.104C411.525 54.32 413.157 55.792 414.501 57.52C415.909 59.248 417.125 61.072 418.149 62.992C419.173 64.912 420.165 66.64 421.125 68.176C422.149 69.712 423.205 70.896 424.293 71.728C425.445 72.56 426.821 72.752 428.421 72.304C427.717 73.584 426.725 74.768 425.445 75.856C424.165 76.944 422.949 77.488 421.797 77.488C419.365 77.488 417.317 76.72 415.653 75.184C413.989 73.712 412.485 71.92 411.141 69.808C409.797 67.696 408.485 65.52 407.205 63.28C405.925 61.04 404.421 59.152 402.693 57.616V61.84C403.397 63.056 404.389 63.952 405.669 64.528C404.517 65.168 403.525 66.096 402.693 67.312V74.32C403.589 75.472 404.581 76.56 405.669 77.584L397.509 77.68C396.421 76.144 395.237 74.864 393.957 73.84C392.677 72.816 391.109 71.952 389.253 71.248C390.597 70.544 391.269 69.424 391.269 67.888V55.12C390.693 53.84 389.765 52.912 388.485 52.336C389.765 51.632 390.693 50.672 391.269 49.456V10.768C391.269 9.35999 390.629 8.304 389.349 7.6C388.133 6.896 386.948 6.416 385.796 6.16L394.245 0.783998C395.397 1.488 396.581 2.128 397.797 2.704C399.013 3.216 400.293 3.472 401.637 3.472C401.957 3.472 402.213 3.472 402.405 3.472C402.661 3.408 402.949 3.344 403.269 3.27999L402.693 3.952V37.456L411.812 28.72ZM400.389 70.864C400.581 71.184 400.773 71.536 400.965 71.92C401.157 72.304 401.381 72.656 401.637 72.976V67.216C401.445 66.96 401.253 66.704 401.061 66.448C400.869 66.192 400.645 65.968 400.389 65.776V70.864ZM401.637 56.656L400.389 55.6V63.376C400.645 63.12 400.869 62.896 401.061 62.704C401.317 62.448 401.509 62.16 401.637 61.84V56.656ZM401.637 4.912C401.317 5.232 401.029 5.616 400.773 6.064C400.517 6.448 400.389 6.896 400.389 7.408V39.472L401.637 38.224V4.912ZM401.637 49.648L400.389 50.704V51.184L401.637 51.088V49.648ZM439.748 77.392C438.788 76.816 437.892 76.24 437.06 75.664C436.228 75.152 435.364 74.672 434.468 74.224C433.636 73.84 432.772 73.52 431.876 73.264C430.98 73.072 429.988 73.072 428.9 73.264C430.116 72.048 430.724 70.672 430.724 69.136V56.464C430.02 55.248 429.06 54.288 427.844 53.584C429.06 52.944 430.02 51.984 430.724 50.704V45.424C430.724 43.824 430.02 42.736 428.612 42.16L450.884 29.296C451.652 29.744 452.452 30.256 453.284 30.832C454.18 31.408 455.076 31.952 455.972 32.464C456.932 32.912 457.892 33.264 458.852 33.52C459.812 33.712 460.772 33.68 461.732 33.424C460.836 34.32 460.228 35.376 459.908 36.592C459.652 37.744 459.524 38.992 459.524 40.336C459.524 41.616 459.588 42.928 459.716 44.272C459.844 45.552 459.908 46.704 459.908 47.728L446.084 55.408V65.008L447.236 64.912C448.132 64.912 448.932 65.232 449.636 65.872C450.34 66.448 450.756 67.184 450.884 68.08V57.808L448.484 57.136L459.908 50.512C459.908 51.28 459.844 52.368 459.716 53.776C459.588 55.12 459.524 56.528 459.524 58C459.524 59.472 459.684 60.848 460.004 62.128C460.388 63.344 461.06 64.176 462.02 64.624C458.18 66.672 454.404 68.752 450.692 70.864C447.044 72.976 443.396 75.152 439.748 77.392ZM445.124 55.984L439.748 58.96V66.928C440.644 67.44 441.508 67.952 442.34 68.464C443.236 68.976 444.164 69.392 445.124 69.712V69.136C444.804 69.008 444.516 68.848 444.26 68.656C444.068 68.4 443.972 68.112 443.972 67.792C443.972 66.96 444.356 66.224 445.124 65.584V55.984ZM446.084 69.808C446.66 69.744 447.172 69.552 447.62 69.232C448.132 68.848 448.388 68.336 448.388 67.696C448.388 67.376 448.26 67.12 448.004 66.928C447.812 66.672 447.556 66.544 447.236 66.544C446.788 66.544 446.468 66.768 446.276 67.216C446.148 67.6 446.308 67.92 446.756 68.176L446.084 69.136V69.808ZM450.884 49.744V39.856L446.084 36.976V41.68C446.788 42.768 447.812 43.664 449.156 44.368C447.876 45.072 446.852 46 446.084 47.152V52.432L450.884 49.744ZM445.124 36.4C444.996 36.272 444.74 36.208 444.356 36.208C443.972 36.144 443.716 36.112 443.588 36.112C442.948 36.112 442.276 36.176 441.572 36.304C440.932 36.368 440.324 36.56 439.748 36.88V56.08L445.124 53.008V47.152C444.228 45.936 443.172 45.008 441.956 44.368C443.108 43.856 444.164 42.96 445.124 41.68V36.4ZM460.549 83.056C460.997 81.968 461.573 80.944 462.277 79.984C463.045 79.088 464.005 78.448 465.157 78.064V55.696C464.517 54.544 463.557 53.616 462.277 52.912C463.493 52.272 464.453 51.312 465.157 50.032V8.944C465.157 7.27999 464.517 5.872 463.237 4.72C463.813 4.912 464.389 5.008 464.965 5.008C465.669 5.008 466.437 4.848 467.269 4.528C468.165 4.144 469.029 3.728 469.861 3.27999C470.757 2.768 471.589 2.288 472.357 1.84C473.125 1.328 473.765 0.911995 474.277 0.591995C475.237 1.168 476.325 1.744 477.541 2.32C478.821 2.832 480.037 3.44 481.189 4.144C482.341 4.848 483.301 5.68 484.069 6.64C484.837 7.536 485.221 8.656 485.221 10C485.221 11.344 484.805 12.624 483.973 13.84C483.205 15.056 482.053 15.664 480.517 15.664C479.557 15.664 478.693 15.28 477.925 14.512C477.221 13.744 476.869 12.848 476.869 11.824C476.869 11.056 477.157 10.384 477.733 9.808C478.309 9.232 478.981 8.944 479.749 8.944C480.517 8.944 481.189 9.328 481.765 10.096L481.189 10.768C481.445 11.152 481.733 11.344 482.053 11.344C482.629 11.344 482.917 11.056 482.917 10.48C482.917 9.776 482.661 9.232 482.149 8.848C481.701 8.464 481.157 8.272 480.517 8.272C479.813 8.272 479.109 8.464 478.405 8.848C477.701 9.168 477.029 9.488 476.389 9.808V50.128C477.093 51.216 478.117 52.112 479.461 52.816C478.821 53.136 478.245 53.552 477.733 54.064C477.285 54.512 476.837 54.992 476.389 55.504V81.232C477.413 81.808 478.597 82.544 479.941 83.44C481.285 84.336 482.661 85.2 484.069 86.032C485.541 86.864 486.981 87.504 488.389 87.952C489.861 88.464 491.173 88.56 492.325 88.24C491.429 89.584 490.373 90.704 489.157 91.6C487.941 92.56 486.501 93.04 484.837 93.04C483.429 93.04 482.021 92.752 480.613 92.176C479.205 91.6 477.829 90.896 476.485 90.064C475.141 89.232 473.797 88.336 472.453 87.376C471.109 86.48 469.765 85.648 468.421 84.88C467.141 84.176 465.829 83.632 464.485 83.248C463.141 82.864 461.829 82.8 460.549 83.056ZM482.245 83.344C483.013 83.92 483.909 84.208 484.933 84.208C486.277 84.208 487.429 83.728 488.389 82.768C489.349 81.808 489.893 80.688 490.021 79.408C491.109 79.664 492.101 80.176 492.997 80.944C493.957 81.712 494.437 82.704 494.437 83.92C494.437 85.008 494.021 85.84 493.189 86.416C492.421 87.056 491.525 87.376 490.501 87.376C488.965 87.376 487.461 86.928 485.989 86.032C484.581 85.2 483.333 84.304 482.245 83.344ZM475.429 10.48L474.277 11.152V51.568L475.429 50.128V10.48ZM474.277 54.064V80.176L475.429 80.752V55.504C475.301 55.184 475.109 54.928 474.853 54.736C474.661 54.48 474.469 54.256 474.277 54.064ZM542.829 45.232H549.837C551.437 44.016 552.653 42.544 553.485 40.816C554.445 42.608 555.693 44.08 557.229 45.232H564.909C564.269 40.624 563.309 36.592 562.029 33.136C560.749 29.68 559.181 26.544 557.325 23.728C555.597 21.168 553.709 18.896 551.661 16.912C549.613 14.864 547.501 13.232 545.325 12.016C543.149 10.736 540.941 9.936 538.701 9.616C536.525 9.232 534.445 9.36 532.461 10L527.949 13.552C530.445 15.408 532.429 17.232 533.901 19.024C535.437 20.752 536.589 22.512 537.357 24.304C538.125 26.096 538.541 27.952 538.605 29.872C538.733 31.728 538.637 33.68 538.317 35.728C539.661 37.2 540.685 38.736 541.389 40.336C542.157 41.936 542.637 43.568 542.829 45.232ZM537.453 39.664C536.621 42.736 535.533 45.776 534.189 48.784C532.845 51.728 531.565 54.576 530.349 57.328C529.197 60.08 528.269 62.704 527.565 65.2C526.861 67.696 526.765 69.968 527.277 72.016C527.277 70.608 527.565 69.136 528.141 67.6C528.781 65.872 529.613 63.888 530.637 61.648C531.725 59.344 532.749 56.944 533.709 54.448C534.733 51.952 535.597 49.456 536.301 46.96C537.069 44.4 537.453 41.968 537.453 39.664ZM527.661 76.528C525.997 76.272 524.301 75.472 522.573 74.128C520.845 72.784 519.341 71.12 518.061 69.136C516.845 67.088 516.013 64.816 515.565 62.32C515.117 59.824 515.341 57.264 516.237 54.64C517.197 51.952 518.509 48.944 520.173 45.616C521.901 42.288 523.469 38.864 524.877 35.344C526.285 31.76 527.277 28.208 527.853 24.688C528.429 21.104 528.077 17.712 526.797 14.512L525.549 15.472C525.741 15.216 525.901 14.992 526.029 14.8C526.221 14.544 526.413 14.32 526.605 14.128C526.477 13.872 526.349 13.648 526.221 13.456C526.157 13.2 526.061 12.944 525.933 12.688C524.717 11.728 523.501 11.056 522.285 10.672C521.069 10.288 519.885 10.16 518.733 10.288C517.581 10.352 516.461 10.64 515.373 11.152C514.285 11.6 513.325 12.176 512.493 12.88V25.744C513.261 25.616 513.901 25.264 514.413 24.688C514.925 24.048 515.213 23.344 515.277 22.576C515.405 21.744 515.277 20.912 514.893 20.08C514.509 19.184 513.773 18.384 512.685 17.68C513.645 16.4 514.637 15.632 515.661 15.376C516.749 15.12 517.741 15.216 518.637 15.664C519.597 16.112 520.365 16.816 520.941 17.776C521.581 18.736 521.901 19.824 521.901 21.04C521.965 22.192 521.677 23.376 521.037 24.592C520.461 25.744 519.373 26.768 517.773 27.664C515.917 28.432 514.157 28.784 512.493 28.72V42.544C513.581 44.08 515.085 45.36 517.005 46.384C515.149 47.344 513.645 48.656 512.493 50.32V69.232C513.709 69.168 514.957 69.488 516.237 70.192C517.517 70.896 518.829 71.792 520.173 72.88C521.517 73.968 522.925 75.184 524.397 76.528C525.933 77.936 527.565 79.28 529.293 80.56C528.589 79.344 528.045 78 527.661 76.528ZM534.573 84.016C536.173 84.912 537.901 85.616 539.757 86.128C541.613 86.704 543.565 86.992 545.613 86.992C547.661 87.056 549.837 86.768 552.141 86.128C554.445 85.552 556.909 84.56 559.533 83.152C560.941 81.168 562.093 78.832 562.989 76.144C563.949 73.456 564.653 70.576 565.101 67.504C565.549 64.368 565.773 61.104 565.773 57.712C565.773 54.32 565.581 50.928 565.197 47.536H557.229C555.757 48.624 554.509 50.096 553.485 51.952C552.525 50.16 551.277 48.688 549.741 47.536H543.021C543.021 49.84 542.701 52.176 542.061 54.544C541.485 56.848 540.717 59.152 539.757 61.456C538.861 63.696 537.933 65.904 536.973 68.08C536.013 70.192 535.213 72.208 534.573 74.128C533.933 76.112 533.549 77.936 533.421 79.6C533.357 81.264 533.741 82.736 534.573 84.016ZM574.221 40.912C575.629 43.28 577.549 45.04 579.981 46.192C577.677 47.472 575.917 49.36 574.701 51.856C574.637 54.8 574.413 57.68 574.029 60.496C573.645 63.248 573.069 65.84 572.301 68.272C571.533 70.64 570.573 72.784 569.421 74.704C568.269 76.688 566.925 78.288 565.389 79.504L556.365 86.512L555.885 86.992C552.237 89.616 548.845 91.44 545.709 92.464C542.573 93.552 539.661 94.096 536.973 94.096C534.285 94.096 531.789 93.648 529.485 92.752C527.181 91.92 525.005 90.832 522.957 89.488C520.973 88.208 519.117 86.8 517.389 85.264C515.661 83.728 514.029 82.32 512.493 81.04V88.144C512.493 89.808 512.141 90.928 511.437 91.504C510.797 92.08 510.029 92.624 509.133 93.136C509.837 92.24 510.189 91.088 510.189 89.68V79.216C508.717 78.064 507.277 77.2 505.869 76.624C504.525 76.112 503.181 76.112 501.837 76.624L497.997 79.696C498.573 78.928 499.213 78.256 499.917 77.68L508.845 70.672C509.357 70.224 509.805 69.936 510.189 69.808V50.032C508.973 48.432 507.533 47.216 505.869 46.384C507.661 45.488 509.101 44.304 510.189 42.832V28.336C508.205 27.76 506.445 26.736 504.909 25.264C503.373 23.728 502.221 22 501.453 20.08C500.749 18.096 500.525 16.048 500.781 13.936C501.037 11.76 501.997 9.776 503.661 7.984C505.261 6.192 507.021 5.072 508.941 4.62399C510.861 4.112 512.813 4.112 514.797 4.62399C516.781 5.136 518.733 6.064 520.653 7.408C522.573 8.752 524.365 10.352 526.029 12.208C526.285 12.4 526.509 12.592 526.701 12.784C526.957 12.912 527.213 13.072 527.469 13.264C527.661 13.008 527.853 12.784 528.045 12.592C528.301 12.4 528.525 12.208 528.717 12.016L537.741 5.008C539.853 3.344 542.157 2.448 544.653 2.32C547.149 2.192 549.645 2.704 552.141 3.856C554.701 4.944 557.197 6.608 559.629 8.848C562.061 11.024 564.269 13.616 566.253 16.624C568.301 19.696 569.997 23.216 571.341 27.184C572.749 31.152 573.709 35.728 574.221 40.912ZM510.189 25.264V15.568C509.805 16.272 509.453 17.104 509.133 18.064C508.813 19.024 508.589 19.952 508.461 20.848C508.397 21.744 508.493 22.608 508.749 23.44C509.005 24.208 509.485 24.816 510.189 25.264ZM602.937 29.296C603.897 29.808 604.793 30.352 605.625 30.928C606.457 31.44 607.289 31.92 608.121 32.368C608.953 32.752 609.817 33.04 610.713 33.232C611.609 33.424 612.601 33.424 613.689 33.232C613.113 33.808 612.665 34.416 612.345 35.056C612.025 35.632 611.865 36.336 611.865 37.168V50.992C612.569 52.272 613.529 53.2 614.745 53.776C613.465 54.544 612.505 55.472 611.865 56.56V68.752C612.697 69.52 613.337 70.096 613.785 70.48C614.233 70.928 615.033 71.44 616.185 72.016L609.177 77.488C607.897 76.72 606.617 76.016 605.337 75.376C604.121 74.8 602.713 74.704 601.113 75.088C602.073 74.128 602.617 73.232 602.745 72.4C602.873 71.568 602.937 70.512 602.937 69.232C602.873 70.32 602.393 71.28 601.497 72.112C600.601 72.944 599.545 73.68 598.329 74.32C597.177 75.024 595.993 75.632 594.777 76.144C593.625 76.656 592.697 77.104 591.993 77.488C591.225 77.104 590.393 76.624 589.497 76.048C588.665 75.472 587.769 74.928 586.809 74.416C585.849 73.968 584.857 73.616 583.833 73.36C582.873 73.168 581.913 73.2 580.953 73.456C582.169 72.24 582.777 70.864 582.777 69.328V58.288C582.777 57.584 582.585 56.944 582.201 56.368C581.817 55.792 581.305 55.344 580.665 55.024L602.937 45.136V39.376C602.169 38.928 601.209 38.32 600.057 37.552C598.905 36.784 597.881 36.4 596.985 36.4C596.281 36.4 595.417 36.496 594.393 36.688C593.433 36.88 592.633 37.168 591.993 37.552V46.48L581.049 50.992L582.585 47.92V42.736C582.585 41.264 581.913 40.208 580.569 39.568L602.937 29.296ZM602.937 67.408V47.44L597.753 50.8V55.312C598.137 55.888 598.585 56.4 599.097 56.848C599.673 57.232 600.281 57.584 600.921 57.904C600.281 58.224 599.673 58.608 599.097 59.056C598.585 59.504 598.137 60.016 597.753 60.592V62.896L598.425 62.8C599.705 62.8 600.729 63.248 601.497 64.144C602.329 65.04 602.809 66.128 602.937 67.408ZM593.721 57.904C595.001 57.328 596.025 56.464 596.793 55.312V51.28L591.993 54.448V67.024C592.761 67.536 593.529 68.016 594.297 68.464C595.129 68.912 595.961 69.36 596.793 69.808V69.136C596.153 69.008 595.609 68.688 595.161 68.176C594.777 67.664 594.585 67.056 594.585 66.352C594.585 65.648 594.809 65.008 595.257 64.432C595.705 63.856 596.217 63.44 596.793 63.184V60.592C595.961 59.376 594.937 58.48 593.721 57.904ZM597.753 70H598.233C598.809 70 599.353 69.84 599.865 69.52C600.441 69.136 600.729 68.592 600.729 67.888C600.729 67.632 600.633 67.408 600.441 67.216C600.249 66.96 599.993 66.832 599.673 66.832C599.161 66.832 598.905 67.056 598.905 67.504L599.577 68.176C599.065 68.816 598.457 69.168 597.753 69.232V70ZM638.647 37.264C639.479 36.752 640.343 36.336 641.239 36.016C642.199 35.632 643.159 35.44 644.119 35.44C644.887 35.44 645.591 35.664 646.231 36.112C646.935 36.496 647.287 37.136 647.287 38.032C647.287 38.992 646.903 39.728 646.135 40.24C645.367 40.752 644.535 41.008 643.639 41.008C643.703 39.92 643.383 38.992 642.679 38.224C641.975 37.392 641.079 36.976 639.991 36.976C639.799 36.976 639.575 37.008 639.319 37.072C639.063 37.136 638.839 37.2 638.647 37.264ZM619.063 41.104C618.551 40.464 618.071 39.856 617.623 39.28C617.175 38.64 616.695 38.032 616.183 37.456C617.015 38.032 618.007 38.32 619.159 38.32C620.823 38.32 622.455 37.872 624.055 36.976C625.719 36.016 627.383 34.992 629.047 33.904C630.711 32.752 632.375 31.728 634.039 30.832C635.767 29.872 637.527 29.392 639.319 29.392C641.367 29.392 643.063 30.096 644.407 31.504C645.751 32.912 646.871 34.448 647.767 36.112C646.679 35.216 645.399 34.768 643.927 34.768C642.775 34.768 641.591 35.024 640.375 35.536C639.223 35.984 638.071 36.56 636.919 37.264C635.767 37.904 634.647 38.608 633.559 39.376C632.471 40.144 631.447 40.816 630.487 41.392V50.8C631.319 52.016 632.343 52.912 633.559 53.488C632.215 54.192 631.191 55.088 630.487 56.176V68.368C631.639 69.136 632.919 69.52 634.327 69.52L634.807 69.424C633.591 70.832 632.439 72.112 631.351 73.264C630.263 74.48 629.207 75.888 628.183 77.488C627.543 77.104 626.839 76.656 626.071 76.144C625.367 75.696 624.599 75.216 623.767 74.704C622.935 74.256 622.103 73.872 621.271 73.552C620.503 73.232 619.735 73.072 618.967 73.072C618.391 73.072 617.815 73.168 617.239 73.36C618.455 72.144 619.063 70.768 619.063 69.232V56.176C618.359 54.96 617.399 54 616.183 53.296C617.399 52.72 618.359 51.792 619.063 50.512V41.104ZM628.183 66.928L629.527 67.696V56.176C629.335 55.856 629.111 55.6 628.855 55.408C628.663 55.152 628.439 54.896 628.183 54.64V66.928ZM629.527 41.968L628.183 42.64V52.336C628.439 52.08 628.663 51.856 628.855 51.664C629.111 51.408 629.335 51.12 629.527 50.8V41.968ZM671.125 28.72C672.405 29.168 673.781 29.584 675.253 29.968C676.725 30.288 678.101 30.736 679.381 31.312C680.661 31.824 681.717 32.56 682.549 33.52C683.381 34.416 683.797 35.696 683.797 37.36C683.797 38.64 683.413 39.792 682.645 40.816C681.877 41.776 680.821 42.256 679.477 42.256C678.581 42.256 677.717 41.936 676.885 41.296C676.053 40.656 675.637 39.824 675.637 38.8C675.637 38.032 675.925 37.36 676.501 36.784C677.141 36.144 677.845 35.824 678.613 35.824C679.189 35.824 679.733 36.08 680.245 36.592C679.925 36.784 679.797 37.04 679.861 37.36C679.989 37.68 680.213 37.904 680.533 38.032C680.789 38.032 680.981 37.936 681.109 37.744C681.301 37.488 681.397 37.232 681.397 36.976C681.397 36.4 681.141 35.952 680.629 35.632C680.181 35.248 679.701 35.056 679.189 35.056C678.805 35.056 678.165 35.376 677.269 36.016C676.373 36.592 675.349 37.328 674.197 38.224C673.045 39.12 671.829 40.144 670.549 41.296C669.269 42.384 668.053 43.44 666.901 44.464C665.749 45.488 664.725 46.416 663.829 47.248C662.997 48.016 662.389 48.528 662.005 48.784V51.088C664.757 51.216 667.061 51.888 668.917 53.104C670.837 54.32 672.469 55.792 673.813 57.52C675.221 59.248 676.437 61.072 677.461 62.992C678.485 64.912 679.477 66.64 680.437 68.176C681.461 69.712 682.517 70.896 683.605 71.728C684.757 72.56 686.133 72.752 687.733 72.304C687.029 73.584 686.037 74.768 684.757 75.856C683.477 76.944 682.261 77.488 681.109 77.488C678.677 77.488 676.629 76.72 674.965 75.184C673.301 73.712 671.797 71.92 670.453 69.808C669.109 67.696 667.797 65.52 666.517 63.28C665.237 61.04 663.733 59.152 662.005 57.616V61.84C662.709 63.056 663.701 63.952 664.981 64.528C663.829 65.168 662.837 66.096 662.005 67.312V74.32C662.901 75.472 663.893 76.56 664.981 77.584L656.821 77.68C655.733 76.144 654.549 74.864 653.269 73.84C651.989 72.816 650.421 71.952 648.565 71.248C649.909 70.544 650.581 69.424 650.581 67.888V55.12C650.005 53.84 649.077 52.912 647.797 52.336C649.077 51.632 650.005 50.672 650.581 49.456V10.768C650.581 9.35999 649.941 8.304 648.661 7.6C647.445 6.896 646.261 6.416 645.109 6.16L653.557 0.783998C654.709 1.488 655.893 2.128 657.109 2.704C658.325 3.216 659.605 3.472 660.949 3.472C661.269 3.472 661.525 3.472 661.717 3.472C661.973 3.408 662.261 3.344 662.581 3.27999L662.005 3.952V37.456L671.125 28.72ZM659.701 70.864C659.893 71.184 660.085 71.536 660.277 71.92C660.469 72.304 660.693 72.656 660.949 72.976V67.216C660.757 66.96 660.565 66.704 660.373 66.448C660.181 66.192 659.957 65.968 659.701 65.776V70.864ZM660.949 56.656L659.701 55.6V63.376C659.957 63.12 660.181 62.896 660.373 62.704C660.629 62.448 660.821 62.16 660.949 61.84V56.656ZM660.949 4.912C660.629 5.232 660.341 5.616 660.085 6.064C659.829 6.448 659.701 6.896 659.701 7.408V39.472L660.949 38.224V4.912ZM660.949 49.648L659.701 50.704V51.184L660.949 51.088V49.648Z" fill="#E30613"/>
</svg>
