<svg width="502" height="71" viewBox="0 0 502 71" fill="none" xmlns="http://www.w3.org/2000/svg">
<path d="M37.19 33.3C38.31 30.4067 38.8933 28.0033 38.94 26.09C39.0333 24.1767 38.73 22.6367 38.03 21.47C37.33 20.2567 36.35 19.3467 35.09 18.74C33.83 18.0867 32.43 17.5967 30.89 17.27C29.35 16.9433 27.74 16.6867 26.06 16.5C24.4267 16.3133 22.8867 16.0567 21.44 15.73V32.6C22.28 33.72 23.33 34.63 24.59 35.33C24.5433 34.91 24.5433 34.4667 24.59 34C24.6367 33.4867 24.7533 32.95 24.94 32.39L28.16 24.62C27.6 26.44 27.6233 27.91 28.23 29.03C28.8833 30.1033 29.8867 30.99 31.24 31.69C32.5933 32.3433 34.18 32.88 36 33.3C37.8667 33.6733 39.7567 34.07 41.67 34.49C43.63 34.91 45.4733 35.4233 47.2 36.03C48.9733 36.6367 50.42 37.4767 51.54 38.55C52.7067 39.5767 53.4533 40.93 53.78 42.61C54.1067 44.29 53.78 46.4133 52.8 48.98C52.2867 50.1933 51.7267 51.5233 51.12 52.97C50.56 54.4167 50.0233 55.77 49.51 57.03C48.7633 58.85 47.4567 60.4833 45.59 61.93C43.77 63.3767 41.6 64.59 39.08 65.57C36.56 66.5967 33.7833 67.39 30.75 67.95C27.7167 68.51 24.6367 68.8133 21.51 68.86C21.6033 69.56 21.8133 70.1433 22.14 70.61C21.7667 70.3767 21.3933 70.1433 21.02 69.91C20.6933 69.6767 20.4133 69.3267 20.18 68.86C17.7533 68.8133 15.56 68.51 13.6 67.95C11.6867 67.39 9.98333 66.6667 8.49 65.78C6.99667 64.8933 5.71333 63.89 4.64 62.77C3.61333 61.65 2.79667 60.5067 2.19 59.34C1.49 57.9867 1.09333 56.7033 1 55.49C0.953333 54.2767 1.09333 53.0867 1.42 51.92C1.74667 50.8 2.19 49.6567 2.75 48.49C3.35667 47.2767 3.91667 46.04 4.43 44.78C4.57 47.1133 4.94333 49.2133 5.55 51.08C6.20333 52.9467 7.13667 54.5567 8.35 55.91C9.61 57.31 11.1733 58.43 13.04 59.27C14.9533 60.11 17.24 60.67 19.9 60.95V38.2C19.1533 37.22 18.36 36.4733 17.52 35.96V59.48C16.0733 58.5467 14.5333 57.5667 12.9 56.54C11.3133 55.56 9.44667 54.6733 7.3 53.88C7.72 53.6 8.07 53.3433 8.35 53.11C8.67667 52.8767 8.93333 52.5733 9.12 52.2C9.30667 51.8733 9.42333 51.4533 9.47 50.94C9.56333 50.38 9.61 49.6333 9.61 48.7V38.62C8.77 36.94 7.53333 35.7033 5.9 34.91C7.53333 34.07 8.77 32.81 9.61 31.13V26.58C9.61 25.8333 9.4 25.18 8.98 24.62C8.60667 24.0133 8.11667 23.5233 7.51 23.15C6.95 22.73 6.32 22.45 5.62 22.31C4.96667 22.1233 4.33667 22.1 3.73 22.24C5.36333 21.0267 7.04333 19.5567 8.77 17.83C10.4967 16.0567 12.1067 14.2367 13.6 12.37C15.0467 14.89 17.0767 16.92 19.69 18.46C19.13 18.74 18.71 19.1367 18.43 19.65C18.15 20.1633 17.94 20.7 17.8 21.26C17.66 21.82 17.5667 22.38 17.52 22.94C17.52 23.4533 17.52 23.8733 17.52 24.2V34.98C18.4533 34.3267 19.2467 33.58 19.9 32.74V15.31C18.8267 14.9833 17.7533 14.3533 16.68 13.42C15.6067 12.44 14.8133 11.2967 14.3 9.99C13.7867 8.63666 13.6933 7.16666 14.02 5.58C14.3467 3.94666 15.3733 2.31333 17.1 0.679999C16.96 1.14667 16.9367 1.73 17.03 2.43C17.1233 3.13 17.2867 3.83 17.52 4.53C17.8 5.18333 18.1267 5.79 18.5 6.35C18.92 6.91 19.3867 7.30667 19.9 7.54C19.9 6.65333 19.9 5.76667 19.9 4.88C19.9 3.99333 19.6667 3.24666 19.2 2.64C19.8067 3.01333 20.2733 3.36333 20.6 3.69C20.9267 3.97 21.1367 4.29666 21.23 4.67C21.37 5.04333 21.44 5.51 21.44 6.07C21.44 6.63 21.44 7.33 21.44 8.17C22.7 8.96333 24.1 9.45333 25.64 9.64C27.2267 9.82666 28.8367 9.94333 30.47 9.99C32.15 9.99 33.7833 10.06 35.37 10.2C37.0033 10.2933 38.4967 10.6433 39.85 11.25C42.1367 12.3233 43.84 13.7 44.96 15.38C46.08 17.06 46.5467 18.9033 46.36 20.91C46.1733 22.9167 45.3333 24.9933 43.84 27.14C42.3467 29.2867 40.13 31.34 37.19 33.3ZM21.44 61.09C24.0067 61.23 26.6667 61.16 29.42 60.88C32.1733 60.6 34.81 60.11 37.33 59.41C39.8967 58.7567 42.2533 57.9167 44.4 56.89C46.5467 55.8633 48.3433 54.6733 49.79 53.32C49.3233 52.06 48.4367 51.15 47.13 50.59C45.8233 50.03 44.3067 49.61 42.58 49.33C40.8533 49.0033 39.01 48.7 37.05 48.42C35.1367 48.0933 33.3633 47.58 31.73 46.88C30.0967 46.1333 28.6967 45.06 27.53 43.66C26.41 42.2133 25.7567 40.2067 25.57 37.64C25.1033 37.0333 24.8 36.3333 24.66 35.54C23.3533 36.24 22.28 37.15 21.44 38.27V61.09ZM50.63 52.41C50.77 50.4033 50.3733 48.7933 49.44 47.58C48.5533 46.32 47.34 45.3167 45.8 44.57C44.26 43.8233 42.51 43.24 40.55 42.82C38.6367 42.3533 36.7233 41.91 34.81 41.49C32.8967 41.07 31.1233 40.6033 29.49 40.09C27.9033 39.5767 26.6667 38.83 25.78 37.85C26.3867 39.67 27.4367 41.0233 28.93 41.91C30.4233 42.7967 32.0567 43.45 33.83 43.87C35.6033 44.29 37.3767 44.57 39.15 44.71C40.97 44.8033 42.51 44.9667 43.77 45.2C44.9367 45.4333 45.9633 45.83 46.85 46.39C47.7367 46.95 48.46 47.6033 49.02 48.35C49.6267 49.05 50.0467 49.7967 50.28 50.59C50.5133 51.3367 50.56 52.0133 50.42 52.62L50.63 52.41ZM70.4236 27.63C71.0303 27.2567 71.6603 26.9533 72.3136 26.72C73.0136 26.44 73.7136 26.3 74.4136 26.3C74.9736 26.3 75.4869 26.4633 75.9536 26.79C76.4669 27.07 76.7236 27.5367 76.7236 28.19C76.7236 28.89 76.4436 29.4267 75.8836 29.8C75.3236 30.1733 74.7169 30.36 74.0636 30.36C74.1103 29.5667 73.8769 28.89 73.3636 28.33C72.8503 27.7233 72.1969 27.42 71.4036 27.42C71.2636 27.42 71.1003 27.4433 70.9136 27.49C70.7269 27.5367 70.5636 27.5833 70.4236 27.63ZM56.1436 30.43C55.7703 29.9633 55.4203 29.52 55.0936 29.1C54.7669 28.6333 54.4169 28.19 54.0436 27.77C54.6503 28.19 55.3736 28.4 56.2136 28.4C57.4269 28.4 58.6169 28.0733 59.7836 27.42C60.9969 26.72 62.2103 25.9733 63.4236 25.18C64.6369 24.34 65.8503 23.5933 67.0636 22.94C68.3236 22.24 69.6069 21.89 70.9136 21.89C72.4069 21.89 73.6436 22.4033 74.6236 23.43C75.6036 24.4567 76.4203 25.5767 77.0736 26.79C76.2803 26.1367 75.3469 25.81 74.2736 25.81C73.4336 25.81 72.5703 25.9967 71.6836 26.37C70.8436 26.6967 70.0036 27.1167 69.1636 27.63C68.3236 28.0967 67.5069 28.61 66.7136 29.17C65.9203 29.73 65.1736 30.22 64.4736 30.64V37.5C65.0803 38.3867 65.8269 39.04 66.7136 39.46C65.7336 39.9733 64.9869 40.6267 64.4736 41.42V50.31C65.3136 50.87 66.2469 51.15 67.2736 51.15L67.6236 51.08C66.7369 52.1067 65.8969 53.04 65.1036 53.88C64.3103 54.7667 63.5403 55.7933 62.7936 56.96C62.3269 56.68 61.8136 56.3533 61.2536 55.98C60.7403 55.6533 60.1803 55.3033 59.5736 54.93C58.9669 54.6033 58.3603 54.3233 57.7536 54.09C57.1936 53.8567 56.6336 53.74 56.0736 53.74C55.6536 53.74 55.2336 53.81 54.8136 53.95C55.7003 53.0633 56.1436 52.06 56.1436 50.94V41.42C55.6303 40.5333 54.9303 39.8333 54.0436 39.32C54.9303 38.9 55.6303 38.2233 56.1436 37.29V30.43ZM62.7936 49.26L63.7736 49.82V41.42C63.6336 41.1867 63.4703 41 63.2836 40.86C63.1436 40.6733 62.9803 40.4867 62.7936 40.3V49.26ZM63.7736 31.06L62.7936 31.55V38.62C62.9803 38.4333 63.1436 38.27 63.2836 38.13C63.4703 37.9433 63.6336 37.7333 63.7736 37.5V31.06ZM90.2391 40.37C89.7257 39.5767 88.9791 38.9233 87.9991 38.41C88.9791 37.8967 89.7257 37.2433 90.2391 36.45V25.6L89.8191 25.39L96.4691 21.54C97.0291 21.9133 97.5191 22.24 97.9391 22.52C98.4057 22.7533 98.8491 22.9633 99.2691 23.15C99.6891 23.29 100.132 23.3833 100.599 23.43C101.066 23.4767 101.626 23.4533 102.279 23.36C101.392 24.2467 100.949 25.25 100.949 26.37V36.24C101.462 37.1733 102.162 37.85 103.049 38.27C102.116 38.7833 101.416 39.4833 100.949 40.37V50.8C100.949 51.3133 101.066 51.78 101.299 52.2C101.579 52.6667 101.976 53.0167 102.489 53.25C102.116 53.2967 101.509 53.4833 100.669 53.81C99.8291 54.1367 98.9424 54.4867 98.0091 54.86C97.0757 55.2333 96.2124 55.6067 95.4191 55.98C94.6257 56.3533 94.0891 56.61 93.8091 56.75C93.9491 56.6567 94.0424 56.4 94.0891 55.98C94.1824 55.6067 94.2291 55.1633 94.2291 54.65C94.2757 54.1833 94.2991 53.6933 94.2991 53.18C94.2991 52.7133 94.2991 52.3167 94.2991 51.99C94.1124 52.41 93.6924 52.8533 93.0391 53.32C92.3857 53.7867 91.6391 54.2533 90.7991 54.72C90.0057 55.1867 89.2124 55.6067 88.4191 55.98C87.6724 56.3533 87.1124 56.6567 86.7391 56.89C86.0391 56.47 85.3857 56.05 84.7791 55.63C84.1724 55.2567 83.5424 54.9067 82.8891 54.58C82.2824 54.2533 81.6291 53.9967 80.9291 53.81C80.2757 53.67 79.5524 53.67 78.7591 53.81C79.6457 52.9233 80.0891 51.92 80.0891 50.8V40.79C79.4824 39.6233 78.6424 38.76 77.5691 38.2C78.0824 37.8733 78.5491 37.5 78.9691 37.08C79.4357 36.66 79.8091 36.17 80.0891 35.61V28.68C80.0891 28.3533 80.0424 27.8633 79.9491 27.21C79.9024 26.5567 79.6457 26.1133 79.1791 25.88C79.6924 25.6933 80.3924 25.4367 81.2791 25.11C82.1657 24.7833 83.0757 24.4333 84.0091 24.06C84.9424 23.6867 85.8057 23.3133 86.5991 22.94C87.3924 22.52 87.9524 22.1467 88.2791 21.82C88.0457 22.0533 87.8357 22.3567 87.6491 22.73C87.4624 23.1033 87.2991 23.5233 87.1591 23.99C87.0191 24.41 86.9024 24.8533 86.8091 25.32C86.7624 25.74 86.7391 26.09 86.7391 26.37V49.12C87.3924 49.4933 88.1157 49.96 88.9091 50.52C89.7491 51.0333 90.5424 51.29 91.2891 51.29C91.6624 51.29 92.0357 51.1733 92.4091 50.94C92.8291 50.66 93.0391 50.2867 93.0391 49.82C93.0391 49.5867 92.9691 49.3767 92.8291 49.19C92.6891 49.0033 92.5024 48.91 92.2691 48.91C91.9424 48.91 91.7791 49.0733 91.7791 49.4L92.1991 49.96C91.9191 50.4733 91.4524 50.73 90.7991 50.73C90.2391 50.73 89.7257 50.5433 89.2591 50.17C88.8391 49.75 88.6291 49.2367 88.6291 48.63C88.6291 48.1633 88.7924 47.6967 89.1191 47.23C89.4457 46.7633 89.8191 46.4367 90.2391 46.25V40.37ZM94.2991 28.05L90.9391 26.09V36.45C91.4524 37.2433 92.1991 37.8967 93.1791 38.41C92.2924 38.83 91.5457 39.4833 90.9391 40.37V46.04L91.5691 45.97C92.1757 45.97 92.7124 46.1567 93.1791 46.53C93.6924 46.9033 94.0657 47.37 94.2991 47.93V28.05ZM117.23 32.32V38.2C117.743 38.9933 118.49 39.6467 119.47 40.16C118.49 40.6733 117.743 41.3267 117.23 42.12V52.97L117.65 53.18L111 57.03C110.44 56.7033 109.926 56.4 109.46 56.12C109.04 55.84 108.62 55.6067 108.2 55.42C107.78 55.28 107.336 55.1867 106.87 55.14C106.403 55.0933 105.843 55.1167 105.19 55.21C106.076 54.3233 106.52 53.32 106.52 52.2V42.33C106.006 41.3967 105.306 40.72 104.42 40.3C105.306 39.8333 106.006 39.1333 106.52 38.2V27.77C106.52 27.2567 106.38 26.79 106.1 26.37C105.866 25.9033 105.493 25.5533 104.98 25.32C105.353 25.2733 105.96 25.11 106.8 24.83C107.64 24.5033 108.526 24.1533 109.46 23.78C110.393 23.36 111.256 22.9633 112.05 22.59C112.843 22.2167 113.38 21.96 113.66 21.82C113.52 21.9133 113.403 22.17 113.31 22.59C113.263 22.9633 113.216 23.4067 113.17 23.92C113.17 24.3867 113.17 24.8767 113.17 25.39C113.17 25.8567 113.17 26.2533 113.17 26.58C113.356 26.16 113.776 25.7167 114.43 25.25C115.083 24.7833 115.806 24.3167 116.6 23.85C117.44 23.3833 118.233 22.9633 118.98 22.59C119.773 22.2167 120.356 21.9133 120.73 21.68C121.43 22.1 122.083 22.52 122.69 22.94C123.296 23.36 123.903 23.7333 124.51 24.06C125.163 24.34 125.816 24.5733 126.47 24.76C127.17 24.9 127.916 24.9 128.71 24.76C127.823 25.6467 127.38 26.65 127.38 27.77V37.78C127.986 38.9467 128.826 39.81 129.9 40.37C129.386 40.6967 128.896 41.07 128.43 41.49C128.01 41.91 127.66 42.4 127.38 42.96V50.52C128.126 50.9867 128.873 51.43 129.62 51.85C130.366 52.27 131.113 52.7133 131.86 53.18L125.21 57.03C124.65 56.7033 124.136 56.4 123.67 56.12C123.25 55.84 122.83 55.6067 122.41 55.42C121.99 55.28 121.546 55.1867 121.08 55.14C120.613 55.0933 120.053 55.1167 119.4 55.21C120.286 54.3233 120.73 53.32 120.73 52.2V29.45C120.076 29.0767 119.33 28.6333 118.49 28.12C117.696 27.56 116.926 27.28 116.18 27.28C115.806 27.28 115.41 27.42 114.99 27.7C114.616 27.9333 114.43 28.2833 114.43 28.75C114.43 28.9833 114.5 29.1933 114.64 29.38C114.78 29.5667 114.966 29.66 115.2 29.66C115.526 29.66 115.69 29.4967 115.69 29.17L115.27 28.61C115.55 28.0967 116.016 27.84 116.67 27.84C117.23 27.84 117.72 28.05 118.14 28.47C118.606 28.8433 118.84 29.3333 118.84 29.94C118.84 30.4067 118.676 30.8733 118.35 31.34C118.023 31.8067 117.65 32.1333 117.23 32.32ZM113.17 30.64V50.52L116.53 52.48V42.12C116.016 41.3267 115.27 40.6733 114.29 40.16C115.176 39.74 115.923 39.0867 116.53 38.2V32.53L115.9 32.6C115.293 32.6 114.733 32.4133 114.22 32.04C113.753 31.6667 113.403 31.2 113.17 30.64ZM140.451 56.89C139.751 56.47 139.098 56.05 138.491 55.63C137.885 55.2567 137.255 54.9067 136.601 54.58C135.995 54.3 135.365 54.0667 134.711 53.88C134.058 53.74 133.335 53.74 132.541 53.88C133.428 52.9933 133.871 51.99 133.871 50.87V41.63C133.358 40.7433 132.658 40.0433 131.771 39.53C132.658 39.0633 133.358 38.3633 133.871 37.43V33.58C133.871 32.4133 133.358 31.62 132.331 31.2L148.571 21.82C149.131 22.1467 149.715 22.52 150.321 22.94C150.975 23.36 151.628 23.7567 152.281 24.13C152.981 24.4567 153.681 24.7133 154.381 24.9C155.081 25.04 155.781 25.0167 156.481 24.83C155.828 25.4833 155.385 26.2533 155.151 27.14C154.965 27.98 154.871 28.89 154.871 29.87C154.871 30.8033 154.918 31.76 155.011 32.74C155.105 33.6733 155.151 34.5133 155.151 35.26L145.071 40.86V47.86L145.911 47.79C146.565 47.79 147.148 48.0233 147.661 48.49C148.175 48.91 148.478 49.4467 148.571 50.1V42.61L146.821 42.12L155.151 37.29C155.151 37.85 155.105 38.6433 155.011 39.67C154.918 40.65 154.871 41.6767 154.871 42.75C154.871 43.8233 154.988 44.8267 155.221 45.76C155.501 46.6467 155.991 47.2533 156.691 47.58C153.891 49.0733 151.138 50.59 148.431 52.13C145.771 53.67 143.111 55.2567 140.451 56.89ZM144.371 41.28L140.451 43.45V49.26C141.105 49.6333 141.735 50.0067 142.341 50.38C142.995 50.7533 143.671 51.0567 144.371 51.29V50.87C144.138 50.7767 143.928 50.66 143.741 50.52C143.601 50.3333 143.531 50.1233 143.531 49.89C143.531 49.2833 143.811 48.7467 144.371 48.28V41.28ZM145.071 51.36C145.491 51.3133 145.865 51.1733 146.191 50.94C146.565 50.66 146.751 50.2867 146.751 49.82C146.751 49.5867 146.658 49.4 146.471 49.26C146.331 49.0733 146.145 48.98 145.911 48.98C145.585 48.98 145.351 49.1433 145.211 49.47C145.118 49.75 145.235 49.9833 145.561 50.17L145.071 50.87V51.36ZM148.571 36.73V29.52L145.071 27.42V30.85C145.585 31.6433 146.331 32.2967 147.311 32.81C146.378 33.3233 145.631 34 145.071 34.84V38.69L148.571 36.73ZM144.371 27C144.278 26.9067 144.091 26.86 143.811 26.86C143.531 26.8133 143.345 26.79 143.251 26.79C142.785 26.79 142.295 26.8367 141.781 26.93C141.315 26.9767 140.871 27.1167 140.451 27.35V41.35L144.371 39.11V34.84C143.718 33.9533 142.948 33.2767 142.061 32.81C142.901 32.4367 143.671 31.7833 144.371 30.85V27ZM202.832 33.44H207.942C209.109 32.5533 209.995 31.48 210.602 30.22C211.302 31.5267 212.212 32.6 213.332 33.44H218.932C218.465 30.08 217.765 27.14 216.832 24.62C215.899 22.1 214.755 19.8133 213.402 17.76C212.142 15.8933 210.765 14.2367 209.272 12.79C207.779 11.2967 206.239 10.1067 204.652 9.22C203.065 8.28667 201.455 7.70333 199.822 7.47C198.235 7.19 196.719 7.28333 195.272 7.75L191.982 10.34C193.802 11.6933 195.249 13.0233 196.322 14.33C197.442 15.59 198.282 16.8733 198.842 18.18C199.402 19.4867 199.705 20.84 199.752 22.24C199.845 23.5933 199.775 25.0167 199.542 26.51C200.522 27.5833 201.269 28.7033 201.782 29.87C202.342 31.0367 202.692 32.2267 202.832 33.44ZM198.912 29.38C198.305 31.62 197.512 33.8367 196.532 36.03C195.552 38.1767 194.619 40.2533 193.732 42.26C192.892 44.2667 192.215 46.18 191.702 48C191.189 49.82 191.119 51.4767 191.492 52.97C191.492 51.9433 191.702 50.87 192.122 49.75C192.589 48.49 193.195 47.0433 193.942 45.41C194.735 43.73 195.482 41.98 196.182 40.16C196.929 38.34 197.559 36.52 198.072 34.7C198.632 32.8333 198.912 31.06 198.912 29.38ZM191.772 56.26C190.559 56.0733 189.322 55.49 188.062 54.51C186.802 53.53 185.705 52.3167 184.772 50.87C183.885 49.3767 183.279 47.72 182.952 45.9C182.625 44.08 182.789 42.2133 183.442 40.3C184.142 38.34 185.099 36.1467 186.312 33.72C187.572 31.2933 188.715 28.7967 189.742 26.23C190.769 23.6167 191.492 21.0267 191.912 18.46C192.332 15.8467 192.075 13.3733 191.142 11.04L190.232 11.74C190.372 11.5533 190.489 11.39 190.582 11.25C190.722 11.0633 190.862 10.9 191.002 10.76C190.909 10.5733 190.815 10.41 190.722 10.27C190.675 10.0833 190.605 9.89666 190.512 9.71C189.625 9.01 188.739 8.52 187.852 8.24C186.965 7.96 186.102 7.86667 185.262 7.96C184.422 8.00666 183.605 8.21666 182.812 8.59C182.019 8.91667 181.319 9.33667 180.712 9.85V19.23C181.272 19.1367 181.739 18.88 182.112 18.46C182.485 17.9933 182.695 17.48 182.742 16.92C182.835 16.3133 182.742 15.7067 182.462 15.1C182.182 14.4467 181.645 13.8633 180.852 13.35C181.552 12.4167 182.275 11.8567 183.022 11.67C183.815 11.4833 184.539 11.5533 185.192 11.88C185.892 12.2067 186.452 12.72 186.872 13.42C187.339 14.12 187.572 14.9133 187.572 15.8C187.619 16.64 187.409 17.5033 186.942 18.39C186.522 19.23 185.729 19.9767 184.562 20.63C183.209 21.19 181.925 21.4467 180.712 21.4V31.48C181.505 32.6 182.602 33.5333 184.002 34.28C182.649 34.98 181.552 35.9367 180.712 37.15V50.94C181.599 50.8933 182.509 51.1267 183.442 51.64C184.375 52.1533 185.332 52.8067 186.312 53.6C187.292 54.3933 188.319 55.28 189.392 56.26C190.512 57.2867 191.702 58.2667 192.962 59.2C192.449 58.3133 192.052 57.3333 191.772 56.26ZM196.812 61.72C197.979 62.3733 199.239 62.8867 200.592 63.26C201.945 63.68 203.369 63.89 204.862 63.89C206.355 63.9367 207.942 63.7267 209.622 63.26C211.302 62.84 213.099 62.1167 215.012 61.09C216.039 59.6433 216.879 57.94 217.532 55.98C218.232 54.02 218.745 51.92 219.072 49.68C219.399 47.3933 219.562 45.0133 219.562 42.54C219.562 40.0667 219.422 37.5933 219.142 35.12H213.332C212.259 35.9133 211.349 36.9867 210.602 38.34C209.902 37.0333 208.992 35.96 207.872 35.12H202.972C202.972 36.8 202.739 38.5033 202.272 40.23C201.852 41.91 201.292 43.59 200.592 45.27C199.939 46.9033 199.262 48.5133 198.562 50.1C197.862 51.64 197.279 53.11 196.812 54.51C196.345 55.9567 196.065 57.2867 195.972 58.5C195.925 59.7133 196.205 60.7867 196.812 61.72ZM225.722 30.29C226.749 32.0167 228.149 33.3 229.922 34.14C228.242 35.0733 226.959 36.45 226.072 38.27C226.025 40.4167 225.862 42.5167 225.582 44.57C225.302 46.5767 224.882 48.4667 224.322 50.24C223.762 51.9667 223.062 53.53 222.222 54.93C221.382 56.3767 220.402 57.5433 219.282 58.43L212.702 63.54L212.352 63.89C209.692 65.8033 207.219 67.1333 204.932 67.88C202.645 68.6733 200.522 69.07 198.562 69.07C196.602 69.07 194.782 68.7433 193.102 68.09C191.422 67.4833 189.835 66.69 188.342 65.71C186.895 64.7767 185.542 63.75 184.282 62.63C183.022 61.51 181.832 60.4833 180.712 59.55V64.73C180.712 65.9433 180.455 66.76 179.942 67.18C179.475 67.6 178.915 67.9967 178.262 68.37C178.775 67.7167 179.032 66.8767 179.032 65.85V58.22C177.959 57.38 176.909 56.75 175.882 56.33C174.902 55.9567 173.922 55.9567 172.942 56.33L170.142 58.57C170.562 58.01 171.029 57.52 171.542 57.1L178.052 51.99C178.425 51.6633 178.752 51.4533 179.032 51.36V36.94C178.145 35.7733 177.095 34.8867 175.882 34.28C177.189 33.6267 178.239 32.7633 179.032 31.69V21.12C177.585 20.7 176.302 19.9533 175.182 18.88C174.062 17.76 173.222 16.5 172.662 15.1C172.149 13.6533 171.985 12.16 172.172 10.62C172.359 9.03333 173.059 7.58666 174.272 6.28C175.439 4.97333 176.722 4.15666 178.122 3.83C179.522 3.45666 180.945 3.45666 182.392 3.83C183.839 4.20333 185.262 4.88 186.662 5.86C188.062 6.84 189.369 8.00666 190.582 9.36C190.769 9.5 190.932 9.64 191.072 9.78C191.259 9.87333 191.445 9.99 191.632 10.13C191.772 9.94333 191.912 9.78 192.052 9.64C192.239 9.5 192.402 9.36 192.542 9.22L199.122 4.11C200.662 2.89667 202.342 2.24333 204.162 2.15C205.982 2.05666 207.802 2.43 209.622 3.27C211.489 4.06333 213.309 5.27666 215.082 6.91C216.855 8.49666 218.465 10.3867 219.912 12.58C221.405 14.82 222.642 17.3867 223.622 20.28C224.649 23.1733 225.349 26.51 225.722 30.29ZM179.032 18.88V11.81C178.752 12.3233 178.495 12.93 178.262 13.63C178.029 14.33 177.865 15.0067 177.772 15.66C177.725 16.3133 177.795 16.9433 177.982 17.55C178.169 18.11 178.519 18.5533 179.032 18.88ZM242.202 40.37C241.689 39.5767 240.942 38.9233 239.962 38.41C240.942 37.8967 241.689 37.2433 242.202 36.45V25.6L241.782 25.39L248.432 21.54C248.992 21.9133 249.482 22.24 249.902 22.52C250.369 22.7533 250.812 22.9633 251.232 23.15C251.652 23.29 252.095 23.3833 252.562 23.43C253.029 23.4767 253.589 23.4533 254.242 23.36C253.355 24.2467 252.912 25.25 252.912 26.37V36.24C253.425 37.1733 254.125 37.85 255.012 38.27C254.079 38.7833 253.379 39.4833 252.912 40.37V50.8C252.912 51.3133 253.029 51.78 253.262 52.2C253.542 52.6667 253.939 53.0167 254.452 53.25C254.079 53.2967 253.472 53.4833 252.632 53.81C251.792 54.1367 250.905 54.4867 249.972 54.86C249.039 55.2333 248.175 55.6067 247.382 55.98C246.589 56.3533 246.052 56.61 245.772 56.75C245.912 56.6567 246.005 56.4 246.052 55.98C246.145 55.6067 246.192 55.1633 246.192 54.65C246.239 54.1833 246.262 53.6933 246.262 53.18C246.262 52.7133 246.262 52.3167 246.262 51.99C246.075 52.41 245.655 52.8533 245.002 53.32C244.349 53.7867 243.602 54.2533 242.762 54.72C241.969 55.1867 241.175 55.6067 240.382 55.98C239.635 56.3533 239.075 56.6567 238.702 56.89C238.002 56.47 237.349 56.05 236.742 55.63C236.135 55.2567 235.505 54.9067 234.852 54.58C234.245 54.2533 233.592 53.9967 232.892 53.81C232.239 53.67 231.515 53.67 230.722 53.81C231.609 52.9233 232.052 51.92 232.052 50.8V40.79C231.445 39.6233 230.605 38.76 229.532 38.2C230.045 37.8733 230.512 37.5 230.932 37.08C231.399 36.66 231.772 36.17 232.052 35.61V28.68C232.052 28.3533 232.005 27.8633 231.912 27.21C231.865 26.5567 231.609 26.1133 231.142 25.88C231.655 25.6933 232.355 25.4367 233.242 25.11C234.129 24.7833 235.039 24.4333 235.972 24.06C236.905 23.6867 237.769 23.3133 238.562 22.94C239.355 22.52 239.915 22.1467 240.242 21.82C240.009 22.0533 239.799 22.3567 239.612 22.73C239.425 23.1033 239.262 23.5233 239.122 23.99C238.982 24.41 238.865 24.8533 238.772 25.32C238.725 25.74 238.702 26.09 238.702 26.37V49.12C239.355 49.4933 240.079 49.96 240.872 50.52C241.712 51.0333 242.505 51.29 243.252 51.29C243.625 51.29 243.999 51.1733 244.372 50.94C244.792 50.66 245.002 50.2867 245.002 49.82C245.002 49.5867 244.932 49.3767 244.792 49.19C244.652 49.0033 244.465 48.91 244.232 48.91C243.905 48.91 243.742 49.0733 243.742 49.4L244.162 49.96C243.882 50.4733 243.415 50.73 242.762 50.73C242.202 50.73 241.689 50.5433 241.222 50.17C240.802 49.75 240.592 49.2367 240.592 48.63C240.592 48.1633 240.755 47.6967 241.082 47.23C241.409 46.7633 241.782 46.4367 242.202 46.25V40.37ZM246.262 28.05L242.902 26.09V36.45C243.415 37.2433 244.162 37.8967 245.142 38.41C244.255 38.83 243.509 39.4833 242.902 40.37V46.04L243.532 45.97C244.139 45.97 244.675 46.1567 245.142 46.53C245.655 46.9033 246.029 47.37 246.262 47.93V28.05ZM269.192 32.32V38.2C269.706 38.9933 270.452 39.6467 271.432 40.16C270.452 40.6733 269.706 41.3267 269.192 42.12V52.97L269.612 53.18L262.962 57.03C262.402 56.7033 261.889 56.4 261.422 56.12C261.002 55.84 260.582 55.6067 260.162 55.42C259.742 55.28 259.299 55.1867 258.832 55.14C258.366 55.0933 257.806 55.1167 257.152 55.21C258.039 54.3233 258.482 53.32 258.482 52.2V42.33C257.969 41.3967 257.269 40.72 256.382 40.3C257.269 39.8333 257.969 39.1333 258.482 38.2V27.77C258.482 27.2567 258.342 26.79 258.062 26.37C257.829 25.9033 257.456 25.5533 256.942 25.32C257.316 25.2733 257.922 25.11 258.762 24.83C259.602 24.5033 260.489 24.1533 261.422 23.78C262.356 23.36 263.219 22.9633 264.012 22.59C264.806 22.2167 265.342 21.96 265.622 21.82C265.482 21.9133 265.366 22.17 265.272 22.59C265.226 22.9633 265.179 23.4067 265.132 23.92C265.132 24.3867 265.132 24.8767 265.132 25.39C265.132 25.8567 265.132 26.2533 265.132 26.58C265.319 26.16 265.739 25.7167 266.392 25.25C267.046 24.7833 267.769 24.3167 268.562 23.85C269.402 23.3833 270.196 22.9633 270.942 22.59C271.736 22.2167 272.319 21.9133 272.692 21.68C273.392 22.1 274.046 22.52 274.652 22.94C275.259 23.36 275.866 23.7333 276.472 24.06C277.126 24.34 277.779 24.5733 278.432 24.76C279.132 24.9 279.879 24.9 280.672 24.76C279.786 25.6467 279.342 26.65 279.342 27.77V37.78C279.949 38.9467 280.789 39.81 281.862 40.37C281.349 40.6967 280.859 41.07 280.392 41.49C279.972 41.91 279.622 42.4 279.342 42.96V50.52C280.089 50.9867 280.836 51.43 281.582 51.85C282.329 52.27 283.076 52.7133 283.822 53.18L277.172 57.03C276.612 56.7033 276.099 56.4 275.632 56.12C275.212 55.84 274.792 55.6067 274.372 55.42C273.952 55.28 273.509 55.1867 273.042 55.14C272.576 55.0933 272.016 55.1167 271.362 55.21C272.249 54.3233 272.692 53.32 272.692 52.2V29.45C272.039 29.0767 271.292 28.6333 270.452 28.12C269.659 27.56 268.889 27.28 268.142 27.28C267.769 27.28 267.372 27.42 266.952 27.7C266.579 27.9333 266.392 28.2833 266.392 28.75C266.392 28.9833 266.462 29.1933 266.602 29.38C266.742 29.5667 266.929 29.66 267.162 29.66C267.489 29.66 267.652 29.4967 267.652 29.17L267.232 28.61C267.512 28.0967 267.979 27.84 268.632 27.84C269.192 27.84 269.682 28.05 270.102 28.47C270.569 28.8433 270.802 29.3333 270.802 29.94C270.802 30.4067 270.639 30.8733 270.312 31.34C269.986 31.8067 269.612 32.1333 269.192 32.32ZM265.132 30.64V50.52L268.492 52.48V42.12C267.979 41.3267 267.232 40.6733 266.252 40.16C267.139 39.74 267.886 39.0867 268.492 38.2V32.53L267.862 32.6C267.256 32.6 266.696 32.4133 266.182 32.04C265.716 31.6667 265.366 31.2 265.132 30.64ZM300.551 21.4C301.484 21.7267 302.487 22.03 303.561 22.31C304.634 22.5433 305.637 22.87 306.571 23.29C307.504 23.6633 308.274 24.2 308.881 24.9C309.487 25.5533 309.791 26.4867 309.791 27.7C309.791 28.6333 309.511 29.4733 308.951 30.22C308.391 30.92 307.621 31.27 306.641 31.27C305.987 31.27 305.357 31.0367 304.751 30.57C304.144 30.1033 303.841 29.4967 303.841 28.75C303.841 28.19 304.051 27.7 304.471 27.28C304.937 26.8133 305.451 26.58 306.011 26.58C306.431 26.58 306.827 26.7667 307.201 27.14C306.967 27.28 306.874 27.4667 306.921 27.7C307.014 27.9333 307.177 28.0967 307.411 28.19C307.597 28.19 307.737 28.12 307.831 27.98C307.971 27.7933 308.041 27.6067 308.041 27.42C308.041 27 307.854 26.6733 307.481 26.44C307.154 26.16 306.804 26.02 306.431 26.02C306.151 26.02 305.684 26.2533 305.031 26.72C304.377 27.14 303.631 27.6767 302.791 28.33C301.951 28.9833 301.064 29.73 300.131 30.57C299.197 31.3633 298.311 32.1333 297.471 32.88C296.631 33.6267 295.884 34.3033 295.231 34.91C294.624 35.47 294.181 35.8433 293.901 36.03V37.71C295.907 37.8033 297.587 38.2933 298.941 39.18C300.341 40.0667 301.531 41.14 302.511 42.4C303.537 43.66 304.424 44.99 305.171 46.39C305.917 47.79 306.641 49.05 307.341 50.17C308.087 51.29 308.857 52.1533 309.651 52.76C310.491 53.3667 311.494 53.5067 312.661 53.18C312.147 54.1133 311.424 54.9767 310.491 55.77C309.557 56.5633 308.671 56.96 307.831 56.96C306.057 56.96 304.564 56.4 303.351 55.28C302.137 54.2067 301.041 52.9 300.061 51.36C299.081 49.82 298.124 48.2333 297.191 46.6C296.257 44.9667 295.161 43.59 293.901 42.47V45.55C294.414 46.4367 295.137 47.09 296.071 47.51C295.231 47.9767 294.507 48.6533 293.901 49.54V54.65C294.554 55.49 295.277 56.2833 296.071 57.03L290.121 57.1C289.327 55.98 288.464 55.0467 287.531 54.3C286.597 53.5533 285.454 52.9233 284.101 52.41C285.081 51.8967 285.571 51.08 285.571 49.96V40.65C285.151 39.7167 284.474 39.04 283.541 38.62C284.474 38.1067 285.151 37.4067 285.571 36.52V8.31C285.571 7.28333 285.104 6.51333 284.171 6C283.284 5.48667 282.421 5.13667 281.581 4.95L287.741 1.03C288.581 1.54333 289.444 2.01 290.331 2.43C291.217 2.80333 292.151 2.99 293.131 2.99C293.364 2.99 293.551 2.99 293.691 2.99C293.877 2.94333 294.087 2.89667 294.321 2.85L293.901 3.34V27.77L300.551 21.4ZM292.221 52.13C292.361 52.3633 292.501 52.62 292.641 52.9C292.781 53.18 292.944 53.4367 293.131 53.67V49.47C292.991 49.2833 292.851 49.0967 292.711 48.91C292.571 48.7233 292.407 48.56 292.221 48.42V52.13ZM293.131 41.77L292.221 41V46.67C292.407 46.4833 292.571 46.32 292.711 46.18C292.897 45.9933 293.037 45.7833 293.131 45.55V41.77ZM293.131 4.04C292.897 4.27333 292.687 4.55333 292.501 4.88C292.314 5.16 292.221 5.48667 292.221 5.86V29.24L293.131 28.33V4.04ZM293.131 36.66L292.221 37.43V37.78L293.131 37.71V36.66ZM320.92 56.89C320.22 56.47 319.567 56.05 318.96 55.63C318.354 55.2567 317.724 54.9067 317.07 54.58C316.464 54.3 315.834 54.0667 315.18 53.88C314.527 53.74 313.804 53.74 313.01 53.88C313.897 52.9933 314.34 51.99 314.34 50.87V41.63C313.827 40.7433 313.127 40.0433 312.24 39.53C313.127 39.0633 313.827 38.3633 314.34 37.43V33.58C314.34 32.4133 313.827 31.62 312.8 31.2L329.04 21.82C329.6 22.1467 330.184 22.52 330.79 22.94C331.444 23.36 332.097 23.7567 332.75 24.13C333.45 24.4567 334.15 24.7133 334.85 24.9C335.55 25.04 336.25 25.0167 336.95 24.83C336.297 25.4833 335.854 26.2533 335.62 27.14C335.434 27.98 335.34 28.89 335.34 29.87C335.34 30.8033 335.387 31.76 335.48 32.74C335.574 33.6733 335.62 34.5133 335.62 35.26L325.54 40.86V47.86L326.38 47.79C327.034 47.79 327.617 48.0233 328.13 48.49C328.644 48.91 328.947 49.4467 329.04 50.1V42.61L327.29 42.12L335.62 37.29C335.62 37.85 335.574 38.6433 335.48 39.67C335.387 40.65 335.34 41.6767 335.34 42.75C335.34 43.8233 335.457 44.8267 335.69 45.76C335.97 46.6467 336.46 47.2533 337.16 47.58C334.36 49.0733 331.607 50.59 328.9 52.13C326.24 53.67 323.58 55.2567 320.92 56.89ZM324.84 41.28L320.92 43.45V49.26C321.574 49.6333 322.204 50.0067 322.81 50.38C323.464 50.7533 324.14 51.0567 324.84 51.29V50.87C324.607 50.7767 324.397 50.66 324.21 50.52C324.07 50.3333 324 50.1233 324 49.89C324 49.2833 324.28 48.7467 324.84 48.28V41.28ZM325.54 51.36C325.96 51.3133 326.334 51.1733 326.66 50.94C327.034 50.66 327.22 50.2867 327.22 49.82C327.22 49.5867 327.127 49.4 326.94 49.26C326.8 49.0733 326.614 48.98 326.38 48.98C326.054 48.98 325.82 49.1433 325.68 49.47C325.587 49.75 325.704 49.9833 326.03 50.17L325.54 50.87V51.36ZM329.04 36.73V29.52L325.54 27.42V30.85C326.054 31.6433 326.8 32.2967 327.78 32.81C326.847 33.3233 326.1 34 325.54 34.84V38.69L329.04 36.73ZM324.84 27C324.747 26.9067 324.56 26.86 324.28 26.86C324 26.8133 323.814 26.79 323.72 26.79C323.254 26.79 322.764 26.8367 322.25 26.93C321.784 26.9767 321.34 27.1167 320.92 27.35V41.35L324.84 39.11V34.84C324.187 33.9533 323.417 33.2767 322.53 32.81C323.37 32.4367 324.14 31.7833 324.84 30.85V27ZM336.088 61.02C336.414 60.2267 336.834 59.48 337.348 58.78C337.908 58.1267 338.608 57.66 339.448 57.38V41.07C338.981 40.23 338.281 39.5533 337.348 39.04C338.234 38.5733 338.934 37.8733 339.448 36.94V6.98C339.448 5.76666 338.981 4.74 338.048 3.9C338.468 4.04 338.888 4.11 339.308 4.11C339.821 4.11 340.381 3.99333 340.988 3.76C341.641 3.48 342.271 3.17666 342.878 2.85C343.531 2.47667 344.138 2.12667 344.698 1.8C345.258 1.42666 345.724 1.12333 346.098 0.889997C346.798 1.31 347.591 1.73 348.478 2.15C349.411 2.52333 350.298 2.96666 351.138 3.48C351.978 3.99333 352.678 4.6 353.238 5.3C353.798 5.95333 354.078 6.77 354.078 7.75C354.078 8.73 353.774 9.66333 353.168 10.55C352.608 11.4367 351.768 11.88 350.648 11.88C349.948 11.88 349.318 11.6 348.758 11.04C348.244 10.48 347.988 9.82666 347.988 9.08C347.988 8.52 348.198 8.03 348.618 7.61C349.038 7.19 349.528 6.98 350.088 6.98C350.648 6.98 351.138 7.26 351.558 7.82L351.138 8.31C351.324 8.59 351.534 8.73 351.768 8.73C352.188 8.73 352.398 8.52 352.398 8.1C352.398 7.58666 352.211 7.19 351.838 6.91C351.511 6.63 351.114 6.49 350.648 6.49C350.134 6.49 349.621 6.63 349.108 6.91C348.594 7.14333 348.104 7.37666 347.638 7.61V37.01C348.151 37.8033 348.898 38.4567 349.878 38.97C349.411 39.2033 348.991 39.5067 348.618 39.88C348.291 40.2067 347.964 40.5567 347.638 40.93V59.69C348.384 60.11 349.248 60.6467 350.228 61.3C351.208 61.9533 352.211 62.5833 353.238 63.19C354.311 63.7967 355.361 64.2633 356.388 64.59C357.461 64.9633 358.418 65.0333 359.258 64.8C358.604 65.78 357.834 66.5967 356.948 67.25C356.061 67.95 355.011 68.3 353.798 68.3C352.771 68.3 351.744 68.09 350.718 67.67C349.691 67.25 348.688 66.7367 347.708 66.13C346.728 65.5233 345.748 64.87 344.768 64.17C343.788 63.5167 342.808 62.91 341.828 62.35C340.894 61.8367 339.938 61.44 338.958 61.16C337.978 60.88 337.021 60.8333 336.088 61.02ZM351.908 61.23C352.468 61.65 353.121 61.86 353.868 61.86C354.848 61.86 355.688 61.51 356.388 60.81C357.088 60.11 357.484 59.2933 357.578 58.36C358.371 58.5467 359.094 58.92 359.748 59.48C360.448 60.04 360.798 60.7633 360.798 61.65C360.798 62.4433 360.494 63.05 359.888 63.47C359.328 63.9367 358.674 64.17 357.928 64.17C356.808 64.17 355.711 63.8433 354.638 63.19C353.611 62.5833 352.701 61.93 351.908 61.23ZM346.938 8.1L346.098 8.59V38.06L346.938 37.01V8.1ZM346.098 39.88V58.92L346.938 59.34V40.93C346.844 40.6967 346.704 40.51 346.518 40.37C346.378 40.1833 346.238 40.02 346.098 39.88ZM396.084 33.44H401.194C402.36 32.5533 403.247 31.48 403.854 30.22C404.554 31.5267 405.464 32.6 406.584 33.44H412.184C411.717 30.08 411.017 27.14 410.084 24.62C409.15 22.1 408.007 19.8133 406.654 17.76C405.394 15.8933 404.017 14.2367 402.524 12.79C401.03 11.2967 399.49 10.1067 397.904 9.22C396.317 8.28667 394.707 7.70333 393.074 7.47C391.487 7.19 389.97 7.28333 388.524 7.75L385.234 10.34C387.054 11.6933 388.5 13.0233 389.574 14.33C390.694 15.59 391.534 16.8733 392.094 18.18C392.654 19.4867 392.957 20.84 393.004 22.24C393.097 23.5933 393.027 25.0167 392.794 26.51C393.774 27.5833 394.52 28.7033 395.034 29.87C395.594 31.0367 395.944 32.2267 396.084 33.44ZM392.164 29.38C391.557 31.62 390.764 33.8367 389.784 36.03C388.804 38.1767 387.87 40.2533 386.984 42.26C386.144 44.2667 385.467 46.18 384.954 48C384.44 49.82 384.37 51.4767 384.744 52.97C384.744 51.9433 384.954 50.87 385.374 49.75C385.84 48.49 386.447 47.0433 387.194 45.41C387.987 43.73 388.734 41.98 389.434 40.16C390.18 38.34 390.81 36.52 391.324 34.7C391.884 32.8333 392.164 31.06 392.164 29.38ZM385.024 56.26C383.81 56.0733 382.574 55.49 381.314 54.51C380.054 53.53 378.957 52.3167 378.024 50.87C377.137 49.3767 376.53 47.72 376.204 45.9C375.877 44.08 376.04 42.2133 376.694 40.3C377.394 38.34 378.35 36.1467 379.564 33.72C380.824 31.2933 381.967 28.7967 382.994 26.23C384.02 23.6167 384.744 21.0267 385.164 18.46C385.584 15.8467 385.327 13.3733 384.394 11.04L383.484 11.74C383.624 11.5533 383.74 11.39 383.834 11.25C383.974 11.0633 384.114 10.9 384.254 10.76C384.16 10.5733 384.067 10.41 383.974 10.27C383.927 10.0833 383.857 9.89666 383.764 9.71C382.877 9.01 381.99 8.52 381.104 8.24C380.217 7.96 379.354 7.86667 378.514 7.96C377.674 8.00666 376.857 8.21666 376.064 8.59C375.27 8.91667 374.57 9.33667 373.964 9.85V19.23C374.524 19.1367 374.99 18.88 375.364 18.46C375.737 17.9933 375.947 17.48 375.994 16.92C376.087 16.3133 375.994 15.7067 375.714 15.1C375.434 14.4467 374.897 13.8633 374.104 13.35C374.804 12.4167 375.527 11.8567 376.274 11.67C377.067 11.4833 377.79 11.5533 378.444 11.88C379.144 12.2067 379.704 12.72 380.124 13.42C380.59 14.12 380.824 14.9133 380.824 15.8C380.87 16.64 380.66 17.5033 380.194 18.39C379.774 19.23 378.98 19.9767 377.814 20.63C376.46 21.19 375.177 21.4467 373.964 21.4V31.48C374.757 32.6 375.854 33.5333 377.254 34.28C375.9 34.98 374.804 35.9367 373.964 37.15V50.94C374.85 50.8933 375.76 51.1267 376.694 51.64C377.627 52.1533 378.584 52.8067 379.564 53.6C380.544 54.3933 381.57 55.28 382.644 56.26C383.764 57.2867 384.954 58.2667 386.214 59.2C385.7 58.3133 385.304 57.3333 385.024 56.26ZM390.064 61.72C391.23 62.3733 392.49 62.8867 393.844 63.26C395.197 63.68 396.62 63.89 398.114 63.89C399.607 63.9367 401.194 63.7267 402.874 63.26C404.554 62.84 406.35 62.1167 408.264 61.09C409.29 59.6433 410.13 57.94 410.784 55.98C411.484 54.02 411.997 51.92 412.324 49.68C412.65 47.3933 412.814 45.0133 412.814 42.54C412.814 40.0667 412.674 37.5933 412.394 35.12H406.584C405.51 35.9133 404.6 36.9867 403.854 38.34C403.154 37.0333 402.244 35.96 401.124 35.12H396.224C396.224 36.8 395.99 38.5033 395.524 40.23C395.104 41.91 394.544 43.59 393.844 45.27C393.19 46.9033 392.514 48.5133 391.814 50.1C391.114 51.64 390.53 53.11 390.064 54.51C389.597 55.9567 389.317 57.2867 389.224 58.5C389.177 59.7133 389.457 60.7867 390.064 61.72ZM418.974 30.29C420 32.0167 421.4 33.3 423.174 34.14C421.494 35.0733 420.21 36.45 419.324 38.27C419.277 40.4167 419.114 42.5167 418.834 44.57C418.554 46.5767 418.134 48.4667 417.574 50.24C417.014 51.9667 416.314 53.53 415.474 54.93C414.634 56.3767 413.654 57.5433 412.534 58.43L405.954 63.54L405.604 63.89C402.944 65.8033 400.47 67.1333 398.184 67.88C395.897 68.6733 393.774 69.07 391.814 69.07C389.854 69.07 388.034 68.7433 386.354 68.09C384.674 67.4833 383.087 66.69 381.594 65.71C380.147 64.7767 378.794 63.75 377.534 62.63C376.274 61.51 375.084 60.4833 373.964 59.55V64.73C373.964 65.9433 373.707 66.76 373.194 67.18C372.727 67.6 372.167 67.9967 371.514 68.37C372.027 67.7167 372.284 66.8767 372.284 65.85V58.22C371.21 57.38 370.16 56.75 369.134 56.33C368.154 55.9567 367.174 55.9567 366.194 56.33L363.394 58.57C363.814 58.01 364.28 57.52 364.794 57.1L371.304 51.99C371.677 51.6633 372.004 51.4533 372.284 51.36V36.94C371.397 35.7733 370.347 34.8867 369.134 34.28C370.44 33.6267 371.49 32.7633 372.284 31.69V21.12C370.837 20.7 369.554 19.9533 368.434 18.88C367.314 17.76 366.474 16.5 365.914 15.1C365.4 13.6533 365.237 12.16 365.424 10.62C365.61 9.03333 366.31 7.58666 367.524 6.28C368.69 4.97333 369.974 4.15666 371.374 3.83C372.774 3.45666 374.197 3.45666 375.644 3.83C377.09 4.20333 378.514 4.88 379.914 5.86C381.314 6.84 382.62 8.00666 383.834 9.36C384.02 9.5 384.184 9.64 384.324 9.78C384.51 9.87333 384.697 9.99 384.884 10.13C385.024 9.94333 385.164 9.78 385.304 9.64C385.49 9.5 385.654 9.36 385.794 9.22L392.374 4.11C393.914 2.89667 395.594 2.24333 397.414 2.15C399.234 2.05666 401.054 2.43 402.874 3.27C404.74 4.06333 406.56 5.27666 408.334 6.91C410.107 8.49666 411.717 10.3867 413.164 12.58C414.657 14.82 415.894 17.3867 416.874 20.28C417.9 23.1733 418.6 26.51 418.974 30.29ZM372.284 18.88V11.81C372.004 12.3233 371.747 12.93 371.514 13.63C371.28 14.33 371.117 15.0067 371.024 15.66C370.977 16.3133 371.047 16.9433 371.234 17.55C371.42 18.11 371.77 18.5533 372.284 18.88ZM439.913 21.82C440.613 22.1933 441.266 22.59 441.873 23.01C442.479 23.3833 443.086 23.7333 443.693 24.06C444.299 24.34 444.929 24.55 445.583 24.69C446.236 24.83 446.959 24.83 447.753 24.69C447.333 25.11 447.006 25.5533 446.773 26.02C446.539 26.44 446.423 26.9533 446.423 27.56V37.64C446.936 38.5733 447.636 39.25 448.523 39.67C447.589 40.23 446.889 40.9067 446.423 41.7V50.59C447.029 51.15 447.496 51.57 447.823 51.85C448.149 52.1767 448.733 52.55 449.573 52.97L444.463 56.96C443.529 56.4 442.596 55.8867 441.663 55.42C440.776 55 439.749 54.93 438.583 55.21C439.283 54.51 439.679 53.8567 439.773 53.25C439.866 52.6433 439.913 51.8733 439.913 50.94C439.866 51.7333 439.516 52.4333 438.863 53.04C438.209 53.6467 437.439 54.1833 436.553 54.65C435.713 55.1633 434.849 55.6067 433.963 55.98C433.123 56.3533 432.446 56.68 431.933 56.96C431.373 56.68 430.766 56.33 430.113 55.91C429.506 55.49 428.853 55.0933 428.153 54.72C427.453 54.3933 426.729 54.1367 425.983 53.95C425.283 53.81 424.583 53.8333 423.883 54.02C424.769 53.1333 425.213 52.13 425.213 51.01V42.96C425.213 42.4467 425.073 41.98 424.793 41.56C424.513 41.14 424.139 40.8133 423.673 40.58L439.913 33.37V29.17C439.353 28.8433 438.653 28.4 437.813 27.84C436.973 27.28 436.226 27 435.573 27C435.059 27 434.429 27.07 433.683 27.21C432.983 27.35 432.399 27.56 431.933 27.84V34.35L423.953 37.64L425.073 35.4V31.62C425.073 30.5467 424.583 29.7767 423.603 29.31L439.913 21.82ZM439.913 49.61V35.05L436.133 37.5V40.79C436.413 41.21 436.739 41.5833 437.113 41.91C437.533 42.19 437.976 42.4467 438.443 42.68C437.976 42.9133 437.533 43.1933 437.113 43.52C436.739 43.8467 436.413 44.22 436.133 44.64V46.32L436.623 46.25C437.556 46.25 438.303 46.5767 438.863 47.23C439.469 47.8833 439.819 48.6767 439.913 49.61ZM433.193 42.68C434.126 42.26 434.873 41.63 435.433 40.79V37.85L431.933 40.16V49.33C432.493 49.7033 433.053 50.0533 433.613 50.38C434.219 50.7067 434.826 51.0333 435.433 51.36V50.87C434.966 50.7767 434.569 50.5433 434.243 50.17C433.963 49.7967 433.823 49.3533 433.823 48.84C433.823 48.3267 433.986 47.86 434.313 47.44C434.639 47.02 435.013 46.7167 435.433 46.53V44.64C434.826 43.7533 434.079 43.1 433.193 42.68ZM436.133 51.5H436.483C436.903 51.5 437.299 51.3833 437.673 51.15C438.093 50.87 438.303 50.4733 438.303 49.96C438.303 49.7733 438.233 49.61 438.093 49.47C437.953 49.2833 437.766 49.19 437.533 49.19C437.159 49.19 436.973 49.3533 436.973 49.68L437.463 50.17C437.089 50.6367 436.646 50.8933 436.133 50.94V51.5ZM465.951 27.63C466.558 27.2567 467.188 26.9533 467.841 26.72C468.541 26.44 469.241 26.3 469.941 26.3C470.501 26.3 471.014 26.4633 471.481 26.79C471.994 27.07 472.251 27.5367 472.251 28.19C472.251 28.89 471.971 29.4267 471.411 29.8C470.851 30.1733 470.244 30.36 469.591 30.36C469.638 29.5667 469.404 28.89 468.891 28.33C468.378 27.7233 467.724 27.42 466.931 27.42C466.791 27.42 466.628 27.4433 466.441 27.49C466.254 27.5367 466.091 27.5833 465.951 27.63ZM451.671 30.43C451.298 29.9633 450.948 29.52 450.621 29.1C450.294 28.6333 449.944 28.19 449.571 27.77C450.178 28.19 450.901 28.4 451.741 28.4C452.954 28.4 454.144 28.0733 455.311 27.42C456.524 26.72 457.738 25.9733 458.951 25.18C460.164 24.34 461.378 23.5933 462.591 22.94C463.851 22.24 465.134 21.89 466.441 21.89C467.934 21.89 469.171 22.4033 470.151 23.43C471.131 24.4567 471.948 25.5767 472.601 26.79C471.808 26.1367 470.874 25.81 469.801 25.81C468.961 25.81 468.098 25.9967 467.211 26.37C466.371 26.6967 465.531 27.1167 464.691 27.63C463.851 28.0967 463.034 28.61 462.241 29.17C461.448 29.73 460.701 30.22 460.001 30.64V37.5C460.608 38.3867 461.354 39.04 462.241 39.46C461.261 39.9733 460.514 40.6267 460.001 41.42V50.31C460.841 50.87 461.774 51.15 462.801 51.15L463.151 51.08C462.264 52.1067 461.424 53.04 460.631 53.88C459.838 54.7667 459.068 55.7933 458.321 56.96C457.854 56.68 457.341 56.3533 456.781 55.98C456.268 55.6533 455.708 55.3033 455.101 54.93C454.494 54.6033 453.888 54.3233 453.281 54.09C452.721 53.8567 452.161 53.74 451.601 53.74C451.181 53.74 450.761 53.81 450.341 53.95C451.228 53.0633 451.671 52.06 451.671 50.94V41.42C451.158 40.5333 450.458 39.8333 449.571 39.32C450.458 38.9 451.158 38.2233 451.671 37.29V30.43ZM458.321 49.26L459.301 49.82V41.42C459.161 41.1867 458.998 41 458.811 40.86C458.671 40.6733 458.508 40.4867 458.321 40.3V49.26ZM459.301 31.06L458.321 31.55V38.62C458.508 38.4333 458.671 38.27 458.811 38.13C458.998 37.9433 459.161 37.7333 459.301 37.5V31.06ZM489.633 21.4C490.566 21.7267 491.569 22.03 492.643 22.31C493.716 22.5433 494.719 22.87 495.653 23.29C496.586 23.6633 497.356 24.2 497.963 24.9C498.569 25.5533 498.873 26.4867 498.873 27.7C498.873 28.6333 498.593 29.4733 498.033 30.22C497.473 30.92 496.703 31.27 495.723 31.27C495.069 31.27 494.439 31.0367 493.833 30.57C493.226 30.1033 492.923 29.4967 492.923 28.75C492.923 28.19 493.133 27.7 493.553 27.28C494.019 26.8133 494.533 26.58 495.093 26.58C495.513 26.58 495.909 26.7667 496.283 27.14C496.049 27.28 495.956 27.4667 496.003 27.7C496.096 27.9333 496.259 28.0967 496.493 28.19C496.679 28.19 496.819 28.12 496.913 27.98C497.053 27.7933 497.123 27.6067 497.123 27.42C497.123 27 496.936 26.6733 496.563 26.44C496.236 26.16 495.886 26.02 495.513 26.02C495.233 26.02 494.766 26.2533 494.113 26.72C493.459 27.14 492.713 27.6767 491.873 28.33C491.033 28.9833 490.146 29.73 489.213 30.57C488.279 31.3633 487.393 32.1333 486.553 32.88C485.713 33.6267 484.966 34.3033 484.313 34.91C483.706 35.47 483.263 35.8433 482.983 36.03V37.71C484.989 37.8033 486.669 38.2933 488.023 39.18C489.423 40.0667 490.613 41.14 491.593 42.4C492.619 43.66 493.506 44.99 494.253 46.39C494.999 47.79 495.723 49.05 496.423 50.17C497.169 51.29 497.939 52.1533 498.733 52.76C499.573 53.3667 500.576 53.5067 501.743 53.18C501.229 54.1133 500.506 54.9767 499.573 55.77C498.639 56.5633 497.753 56.96 496.913 56.96C495.139 56.96 493.646 56.4 492.433 55.28C491.219 54.2067 490.123 52.9 489.143 51.36C488.163 49.82 487.206 48.2333 486.273 46.6C485.339 44.9667 484.243 43.59 482.983 42.47V45.55C483.496 46.4367 484.219 47.09 485.153 47.51C484.313 47.9767 483.589 48.6533 482.983 49.54V54.65C483.636 55.49 484.359 56.2833 485.153 57.03L479.203 57.1C478.409 55.98 477.546 55.0467 476.613 54.3C475.679 53.5533 474.536 52.9233 473.183 52.41C474.163 51.8967 474.653 51.08 474.653 49.96V40.65C474.233 39.7167 473.556 39.04 472.623 38.62C473.556 38.1067 474.233 37.4067 474.653 36.52V8.31C474.653 7.28333 474.186 6.51333 473.253 6C472.366 5.48667 471.503 5.13667 470.663 4.95L476.823 1.03C477.663 1.54333 478.526 2.01 479.413 2.43C480.299 2.80333 481.233 2.99 482.213 2.99C482.446 2.99 482.633 2.99 482.773 2.99C482.959 2.94333 483.169 2.89667 483.403 2.85L482.983 3.34V27.77L489.633 21.4ZM481.303 52.13C481.443 52.3633 481.583 52.62 481.723 52.9C481.863 53.18 482.026 53.4367 482.213 53.67V49.47C482.073 49.2833 481.933 49.0967 481.793 48.91C481.653 48.7233 481.489 48.56 481.303 48.42V52.13ZM482.213 41.77L481.303 41V46.67C481.489 46.4833 481.653 46.32 481.793 46.18C481.979 45.9933 482.119 45.7833 482.213 45.55V41.77ZM482.213 4.04C481.979 4.27333 481.769 4.55333 481.583 4.88C481.396 5.16 481.303 5.48667 481.303 5.86V29.24L482.213 28.33V4.04ZM482.213 36.66L481.303 37.43V37.78L482.213 37.71V36.66Z" fill="#E30613"/>
</svg>
