<svg width="627" height="95" viewBox="0 0 627 95" fill="none" xmlns="http://www.w3.org/2000/svg">
<path d="M40.784 78.084C40.784 80.196 40.112 82.02 38.768 83.556C37.424 85.092 35.632 85.86 33.392 85.86C31.856 85.86 30.48 85.348 29.264 84.324C29.776 85.028 30.192 85.796 30.512 86.628C30.832 87.46 30.992 88.324 30.992 89.22C30.992 90.436 30.608 91.524 29.84 92.484C29.072 93.508 28.048 94.02 26.768 94.02C25.872 94.02 25.104 93.732 24.464 93.156C23.824 92.644 23.344 92.004 23.024 91.236C24.688 91.3 25.968 90.724 26.864 89.508C27.824 88.356 28.304 86.98 28.304 85.38C28.304 84.612 28.176 83.844 27.92 83.076C27.664 82.372 27.376 81.636 27.056 80.868C26.736 80.164 26.416 79.428 26.096 78.66C25.776 77.892 25.552 77.124 25.424 76.356C25.168 74.82 25.008 72.804 24.944 70.308C24.944 67.812 24.944 65.22 24.944 62.532C25.008 59.78 25.072 57.156 25.136 54.66C25.2 52.164 25.232 50.148 25.232 48.612L24.848 48.228H23.312V78.18C23.312 79.652 23.664 81.188 24.368 82.788C25.136 84.388 26.16 85.572 27.44 86.34L17.936 94.404C16.016 91.716 13.936 89.092 11.696 86.532C9.456 84.036 7.024 81.764 4.4 79.716C5.36 79.844 6.32 79.78 7.28 79.524C8.304 79.268 9.2 78.852 9.968 78.276C10.736 77.7 11.344 76.996 11.792 76.164C12.304 75.332 12.56 74.372 12.56 73.284V50.628C11.664 48.964 10.384 47.684 8.72 46.788C10.384 45.892 11.664 44.612 12.56 42.948V37.956C12.56 37.188 12.528 36.164 12.464 34.884C12.4 33.54 12.24 32.228 11.984 30.948C11.792 29.604 11.472 28.356 11.024 27.204C10.64 26.052 10.096 25.22 9.392 24.708C12.08 24.388 14.544 23.588 16.784 22.308C19.088 20.964 21.264 19.46 23.312 17.796V45.348H24.752L25.232 44.868V20.964C25.232 19.684 24.912 18.596 24.272 17.7C25.296 18.34 26.064 18.948 26.576 19.524C27.088 20.1 27.344 21.028 27.344 22.308V44.1C28.24 45.252 29.264 46.148 30.416 46.788C29.2 47.364 28.176 48.228 27.344 49.38V75.972C27.344 77.06 27.6 78.052 28.112 78.948C29.072 79.652 30.288 80.004 31.76 80.004C32.336 80.004 32.976 79.876 33.68 79.62C34.448 79.428 35.152 79.108 35.792 78.66C36.496 78.276 37.072 77.796 37.52 77.22C37.968 76.708 38.192 76.1 38.192 75.396C38.192 74.884 37.968 74.404 37.52 73.956C37.072 73.508 36.592 73.284 36.08 73.284C35.376 73.284 34.8 73.572 34.352 74.148C33.904 74.724 33.68 75.364 33.68 76.068C33.68 76.58 33.776 77.06 33.968 77.508C33.456 77.636 33.008 77.7 32.624 77.7C31.792 77.7 31.12 77.412 30.608 76.836C30.096 76.26 29.84 75.556 29.84 74.724C29.84 73.572 30.256 72.58 31.088 71.748C31.92 70.98 32.912 70.596 34.064 70.596C36.112 70.596 37.744 71.332 38.96 72.804C40.176 74.34 40.784 76.1 40.784 78.084ZM34.352 9.54C32.432 9.54 30.512 10.244 28.592 11.652C26.736 13.06 24.816 14.628 22.832 16.356C20.912 18.02 18.864 19.556 16.688 20.964C14.576 22.372 12.304 23.076 9.872 23.076C8.592 23.076 7.344 22.82 6.128 22.308C4.976 21.796 3.952 21.124 3.056 20.292C2.224 19.396 1.552 18.372 1.04 17.22C0.528 16.004 0.272 14.756 0.272 13.476C0.272 12.324 0.496 11.204 0.944 10.116C1.392 9.028 2 8.068 2.768 7.236C3.536 6.34 4.432 5.636 5.456 5.12399C6.48 4.54799 7.6 4.25999 8.816 4.25999C10.224 4.25999 11.536 4.70799 12.752 5.60399C13.968 6.49999 14.576 7.716 14.576 9.252C14.576 10.148 14.288 11.044 13.712 11.94C13.136 12.836 12.336 13.284 11.312 13.284C10.608 13.284 10 13.092 9.488 12.708C8.976 12.324 8.528 11.876 8.144 11.364C8.656 11.3 9.168 11.172 9.68 10.98C10.256 10.724 10.544 10.276 10.544 9.636C10.544 9.188 10.384 8.836 10.064 8.58C9.744 8.324 9.36 8.196 8.912 8.196C8.016 8.196 7.28 8.484 6.704 9.06C6.128 9.572 5.84 10.276 5.84 11.172C5.84 12.26 6.192 13.156 6.896 13.86C7.6 14.5 8.464 14.82 9.488 14.82C10.896 14.82 12.336 14.244 13.808 13.092C15.344 11.94 16.976 10.66 18.704 9.252C20.432 7.844 22.32 6.564 24.368 5.412C26.416 4.26 28.688 3.684 31.184 3.684C32.848 3.684 34.416 3.94 35.888 4.452C37.36 4.964 38.64 5.7 39.728 6.66C40.816 7.62 41.68 8.804 42.32 10.212C42.96 11.62 43.28 13.188 43.28 14.916C43.28 17.412 42.48 19.588 40.88 21.444C39.344 23.3 37.264 24.228 34.64 24.228C32.784 24.228 31.184 23.652 29.84 22.5C28.496 21.348 27.824 19.844 27.824 17.988C27.824 17.092 27.984 16.228 28.304 15.396C28.624 14.564 29.072 13.828 29.648 13.188C30.224 12.484 30.896 11.94 31.664 11.556C32.432 11.108 33.296 10.884 34.256 10.884L35.6 10.98C34.768 11.3 34.16 11.94 33.776 12.9C33.456 13.796 33.296 14.628 33.296 15.396C33.296 16.1 33.424 16.772 33.68 17.412C34 18.052 34.576 18.372 35.408 18.372C36.56 18.372 37.52 18.02 38.288 17.316C39.12 16.612 39.536 15.684 39.536 14.532C39.536 13.06 39.024 11.876 38 10.98C36.976 10.02 35.76 9.54 34.352 9.54ZM68.1373 66.372C69.8013 66.372 71.2733 66.756 72.5533 67.524C73.8973 68.292 74.9853 69.38 75.8173 70.788V53.412C74.9853 52.26 73.9613 51.396 72.7453 50.82C73.9613 50.116 74.9853 49.252 75.8173 48.228V35.46C74.2813 37.188 72.4253 38.5 70.2493 39.396C68.0733 40.228 65.8653 40.644 63.6253 40.644C61.3213 40.644 59.0493 40.196 56.8093 39.3C54.5693 38.404 52.5532 37.188 50.7613 35.652C49.0332 34.052 47.6572 32.196 46.6332 30.084C45.5452 27.972 45.0012 25.7 45.0012 23.268C45.0012 20.58 45.6092 18.052 46.8252 15.684C47.9772 13.316 49.5132 11.236 51.4333 9.444C53.3533 7.588 55.5293 6.148 57.9613 5.12399C60.4573 4.036 63.0173 3.492 65.6413 3.492C67.8813 3.492 70.0253 3.908 72.0733 4.73999C74.1853 5.508 76.1053 6.628 77.8333 8.1C79.5613 8.036 81.1613 8.356 82.6333 9.06C84.1693 9.764 85.4813 10.724 86.5693 11.94C87.6573 13.092 88.5213 14.436 89.1613 15.972C89.8013 17.508 90.1853 19.108 90.3133 20.772L92.4253 14.052C93.8333 12.516 95.3693 11.076 97.0333 9.732C98.7613 8.324 100.553 7.108 102.409 6.084C104.265 4.996 106.217 4.132 108.265 3.492C110.313 2.852 112.425 2.532 114.601 2.532C117.033 2.532 119.401 3.012 121.705 3.972C124.009 4.868 126.025 6.116 127.753 7.716C129.545 9.316 130.953 11.236 131.977 13.476C133.065 15.652 133.609 17.988 133.609 20.484C133.609 23.172 133.097 25.892 132.073 28.644C131.049 31.396 130.153 34.02 129.385 36.516C128.489 39.46 127.113 41.668 125.257 43.14C123.465 44.612 121.385 45.7 119.017 46.404C116.713 47.108 114.217 47.588 111.529 47.844C108.905 48.1 106.281 48.452 103.657 48.9C101.097 49.284 98.6333 49.924 96.2653 50.82C93.9613 51.716 91.9773 53.188 90.3133 55.236C90.3133 56.196 90.3133 57.668 90.3133 59.652C90.3133 61.636 90.4093 63.684 90.6013 65.796C90.7933 67.908 91.0813 69.86 91.4653 71.652C91.9133 73.444 92.5533 74.628 93.3853 75.204C90.7613 75.524 88.3293 76.324 86.0893 77.604C83.8493 78.884 81.7373 80.356 79.7533 82.02V52.164H78.3133L77.9293 52.644V78.66C77.9293 79.94 78.2493 81.028 78.8893 81.924L77.5453 81.156C77.4813 81.668 77.4173 82.212 77.3533 82.788C77.2893 83.364 77.1933 83.908 77.0653 84.42C78.4093 83.588 79.8173 82.692 81.2893 81.732C82.7613 80.772 84.2333 79.876 85.7053 79.044C87.2413 78.212 88.8093 77.508 90.4093 76.932C92.0093 76.356 93.6413 76.068 95.3053 76.068C97.5453 76.068 99.5613 76.612 101.353 77.7C103.209 78.852 104.873 80.228 106.345 81.828C104.873 80.868 103.241 80.388 101.449 80.388C98.7613 80.388 96.3293 81.028 94.1533 82.308C91.9773 83.588 89.8333 84.996 87.7213 86.532C85.6093 88.068 83.4333 89.476 81.1933 90.756C79.0173 92.036 76.5853 92.676 73.8973 92.676C73.0653 92.676 72.0733 92.58 70.9213 92.388C69.7693 92.196 68.6813 91.876 67.6573 91.428C66.6333 90.98 65.7373 90.372 64.9693 89.604C64.2653 88.9 63.9133 87.972 63.9133 86.82C65.0653 87.396 66.3453 87.684 67.7533 87.684C69.4173 87.684 71.0173 87.332 72.5533 86.628C74.0893 85.988 75.5613 85.252 76.9693 84.42C77.0333 83.14 77.0653 82.244 77.0653 81.732C77.0653 81.284 77.0013 80.9 76.8733 80.58C76.4893 80.196 76.2333 79.748 76.1053 79.236C75.9773 78.788 75.8813 78.308 75.8173 77.796C75.0493 76.644 73.9933 75.716 72.6493 75.012C71.3053 74.372 69.9293 74.052 68.5213 74.052C67.9453 74.052 67.2413 74.148 66.4093 74.34C65.5773 74.596 64.7773 74.916 64.0093 75.3C63.2413 75.748 62.5693 76.26 61.9933 76.836C61.4813 77.476 61.2253 78.148 61.2253 78.852C61.2253 79.556 61.4813 80.164 61.9933 80.676C62.5053 81.252 63.1133 81.54 63.8173 81.54C64.8413 81.54 65.6413 81.156 66.2173 80.388C66.8573 79.62 67.1773 78.788 67.1773 77.892L67.0813 76.932C68.5533 76.932 69.6733 77.284 70.4413 77.988C71.2093 78.692 71.5933 79.524 71.5933 80.484C71.5933 81.956 71.0493 83.172 69.9613 84.132C68.9373 85.156 67.7213 85.668 66.3133 85.668C65.0973 85.668 64.0093 85.412 63.0493 84.9C62.0893 84.388 61.2573 83.716 60.5533 82.884C59.9133 82.052 59.4013 81.092 59.0173 80.004C58.6973 78.916 58.5373 77.828 58.5373 76.74C58.5373 75.332 58.7613 73.988 59.2093 72.708C59.6573 71.492 60.2973 70.404 61.1293 69.444C62.0253 68.484 63.0493 67.748 64.2013 67.236C65.3533 66.66 66.6653 66.372 68.1373 66.372ZM90.3133 27.012H105.865C107.657 25.796 109.001 24.228 109.897 22.308C110.857 24.292 112.233 25.86 114.025 27.012C114.665 27.012 115.721 27.012 117.193 27.012C118.729 26.948 120.297 26.916 121.897 26.916C123.497 26.916 124.969 26.98 126.313 27.108C127.721 27.172 128.681 27.364 129.193 27.684C128.553 25.7 127.625 23.908 126.409 22.308C125.193 20.644 123.753 19.236 122.089 18.084C120.489 16.932 118.729 16.036 116.809 15.396C114.889 14.756 112.905 14.436 110.857 14.436C106.825 14.436 103.081 15.428 99.6252 17.412C96.1693 19.332 93.0653 21.636 90.3133 24.324V27.012ZM90.3133 46.98L91.2733 48.516C92.2973 45.508 93.6733 43.236 95.4013 41.7C97.1933 40.1 99.2093 38.948 101.449 38.244C103.689 37.54 106.057 37.092 108.553 36.9C111.113 36.644 113.641 36.356 116.137 36.036C118.633 35.652 121.065 35.044 123.433 34.212C125.801 33.38 127.913 32.004 129.769 30.084L129.673 29.316C129.353 29.252 129.033 29.22 128.713 29.22C128.457 29.156 128.169 29.124 127.849 29.124H113.353C111.881 30.276 110.729 31.652 109.897 33.252C109.449 32.484 108.937 31.748 108.361 31.044C107.849 30.34 107.241 29.7 106.537 29.124H90.3133V46.98ZM79.7533 17.604C79.7533 16.132 79.4973 14.532 78.9853 12.804C78.4733 11.012 77.5773 9.636 76.2973 8.67599C74.3133 8.228 72.2013 8.26 69.9613 8.772C67.7853 9.284 65.7373 10.18 63.8173 11.46C61.9613 12.676 60.4253 14.212 59.2093 16.068C57.9933 17.86 57.3853 19.844 57.3853 22.02C57.3853 23.556 57.7053 25.124 58.3453 26.724C58.9853 28.324 59.8493 29.764 60.9373 31.044C62.0893 32.26 63.4013 33.284 64.8733 34.116C66.3453 34.884 67.9133 35.268 69.5773 35.268C70.6653 35.268 71.7213 34.98 72.7453 34.404C73.8333 33.764 74.3773 32.804 74.3773 31.524C74.3773 30.372 74.0573 29.348 73.4173 28.452C72.8413 27.556 72.0733 26.852 71.1133 26.34C70.1533 25.764 69.0973 25.412 67.9453 25.284C66.8573 25.156 65.8013 25.316 64.7773 25.764C64.7773 23.588 65.2893 21.924 66.3133 20.772C67.3373 19.62 68.7773 19.044 70.6333 19.044C71.5293 19.044 72.4253 19.204 73.3213 19.524C74.2173 19.844 75.0173 20.26 75.7213 20.772V14.148C75.7213 13.572 75.6573 13.028 75.5293 12.516C75.4013 11.94 75.1773 11.396 74.8573 10.884C76.0093 11.524 76.8093 12.324 77.2573 13.284C77.7053 14.18 77.9613 15.172 78.0253 16.26C78.1533 17.348 78.1533 18.468 78.0253 19.62C77.8973 20.772 77.8333 21.924 77.8333 23.076C78.6013 24.42 78.9853 25.892 78.9853 27.492C78.9853 28.26 78.8893 29.092 78.6973 29.988C78.5053 30.884 78.2173 31.684 77.8333 32.388L77.9293 48.996L78.2173 49.38H79.7533V17.604ZM101.449 94.692C100.361 94.692 99.3053 94.34 98.2812 93.636C97.2573 92.996 96.7453 92.1 96.7453 90.948C96.7453 90.244 97.0013 89.54 97.5133 88.836C98.0893 88.196 98.7613 87.876 99.5293 87.876C100.361 87.876 101.001 88.324 101.449 89.22C100.745 89.348 100.201 89.668 99.8173 90.18C99.4333 90.692 99.2413 91.268 99.2413 91.908C99.2413 92.676 99.4653 93.124 99.9133 93.252C100.425 93.38 100.969 93.252 101.545 92.868C102.121 92.548 102.633 92.036 103.081 91.332C103.529 90.692 103.753 89.956 103.753 89.124C103.753 87.652 103.241 86.5 102.217 85.668C101.193 84.9 100.009 84.516 98.6653 84.516C97.9613 84.516 97.0333 84.676 95.8813 84.996C94.7933 85.316 94.1213 85.924 93.8653 86.82C94.3133 85.156 95.1453 83.812 96.3613 82.788C97.6413 81.764 99.1772 81.252 100.969 81.252C102.761 81.252 104.393 81.828 105.865 82.98C107.337 84.132 108.073 85.668 108.073 87.588C108.073 88.484 107.881 89.348 107.497 90.18C107.177 91.076 106.729 91.844 106.153 92.484C105.577 93.188 104.873 93.732 104.041 94.116C103.273 94.5 102.409 94.692 101.449 94.692ZM156.031 64.356C156.671 65.06 157.407 65.508 158.239 65.7C159.071 65.892 159.967 65.924 160.927 65.796C160.863 65.22 160.863 64.676 160.927 64.164C160.991 63.588 160.895 63.012 160.639 62.436C160.447 61.796 159.999 61.156 159.295 60.516C158.655 59.876 157.631 59.204 156.223 58.5C158.079 57.54 159.647 56.196 160.927 54.468V20.58C159.391 20.324 157.759 19.94 156.031 19.428C154.367 18.916 152.799 18.276 151.327 17.508C149.919 16.676 148.703 15.716 147.679 14.628C146.655 13.476 145.983 12.196 145.663 10.788C145.343 9.316 145.471 7.716 146.047 5.988C146.623 4.196 147.807 2.276 149.599 0.227995C150.559 3.748 151.839 6.436 153.439 8.292C155.103 10.084 157.567 11.268 160.831 11.844C160.831 11.14 160.831 10.34 160.831 9.444C160.895 8.548 160.927 7.652 160.927 6.756C160.927 5.86 160.831 5.028 160.639 4.25999C160.511 3.492 160.255 2.852 159.871 2.34C160.831 2.852 161.535 3.364 161.983 3.876C162.495 4.388 162.815 4.996 162.943 5.7C163.071 6.404 163.103 7.268 163.039 8.292C163.039 9.316 163.039 10.596 163.039 12.132C164.511 12.324 166.079 12.516 167.743 12.708C169.407 12.836 171.039 12.996 172.639 13.188C174.303 13.38 175.903 13.636 177.439 13.956C178.975 14.276 180.415 14.724 181.759 15.3C185.023 16.644 187.423 18.404 188.959 20.58C190.495 22.756 191.103 25.156 190.783 27.78C190.527 30.34 189.343 33.028 187.231 35.844C185.183 38.596 182.143 41.316 178.111 44.004C179.199 41.252 179.935 38.852 180.319 36.804C180.767 34.692 180.895 32.868 180.703 31.332C180.511 29.796 180.095 28.484 179.455 27.396C178.815 26.308 177.983 25.412 176.959 24.708C175.679 27.972 175.103 31.14 175.231 34.212C175.359 37.22 175.935 40.164 176.959 43.044C177.983 45.86 179.327 48.58 180.991 51.204C182.655 53.828 184.415 56.356 186.271 58.788C188.127 61.22 189.919 63.556 191.647 65.796C193.439 68.036 194.911 70.212 196.063 72.324C197.343 74.564 198.047 76.708 198.175 78.756C198.303 80.804 198.079 82.66 197.503 84.324C196.991 85.988 196.191 87.428 195.103 88.644C194.079 89.924 192.991 90.884 191.839 91.524C190.687 92.228 189.599 92.58 188.575 92.58C187.551 92.644 186.783 92.324 186.271 91.62C188.831 90.148 190.207 88.42 190.399 86.436C190.591 84.516 190.079 82.34 188.863 79.908C187.647 77.54 185.951 74.98 183.775 72.228C181.663 69.54 179.487 66.692 177.247 63.684C175.007 60.676 172.959 57.572 171.103 54.372C169.311 51.172 168.127 47.908 167.551 44.58C167.039 41.252 167.391 37.892 168.607 34.5C169.887 31.108 172.479 27.716 176.383 24.324C174.655 23.236 172.607 22.468 170.239 22.02C167.871 21.572 165.471 21.188 163.039 20.868V54.852C164.127 56.26 165.567 57.476 167.359 58.5C166.079 59.14 165.119 59.748 164.479 60.324C163.903 60.836 163.487 61.38 163.231 61.956C163.039 62.468 162.943 63.044 162.943 63.684C163.007 64.26 163.039 64.9 163.039 65.604C164.575 65.348 166.207 65.092 167.935 64.836C169.727 64.58 171.487 64.708 173.215 65.22C175.007 65.668 176.767 66.66 178.495 68.196C180.287 69.668 181.951 72.068 183.487 75.396C181.695 73.86 179.871 72.932 178.015 72.612C176.159 72.292 174.303 72.196 172.447 72.324C170.591 72.452 168.799 72.644 167.071 72.9C165.343 73.156 163.743 73.124 162.271 72.804C160.863 72.548 159.615 71.78 158.527 70.5C157.439 69.284 156.607 67.236 156.031 64.356ZM132.799 77.604C133.695 78.18 134.559 78.404 135.391 78.276C135.775 77.764 136.031 76.644 136.159 74.916C136.287 73.188 136.351 71.396 136.351 69.54C136.415 67.684 136.415 66.02 136.351 64.548C136.287 63.076 136.255 62.34 136.255 62.34C135.359 60.612 134.079 59.332 132.415 58.5C134.271 57.604 135.551 56.324 136.255 54.66L136.351 30.948C136.351 30.308 136.127 29.828 135.679 29.508C135.295 29.124 134.815 28.868 134.239 28.74C134.943 28.164 135.775 27.268 136.735 26.052C137.695 24.836 138.591 23.588 139.423 22.308C140.319 21.028 141.087 19.78 141.727 18.564C142.431 17.348 142.879 16.452 143.071 15.876V56.868H144.607V16.26C146.527 17.54 148.575 18.884 150.751 20.292C152.991 21.636 155.583 22.852 158.527 23.94C157.951 24.324 157.439 24.676 156.991 24.996C156.607 25.316 156.287 25.732 156.031 26.244C155.839 26.692 155.679 27.3 155.551 28.068C155.423 28.836 155.359 29.828 155.359 31.044V74.244C155.359 75.268 155.615 76.164 156.127 76.932C156.703 77.764 157.375 78.436 158.143 78.948C158.975 79.524 159.871 79.908 160.831 80.1C161.791 80.356 162.687 80.388 163.519 80.196C161.215 81.86 158.879 83.876 156.511 86.244C154.143 88.676 151.967 91.172 149.983 93.732C147.935 90.276 145.151 87.492 141.631 85.38C142.399 84.996 142.975 84.452 143.359 83.748C143.743 83.044 144.031 82.308 144.223 81.54C144.415 80.772 144.511 80.036 144.511 79.332C144.575 78.628 144.607 78.02 144.607 77.508V59.748H143.071V72.132C143.007 73.86 142.975 75.3 142.975 76.452C142.975 77.604 142.879 78.628 142.687 79.524C142.495 80.42 142.175 81.22 141.727 81.924C141.279 82.692 140.607 83.524 139.711 84.42L132.799 77.604ZM262.874 34.116C262.682 34.564 262.522 35.012 262.394 35.46C262.33 35.844 262.234 36.26 262.106 36.708C262.234 38.372 262.97 39.78 264.314 40.932C265.658 42.084 267.354 43.108 269.402 44.004C271.45 44.836 273.722 45.604 276.218 46.308C278.778 46.948 281.274 47.652 283.706 48.42C286.202 49.124 288.538 49.956 290.714 50.916C292.954 51.812 294.746 52.964 296.09 54.372C297.498 55.716 298.362 57.348 298.682 59.268C299.066 61.188 298.65 63.492 297.434 66.18C295.066 73.092 291.674 78.66 287.258 82.884C282.842 87.108 277.946 90.116 272.57 91.908C267.258 93.764 261.754 94.468 256.058 94.02C250.426 93.636 245.178 92.196 240.314 89.7V90.372C240.314 91.588 240.602 92.676 241.178 93.636C240.41 93.124 239.706 92.58 239.066 92.004C238.426 91.492 238.106 90.468 238.106 88.932V88.548C235.098 86.756 232.346 84.58 229.85 82.02C227.418 79.524 225.402 76.644 223.802 73.38C222.202 70.116 221.114 66.5 220.538 62.532C220.026 58.564 220.154 54.308 220.922 49.764C221.69 45.092 223.29 40.676 225.722 36.516C228.154 32.292 231.386 28.612 235.418 25.476L236.282 26.052C236.218 26.244 235.674 27.044 234.65 28.452C233.69 29.86 232.666 31.716 231.578 34.02C230.49 36.324 229.53 39.012 228.698 42.084C227.93 45.156 227.674 48.484 227.93 52.068H235.706C236.602 51.428 237.402 50.66 238.106 49.764V45.444V30.372C238.106 29.028 237.786 27.94 237.146 27.108C237.978 27.62 238.682 28.164 239.258 28.74C239.898 29.252 240.218 30.244 240.218 31.716V49.284C240.986 50.372 241.914 51.3 243.002 52.068H243.962V31.14C243.962 30.116 243.674 29.22 243.098 28.452C242.586 27.62 241.914 26.948 241.082 26.436C240.314 25.86 239.45 25.476 238.49 25.284C237.594 25.028 236.73 24.996 235.898 25.188C238.138 23.524 240.442 21.508 242.81 19.14C245.178 16.708 247.386 14.212 249.434 11.652C250.266 12.932 251.13 14.116 252.026 15.204C252.922 16.292 253.914 17.252 255.002 18.084C256.602 19.236 258.522 20.196 260.762 20.964C263.066 21.732 265.434 22.5 267.866 23.268C270.362 23.972 272.794 24.772 275.162 25.668C277.53 26.5 279.578 27.588 281.306 28.932C283.098 30.276 284.41 31.972 285.242 34.02C286.138 36.068 286.298 38.628 285.722 41.7C284.698 38.82 282.97 36.516 280.538 34.788C278.106 33.06 275.386 31.812 272.378 31.044C269.37 30.212 266.298 29.828 263.162 29.892C260.026 29.956 257.242 30.308 254.81 30.948V47.748C255.258 48.58 255.802 49.412 256.442 50.244C256.442 50.052 256.41 49.86 256.346 49.668C256.346 49.476 256.346 49.252 256.346 48.996C256.346 47.396 256.41 45.988 256.538 44.772C256.73 43.492 257.082 42.308 257.594 41.22C258.106 40.068 258.778 38.948 259.61 37.86C260.442 36.708 261.53 35.46 262.874 34.116ZM242.426 55.044C241.978 55.364 241.562 55.716 241.178 56.1C240.858 56.484 240.538 56.9 240.218 57.348V76.548C244.442 80.452 249.082 83.076 254.138 84.42C259.258 85.764 264.314 85.988 269.306 85.092C274.298 84.196 279.002 82.276 283.418 79.332C287.898 76.388 291.61 72.548 294.554 67.812C294.362 65.7 293.69 63.972 292.538 62.628C291.386 61.22 289.946 60.068 288.218 59.172C286.554 58.212 284.634 57.444 282.458 56.868C280.346 56.292 278.202 55.78 276.026 55.332C273.85 54.82 271.706 54.308 269.594 53.796C267.546 53.284 265.722 52.644 264.122 51.876C264.698 53.732 265.21 55.524 265.658 57.252C266.17 58.98 266.362 60.612 266.234 62.148C266.106 63.684 265.594 65.124 264.698 66.468C263.866 67.748 262.394 68.9 260.282 69.924C260.73 68.964 260.89 67.94 260.762 66.852C260.698 65.764 260.506 64.612 260.186 63.396C259.866 62.116 259.45 60.836 258.938 59.556C258.426 58.212 257.946 56.804 257.498 55.332C256.41 56.356 255.514 57.54 254.81 58.884V83.172C253.338 82.724 251.898 82.148 250.49 81.444C249.146 80.74 247.866 79.972 246.65 79.14C245.434 78.308 244.314 77.476 243.29 76.644C242.33 75.812 241.498 75.044 240.794 74.34C241.37 73.956 241.85 73.604 242.234 73.284C242.682 72.964 243.034 72.548 243.29 72.036C243.546 71.524 243.706 70.916 243.77 70.212C243.898 69.444 243.962 68.42 243.962 67.14V55.044H242.426ZM238.106 56.964C237.466 56.132 236.858 55.46 236.282 54.948H228.506H228.218C228.666 57.636 229.498 60.388 230.714 63.204C231.93 66.02 233.69 68.932 235.994 71.94C236.314 72.388 236.634 72.804 236.954 73.188C237.338 73.572 237.722 73.988 238.106 74.436V56.964ZM258.746 1.956C258.298 3.81199 258.682 5.348 259.898 6.564C261.114 7.78 262.81 8.868 264.986 9.828C267.226 10.788 269.754 11.684 272.57 12.516C275.386 13.348 278.17 14.276 280.922 15.3C283.738 16.324 286.33 17.54 288.698 18.948C291.13 20.292 293.018 21.988 294.362 24.036C295.706 26.02 296.346 28.452 296.282 31.332C296.218 34.212 295.098 37.636 292.922 41.604C292.73 38.724 291.994 36.292 290.714 34.308C289.434 32.26 287.802 30.5 285.818 29.028C283.898 27.556 281.722 26.34 279.29 25.38C276.922 24.356 274.49 23.46 271.994 22.692C269.562 21.924 267.162 21.22 264.794 20.58C262.49 19.876 260.442 19.108 258.65 18.276C256.666 17.38 255.194 16.324 254.234 15.108C253.338 13.892 252.762 12.644 252.506 11.364C252.314 10.084 252.378 8.836 252.698 7.62C253.082 6.34 253.594 5.252 254.234 4.356C254.938 3.46 255.674 2.788 256.442 2.34C257.274 1.828 258.042 1.7 258.746 1.956ZM298.236 83.556C298.685 82.468 299.261 81.444 299.965 80.484C300.733 79.588 301.693 78.948 302.845 78.564V56.196C302.205 55.044 301.245 54.116 299.965 53.412C301.181 52.772 302.141 51.812 302.845 50.532V9.444C302.845 7.77999 302.205 6.372 300.925 5.22C301.501 5.412 302.077 5.508 302.653 5.508C303.357 5.508 304.125 5.348 304.957 5.028C305.853 4.644 306.717 4.228 307.549 3.77999C308.445 3.268 309.277 2.788 310.045 2.34C310.813 1.828 311.453 1.41199 311.965 1.092C312.925 1.668 314.013 2.244 315.229 2.82C316.509 3.332 317.725 3.94 318.877 4.644C320.029 5.348 320.989 6.18 321.757 7.14C322.525 8.036 322.909 9.156 322.909 10.5C322.909 11.844 322.493 13.124 321.661 14.34C320.893 15.556 319.741 16.164 318.205 16.164C317.245 16.164 316.381 15.78 315.613 15.012C314.909 14.244 314.557 13.348 314.557 12.324C314.557 11.556 314.845 10.884 315.421 10.308C315.997 9.732 316.669 9.444 317.437 9.444C318.205 9.444 318.877 9.828 319.453 10.596L318.877 11.268C319.133 11.652 319.421 11.844 319.741 11.844C320.317 11.844 320.605 11.556 320.605 10.98C320.605 10.276 320.349 9.732 319.837 9.348C319.389 8.964 318.845 8.772 318.205 8.772C317.501 8.772 316.797 8.964 316.093 9.348C315.389 9.668 314.717 9.988 314.077 10.308V50.628C314.781 51.716 315.805 52.612 317.149 53.316C316.509 53.636 315.933 54.052 315.421 54.564C314.973 55.012 314.525 55.492 314.077 56.004V81.732C315.101 82.308 316.285 83.044 317.629 83.94C318.973 84.836 320.349 85.7 321.757 86.532C323.229 87.364 324.669 88.004 326.077 88.452C327.549 88.964 328.861 89.06 330.013 88.74C329.117 90.084 328.061 91.204 326.845 92.1C325.629 93.06 324.189 93.54 322.525 93.54C321.117 93.54 319.709 93.252 318.301 92.676C316.893 92.1 315.517 91.396 314.173 90.564C312.829 89.732 311.485 88.836 310.141 87.876C308.797 86.98 307.453 86.148 306.109 85.38C304.829 84.676 303.517 84.132 302.173 83.748C300.829 83.364 299.517 83.3 298.236 83.556ZM319.933 83.844C320.701 84.42 321.597 84.708 322.621 84.708C323.965 84.708 325.117 84.228 326.077 83.268C327.037 82.308 327.581 81.188 327.709 79.908C328.797 80.164 329.789 80.676 330.685 81.444C331.645 82.212 332.125 83.204 332.125 84.42C332.125 85.508 331.709 86.34 330.877 86.916C330.109 87.556 329.213 87.876 328.189 87.876C326.653 87.876 325.149 87.428 323.677 86.532C322.269 85.7 321.021 84.804 319.933 83.844ZM313.117 10.98L311.965 11.652V52.068L313.117 50.628V10.98ZM311.965 54.564V80.676L313.117 81.252V56.004C312.989 55.684 312.797 55.428 312.541 55.236C312.349 54.98 312.157 54.756 311.965 54.564ZM336.729 55.236C336.025 54.148 335.001 53.252 333.657 52.548C335.001 51.844 336.025 50.948 336.729 49.86V34.98L336.153 34.692L345.273 29.412C346.041 29.924 346.713 30.372 347.289 30.756C347.929 31.076 348.537 31.364 349.113 31.62C349.689 31.812 350.297 31.94 350.937 32.004C351.577 32.068 352.345 32.036 353.241 31.908C352.025 33.124 351.417 34.5 351.417 36.036V49.572C352.121 50.852 353.081 51.78 354.297 52.356C353.017 53.06 352.057 54.02 351.417 55.236V69.54C351.417 70.244 351.577 70.884 351.897 71.46C352.281 72.1 352.825 72.58 353.529 72.9C353.017 72.964 352.185 73.22 351.033 73.668C349.881 74.116 348.665 74.596 347.385 75.108C346.105 75.62 344.921 76.132 343.833 76.644C342.745 77.156 342.009 77.508 341.625 77.7C341.817 77.572 341.945 77.22 342.009 76.644C342.137 76.132 342.201 75.524 342.201 74.82C342.265 74.18 342.297 73.508 342.297 72.804C342.297 72.164 342.297 71.62 342.297 71.172C342.041 71.748 341.465 72.356 340.569 72.996C339.673 73.636 338.649 74.276 337.497 74.916C336.409 75.556 335.321 76.132 334.233 76.644C333.209 77.156 332.441 77.572 331.929 77.892C330.969 77.316 330.073 76.74 329.241 76.164C328.409 75.652 327.545 75.172 326.649 74.724C325.817 74.276 324.921 73.924 323.961 73.668C323.065 73.476 322.073 73.476 320.985 73.668C322.201 72.452 322.809 71.076 322.809 69.54V55.812C321.977 54.212 320.825 53.028 319.353 52.26C320.057 51.812 320.697 51.3 321.273 50.724C321.913 50.148 322.425 49.476 322.809 48.708V39.204C322.809 38.756 322.745 38.084 322.617 37.188C322.553 36.292 322.201 35.684 321.561 35.364C322.265 35.108 323.225 34.756 324.441 34.308C325.657 33.86 326.905 33.38 328.185 32.868C329.465 32.356 330.649 31.844 331.737 31.332C332.825 30.756 333.593 30.244 334.041 29.796C333.721 30.116 333.433 30.532 333.177 31.044C332.921 31.556 332.697 32.132 332.505 32.772C332.313 33.348 332.153 33.956 332.025 34.596C331.961 35.172 331.929 35.652 331.929 36.036V67.236C332.825 67.748 333.817 68.388 334.905 69.156C336.057 69.86 337.145 70.212 338.169 70.212C338.681 70.212 339.193 70.052 339.705 69.732C340.281 69.348 340.569 68.836 340.569 68.196C340.569 67.876 340.473 67.588 340.281 67.332C340.089 67.076 339.833 66.948 339.513 66.948C339.065 66.948 338.841 67.172 338.841 67.62L339.417 68.388C339.033 69.092 338.393 69.444 337.497 69.444C336.729 69.444 336.025 69.188 335.385 68.676C334.809 68.1 334.521 67.396 334.521 66.564C334.521 65.924 334.745 65.284 335.193 64.644C335.641 64.004 336.153 63.556 336.729 63.3V55.236ZM342.297 38.34L337.689 35.652V49.86C338.393 50.948 339.417 51.844 340.761 52.548C339.545 53.124 338.521 54.02 337.689 55.236V63.012L338.553 62.916C339.385 62.916 340.121 63.172 340.761 63.684C341.465 64.196 341.977 64.836 342.297 65.604V38.34ZM361.287 55.62C362.759 54.788 363.911 53.636 364.743 52.164V46.116C361.799 46.18 359.463 45.54 357.735 44.196C356.007 42.852 355.175 40.292 355.239 36.516C355.687 37.092 356.327 37.54 357.159 37.86C357.991 38.116 358.855 38.308 359.751 38.436C360.647 38.5 361.543 38.532 362.439 38.532C363.335 38.468 364.103 38.404 364.743 38.34V35.748C364.743 35.236 364.839 34.34 365.031 33.06C365.223 31.78 365.767 30.468 366.663 29.124C367.559 27.716 368.903 26.5 370.695 25.476C372.551 24.388 375.079 23.844 378.279 23.844C377.511 24.356 376.839 24.932 376.263 25.572C375.751 26.212 375.303 27.044 374.919 28.068C374.599 29.092 374.343 30.372 374.151 31.908C373.959 33.38 373.863 35.236 373.863 37.476C376.359 37.348 378.567 37.86 380.487 39.012C382.407 40.1 383.623 42.084 384.135 44.964C382.855 44.452 381.479 44.196 380.007 44.196C378.599 44.132 377.255 44.196 375.975 44.388V68.58C376.807 69.092 377.831 69.7 379.047 70.404C380.263 71.044 381.319 71.46 382.215 71.652C381.511 71.844 380.775 72.196 380.007 72.708C379.303 73.284 378.599 73.892 377.895 74.532C377.191 75.172 376.487 75.812 375.783 76.452C375.079 77.092 374.407 77.604 373.767 77.988C373.191 77.668 372.519 77.252 371.751 76.74C370.983 76.228 370.151 75.716 369.255 75.204C368.423 74.756 367.559 74.372 366.663 74.052C365.831 73.732 365.063 73.572 364.359 73.572C363.975 73.572 363.463 73.636 362.823 73.764C364.039 72.548 364.647 71.172 364.647 69.636V58.98C363.879 57.508 362.759 56.388 361.287 55.62ZM373.767 67.332L374.919 68.004V44.58L373.863 44.772L373.767 67.332ZM396.967 77.892C396.007 77.316 395.111 76.74 394.279 76.164C393.447 75.652 392.583 75.172 391.687 74.724C390.855 74.34 389.991 74.02 389.095 73.764C388.199 73.572 387.207 73.572 386.119 73.764C387.335 72.548 387.943 71.172 387.943 69.636V56.964C387.239 55.748 386.279 54.788 385.062 54.084C386.279 53.444 387.239 52.484 387.943 51.204V45.924C387.943 44.324 387.239 43.236 385.831 42.66L408.103 29.796C408.871 30.244 409.671 30.756 410.503 31.332C411.399 31.908 412.295 32.452 413.191 32.964C414.151 33.412 415.111 33.764 416.071 34.02C417.031 34.212 417.991 34.18 418.951 33.924C418.055 34.82 417.447 35.876 417.127 37.092C416.871 38.244 416.743 39.492 416.743 40.836C416.743 42.116 416.807 43.428 416.935 44.772C417.063 46.052 417.127 47.204 417.127 48.228L403.303 55.908V65.508L404.455 65.412C405.351 65.412 406.151 65.732 406.855 66.372C407.559 66.948 407.975 67.684 408.103 68.58V58.308L405.703 57.636L417.127 51.012C417.127 51.78 417.063 52.868 416.935 54.276C416.807 55.62 416.743 57.028 416.743 58.5C416.743 59.972 416.903 61.348 417.223 62.628C417.607 63.844 418.279 64.676 419.239 65.124C415.399 67.172 411.623 69.252 407.911 71.364C404.263 73.476 400.615 75.652 396.967 77.892ZM402.343 56.484L396.967 59.46V67.428C397.863 67.94 398.727 68.452 399.559 68.964C400.455 69.476 401.383 69.892 402.343 70.212V69.636C402.023 69.508 401.735 69.348 401.479 69.156C401.287 68.9 401.191 68.612 401.191 68.292C401.191 67.46 401.575 66.724 402.343 66.084V56.484ZM403.303 70.308C403.879 70.244 404.391 70.052 404.839 69.732C405.351 69.348 405.607 68.836 405.607 68.196C405.607 67.876 405.479 67.62 405.223 67.428C405.031 67.172 404.775 67.044 404.455 67.044C404.007 67.044 403.687 67.268 403.495 67.716C403.367 68.1 403.527 68.42 403.975 68.676L403.303 69.636V70.308ZM408.103 50.244V40.356L403.303 37.476V42.18C404.007 43.268 405.031 44.164 406.375 44.868C405.095 45.572 404.071 46.5 403.303 47.652V52.932L408.103 50.244ZM402.343 36.9C402.215 36.772 401.959 36.708 401.575 36.708C401.191 36.644 400.935 36.612 400.807 36.612C400.167 36.612 399.495 36.676 398.791 36.804C398.151 36.868 397.543 37.06 396.967 37.38V56.58L402.343 53.508V47.652C401.447 46.436 400.391 45.508 399.174 44.868C400.327 44.356 401.383 43.46 402.343 42.18V36.9ZM437.401 44.196V52.26C438.105 53.348 439.129 54.244 440.473 54.948C439.129 55.652 438.105 56.548 437.401 57.636V72.516L437.977 72.804L428.857 78.084C428.089 77.636 427.385 77.22 426.745 76.836C426.169 76.452 425.593 76.132 425.017 75.876C424.441 75.684 423.833 75.556 423.193 75.492C422.553 75.428 421.785 75.46 420.889 75.588C422.105 74.372 422.713 72.996 422.713 71.46V57.924C422.009 56.644 421.049 55.716 419.832 55.14C421.049 54.5 422.009 53.54 422.713 52.26V37.956C422.713 37.252 422.521 36.612 422.137 36.036C421.817 35.396 421.305 34.916 420.601 34.596C421.113 34.532 421.945 34.308 423.097 33.924C424.249 33.476 425.465 32.996 426.745 32.484C428.025 31.908 429.209 31.364 430.297 30.852C431.385 30.34 432.121 29.988 432.505 29.796C432.313 29.924 432.153 30.276 432.025 30.852C431.961 31.364 431.897 31.972 431.833 32.676C431.833 33.316 431.833 33.988 431.833 34.692C431.833 35.332 431.833 35.876 431.833 36.324C432.089 35.748 432.665 35.14 433.561 34.5C434.457 33.86 435.449 33.22 436.537 32.58C437.689 31.94 438.777 31.364 439.801 30.852C440.889 30.34 441.689 29.924 442.201 29.604C443.161 30.18 444.057 30.756 444.889 31.332C445.721 31.908 446.553 32.42 447.385 32.868C448.281 33.252 449.177 33.572 450.073 33.828C451.033 34.02 452.057 34.02 453.145 33.828C451.929 35.044 451.321 36.42 451.321 37.956V51.684C452.153 53.284 453.305 54.468 454.777 55.236C454.073 55.684 453.401 56.196 452.761 56.772C452.185 57.348 451.705 58.02 451.321 58.788V69.156C452.345 69.796 453.369 70.404 454.393 70.98C455.417 71.556 456.441 72.164 457.465 72.804L448.345 78.084C447.577 77.636 446.873 77.22 446.233 76.836C445.657 76.452 445.081 76.132 444.505 75.876C443.929 75.684 443.321 75.556 442.681 75.492C442.041 75.428 441.273 75.46 440.377 75.588C441.593 74.372 442.201 72.996 442.201 71.46V40.26C441.305 39.748 440.281 39.14 439.129 38.436C438.041 37.668 436.985 37.284 435.961 37.284C435.449 37.284 434.905 37.476 434.329 37.86C433.817 38.18 433.561 38.66 433.561 39.3C433.561 39.62 433.657 39.908 433.849 40.164C434.041 40.42 434.297 40.548 434.617 40.548C435.065 40.548 435.289 40.324 435.289 39.876L434.713 39.108C435.097 38.404 435.737 38.052 436.633 38.052C437.401 38.052 438.073 38.34 438.649 38.916C439.289 39.428 439.609 40.1 439.609 40.932C439.609 41.572 439.385 42.212 438.937 42.852C438.489 43.492 437.977 43.94 437.401 44.196ZM431.833 41.892V69.156L436.441 71.844V57.636C435.737 56.548 434.713 55.652 433.369 54.948C434.585 54.372 435.609 53.476 436.441 52.26V44.484L435.577 44.58C434.745 44.58 433.977 44.324 433.273 43.812C432.633 43.3 432.153 42.66 431.833 41.892ZM502.003 83.556C504.243 82.404 506.291 81.956 508.147 82.212C510.067 82.468 511.507 83.108 512.467 84.132C513.491 85.22 513.939 86.532 513.811 88.068C513.747 89.668 512.851 91.204 511.123 92.676C510.419 91.012 509.299 89.828 507.763 89.124C506.291 88.42 504.691 88.068 502.963 88.068C501.235 88.068 499.571 88.356 497.971 88.932C496.371 89.572 495.091 90.404 494.131 91.428C494.067 91.556 494.003 91.652 493.939 91.716C493.875 91.78 493.811 91.876 493.747 92.004V91.908C493.619 92.036 493.555 92.132 493.555 92.196C493.555 92.132 493.555 92.068 493.555 92.004C493.619 92.004 493.651 91.972 493.651 91.908C491.667 89.348 489.491 86.884 487.123 84.516C484.755 82.148 482.451 80.132 480.211 78.468C481.043 78.66 481.939 78.628 482.898 78.372C483.859 78.18 484.723 77.796 485.491 77.22C486.323 76.708 486.995 76.036 487.507 75.204C488.083 74.436 488.371 73.54 488.371 72.516V61.668C487.091 59.172 485.267 57.348 482.898 56.196C485.267 54.98 487.091 53.156 488.371 50.724V36.996C488.371 35.78 488.307 34.788 488.179 34.02C488.051 33.252 487.859 32.612 487.603 32.1C487.411 31.588 487.091 31.172 486.643 30.852C486.259 30.532 485.779 30.18 485.203 29.796C488.147 28.772 490.707 27.588 492.883 26.244C495.123 24.836 497.203 23.492 499.123 22.212V54.756H501.139V24.42V20.58C498.579 21.668 496.051 22.66 493.555 23.556C491.059 24.388 488.659 25.028 486.355 25.476C484.051 25.86 481.906 25.956 479.923 25.764C477.939 25.508 476.21 24.804 474.738 23.652C473.202 22.436 471.954 20.708 470.994 18.468C469.97 16.164 469.33 13.156 469.074 9.444C470.034 9.956 471.154 10.148 472.434 10.02C473.65 9.892 474.866 9.54 476.082 8.964C477.235 8.324 478.227 7.492 479.059 6.46799C479.955 5.38 480.467 4.164 480.595 2.82C482.003 3.396 483.027 4.1 483.667 4.932C484.371 5.7 484.787 6.532 484.915 7.428C485.043 8.26 484.979 9.06 484.723 9.828C484.467 10.596 484.115 11.236 483.667 11.748C482.963 12.58 481.971 13.22 480.691 13.668C479.411 14.052 478.067 14.212 476.659 14.148C478.579 14.724 480.563 14.98 482.611 14.916C484.659 14.788 486.707 14.436 488.755 13.86C490.867 13.284 492.947 12.58 494.995 11.748C497.043 10.852 499.059 9.924 501.043 8.964V5.7C501.043 4.42 500.755 3.332 500.179 2.436C500.947 2.948 501.651 3.492 502.291 4.068C502.931 4.58 503.251 5.572 503.251 7.044V7.908C505.299 6.948 507.219 6.052 509.011 5.22C510.867 4.388 512.595 3.716 514.195 3.204C516.691 2.5 518.899 2.34 520.819 2.724C522.739 3.108 524.371 3.812 525.715 4.836C527.123 5.796 528.275 6.948 529.171 8.292C530.131 9.636 530.867 10.916 531.379 12.132V12.036C531.891 13.06 532.339 14.276 532.723 15.684C533.171 17.092 533.427 18.532 533.491 20.004C533.555 21.476 533.395 22.884 533.01 24.228C532.691 25.572 532.051 26.692 531.091 27.588C529.107 29.38 527.187 30.18 525.331 29.988C523.539 29.732 521.843 28.868 520.243 27.396C519.411 26.564 518.739 25.636 518.227 24.612C517.779 23.524 517.523 22.436 517.459 21.348C517.459 20.196 517.683 19.14 518.131 18.18C518.579 17.156 519.283 16.292 520.243 15.588C521.651 14.628 522.931 14.34 524.083 14.724C525.299 15.108 526.163 15.748 526.675 16.644C527.187 17.54 527.315 18.5 527.059 19.524C526.803 20.484 525.971 21.092 524.562 21.348C524.755 20.516 524.691 19.812 524.371 19.236C524.115 18.596 523.731 18.148 523.219 17.892C522.771 17.572 522.259 17.444 521.683 17.508C521.171 17.508 520.723 17.732 520.339 18.18C519.635 19.012 519.411 19.812 519.667 20.58C519.923 21.284 520.435 21.924 521.203 22.5C521.971 23.012 522.931 23.364 524.083 23.556C525.235 23.748 526.355 23.716 527.443 23.46C528.595 23.204 529.459 22.596 530.035 21.636C530.675 20.676 531.059 19.652 531.187 18.564C531.379 17.476 531.315 16.452 530.995 15.492C530.675 14.468 530.131 13.796 529.363 13.476C527.827 12.836 526.067 12.612 524.083 12.804C522.163 12.932 520.051 13.348 517.747 14.052C515.507 14.692 513.139 15.524 510.643 16.548C508.211 17.572 505.747 18.596 503.251 19.62V25.956C504.211 27.428 505.331 28.996 506.611 30.66C507.891 32.26 508.979 33.412 509.875 34.116C509.299 34.244 508.819 34.468 508.435 34.788C508.051 35.108 507.859 35.556 507.859 36.132V47.94C509.971 44.42 512.307 42.116 514.867 41.028C517.427 39.94 519.667 39.716 521.587 40.356C523.571 40.932 524.915 42.212 525.619 44.196C526.387 46.116 525.971 48.356 524.371 50.916C523.283 49.7 522.035 48.868 520.627 48.42C519.219 47.972 517.747 47.844 516.211 48.036C514.739 48.228 513.267 48.676 511.795 49.38C510.323 50.084 509.011 50.916 507.859 51.876V71.94C507.859 72.388 507.891 72.964 507.955 73.668C508.019 74.436 508.307 75.108 508.819 75.684C509.651 75.812 510.515 75.588 511.411 75.012L504.499 81.444C503.411 80.356 502.643 79.396 502.195 78.564C501.747 77.796 501.459 76.836 501.331 75.684C501.203 75.172 501.139 74.628 501.139 74.052V71.46C501.139 71.268 501.139 71.044 501.139 70.788C501.139 70.532 501.107 70.276 501.043 70.02C501.043 67.972 501.043 65.924 501.043 63.876C501.107 61.764 501.139 59.684 501.139 57.636H499.123L499.219 75.78C499.219 76.228 499.219 76.804 499.219 77.508C499.283 78.212 499.379 78.948 499.507 79.716C499.699 80.484 499.987 81.22 500.371 81.924C500.755 82.628 501.299 83.172 502.003 83.556ZM550.585 37.764C551.417 37.252 552.281 36.836 553.177 36.516C554.137 36.132 555.097 35.94 556.057 35.94C556.825 35.94 557.529 36.164 558.169 36.612C558.873 36.996 559.225 37.636 559.225 38.532C559.225 39.492 558.841 40.228 558.073 40.74C557.305 41.252 556.473 41.508 555.577 41.508C555.641 40.42 555.321 39.492 554.617 38.724C553.913 37.892 553.017 37.476 551.929 37.476C551.737 37.476 551.513 37.508 551.257 37.572C551.001 37.636 550.777 37.7 550.585 37.764ZM531.001 41.604C530.489 40.964 530.009 40.356 529.561 39.78C529.113 39.14 528.633 38.532 528.12 37.956C528.953 38.532 529.945 38.82 531.097 38.82C532.761 38.82 534.393 38.372 535.993 37.476C537.657 36.516 539.321 35.492 540.984 34.404C542.649 33.252 544.313 32.228 545.977 31.332C547.705 30.372 549.465 29.892 551.257 29.892C553.305 29.892 555.001 30.596 556.345 32.004C557.689 33.412 558.809 34.948 559.705 36.612C558.617 35.716 557.337 35.268 555.865 35.268C554.713 35.268 553.529 35.524 552.312 36.036C551.161 36.484 550.009 37.06 548.857 37.764C547.705 38.404 546.585 39.108 545.497 39.876C544.409 40.644 543.385 41.316 542.424 41.892V51.3C543.257 52.516 544.281 53.412 545.497 53.988C544.153 54.692 543.129 55.588 542.424 56.676V68.868C543.577 69.636 544.857 70.02 546.265 70.02L546.745 69.924C545.529 71.332 544.377 72.612 543.289 73.764C542.201 74.98 541.145 76.388 540.121 77.988C539.481 77.604 538.777 77.156 538.009 76.644C537.305 76.196 536.537 75.716 535.705 75.204C534.873 74.756 534.041 74.372 533.209 74.052C532.441 73.732 531.673 73.572 530.905 73.572C530.329 73.572 529.753 73.668 529.177 73.86C530.393 72.644 531.001 71.268 531.001 69.732V56.676C530.297 55.46 529.337 54.5 528.12 53.796C529.337 53.22 530.297 52.292 531.001 51.012V41.604ZM540.121 67.428L541.465 68.196V56.676C541.273 56.356 541.049 56.1 540.793 55.908C540.601 55.652 540.377 55.396 540.121 55.14V67.428ZM541.465 42.468L540.121 43.14V52.836C540.377 52.58 540.601 52.356 540.793 52.164C541.049 51.908 541.273 51.62 541.465 51.3V42.468ZM569.654 77.892C568.694 77.316 567.798 76.74 566.966 76.164C566.134 75.652 565.27 75.172 564.374 74.724C563.542 74.34 562.678 74.02 561.782 73.764C560.886 73.572 559.894 73.572 558.806 73.764C560.022 72.548 560.63 71.172 560.63 69.636V56.964C559.926 55.748 558.966 54.788 557.75 54.084C558.966 53.444 559.926 52.484 560.63 51.204V45.924C560.63 44.324 559.926 43.236 558.518 42.66L580.79 29.796C581.558 30.244 582.358 30.756 583.19 31.332C584.086 31.908 584.982 32.452 585.878 32.964C586.838 33.412 587.798 33.764 588.758 34.02C589.718 34.212 590.678 34.18 591.638 33.924C590.742 34.82 590.134 35.876 589.814 37.092C589.558 38.244 589.43 39.492 589.43 40.836C589.43 42.116 589.494 43.428 589.622 44.772C589.75 46.052 589.814 47.204 589.814 48.228L575.99 55.908V65.508L577.142 65.412C578.038 65.412 578.838 65.732 579.542 66.372C580.246 66.948 580.662 67.684 580.79 68.58V58.308L578.39 57.636L589.814 51.012C589.814 51.78 589.75 52.868 589.622 54.276C589.494 55.62 589.43 57.028 589.43 58.5C589.43 59.972 589.59 61.348 589.91 62.628C590.294 63.844 590.966 64.676 591.926 65.124C588.086 67.172 584.31 69.252 580.598 71.364C576.95 73.476 573.302 75.652 569.654 77.892ZM575.03 56.484L569.654 59.46V67.428C570.55 67.94 571.414 68.452 572.246 68.964C573.142 69.476 574.07 69.892 575.03 70.212V69.636C574.71 69.508 574.422 69.348 574.166 69.156C573.974 68.9 573.878 68.612 573.878 68.292C573.878 67.46 574.262 66.724 575.03 66.084V56.484ZM575.99 70.308C576.566 70.244 577.078 70.052 577.526 69.732C578.038 69.348 578.294 68.836 578.294 68.196C578.294 67.876 578.166 67.62 577.91 67.428C577.718 67.172 577.462 67.044 577.142 67.044C576.694 67.044 576.374 67.268 576.182 67.716C576.054 68.1 576.214 68.42 576.662 68.676L575.99 69.636V70.308ZM580.79 50.244V40.356L575.99 37.476V42.18C576.694 43.268 577.718 44.164 579.062 44.868C577.782 45.572 576.758 46.5 575.99 47.652V52.932L580.79 50.244ZM575.03 36.9C574.902 36.772 574.646 36.708 574.262 36.708C573.878 36.644 573.622 36.612 573.494 36.612C572.854 36.612 572.182 36.676 571.478 36.804C570.838 36.868 570.23 37.06 569.654 37.38V56.58L575.03 53.508V47.652C574.134 46.436 573.078 45.508 571.862 44.868C573.014 44.356 574.07 43.46 575.03 42.18V36.9ZM604.717 77.892C603.757 77.316 602.861 76.74 602.029 76.164C601.197 75.652 600.333 75.172 599.437 74.724C598.605 74.34 597.741 74.02 596.845 73.764C595.949 73.572 594.957 73.572 593.869 73.764C595.085 72.548 595.693 71.172 595.693 69.636V56.964C594.989 55.748 594.029 54.788 592.812 54.084C594.029 53.444 594.989 52.484 595.693 51.204V45.924C595.693 44.324 594.989 43.236 593.581 42.66L615.853 29.796C616.621 30.244 617.421 30.756 618.253 31.332C619.149 31.908 620.045 32.452 620.941 32.964C621.901 33.412 622.861 33.764 623.821 34.02C624.781 34.212 625.741 34.18 626.701 33.924C625.805 34.82 625.197 35.876 624.877 37.092C624.621 38.244 624.493 39.492 624.493 40.836C624.493 42.116 624.557 43.428 624.685 44.772C624.813 46.052 624.877 47.204 624.877 48.228L611.053 55.908V65.508L612.205 65.412C613.101 65.412 613.901 65.732 614.605 66.372C615.309 66.948 615.725 67.684 615.853 68.58V58.308L613.453 57.636L624.877 51.012C624.877 51.78 624.813 52.868 624.685 54.276C624.557 55.62 624.493 57.028 624.493 58.5C624.493 59.972 624.653 61.348 624.973 62.628C625.357 63.844 626.029 64.676 626.989 65.124C623.149 67.172 619.373 69.252 615.661 71.364C612.013 73.476 608.365 75.652 604.717 77.892ZM610.093 56.484L604.717 59.46V67.428C605.613 67.94 606.477 68.452 607.309 68.964C608.205 69.476 609.133 69.892 610.093 70.212V69.636C609.773 69.508 609.485 69.348 609.229 69.156C609.037 68.9 608.941 68.612 608.941 68.292C608.941 67.46 609.325 66.724 610.093 66.084V56.484ZM611.053 70.308C611.629 70.244 612.141 70.052 612.589 69.732C613.101 69.348 613.357 68.836 613.357 68.196C613.357 67.876 613.229 67.62 612.973 67.428C612.781 67.172 612.525 67.044 612.205 67.044C611.757 67.044 611.437 67.268 611.245 67.716C611.117 68.1 611.277 68.42 611.725 68.676L611.053 69.636V70.308ZM615.853 50.244V40.356L611.053 37.476V42.18C611.757 43.268 612.781 44.164 614.125 44.868C612.845 45.572 611.821 46.5 611.053 47.652V52.932L615.853 50.244ZM610.093 36.9C609.965 36.772 609.709 36.708 609.325 36.708C608.941 36.644 608.685 36.612 608.557 36.612C607.917 36.612 607.245 36.676 606.541 36.804C605.901 36.868 605.293 37.06 604.717 37.38V56.58L610.093 53.508V47.652C609.197 46.436 608.141 45.508 606.924 44.868C608.077 44.356 609.133 43.46 610.093 42.18V36.9Z" fill="#009FE3"/>
</svg>
