<svg width="525" height="73" viewBox="0 0 525 73" fill="none" xmlns="http://www.w3.org/2000/svg">
<path d="M37.19 35.3C38.31 32.4067 38.8933 30.0033 38.94 28.09C39.0333 26.1767 38.73 24.6367 38.03 23.47C37.33 22.2567 36.35 21.3467 35.09 20.74C33.83 20.0867 32.43 19.5967 30.89 19.27C29.35 18.9433 27.74 18.6867 26.06 18.5C24.4267 18.3133 22.8867 18.0567 21.44 17.73V34.6C22.28 35.72 23.33 36.63 24.59 37.33C24.5433 36.91 24.5433 36.4667 24.59 36C24.6367 35.4867 24.7533 34.95 24.94 34.39L28.16 26.62C27.6 28.44 27.6233 29.91 28.23 31.03C28.8833 32.1033 29.8867 32.99 31.24 33.69C32.5933 34.3433 34.18 34.88 36 35.3C37.8667 35.6733 39.7567 36.07 41.67 36.49C43.63 36.91 45.4733 37.4233 47.2 38.03C48.9733 38.6367 50.42 39.4767 51.54 40.55C52.7067 41.5767 53.4533 42.93 53.78 44.61C54.1067 46.29 53.78 48.4133 52.8 50.98C52.2867 52.1933 51.7267 53.5233 51.12 54.97C50.56 56.4167 50.0233 57.77 49.51 59.03C48.7633 60.85 47.4567 62.4833 45.59 63.93C43.77 65.3767 41.6 66.59 39.08 67.57C36.56 68.5967 33.7833 69.39 30.75 69.95C27.7167 70.51 24.6367 70.8133 21.51 70.86C21.6033 71.56 21.8133 72.1433 22.14 72.61C21.7667 72.3767 21.3933 72.1433 21.02 71.91C20.6933 71.6767 20.4133 71.3267 20.18 70.86C17.7533 70.8133 15.56 70.51 13.6 69.95C11.6867 69.39 9.98333 68.6667 8.49 67.78C6.99667 66.8933 5.71333 65.89 4.64 64.77C3.61333 63.65 2.79667 62.5067 2.19 61.34C1.49 59.9867 1.09333 58.7033 1 57.49C0.953333 56.2767 1.09333 55.0867 1.42 53.92C1.74667 52.8 2.19 51.6567 2.75 50.49C3.35667 49.2767 3.91667 48.04 4.43 46.78C4.57 49.1133 4.94333 51.2133 5.55 53.08C6.20333 54.9467 7.13667 56.5567 8.35 57.91C9.61 59.31 11.1733 60.43 13.04 61.27C14.9533 62.11 17.24 62.67 19.9 62.95V40.2C19.1533 39.22 18.36 38.4733 17.52 37.96V61.48C16.0733 60.5467 14.5333 59.5667 12.9 58.54C11.3133 57.56 9.44667 56.6733 7.3 55.88C7.72 55.6 8.07 55.3433 8.35 55.11C8.67667 54.8767 8.93333 54.5733 9.12 54.2C9.30667 53.8733 9.42333 53.4533 9.47 52.94C9.56333 52.38 9.61 51.6333 9.61 50.7V40.62C8.77 38.94 7.53333 37.7033 5.9 36.91C7.53333 36.07 8.77 34.81 9.61 33.13V28.58C9.61 27.8333 9.4 27.18 8.98 26.62C8.60667 26.0133 8.11667 25.5233 7.51 25.15C6.95 24.73 6.32 24.45 5.62 24.31C4.96667 24.1233 4.33667 24.1 3.73 24.24C5.36333 23.0267 7.04333 21.5567 8.77 19.83C10.4967 18.0567 12.1067 16.2367 13.6 14.37C15.0467 16.89 17.0767 18.92 19.69 20.46C19.13 20.74 18.71 21.1367 18.43 21.65C18.15 22.1633 17.94 22.7 17.8 23.26C17.66 23.82 17.5667 24.38 17.52 24.94C17.52 25.4533 17.52 25.8733 17.52 26.2V36.98C18.4533 36.3267 19.2467 35.58 19.9 34.74V17.31C18.8267 16.9833 17.7533 16.3533 16.68 15.42C15.6067 14.44 14.8133 13.2967 14.3 11.99C13.7867 10.6367 13.6933 9.16666 14.02 7.58C14.3467 5.94666 15.3733 4.31333 17.1 2.68C16.96 3.14667 16.9367 3.73 17.03 4.43C17.1233 5.13 17.2867 5.83 17.52 6.53C17.8 7.18333 18.1267 7.79 18.5 8.35C18.92 8.91 19.3867 9.30667 19.9 9.54C19.9 8.65333 19.9 7.76667 19.9 6.88C19.9 5.99333 19.6667 5.24666 19.2 4.64C19.8067 5.01333 20.2733 5.36333 20.6 5.69C20.9267 5.97 21.1367 6.29666 21.23 6.67C21.37 7.04333 21.44 7.51 21.44 8.07C21.44 8.63 21.44 9.33 21.44 10.17C22.7 10.9633 24.1 11.4533 25.64 11.64C27.2267 11.8267 28.8367 11.9433 30.47 11.99C32.15 11.99 33.7833 12.06 35.37 12.2C37.0033 12.2933 38.4967 12.6433 39.85 13.25C42.1367 14.3233 43.84 15.7 44.96 17.38C46.08 19.06 46.5467 20.9033 46.36 22.91C46.1733 24.9167 45.3333 26.9933 43.84 29.14C42.3467 31.2867 40.13 33.34 37.19 35.3ZM21.44 63.09C24.0067 63.23 26.6667 63.16 29.42 62.88C32.1733 62.6 34.81 62.11 37.33 61.41C39.8967 60.7567 42.2533 59.9167 44.4 58.89C46.5467 57.8633 48.3433 56.6733 49.79 55.32C49.3233 54.06 48.4367 53.15 47.13 52.59C45.8233 52.03 44.3067 51.61 42.58 51.33C40.8533 51.0033 39.01 50.7 37.05 50.42C35.1367 50.0933 33.3633 49.58 31.73 48.88C30.0967 48.1333 28.6967 47.06 27.53 45.66C26.41 44.2133 25.7567 42.2067 25.57 39.64C25.1033 39.0333 24.8 38.3333 24.66 37.54C23.3533 38.24 22.28 39.15 21.44 40.27V63.09ZM50.63 54.41C50.77 52.4033 50.3733 50.7933 49.44 49.58C48.5533 48.32 47.34 47.3167 45.8 46.57C44.26 45.8233 42.51 45.24 40.55 44.82C38.6367 44.3533 36.7233 43.91 34.81 43.49C32.8967 43.07 31.1233 42.6033 29.49 42.09C27.9033 41.5767 26.6667 40.83 25.78 39.85C26.3867 41.67 27.4367 43.0233 28.93 43.91C30.4233 44.7967 32.0567 45.45 33.83 45.87C35.6033 46.29 37.3767 46.57 39.15 46.71C40.97 46.8033 42.51 46.9667 43.77 47.2C44.9367 47.4333 45.9633 47.83 46.85 48.39C47.7367 48.95 48.46 49.6033 49.02 50.35C49.6267 51.05 50.0467 51.7967 50.28 52.59C50.5133 53.3367 50.56 54.0133 50.42 54.62L50.63 54.41ZM53.3534 63.02C53.6801 62.2267 54.1001 61.48 54.6134 60.78C55.1734 60.1267 55.8734 59.66 56.7134 59.38V43.07C56.2468 42.23 55.5468 41.5533 54.6134 41.04C55.5001 40.5733 56.2001 39.8733 56.7134 38.94V8.98C56.7134 7.76666 56.2468 6.74 55.3134 5.9C55.7334 6.04 56.1534 6.11 56.5734 6.11C57.0868 6.11 57.6468 5.99333 58.2534 5.76C58.9068 5.48 59.5368 5.17666 60.1434 4.85C60.7968 4.47667 61.4034 4.12667 61.9634 3.8C62.5234 3.42666 62.9901 3.12333 63.3634 2.89C64.0634 3.31 64.8568 3.73 65.7434 4.15C66.6768 4.52333 67.5634 4.96666 68.4034 5.48C69.2434 5.99333 69.9434 6.6 70.5034 7.3C71.0634 7.95333 71.3434 8.77 71.3434 9.75C71.3434 10.73 71.0401 11.6633 70.4334 12.55C69.8734 13.4367 69.0334 13.88 67.9134 13.88C67.2134 13.88 66.5834 13.6 66.0234 13.04C65.5101 12.48 65.2534 11.8267 65.2534 11.08C65.2534 10.52 65.4634 10.03 65.8834 9.61C66.3034 9.19 66.7934 8.98 67.3534 8.98C67.9134 8.98 68.4034 9.26 68.8234 9.82L68.4034 10.31C68.5901 10.59 68.8001 10.73 69.0334 10.73C69.4534 10.73 69.6634 10.52 69.6634 10.1C69.6634 9.58666 69.4768 9.19 69.1034 8.91C68.7768 8.63 68.3801 8.49 67.9134 8.49C67.4001 8.49 66.8868 8.63 66.3734 8.91C65.8601 9.14333 65.3701 9.37666 64.9034 9.61V39.01C65.4168 39.8033 66.1634 40.4567 67.1434 40.97C66.6768 41.2033 66.2568 41.5067 65.8834 41.88C65.5568 42.2067 65.2301 42.5567 64.9034 42.93V61.69C65.6501 62.11 66.5134 62.6467 67.4934 63.3C68.4734 63.9533 69.4768 64.5833 70.5034 65.19C71.5768 65.7967 72.6268 66.2633 73.6534 66.59C74.7268 66.9633 75.6834 67.0333 76.5234 66.8C75.8701 67.78 75.1001 68.5967 74.2134 69.25C73.3268 69.95 72.2768 70.3 71.0634 70.3C70.0368 70.3 69.0101 70.09 67.9834 69.67C66.9568 69.25 65.9534 68.7367 64.9734 68.13C63.9934 67.5233 63.0134 66.87 62.0334 66.17C61.0534 65.5167 60.0734 64.91 59.0934 64.35C58.1601 63.8367 57.2034 63.44 56.2234 63.16C55.2434 62.88 54.2868 62.8333 53.3534 63.02ZM69.1734 63.23C69.7334 63.65 70.3868 63.86 71.1334 63.86C72.1134 63.86 72.9534 63.51 73.6534 62.81C74.3534 62.11 74.7501 61.2933 74.8434 60.36C75.6368 60.5467 76.3601 60.92 77.0134 61.48C77.7134 62.04 78.0634 62.7633 78.0634 63.65C78.0634 64.4433 77.7601 65.05 77.1534 65.47C76.5934 65.9367 75.9401 66.17 75.1934 66.17C74.0734 66.17 72.9768 65.8433 71.9034 65.19C70.8768 64.5833 69.9668 63.93 69.1734 63.23ZM64.2034 10.1L63.3634 10.59V40.06L64.2034 39.01V10.1ZM63.3634 41.88V60.92L64.2034 61.34V42.93C64.1101 42.6967 63.9701 42.51 63.7834 42.37C63.6434 42.1833 63.5034 42.02 63.3634 41.88ZM80.6786 34.67V39.57C81.1919 40.3167 81.9153 40.97 82.8486 41.53C81.9153 42.09 81.1919 42.7433 80.6786 43.49V48.25H81.0986C81.9853 48.25 82.7086 48.5767 83.2686 49.23C83.8286 49.8833 84.1553 50.6067 84.2486 51.4V31.73C83.5953 31.3567 82.8719 30.9133 82.0786 30.4C81.2853 29.84 80.5153 29.56 79.7686 29.56C79.3486 29.56 78.9286 29.7 78.5086 29.98C78.1353 30.2133 77.9486 30.5867 77.9486 31.1C77.9486 31.2867 78.0186 31.4733 78.1586 31.66C78.2986 31.8467 78.4853 31.94 78.7186 31.94C79.0453 31.94 79.2086 31.7767 79.2086 31.45L78.7886 30.89C79.0686 30.3767 79.5353 30.12 80.1886 30.12C80.7486 30.12 81.2386 30.33 81.6586 30.75C82.1253 31.1233 82.3586 31.6133 82.3586 32.22C82.3586 32.7333 82.1953 33.2233 81.8686 33.69C81.5419 34.1567 81.1453 34.4833 80.6786 34.67ZM77.7386 41.53C78.5786 41.1567 79.3019 40.5033 79.9086 39.57V34.88H79.6286C78.6953 34.88 77.9486 34.5533 77.3886 33.9C76.8286 33.2467 76.4786 32.5 76.3386 31.66V51.33C76.9453 51.7033 77.6686 52.17 78.5086 52.73C79.3486 53.2433 80.1419 53.5 80.8886 53.5C81.3086 53.5 81.7053 53.3833 82.0786 53.15C82.4519 52.87 82.6386 52.4733 82.6386 51.96C82.6386 51.7733 82.5686 51.61 82.4286 51.47C82.2886 51.2833 82.1019 51.19 81.8686 51.19C81.5419 51.19 81.3786 51.3533 81.3786 51.68L81.7986 52.17C81.4253 52.6833 80.9586 52.94 80.3986 52.94C79.7919 52.94 79.2786 52.73 78.8586 52.31C78.4386 51.89 78.2286 51.4 78.2286 50.84C78.2286 50.3267 78.3919 49.8367 78.7186 49.37C79.0453 48.9033 79.4419 48.6 79.9086 48.46V43.49C79.3953 42.7433 78.6719 42.09 77.7386 41.53ZM84.3186 52.8C84.1786 53.6867 83.8053 54.4333 83.1986 55.04C82.5919 55.6933 81.8919 56.2533 81.0986 56.72C80.3053 57.1867 79.4653 57.6067 78.5786 57.98C77.7386 58.3533 76.9919 58.7267 76.3386 59.1C75.7786 58.7733 75.1719 58.4 74.5186 57.98C73.9119 57.56 73.2586 57.1633 72.5586 56.79C71.9053 56.4633 71.2053 56.2067 70.4586 56.02C69.7586 55.88 69.0586 55.9033 68.3586 56.09C68.7786 55.6233 69.1053 55.1567 69.3386 54.69C69.5719 54.2233 69.6886 53.6633 69.6886 53.01V46.43C69.4553 45.9633 69.1519 45.5667 68.7786 45.24C68.4519 44.8667 68.0786 44.5633 67.6586 44.33C68.5453 43.91 69.2219 43.21 69.6886 42.23V35.65C69.6886 35.1367 69.5486 34.67 69.2686 34.25C69.0353 33.7833 68.6619 33.4333 68.1486 33.2C68.4753 33.0133 68.9653 32.7333 69.6186 32.36C70.2719 31.94 70.9486 31.52 71.6486 31.1C72.3486 30.68 73.0019 30.33 73.6086 30.05C74.2619 29.7233 74.7519 29.56 75.0786 29.56C75.3119 29.56 75.5453 29.63 75.7786 29.77C76.0119 29.8633 76.1753 30.0267 76.2686 30.26C76.4086 29.3733 76.7586 28.6267 77.3186 28.02C77.9253 27.3667 78.6253 26.8067 79.4186 26.34C80.2586 25.8733 81.0986 25.4533 81.9386 25.08C82.8253 24.7067 83.5953 24.3333 84.2486 23.96C84.9486 24.38 85.6019 24.8 86.2086 25.22C86.8153 25.64 87.4219 26.0133 88.0286 26.34C88.6819 26.62 89.3353 26.8533 89.9886 27.04C90.6886 27.18 91.4353 27.18 92.2286 27.04C91.3419 27.9267 90.8986 28.93 90.8986 30.05V36.7C91.1319 37.12 91.4119 37.5167 91.7386 37.89C92.0653 38.2167 92.4619 38.4967 92.9286 38.73C91.9953 39.2433 91.3186 39.9433 90.8986 40.83V47.41C90.8986 47.9233 91.0153 48.4133 91.2486 48.88C91.5286 49.3 91.9253 49.6267 92.4386 49.86C92.1119 50.0467 91.6219 50.35 90.9686 50.77C90.3153 51.1433 89.6386 51.54 88.9386 51.96C88.2386 52.38 87.5619 52.7533 86.9086 53.08C86.3019 53.36 85.8353 53.5 85.5086 53.5C85.2753 53.5 85.0419 53.4533 84.8086 53.36C84.5753 53.22 84.4119 53.0333 84.3186 52.8ZM106.36 34.32V40.2C106.874 40.9933 107.62 41.6467 108.6 42.16C107.62 42.6733 106.874 43.3267 106.36 44.12V54.97L106.78 55.18L100.13 59.03C99.5704 58.7033 99.0571 58.4 98.5904 58.12C98.1704 57.84 97.7504 57.6067 97.3304 57.42C96.9104 57.28 96.4671 57.1867 96.0004 57.14C95.5337 57.0933 94.9737 57.1167 94.3204 57.21C95.2071 56.3233 95.6504 55.32 95.6504 54.2V44.33C95.1371 43.3967 94.4371 42.72 93.5504 42.3C94.4371 41.8333 95.1371 41.1333 95.6504 40.2V29.77C95.6504 29.2567 95.5104 28.79 95.2304 28.37C94.9971 27.9033 94.6237 27.5533 94.1104 27.32C94.4837 27.2733 95.0904 27.11 95.9304 26.83C96.7704 26.5033 97.6571 26.1533 98.5904 25.78C99.5237 25.36 100.387 24.9633 101.18 24.59C101.974 24.2167 102.51 23.96 102.79 23.82C102.65 23.9133 102.534 24.17 102.44 24.59C102.394 24.9633 102.347 25.4067 102.3 25.92C102.3 26.3867 102.3 26.8767 102.3 27.39C102.3 27.8567 102.3 28.2533 102.3 28.58C102.487 28.16 102.907 27.7167 103.56 27.25C104.214 26.7833 104.937 26.3167 105.73 25.85C106.57 25.3833 107.364 24.9633 108.11 24.59C108.904 24.2167 109.487 23.9133 109.86 23.68C110.56 24.1 111.214 24.52 111.82 24.94C112.427 25.36 113.034 25.7333 113.64 26.06C114.294 26.34 114.947 26.5733 115.6 26.76C116.3 26.9 117.047 26.9 117.84 26.76C116.954 27.6467 116.51 28.65 116.51 29.77V39.78C117.117 40.9467 117.957 41.81 119.03 42.37C118.517 42.6967 118.027 43.07 117.56 43.49C117.14 43.91 116.79 44.4 116.51 44.96V52.52C117.257 52.9867 118.004 53.43 118.75 53.85C119.497 54.27 120.244 54.7133 120.99 55.18L114.34 59.03C113.78 58.7033 113.267 58.4 112.8 58.12C112.38 57.84 111.96 57.6067 111.54 57.42C111.12 57.28 110.677 57.1867 110.21 57.14C109.744 57.0933 109.184 57.1167 108.53 57.21C109.417 56.3233 109.86 55.32 109.86 54.2V31.45C109.207 31.0767 108.46 30.6333 107.62 30.12C106.827 29.56 106.057 29.28 105.31 29.28C104.937 29.28 104.54 29.42 104.12 29.7C103.747 29.9333 103.56 30.2833 103.56 30.75C103.56 30.9833 103.63 31.1933 103.77 31.38C103.91 31.5667 104.097 31.66 104.33 31.66C104.657 31.66 104.82 31.4967 104.82 31.17L104.4 30.61C104.68 30.0967 105.147 29.84 105.8 29.84C106.36 29.84 106.85 30.05 107.27 30.47C107.737 30.8433 107.97 31.3333 107.97 31.94C107.97 32.4067 107.807 32.8733 107.48 33.34C107.154 33.8067 106.78 34.1333 106.36 34.32ZM102.3 32.64V52.52L105.66 54.48V44.12C105.147 43.3267 104.4 42.6733 103.42 42.16C104.307 41.74 105.054 41.0867 105.66 40.2V34.53L105.03 34.6C104.424 34.6 103.864 34.4133 103.35 34.04C102.884 33.6667 102.534 33.2 102.3 32.64ZM129.249 59.03C128.549 58.61 127.895 58.19 127.289 57.77C126.682 57.3967 126.052 57.0467 125.399 56.72C124.792 56.44 124.139 56.2067 123.439 56.02C122.785 55.88 122.062 55.88 121.269 56.02C122.155 55.1333 122.599 54.13 122.599 53.01V43.56C122.179 42.6733 121.502 41.9733 120.569 41.46C121.502 41.04 122.179 40.3633 122.599 39.43V33.27C122.599 32.7567 122.459 32.29 122.179 31.87C121.945 31.45 121.595 31.1233 121.129 30.89L137.649 23.26V10.31C137.649 9.28333 137.229 8.53666 136.389 8.07C135.595 7.55666 134.755 7.20666 133.869 7.02L140.029 3.03C140.962 3.59 141.849 4.10333 142.689 4.57C143.575 5.03666 144.625 5.13 145.839 4.85C144.952 5.73666 144.509 6.74 144.509 7.86C144.509 9.91333 144.485 12.34 144.439 15.14C144.439 17.8933 144.439 20.74 144.439 23.68C144.439 26.62 144.415 29.49 144.369 32.29C144.369 35.0433 144.369 37.4467 144.369 39.5C144.929 40.4333 145.605 41.0867 146.399 41.46C145.465 42.02 144.765 42.6967 144.299 43.49V51.96C144.299 52.4733 144.439 52.9633 144.719 53.43C144.999 53.85 145.372 54.1767 145.839 54.41C144.345 54.97 142.922 55.6233 141.569 56.37C140.215 57.1633 138.932 58.0733 137.719 59.1C137.719 56.5333 137.719 53.8733 137.719 51.12C137.719 48.32 137.719 45.4967 137.719 42.65C137.719 39.8033 137.695 37.0033 137.649 34.25C137.649 31.45 137.649 28.7667 137.649 26.2L133.309 29.63V39.36C133.542 39.78 133.845 40.1533 134.219 40.48C134.639 40.8067 135.059 41.0867 135.479 41.32C134.545 41.88 133.822 42.5333 133.309 43.28V48.25L134.009 48.18C135.222 48.18 136.062 48.6467 136.529 49.58C136.995 50.5133 137.229 51.4933 137.229 52.52C137.229 53.4067 136.925 54.1767 136.319 54.83C135.712 55.4833 134.989 56.0667 134.149 56.58C133.309 57.0933 132.422 57.5367 131.489 57.91C130.602 58.33 129.855 58.7033 129.249 59.03ZM132.539 30.19L129.249 32.71V51.33C129.902 51.7033 130.625 52.17 131.419 52.73C132.259 53.2433 133.029 53.5 133.729 53.5C134.149 53.5 134.545 53.36 134.919 53.08C135.339 52.8 135.549 52.4267 135.549 51.96C135.549 51.7267 135.479 51.54 135.339 51.4C135.245 51.2133 135.082 51.12 134.849 51.12C134.475 51.12 134.289 51.2833 134.289 51.61L134.709 52.17C134.429 52.6833 133.962 52.94 133.309 52.94C132.749 52.94 132.235 52.7533 131.769 52.38C131.349 51.96 131.139 51.4467 131.139 50.84C131.139 50.3733 131.279 49.93 131.559 49.51C131.839 49.09 132.165 48.7633 132.539 48.53V43.28C132.025 42.5333 131.302 41.88 130.369 41.32C131.209 40.9467 131.932 40.2933 132.539 39.36V30.19ZM156.243 58.89C155.543 58.47 154.889 58.05 154.283 57.63C153.676 57.2567 153.046 56.9067 152.393 56.58C151.786 56.3 151.156 56.0667 150.503 55.88C149.849 55.74 149.126 55.74 148.333 55.88C149.219 54.9933 149.663 53.99 149.663 52.87V43.63C149.149 42.7433 148.449 42.0433 147.562 41.53C148.449 41.0633 149.149 40.3633 149.663 39.43V35.58C149.663 34.4133 149.149 33.62 148.123 33.2L164.363 23.82C164.923 24.1467 165.506 24.52 166.113 24.94C166.766 25.36 167.419 25.7567 168.073 26.13C168.773 26.4567 169.473 26.7133 170.173 26.9C170.873 27.04 171.573 27.0167 172.273 26.83C171.619 27.4833 171.176 28.2533 170.943 29.14C170.756 29.98 170.663 30.89 170.663 31.87C170.663 32.8033 170.709 33.76 170.803 34.74C170.896 35.6733 170.943 36.5133 170.943 37.26L160.863 42.86V49.86L161.703 49.79C162.356 49.79 162.939 50.0233 163.453 50.49C163.966 50.91 164.269 51.4467 164.363 52.1V44.61L162.613 44.12L170.943 39.29C170.943 39.85 170.896 40.6433 170.803 41.67C170.709 42.65 170.663 43.6767 170.663 44.75C170.663 45.8233 170.779 46.8267 171.013 47.76C171.293 48.6467 171.783 49.2533 172.483 49.58C169.683 51.0733 166.929 52.59 164.223 54.13C161.563 55.67 158.903 57.2567 156.243 58.89ZM160.163 43.28L156.243 45.45V51.26C156.896 51.6333 157.526 52.0067 158.133 52.38C158.786 52.7533 159.463 53.0567 160.163 53.29V52.87C159.929 52.7767 159.719 52.66 159.533 52.52C159.393 52.3333 159.323 52.1233 159.323 51.89C159.323 51.2833 159.603 50.7467 160.163 50.28V43.28ZM160.863 53.36C161.283 53.3133 161.656 53.1733 161.983 52.94C162.356 52.66 162.543 52.2867 162.543 51.82C162.543 51.5867 162.449 51.4 162.263 51.26C162.123 51.0733 161.936 50.98 161.703 50.98C161.376 50.98 161.143 51.1433 161.003 51.47C160.909 51.75 161.026 51.9833 161.353 52.17L160.863 52.87V53.36ZM164.363 38.73V31.52L160.863 29.42V32.85C161.376 33.6433 162.123 34.2967 163.103 34.81C162.169 35.3233 161.423 36 160.863 36.84V40.69L164.363 38.73ZM160.163 29C160.069 28.9067 159.883 28.86 159.603 28.86C159.323 28.8133 159.136 28.79 159.043 28.79C158.576 28.79 158.086 28.8367 157.573 28.93C157.106 28.9767 156.663 29.1167 156.243 29.35V43.35L160.163 41.11V36.84C159.509 35.9533 158.739 35.2767 157.852 34.81C158.693 34.4367 159.463 33.7833 160.163 32.85V29ZM255.373 64.91C254.16 65.6567 253.016 66.52 251.943 67.5C250.916 68.48 250.006 69.5767 249.213 70.79C247.766 69.0167 246.226 67.3133 244.593 65.68C242.96 64.0933 241.21 62.6233 239.343 61.27C239.95 61.3633 240.603 61.34 241.303 61.2C242.003 61.06 242.656 60.8033 243.263 60.43C243.87 60.1033 244.36 59.66 244.733 59.1C245.106 58.54 245.293 57.8867 245.293 57.14V38.94C244.92 39.8733 244.336 40.6667 243.543 41.32C242.796 41.9733 241.933 42.5567 240.953 43.07C240.02 43.5833 239.063 44.05 238.083 44.47C237.103 44.89 236.193 45.2867 235.353 45.66V49.65C235.773 50.21 236.263 50.7 236.823 51.12C237.383 51.54 237.966 51.9367 238.573 52.31C237.266 52.9633 236.193 53.85 235.353 54.97C235.353 55.95 235.306 57.07 235.213 58.33C235.166 59.6367 235.446 60.7333 236.053 61.62C235.306 61.2 234.77 60.78 234.443 60.36C234.116 59.9867 233.906 59.5433 233.813 59.03C233.72 58.5633 233.696 58.0033 233.743 57.35C233.79 56.7433 233.813 56.0433 233.813 55.25C233.02 54.0367 231.9 53.0567 230.453 52.31C231.9 51.5633 233.02 50.5833 233.813 49.37V46.5C231.853 47.5733 230.266 48.8333 229.053 50.28C227.84 51.7267 227.046 53.57 226.673 55.81C226.253 54.7367 225.88 53.64 225.553 52.52C225.273 51.3533 225.133 50.1633 225.133 48.95C225.133 47.5967 225.366 46.43 225.833 45.45C226.346 44.47 227 43.63 227.793 42.93C228.633 42.1833 229.566 41.5533 230.593 41.04C231.62 40.48 232.693 39.9433 233.813 39.43V37.89C232.88 38.31 231.806 38.8 230.593 39.36C229.426 39.92 228.306 40.5733 227.233 41.32C226.16 42.02 225.203 42.8367 224.363 43.77C223.57 44.6567 223.08 45.6833 222.893 46.85L222.333 45.31V55.46C222.333 57.42 222.333 59.03 222.333 60.29C222.333 61.5967 222.216 62.7633 221.983 63.79C221.75 64.8633 221.353 65.9367 220.793 67.01C220.28 68.0833 219.463 69.3433 218.343 70.79L211.483 64.91C212.416 64.35 213.14 63.4867 213.653 62.32C214.166 61.1533 214.423 60.0333 214.423 58.96V45.59C214.096 44.8433 213.653 44.1667 213.093 43.56L213.023 54.48C213.023 55.8333 212.953 57.14 212.813 58.4C212.72 59.7067 212.346 60.99 211.693 62.25L211.763 62.18H211.833L211.623 62.32C211.436 62.6933 211.25 62.9967 211.063 63.23C210.923 63.4633 210.783 63.6967 210.643 63.93C210.503 64.1633 210.386 64.42 210.293 64.7C210.246 64.98 210.223 65.3533 210.223 65.82C210.223 66.7533 210.456 67.5467 210.923 68.2C211.39 68.8533 212.09 69.2967 213.023 69.53C212.696 69.9033 212.323 70.23 211.903 70.51C211.483 70.79 211.016 70.93 210.503 70.93C209.663 70.93 208.986 70.6033 208.473 69.95C207.96 69.2967 207.703 68.5733 207.703 67.78C207.703 66.9867 207.913 66.24 208.333 65.54C207.493 65.8667 206.56 66.03 205.533 66.03C204.413 66.03 203.386 65.82 202.453 65.4C201.566 64.98 200.796 64.3967 200.143 63.65C199.49 62.9033 198.976 62.04 198.603 61.06C198.276 60.1267 198.113 59.1233 198.113 58.05C198.113 57.1633 198.253 56.3 198.533 55.46C198.86 54.62 199.28 53.8733 199.793 53.22C200.353 52.5667 201.006 52.03 201.753 51.61C202.546 51.19 203.41 50.98 204.343 50.98C205.463 50.98 206.42 51.3767 207.213 52.17C208.053 52.9633 208.473 53.92 208.473 55.04C208.473 55.9267 208.193 56.6267 207.633 57.14C207.12 57.6533 206.443 57.91 205.603 57.91L204.833 57.84C204.973 56.9533 204.856 56.09 204.483 55.25C204.11 54.41 203.41 53.99 202.383 53.99C201.823 53.99 201.333 54.2 200.913 54.62C200.54 55.0867 200.353 55.6 200.353 56.16C200.353 56.72 200.563 57.2333 200.983 57.7C201.403 58.2133 201.893 58.6333 202.453 58.96C203.06 59.3333 203.69 59.6133 204.343 59.8C204.996 59.9867 205.58 60.08 206.093 60.08C207.12 60.08 208.1 59.87 209.033 59.45C210.013 59.0767 210.83 58.4933 211.483 57.7V42.16L210.363 41.53L211.483 40.9V18.29C211.483 17.3567 211.67 16.6567 212.043 16.19C212.463 15.7233 213.046 15.3033 213.793 14.93C213.326 15.5367 213.093 16.3067 213.093 17.24V39.5C213.606 38.8 214.073 38.1233 214.493 37.47V14.93C215.986 16.1433 217.55 17.24 219.183 18.22C220.863 19.2 222.683 19.8067 224.643 20.04C224.13 20.4133 223.71 21.02 223.383 21.86C223.103 22.7 222.87 23.61 222.683 24.59C222.543 25.5233 222.45 26.48 222.403 27.46C222.356 28.3933 222.333 29.14 222.333 29.7V39.64C222.753 38.7067 223.406 37.8667 224.293 37.12C225.226 36.3267 226.253 35.6267 227.373 35.02C228.493 34.4133 229.613 33.8533 230.733 33.34C231.9 32.8267 232.926 32.3367 233.813 31.87V18.36C233.813 17.9867 233.766 17.6133 233.673 17.24C233.58 16.82 233.393 16.4467 233.113 16.12C233.813 16.4933 234.35 16.9133 234.723 17.38C235.143 17.8 235.353 18.4533 235.353 19.34V31.03C236.846 30.1433 238.153 29.1167 239.273 27.95C240.393 26.7367 241.116 25.2433 241.443 23.47C241.91 24.2633 242.283 25.1033 242.563 25.99C242.89 26.83 243.053 27.7167 243.053 28.65C243.053 29.7233 242.796 30.7033 242.283 31.59C241.816 32.43 241.21 33.2 240.463 33.9C239.716 34.5533 238.876 35.16 237.943 35.72C237.056 36.2333 236.193 36.7 235.353 37.12V38.73C236.38 38.2633 237.36 37.75 238.293 37.19C239.273 36.63 240.136 36 240.883 35.3C241.676 34.5533 242.33 33.7367 242.843 32.85C243.403 31.9167 243.8 30.82 244.033 29.56C244.546 30.7267 244.966 31.87 245.293 32.99V17.52C245.293 17.1933 245.293 16.82 245.293 16.4C245.293 15.98 245.246 15.56 245.153 15.14C245.106 14.72 244.966 14.3467 244.733 14.02C244.546 13.6933 244.266 13.46 243.893 13.32C243.1 13.6467 242.26 13.88 241.373 14.02C240.486 14.16 239.6 14.23 238.713 14.23C237.64 14.23 236.59 14.09 235.563 13.81C234.583 13.53 233.696 13.11 232.903 12.55C232.11 11.99 231.456 11.29 230.943 10.45C230.476 9.56333 230.243 8.51333 230.243 7.3C230.243 6.32 230.453 5.41 230.873 4.57C231.293 3.73 231.853 3.00667 232.553 2.4C233.253 1.74667 234.046 1.23333 234.933 0.859998C235.82 0.486664 236.73 0.299996 237.663 0.299996C238.363 0.299996 239.04 0.416663 239.693 0.649996C240.393 0.883329 241 1.23333 241.513 1.7C242.073 2.12 242.516 2.63333 242.843 3.24C243.216 3.84666 243.403 4.52333 243.403 5.27C243.403 6.15667 243.053 6.97333 242.353 7.72C241.7 8.46667 240.906 8.84 239.973 8.84C239.273 8.84 238.713 8.60667 238.293 8.14C237.873 7.67333 237.593 7.11333 237.453 6.46C238.106 6.36666 238.69 6.08667 239.203 5.62C239.763 5.15333 240.043 4.57 240.043 3.87C240.043 3.31 239.856 2.86666 239.483 2.54C239.11 2.16666 238.643 1.98 238.083 1.98C237.57 1.98 237.15 2.12 236.823 2.4C236.543 2.68 236.31 3.03 236.123 3.45C235.936 3.87 235.796 4.33666 235.703 4.85C235.656 5.31666 235.633 5.73666 235.633 6.11C235.633 7.79 236.216 9.21333 237.383 10.38C238.596 11.5467 240.043 12.13 241.723 12.13C242.563 12.13 243.38 11.99 244.173 11.71L244.243 11.64C245.876 10.9867 247.393 10.24 248.793 9.4C250.24 8.56 251.686 7.67333 253.133 6.74L253.203 32.29V32.22C254.09 33.9 255.326 35.16 256.913 36C255.28 36.84 254.043 38.0767 253.203 39.71V59.38C253.203 60.36 253.32 61.3867 253.553 62.46C253.786 63.58 254.393 64.3967 255.373 64.91ZM199.373 31.17C197.646 31.17 195.966 30.8433 194.333 30.19C192.7 29.5367 191.23 28.6267 189.923 27.46C188.663 26.2933 187.66 24.94 186.913 23.4C186.12 21.8133 185.723 20.1333 185.723 18.36C185.723 16.4933 186.143 14.72 186.983 13.04C187.823 11.3133 188.92 9.82 190.273 8.56C191.626 7.25333 193.19 6.22666 194.963 5.48C196.736 4.73333 198.533 4.36 200.353 4.36C202.126 4.36 203.806 4.68667 205.393 5.34C206.98 5.99333 208.426 6.90333 209.733 8.07C211.553 7.74333 213.28 7.97666 214.913 8.77C216.546 9.51666 218.18 10.45 219.813 11.57C221.446 12.6433 223.103 13.67 224.783 14.65C226.51 15.5833 228.33 16.05 230.243 16.05C231.783 16.05 233.16 15.5833 234.373 14.65C233.3 15.91 232.04 17.0067 230.593 17.94C229.146 18.8267 227.56 19.27 225.833 19.27C224.06 19.27 222.333 18.8733 220.653 18.08C219.02 17.24 217.433 16.33 215.893 15.35C214.353 14.3233 212.86 13.4133 211.413 12.62C210.013 11.78 208.683 11.36 207.423 11.36C206.49 11.36 205.673 11.64 204.973 12.2C204.973 11.7333 205.09 11.29 205.323 10.87C205.556 10.45 205.86 10.0767 206.233 9.75C206.606 9.42333 207.003 9.14333 207.423 8.91C207.89 8.67667 208.31 8.49 208.683 8.35C208.356 8.07 207.983 7.88333 207.563 7.79C207.19 7.69666 206.816 7.65 206.443 7.65C205.136 7.65 203.783 7.90666 202.383 8.42C201.03 8.93333 199.793 9.63333 198.673 10.52C197.553 11.36 196.62 12.3867 195.873 13.6C195.173 14.8133 194.823 16.12 194.823 17.52C194.823 18.64 195.056 19.7833 195.523 20.95C195.99 22.1167 196.62 23.1667 197.413 24.1C198.253 25.0333 199.21 25.8033 200.283 26.41C201.356 26.97 202.5 27.25 203.713 27.25C204.506 27.25 205.276 27.04 206.023 26.62C206.816 26.1533 207.213 25.4533 207.213 24.52C207.213 23.9133 207.05 23.33 206.723 22.77C206.443 22.21 206.046 21.72 205.533 21.3C205.066 20.8333 204.53 20.4833 203.923 20.25C203.363 19.97 202.78 19.83 202.173 19.83C201.8 19.83 201.45 19.8767 201.123 19.97C200.843 20.0633 200.54 20.18 200.213 20.32V19.55C200.213 18.29 200.61 17.2867 201.403 16.54C202.196 15.7467 203.2 15.35 204.413 15.35C206.14 15.35 207.586 15.9567 208.753 17.17C209.966 18.3367 210.573 19.7833 210.573 21.51C210.573 23.0033 210.246 24.3567 209.593 25.57C208.94 26.7367 208.076 27.74 207.003 28.58C205.93 29.42 204.716 30.0733 203.363 30.54C202.056 30.96 200.726 31.17 199.373 31.17ZM266.233 58.89C265.533 58.47 264.879 58.05 264.273 57.63C263.666 57.2567 263.036 56.9067 262.383 56.58C261.776 56.3 261.146 56.0667 260.493 55.88C259.839 55.74 259.116 55.74 258.323 55.88C259.209 54.9933 259.653 53.99 259.653 52.87V43.63C259.139 42.7433 258.439 42.0433 257.553 41.53C258.439 41.0633 259.139 40.3633 259.653 39.43V35.58C259.653 34.4133 259.139 33.62 258.113 33.2L274.353 23.82C274.913 24.1467 275.496 24.52 276.103 24.94C276.756 25.36 277.409 25.7567 278.063 26.13C278.763 26.4567 279.463 26.7133 280.163 26.9C280.863 27.04 281.563 27.0167 282.263 26.83C281.609 27.4833 281.166 28.2533 280.933 29.14C280.746 29.98 280.653 30.89 280.653 31.87C280.653 32.8033 280.699 33.76 280.793 34.74C280.886 35.6733 280.933 36.5133 280.933 37.26L270.853 42.86V49.86L271.693 49.79C272.346 49.79 272.929 50.0233 273.443 50.49C273.956 50.91 274.259 51.4467 274.353 52.1V44.61L272.603 44.12L280.933 39.29C280.933 39.85 280.886 40.6433 280.793 41.67C280.699 42.65 280.653 43.6767 280.653 44.75C280.653 45.8233 280.769 46.8267 281.003 47.76C281.283 48.6467 281.773 49.2533 282.473 49.58C279.673 51.0733 276.919 52.59 274.213 54.13C271.553 55.67 268.893 57.2567 266.233 58.89ZM270.153 43.28L266.233 45.45V51.26C266.886 51.6333 267.516 52.0067 268.123 52.38C268.776 52.7533 269.453 53.0567 270.153 53.29V52.87C269.919 52.7767 269.709 52.66 269.523 52.52C269.383 52.3333 269.313 52.1233 269.313 51.89C269.313 51.2833 269.593 50.7467 270.153 50.28V43.28ZM270.853 53.36C271.273 53.3133 271.646 53.1733 271.973 52.94C272.346 52.66 272.533 52.2867 272.533 51.82C272.533 51.5867 272.439 51.4 272.253 51.26C272.113 51.0733 271.926 50.98 271.693 50.98C271.366 50.98 271.133 51.1433 270.993 51.47C270.899 51.75 271.016 51.9833 271.343 52.17L270.853 52.87V53.36ZM274.353 38.73V31.52L270.853 29.42V32.85C271.366 33.6433 272.113 34.2967 273.093 34.81C272.159 35.3233 271.413 36 270.853 36.84V40.69L274.353 38.73ZM270.153 29C270.059 28.9067 269.873 28.86 269.593 28.86C269.313 28.8133 269.126 28.79 269.033 28.79C268.566 28.79 268.076 28.8367 267.563 28.93C267.096 28.9767 266.653 29.1167 266.233 29.35V43.35L270.153 41.11V36.84C269.499 35.9533 268.729 35.2767 267.843 34.81C268.683 34.4367 269.453 33.7833 270.153 32.85V29ZM281.4 63.02C281.727 62.2267 282.147 61.48 282.66 60.78C283.22 60.1267 283.92 59.66 284.76 59.38V43.07C284.294 42.23 283.594 41.5533 282.66 41.04C283.547 40.5733 284.247 39.8733 284.76 38.94V8.98C284.76 7.76666 284.294 6.74 283.36 5.9C283.78 6.04 284.2 6.11 284.62 6.11C285.134 6.11 285.694 5.99333 286.3 5.76C286.954 5.48 287.584 5.17666 288.19 4.85C288.844 4.47667 289.45 4.12667 290.01 3.8C290.57 3.42666 291.037 3.12333 291.41 2.89C292.11 3.31 292.904 3.73 293.79 4.15C294.724 4.52333 295.61 4.96666 296.45 5.48C297.29 5.99333 297.99 6.6 298.55 7.3C299.11 7.95333 299.39 8.77 299.39 9.75C299.39 10.73 299.087 11.6633 298.48 12.55C297.92 13.4367 297.08 13.88 295.96 13.88C295.26 13.88 294.63 13.6 294.07 13.04C293.557 12.48 293.3 11.8267 293.3 11.08C293.3 10.52 293.51 10.03 293.93 9.61C294.35 9.19 294.84 8.98 295.4 8.98C295.96 8.98 296.45 9.26 296.87 9.82L296.45 10.31C296.637 10.59 296.847 10.73 297.08 10.73C297.5 10.73 297.71 10.52 297.71 10.1C297.71 9.58666 297.524 9.19 297.15 8.91C296.824 8.63 296.427 8.49 295.96 8.49C295.447 8.49 294.934 8.63 294.42 8.91C293.907 9.14333 293.417 9.37666 292.95 9.61V39.01C293.464 39.8033 294.21 40.4567 295.19 40.97C294.724 41.2033 294.304 41.5067 293.93 41.88C293.604 42.2067 293.277 42.5567 292.95 42.93V61.69C293.697 62.11 294.56 62.6467 295.54 63.3C296.52 63.9533 297.524 64.5833 298.55 65.19C299.624 65.7967 300.674 66.2633 301.7 66.59C302.774 66.9633 303.73 67.0333 304.57 66.8C303.917 67.78 303.147 68.5967 302.26 69.25C301.374 69.95 300.324 70.3 299.11 70.3C298.084 70.3 297.057 70.09 296.03 69.67C295.004 69.25 294 68.7367 293.02 68.13C292.04 67.5233 291.06 66.87 290.08 66.17C289.1 65.5167 288.12 64.91 287.14 64.35C286.207 63.8367 285.25 63.44 284.27 63.16C283.29 62.88 282.334 62.8333 281.4 63.02ZM297.22 63.23C297.78 63.65 298.434 63.86 299.18 63.86C300.16 63.86 301 63.51 301.7 62.81C302.4 62.11 302.797 61.2933 302.89 60.36C303.684 60.5467 304.407 60.92 305.06 61.48C305.76 62.04 306.11 62.7633 306.11 63.65C306.11 64.4433 305.807 65.05 305.2 65.47C304.64 65.9367 303.987 66.17 303.24 66.17C302.12 66.17 301.024 65.8433 299.95 65.19C298.924 64.5833 298.014 63.93 297.22 63.23ZM292.25 10.1L291.41 10.59V40.06L292.25 39.01V10.1ZM291.41 41.88V60.92L292.25 61.34V42.93C292.157 42.6967 292.017 42.51 291.83 42.37C291.69 42.1833 291.55 42.02 291.41 41.88ZM299.174 63.02C299.5 62.2267 299.92 61.48 300.434 60.78C300.994 60.1267 301.694 59.66 302.534 59.38V43.07C302.067 42.23 301.367 41.5533 300.434 41.04C301.32 40.5733 302.02 39.8733 302.534 38.94V8.98C302.534 7.76666 302.067 6.74 301.134 5.9C301.554 6.04 301.974 6.11 302.394 6.11C302.907 6.11 303.467 5.99333 304.074 5.76C304.727 5.48 305.357 5.17666 305.964 4.85C306.617 4.47667 307.224 4.12667 307.784 3.8C308.344 3.42666 308.81 3.12333 309.184 2.89C309.884 3.31 310.677 3.73 311.564 4.15C312.497 4.52333 313.384 4.96666 314.224 5.48C315.064 5.99333 315.764 6.6 316.324 7.3C316.884 7.95333 317.164 8.77 317.164 9.75C317.164 10.73 316.86 11.6633 316.254 12.55C315.694 13.4367 314.854 13.88 313.734 13.88C313.034 13.88 312.404 13.6 311.844 13.04C311.33 12.48 311.074 11.8267 311.074 11.08C311.074 10.52 311.284 10.03 311.704 9.61C312.124 9.19 312.614 8.98 313.174 8.98C313.734 8.98 314.224 9.26 314.644 9.82L314.224 10.31C314.41 10.59 314.62 10.73 314.854 10.73C315.274 10.73 315.484 10.52 315.484 10.1C315.484 9.58666 315.297 9.19 314.924 8.91C314.597 8.63 314.2 8.49 313.734 8.49C313.22 8.49 312.707 8.63 312.194 8.91C311.68 9.14333 311.19 9.37666 310.724 9.61V39.01C311.237 39.8033 311.984 40.4567 312.964 40.97C312.497 41.2033 312.077 41.5067 311.704 41.88C311.377 42.2067 311.05 42.5567 310.724 42.93V61.69C311.47 62.11 312.334 62.6467 313.314 63.3C314.294 63.9533 315.297 64.5833 316.324 65.19C317.397 65.7967 318.447 66.2633 319.474 66.59C320.547 66.9633 321.504 67.0333 322.344 66.8C321.69 67.78 320.92 68.5967 320.034 69.25C319.147 69.95 318.097 70.3 316.884 70.3C315.857 70.3 314.83 70.09 313.804 69.67C312.777 69.25 311.774 68.7367 310.794 68.13C309.814 67.5233 308.834 66.87 307.854 66.17C306.874 65.5167 305.894 64.91 304.914 64.35C303.98 63.8367 303.024 63.44 302.044 63.16C301.064 62.88 300.107 62.8333 299.174 63.02ZM314.994 63.23C315.554 63.65 316.207 63.86 316.954 63.86C317.934 63.86 318.774 63.51 319.474 62.81C320.174 62.11 320.57 61.2933 320.664 60.36C321.457 60.5467 322.18 60.92 322.834 61.48C323.534 62.04 323.884 62.7633 323.884 63.65C323.884 64.4433 323.58 65.05 322.974 65.47C322.414 65.9367 321.76 66.17 321.014 66.17C319.894 66.17 318.797 65.8433 317.724 65.19C316.697 64.5833 315.787 63.93 314.994 63.23ZM310.024 10.1L309.184 10.59V40.06L310.024 39.01V10.1ZM309.184 41.88V60.92L310.024 61.34V42.93C309.93 42.6967 309.79 42.51 309.604 42.37C309.464 42.1833 309.324 42.02 309.184 41.88ZM323.176 58.89C322.476 58.47 321.823 58.05 321.216 57.63C320.609 57.2567 319.979 56.9067 319.326 56.58C318.719 56.3 318.089 56.0667 317.436 55.88C316.783 55.74 316.059 55.74 315.266 55.88C316.153 54.9933 316.596 53.99 316.596 52.87V43.63C316.083 42.7433 315.383 42.0433 314.496 41.53C315.383 41.0633 316.083 40.3633 316.596 39.43V35.58C316.596 34.4133 316.083 33.62 315.056 33.2L331.296 23.82C331.856 24.1467 332.439 24.52 333.046 24.94C333.699 25.36 334.353 25.7567 335.006 26.13C335.706 26.4567 336.406 26.7133 337.106 26.9C337.806 27.04 338.506 27.0167 339.206 26.83C338.553 27.4833 338.109 28.2533 337.876 29.14C337.689 29.98 337.596 30.89 337.596 31.87C337.596 32.8033 337.643 33.76 337.736 34.74C337.829 35.6733 337.876 36.5133 337.876 37.26L327.796 42.86V49.86L328.636 49.79C329.289 49.79 329.873 50.0233 330.386 50.49C330.899 50.91 331.203 51.4467 331.296 52.1V44.61L329.546 44.12L337.876 39.29C337.876 39.85 337.829 40.6433 337.736 41.67C337.643 42.65 337.596 43.6767 337.596 44.75C337.596 45.8233 337.713 46.8267 337.946 47.76C338.226 48.6467 338.716 49.2533 339.416 49.58C336.616 51.0733 333.863 52.59 331.156 54.13C328.496 55.67 325.836 57.2567 323.176 58.89ZM327.096 43.28L323.176 45.45V51.26C323.829 51.6333 324.459 52.0067 325.066 52.38C325.719 52.7533 326.396 53.0567 327.096 53.29V52.87C326.863 52.7767 326.653 52.66 326.466 52.52C326.326 52.3333 326.256 52.1233 326.256 51.89C326.256 51.2833 326.536 50.7467 327.096 50.28V43.28ZM327.796 53.36C328.216 53.3133 328.589 53.1733 328.916 52.94C329.289 52.66 329.476 52.2867 329.476 51.82C329.476 51.5867 329.383 51.4 329.196 51.26C329.056 51.0733 328.869 50.98 328.636 50.98C328.309 50.98 328.076 51.1433 327.936 51.47C327.843 51.75 327.959 51.9833 328.286 52.17L327.796 52.87V53.36ZM331.296 38.73V31.52L327.796 29.42V32.85C328.309 33.6433 329.056 34.2967 330.036 34.81C329.103 35.3233 328.356 36 327.796 36.84V40.69L331.296 38.73ZM327.096 29C327.003 28.9067 326.816 28.86 326.536 28.86C326.256 28.8133 326.069 28.79 325.976 28.79C325.509 28.79 325.019 28.8367 324.506 28.93C324.039 28.9767 323.596 29.1167 323.176 29.35V43.35L327.096 41.11V36.84C326.443 35.9533 325.673 35.2767 324.786 34.81C325.626 34.4367 326.396 33.7833 327.096 32.85V29ZM356.036 23.54C356.502 23.9133 357.039 24.38 357.646 24.94C358.252 25.4533 358.882 25.9667 359.536 26.48C360.189 26.9467 360.866 27.3433 361.566 27.67C362.312 27.95 363.059 28.0433 363.806 27.95C363.106 28.6033 362.709 29.2333 362.616 29.84C362.522 30.4 362.476 31.1467 362.476 32.08L356.036 35.02V31.59C355.896 31.4967 355.639 31.2867 355.266 30.96C354.939 30.6333 354.566 30.3067 354.146 29.98C353.772 29.6067 353.399 29.28 353.026 29C352.699 28.72 352.489 28.58 352.396 28.58V31.45C353.002 32.3367 353.749 32.99 354.636 33.41C353.656 33.9233 352.909 34.5767 352.396 35.37V38.38L363.736 33.2C363.456 33.8533 363.222 34.4133 363.036 34.88C362.849 35.3467 362.709 35.8133 362.616 36.28C362.569 36.7467 362.522 37.2367 362.476 37.75C362.476 38.2633 362.476 38.87 362.476 39.57C362.709 39.9433 362.989 40.2933 363.316 40.62C363.642 40.9467 364.016 41.2267 364.436 41.46C364.062 41.6933 363.689 41.9733 363.316 42.3C362.989 42.58 362.709 42.93 362.476 43.35V48.95C362.476 50.1167 362.966 51.05 363.946 51.75L348.126 58.96C347.659 58.5867 347.122 58.12 346.516 57.56C345.909 57.0467 345.256 56.5333 344.556 56.02C343.902 55.5533 343.202 55.1567 342.456 54.83C341.756 54.55 341.056 54.4567 340.356 54.55C341.149 53.8033 341.569 53.08 341.616 52.38C341.662 51.6333 341.686 50.77 341.686 49.79L348.126 46.85V50.91L351.696 53.15V50C351.089 49.1133 350.342 48.46 349.456 48.04C350.436 47.5267 351.182 46.8733 351.696 46.08V43.21L340.636 48.32C341.009 47.6667 341.266 46.8967 341.406 46.01C341.546 45.0767 341.639 44.26 341.686 43.56C341.172 42.6733 340.472 41.9733 339.586 41.46C340.426 41.04 341.126 40.34 341.686 39.36V33.55C341.686 32.99 341.546 32.4767 341.266 32.01C340.986 31.4967 340.636 31.0767 340.216 30.75L356.036 23.54ZM351.696 28.51H351.276C350.762 28.51 350.202 28.5567 349.596 28.65C349.036 28.6967 348.546 28.8367 348.126 29.07V40.34L351.696 38.73V35.37C351.089 34.4833 350.342 33.83 349.456 33.41C350.342 32.99 351.089 32.3367 351.696 31.45V28.51ZM352.396 53.57C352.722 53.7567 353.049 53.8733 353.376 53.92C353.749 53.9667 354.099 53.99 354.426 53.99C354.706 53.99 354.986 53.9667 355.266 53.92C355.546 53.8733 355.802 53.8033 356.036 53.71V41.25L352.396 42.86V46.08C353.002 46.9667 353.749 47.62 354.636 48.04C353.656 48.5533 352.909 49.2067 352.396 50V53.57ZM415.559 35.3C416.679 32.4067 417.262 30.0033 417.309 28.09C417.402 26.1767 417.099 24.6367 416.399 23.47C415.699 22.2567 414.719 21.3467 413.459 20.74C412.199 20.0867 410.799 19.5967 409.259 19.27C407.719 18.9433 406.109 18.6867 404.429 18.5C402.796 18.3133 401.256 18.0567 399.809 17.73V34.6C400.649 35.72 401.699 36.63 402.959 37.33C402.912 36.91 402.912 36.4667 402.959 36C403.006 35.4867 403.122 34.95 403.309 34.39L406.529 26.62C405.969 28.44 405.992 29.91 406.599 31.03C407.252 32.1033 408.256 32.99 409.609 33.69C410.962 34.3433 412.549 34.88 414.369 35.3C416.236 35.6733 418.126 36.07 420.039 36.49C421.999 36.91 423.842 37.4233 425.569 38.03C427.342 38.6367 428.789 39.4767 429.909 40.55C431.076 41.5767 431.822 42.93 432.149 44.61C432.476 46.29 432.149 48.4133 431.169 50.98C430.656 52.1933 430.096 53.5233 429.489 54.97C428.929 56.4167 428.392 57.77 427.879 59.03C427.132 60.85 425.826 62.4833 423.959 63.93C422.139 65.3767 419.969 66.59 417.449 67.57C414.929 68.5967 412.152 69.39 409.119 69.95C406.086 70.51 403.006 70.8133 399.879 70.86C399.972 71.56 400.182 72.1433 400.509 72.61C400.136 72.3767 399.762 72.1433 399.389 71.91C399.062 71.6767 398.782 71.3267 398.549 70.86C396.122 70.8133 393.929 70.51 391.969 69.95C390.056 69.39 388.352 68.6667 386.859 67.78C385.366 66.8933 384.082 65.89 383.009 64.77C381.982 63.65 381.166 62.5067 380.559 61.34C379.859 59.9867 379.462 58.7033 379.369 57.49C379.322 56.2767 379.462 55.0867 379.789 53.92C380.116 52.8 380.559 51.6567 381.119 50.49C381.726 49.2767 382.286 48.04 382.799 46.78C382.939 49.1133 383.312 51.2133 383.919 53.08C384.572 54.9467 385.506 56.5567 386.719 57.91C387.979 59.31 389.542 60.43 391.409 61.27C393.322 62.11 395.609 62.67 398.269 62.95V40.2C397.522 39.22 396.729 38.4733 395.889 37.96V61.48C394.442 60.5467 392.902 59.5667 391.269 58.54C389.682 57.56 387.816 56.6733 385.669 55.88C386.089 55.6 386.439 55.3433 386.719 55.11C387.046 54.8767 387.302 54.5733 387.489 54.2C387.676 53.8733 387.792 53.4533 387.839 52.94C387.932 52.38 387.979 51.6333 387.979 50.7V40.62C387.139 38.94 385.902 37.7033 384.269 36.91C385.902 36.07 387.139 34.81 387.979 33.13V28.58C387.979 27.8333 387.769 27.18 387.349 26.62C386.976 26.0133 386.486 25.5233 385.879 25.15C385.319 24.73 384.689 24.45 383.989 24.31C383.336 24.1233 382.706 24.1 382.099 24.24C383.732 23.0267 385.412 21.5567 387.139 19.83C388.866 18.0567 390.476 16.2367 391.969 14.37C393.416 16.89 395.446 18.92 398.059 20.46C397.499 20.74 397.079 21.1367 396.799 21.65C396.519 22.1633 396.309 22.7 396.169 23.26C396.029 23.82 395.936 24.38 395.889 24.94C395.889 25.4533 395.889 25.8733 395.889 26.2V36.98C396.822 36.3267 397.616 35.58 398.269 34.74V17.31C397.196 16.9833 396.122 16.3533 395.049 15.42C393.976 14.44 393.182 13.2967 392.669 11.99C392.156 10.6367 392.062 9.16666 392.389 7.58C392.716 5.94666 393.742 4.31333 395.469 2.68C395.329 3.14667 395.306 3.73 395.399 4.43C395.492 5.13 395.656 5.83 395.889 6.53C396.169 7.18333 396.496 7.79 396.869 8.35C397.289 8.91 397.756 9.30667 398.269 9.54C398.269 8.65333 398.269 7.76667 398.269 6.88C398.269 5.99333 398.036 5.24666 397.569 4.64C398.176 5.01333 398.642 5.36333 398.969 5.69C399.296 5.97 399.506 6.29666 399.599 6.67C399.739 7.04333 399.809 7.51 399.809 8.07C399.809 8.63 399.809 9.33 399.809 10.17C401.069 10.9633 402.469 11.4533 404.009 11.64C405.596 11.8267 407.206 11.9433 408.839 11.99C410.519 11.99 412.152 12.06 413.739 12.2C415.372 12.2933 416.866 12.6433 418.219 13.25C420.506 14.3233 422.209 15.7 423.329 17.38C424.449 19.06 424.916 20.9033 424.729 22.91C424.542 24.9167 423.702 26.9933 422.209 29.14C420.716 31.2867 418.499 33.34 415.559 35.3ZM399.809 63.09C402.376 63.23 405.036 63.16 407.789 62.88C410.542 62.6 413.179 62.11 415.699 61.41C418.266 60.7567 420.622 59.9167 422.769 58.89C424.916 57.8633 426.712 56.6733 428.159 55.32C427.692 54.06 426.806 53.15 425.499 52.59C424.192 52.03 422.676 51.61 420.949 51.33C419.222 51.0033 417.379 50.7 415.419 50.42C413.506 50.0933 411.732 49.58 410.099 48.88C408.466 48.1333 407.066 47.06 405.899 45.66C404.779 44.2133 404.126 42.2067 403.939 39.64C403.472 39.0333 403.169 38.3333 403.029 37.54C401.722 38.24 400.649 39.15 399.809 40.27V63.09ZM428.999 54.41C429.139 52.4033 428.742 50.7933 427.809 49.58C426.922 48.32 425.709 47.3167 424.169 46.57C422.629 45.8233 420.879 45.24 418.919 44.82C417.006 44.3533 415.092 43.91 413.179 43.49C411.266 43.07 409.492 42.6033 407.859 42.09C406.272 41.5767 405.036 40.83 404.149 39.85C404.756 41.67 405.806 43.0233 407.299 43.91C408.792 44.7967 410.426 45.45 412.199 45.87C413.972 46.29 415.746 46.57 417.519 46.71C419.339 46.8033 420.879 46.9667 422.139 47.2C423.306 47.4333 424.332 47.83 425.219 48.39C426.106 48.95 426.829 49.6033 427.389 50.35C427.996 51.05 428.416 51.7967 428.649 52.59C428.882 53.3367 428.929 54.0133 428.789 54.62L428.999 54.41ZM431.723 63.02C432.049 62.2267 432.469 61.48 432.983 60.78C433.543 60.1267 434.243 59.66 435.083 59.38V43.07C434.616 42.23 433.916 41.5533 432.983 41.04C433.869 40.5733 434.569 39.8733 435.083 38.94V8.98C435.083 7.76666 434.616 6.74 433.683 5.9C434.103 6.04 434.523 6.11 434.943 6.11C435.456 6.11 436.016 5.99333 436.623 5.76C437.276 5.48 437.906 5.17666 438.513 4.85C439.166 4.47667 439.773 4.12667 440.333 3.8C440.893 3.42666 441.359 3.12333 441.733 2.89C442.433 3.31 443.226 3.73 444.113 4.15C445.046 4.52333 445.933 4.96666 446.773 5.48C447.613 5.99333 448.313 6.6 448.873 7.3C449.433 7.95333 449.713 8.77 449.713 9.75C449.713 10.73 449.409 11.6633 448.803 12.55C448.243 13.4367 447.403 13.88 446.283 13.88C445.583 13.88 444.953 13.6 444.393 13.04C443.879 12.48 443.623 11.8267 443.623 11.08C443.623 10.52 443.833 10.03 444.253 9.61C444.673 9.19 445.163 8.98 445.723 8.98C446.283 8.98 446.773 9.26 447.193 9.82L446.773 10.31C446.959 10.59 447.169 10.73 447.403 10.73C447.823 10.73 448.033 10.52 448.033 10.1C448.033 9.58666 447.846 9.19 447.473 8.91C447.146 8.63 446.749 8.49 446.283 8.49C445.769 8.49 445.256 8.63 444.743 8.91C444.229 9.14333 443.739 9.37666 443.273 9.61V39.01C443.786 39.8033 444.533 40.4567 445.513 40.97C445.046 41.2033 444.626 41.5067 444.253 41.88C443.926 42.2067 443.599 42.5567 443.273 42.93V61.69C444.019 62.11 444.883 62.6467 445.863 63.3C446.843 63.9533 447.846 64.5833 448.873 65.19C449.946 65.7967 450.996 66.2633 452.023 66.59C453.096 66.9633 454.053 67.0333 454.893 66.8C454.239 67.78 453.469 68.5967 452.583 69.25C451.696 69.95 450.646 70.3 449.433 70.3C448.406 70.3 447.379 70.09 446.353 69.67C445.326 69.25 444.323 68.7367 443.343 68.13C442.363 67.5233 441.383 66.87 440.403 66.17C439.423 65.5167 438.443 64.91 437.463 64.35C436.529 63.8367 435.573 63.44 434.593 63.16C433.613 62.88 432.656 62.8333 431.723 63.02ZM447.543 63.23C448.103 63.65 448.756 63.86 449.503 63.86C450.483 63.86 451.323 63.51 452.023 62.81C452.723 62.11 453.119 61.2933 453.213 60.36C454.006 60.5467 454.729 60.92 455.383 61.48C456.083 62.04 456.433 62.7633 456.433 63.65C456.433 64.4433 456.129 65.05 455.523 65.47C454.963 65.9367 454.309 66.17 453.563 66.17C452.443 66.17 451.346 65.8433 450.273 65.19C449.246 64.5833 448.336 63.93 447.543 63.23ZM442.573 10.1L441.733 10.59V40.06L442.573 39.01V10.1ZM441.733 41.88V60.92L442.573 61.34V42.93C442.479 42.6967 442.339 42.51 442.153 42.37C442.013 42.1833 441.873 42.02 441.733 41.88ZM459.048 34.67V39.57C459.561 40.3167 460.284 40.97 461.218 41.53C460.284 42.09 459.561 42.7433 459.048 43.49V48.25H459.468C460.354 48.25 461.078 48.5767 461.638 49.23C462.198 49.8833 462.524 50.6067 462.618 51.4V31.73C461.964 31.3567 461.241 30.9133 460.448 30.4C459.654 29.84 458.884 29.56 458.138 29.56C457.718 29.56 457.298 29.7 456.878 29.98C456.504 30.2133 456.318 30.5867 456.318 31.1C456.318 31.2867 456.388 31.4733 456.528 31.66C456.668 31.8467 456.854 31.94 457.088 31.94C457.414 31.94 457.578 31.7767 457.578 31.45L457.158 30.89C457.438 30.3767 457.904 30.12 458.558 30.12C459.118 30.12 459.608 30.33 460.028 30.75C460.494 31.1233 460.728 31.6133 460.728 32.22C460.728 32.7333 460.564 33.2233 460.238 33.69C459.911 34.1567 459.514 34.4833 459.048 34.67ZM456.108 41.53C456.948 41.1567 457.671 40.5033 458.278 39.57V34.88H457.998C457.064 34.88 456.318 34.5533 455.758 33.9C455.198 33.2467 454.848 32.5 454.708 31.66V51.33C455.314 51.7033 456.038 52.17 456.878 52.73C457.718 53.2433 458.511 53.5 459.258 53.5C459.678 53.5 460.074 53.3833 460.448 53.15C460.821 52.87 461.008 52.4733 461.008 51.96C461.008 51.7733 460.938 51.61 460.798 51.47C460.658 51.2833 460.471 51.19 460.238 51.19C459.911 51.19 459.748 51.3533 459.748 51.68L460.168 52.17C459.794 52.6833 459.328 52.94 458.768 52.94C458.161 52.94 457.648 52.73 457.228 52.31C456.808 51.89 456.598 51.4 456.598 50.84C456.598 50.3267 456.761 49.8367 457.088 49.37C457.414 48.9033 457.811 48.6 458.278 48.46V43.49C457.764 42.7433 457.041 42.09 456.108 41.53ZM462.688 52.8C462.548 53.6867 462.174 54.4333 461.568 55.04C460.961 55.6933 460.261 56.2533 459.468 56.72C458.674 57.1867 457.834 57.6067 456.948 57.98C456.108 58.3533 455.361 58.7267 454.708 59.1C454.148 58.7733 453.541 58.4 452.888 57.98C452.281 57.56 451.628 57.1633 450.928 56.79C450.274 56.4633 449.574 56.2067 448.828 56.02C448.128 55.88 447.428 55.9033 446.728 56.09C447.148 55.6233 447.474 55.1567 447.708 54.69C447.941 54.2233 448.058 53.6633 448.058 53.01V46.43C447.824 45.9633 447.521 45.5667 447.148 45.24C446.821 44.8667 446.448 44.5633 446.028 44.33C446.914 43.91 447.591 43.21 448.058 42.23V35.65C448.058 35.1367 447.918 34.67 447.638 34.25C447.404 33.7833 447.031 33.4333 446.518 33.2C446.844 33.0133 447.334 32.7333 447.988 32.36C448.641 31.94 449.318 31.52 450.018 31.1C450.718 30.68 451.371 30.33 451.978 30.05C452.631 29.7233 453.121 29.56 453.448 29.56C453.681 29.56 453.914 29.63 454.148 29.77C454.381 29.8633 454.544 30.0267 454.638 30.26C454.778 29.3733 455.128 28.6267 455.688 28.02C456.294 27.3667 456.994 26.8067 457.788 26.34C458.628 25.8733 459.468 25.4533 460.308 25.08C461.194 24.7067 461.964 24.3333 462.618 23.96C463.318 24.38 463.971 24.8 464.578 25.22C465.184 25.64 465.791 26.0133 466.398 26.34C467.051 26.62 467.704 26.8533 468.358 27.04C469.058 27.18 469.804 27.18 470.598 27.04C469.711 27.9267 469.268 28.93 469.268 30.05V36.7C469.501 37.12 469.781 37.5167 470.108 37.89C470.434 38.2167 470.831 38.4967 471.298 38.73C470.364 39.2433 469.688 39.9433 469.268 40.83V47.41C469.268 47.9233 469.384 48.4133 469.618 48.88C469.898 49.3 470.294 49.6267 470.808 49.86C470.481 50.0467 469.991 50.35 469.338 50.77C468.684 51.1433 468.008 51.54 467.308 51.96C466.608 52.38 465.931 52.7533 465.278 53.08C464.671 53.36 464.204 53.5 463.878 53.5C463.644 53.5 463.411 53.4533 463.178 53.36C462.944 53.22 462.781 53.0333 462.688 52.8ZM484.73 34.32V40.2C485.243 40.9933 485.99 41.6467 486.97 42.16C485.99 42.6733 485.243 43.3267 484.73 44.12V54.97L485.15 55.18L478.5 59.03C477.94 58.7033 477.426 58.4 476.96 58.12C476.54 57.84 476.12 57.6067 475.7 57.42C475.28 57.28 474.836 57.1867 474.37 57.14C473.903 57.0933 473.343 57.1167 472.69 57.21C473.576 56.3233 474.02 55.32 474.02 54.2V44.33C473.506 43.3967 472.806 42.72 471.92 42.3C472.806 41.8333 473.506 41.1333 474.02 40.2V29.77C474.02 29.2567 473.88 28.79 473.6 28.37C473.366 27.9033 472.993 27.5533 472.48 27.32C472.853 27.2733 473.46 27.11 474.3 26.83C475.14 26.5033 476.026 26.1533 476.96 25.78C477.893 25.36 478.756 24.9633 479.55 24.59C480.343 24.2167 480.88 23.96 481.16 23.82C481.02 23.9133 480.903 24.17 480.81 24.59C480.763 24.9633 480.716 25.4067 480.67 25.92C480.67 26.3867 480.67 26.8767 480.67 27.39C480.67 27.8567 480.67 28.2533 480.67 28.58C480.856 28.16 481.276 27.7167 481.93 27.25C482.583 26.7833 483.306 26.3167 484.1 25.85C484.94 25.3833 485.733 24.9633 486.48 24.59C487.273 24.2167 487.856 23.9133 488.23 23.68C488.93 24.1 489.583 24.52 490.19 24.94C490.796 25.36 491.403 25.7333 492.01 26.06C492.663 26.34 493.316 26.5733 493.97 26.76C494.67 26.9 495.416 26.9 496.21 26.76C495.323 27.6467 494.88 28.65 494.88 29.77V39.78C495.486 40.9467 496.326 41.81 497.4 42.37C496.886 42.6967 496.396 43.07 495.93 43.49C495.51 43.91 495.16 44.4 494.88 44.96V52.52C495.626 52.9867 496.373 53.43 497.12 53.85C497.866 54.27 498.613 54.7133 499.36 55.18L492.71 59.03C492.15 58.7033 491.636 58.4 491.17 58.12C490.75 57.84 490.33 57.6067 489.91 57.42C489.49 57.28 489.046 57.1867 488.58 57.14C488.113 57.0933 487.553 57.1167 486.9 57.21C487.786 56.3233 488.23 55.32 488.23 54.2V31.45C487.576 31.0767 486.83 30.6333 485.99 30.12C485.196 29.56 484.426 29.28 483.68 29.28C483.306 29.28 482.91 29.42 482.49 29.7C482.116 29.9333 481.93 30.2833 481.93 30.75C481.93 30.9833 482 31.1933 482.14 31.38C482.28 31.5667 482.466 31.66 482.7 31.66C483.026 31.66 483.19 31.4967 483.19 31.17L482.77 30.61C483.05 30.0967 483.516 29.84 484.17 29.84C484.73 29.84 485.22 30.05 485.64 30.47C486.106 30.8433 486.34 31.3333 486.34 31.94C486.34 32.4067 486.176 32.8733 485.85 33.34C485.523 33.8067 485.15 34.1333 484.73 34.32ZM480.67 32.64V52.52L484.03 54.48V44.12C483.516 43.3267 482.77 42.6733 481.79 42.16C482.676 41.74 483.423 41.0867 484.03 40.2V34.53L483.4 34.6C482.793 34.6 482.233 34.4133 481.72 34.04C481.253 33.6667 480.903 33.2 480.67 32.64ZM507.618 59.03C506.918 58.61 506.265 58.19 505.658 57.77C505.051 57.3967 504.421 57.0467 503.768 56.72C503.161 56.44 502.508 56.2067 501.808 56.02C501.155 55.88 500.431 55.88 499.638 56.02C500.525 55.1333 500.968 54.13 500.968 53.01V43.56C500.548 42.6733 499.871 41.9733 498.938 41.46C499.871 41.04 500.548 40.3633 500.968 39.43V33.27C500.968 32.7567 500.828 32.29 500.548 31.87C500.315 31.45 499.965 31.1233 499.498 30.89L516.018 23.26V10.31C516.018 9.28333 515.598 8.53666 514.758 8.07C513.965 7.55666 513.125 7.20666 512.238 7.02L518.398 3.03C519.331 3.59 520.218 4.10333 521.058 4.57C521.945 5.03666 522.995 5.13 524.208 4.85C523.321 5.73666 522.878 6.74 522.878 7.86C522.878 9.91333 522.855 12.34 522.808 15.14C522.808 17.8933 522.808 20.74 522.808 23.68C522.808 26.62 522.785 29.49 522.738 32.29C522.738 35.0433 522.738 37.4467 522.738 39.5C523.298 40.4333 523.975 41.0867 524.768 41.46C523.835 42.02 523.135 42.6967 522.668 43.49V51.96C522.668 52.4733 522.808 52.9633 523.088 53.43C523.368 53.85 523.741 54.1767 524.208 54.41C522.715 54.97 521.291 55.6233 519.938 56.37C518.585 57.1633 517.301 58.0733 516.088 59.1C516.088 56.5333 516.088 53.8733 516.088 51.12C516.088 48.32 516.088 45.4967 516.088 42.65C516.088 39.8033 516.065 37.0033 516.018 34.25C516.018 31.45 516.018 28.7667 516.018 26.2L511.678 29.63V39.36C511.911 39.78 512.215 40.1533 512.588 40.48C513.008 40.8067 513.428 41.0867 513.848 41.32C512.915 41.88 512.191 42.5333 511.678 43.28V48.25L512.378 48.18C513.591 48.18 514.431 48.6467 514.898 49.58C515.365 50.5133 515.598 51.4933 515.598 52.52C515.598 53.4067 515.295 54.1767 514.688 54.83C514.081 55.4833 513.358 56.0667 512.518 56.58C511.678 57.0933 510.791 57.5367 509.858 57.91C508.971 58.33 508.225 58.7033 507.618 59.03ZM510.908 30.19L507.618 32.71V51.33C508.271 51.7033 508.995 52.17 509.788 52.73C510.628 53.2433 511.398 53.5 512.098 53.5C512.518 53.5 512.915 53.36 513.288 53.08C513.708 52.8 513.918 52.4267 513.918 51.96C513.918 51.7267 513.848 51.54 513.708 51.4C513.615 51.2133 513.451 51.12 513.218 51.12C512.845 51.12 512.658 51.2833 512.658 51.61L513.078 52.17C512.798 52.6833 512.331 52.94 511.678 52.94C511.118 52.94 510.605 52.7533 510.138 52.38C509.718 51.96 509.508 51.4467 509.508 50.84C509.508 50.3733 509.648 49.93 509.928 49.51C510.208 49.09 510.535 48.7633 510.908 48.53V43.28C510.395 42.5333 509.671 41.88 508.738 41.32C509.578 40.9467 510.301 40.2933 510.908 39.36V30.19Z" fill="#E6007E"/>
</svg>
