<svg width="458" height="70" viewBox="0 0 458 70" fill="none" xmlns="http://www.w3.org/2000/svg">
<path d="M30.28 57.53C30.28 59.07 29.79 60.4 28.81 61.52C27.83 62.64 26.5233 63.2 24.89 63.2C23.77 63.2 22.7667 62.8267 21.88 62.08C22.2533 62.5933 22.5567 63.1533 22.79 63.76C23.0233 64.3667 23.14 64.9967 23.14 65.65C23.14 66.5367 22.86 67.33 22.3 68.03C21.74 68.7767 20.9933 69.15 20.06 69.15C19.4067 69.15 18.8467 68.94 18.38 68.52C17.9133 68.1467 17.5633 67.68 17.33 67.12C18.5433 67.1667 19.4767 66.7467 20.13 65.86C20.83 65.02 21.18 64.0167 21.18 62.85C21.18 62.29 21.0867 61.73 20.9 61.17C20.7133 60.6567 20.5033 60.12 20.27 59.56C20.0367 59.0467 19.8033 58.51 19.57 57.95C19.3367 57.39 19.1733 56.83 19.08 56.27C18.8933 55.15 18.7767 53.68 18.73 51.86C18.73 50.04 18.73 48.15 18.73 46.19C18.7767 44.1833 18.8233 42.27 18.87 40.45C18.9167 38.63 18.94 37.16 18.94 36.04L18.66 35.76H17.54V57.6C17.54 58.6733 17.7967 59.7933 18.31 60.96C18.87 62.1267 19.6167 62.99 20.55 63.55L13.62 69.43C12.22 67.47 10.7033 65.5567 9.07 63.69C7.43667 61.87 5.66333 60.2133 3.75 58.72C4.45 58.8133 5.15 58.7667 5.85 58.58C6.59667 58.3933 7.25 58.09 7.81 57.67C8.37 57.25 8.81333 56.7367 9.14 56.13C9.51333 55.5233 9.7 54.8233 9.7 54.03V37.51C9.04667 36.2967 8.11333 35.3633 6.9 34.71C8.11333 34.0567 9.04667 33.1233 9.7 31.91V28.27C9.7 27.71 9.67667 26.9633 9.63 26.03C9.58333 25.05 9.46667 24.0933 9.28 23.16C9.14 22.18 8.90667 21.27 8.58 20.43C8.3 19.59 7.90333 18.9833 7.39 18.61C9.35 18.3767 11.1467 17.7933 12.78 16.86C14.46 15.88 16.0467 14.7833 17.54 13.57V33.66H18.59L18.94 33.31V15.88C18.94 14.9467 18.7067 14.1533 18.24 13.5C18.9867 13.9667 19.5467 14.41 19.92 14.83C20.2933 15.25 20.48 15.9267 20.48 16.86V32.75C21.1333 33.59 21.88 34.2433 22.72 34.71C21.8333 35.13 21.0867 35.76 20.48 36.6V55.99C20.48 56.7833 20.6667 57.5067 21.04 58.16C21.74 58.6733 22.6267 58.93 23.7 58.93C24.12 58.93 24.5867 58.8367 25.1 58.65C25.66 58.51 26.1733 58.2767 26.64 57.95C27.1533 57.67 27.5733 57.32 27.9 56.9C28.2267 56.5267 28.39 56.0833 28.39 55.57C28.39 55.1967 28.2267 54.8467 27.9 54.52C27.5733 54.1933 27.2233 54.03 26.85 54.03C26.3367 54.03 25.9167 54.24 25.59 54.66C25.2633 55.08 25.1 55.5467 25.1 56.06C25.1 56.4333 25.17 56.7833 25.31 57.11C24.9367 57.2033 24.61 57.25 24.33 57.25C23.7233 57.25 23.2333 57.04 22.86 56.62C22.4867 56.2 22.3 55.6867 22.3 55.08C22.3 54.24 22.6033 53.5167 23.21 52.91C23.8167 52.35 24.54 52.07 25.38 52.07C26.8733 52.07 28.0633 52.6067 28.95 53.68C29.8367 54.8 30.28 56.0833 30.28 57.53ZM25.59 7.55C24.19 7.55 22.79 8.06333 21.39 9.09C20.0367 10.1167 18.6367 11.26 17.19 12.52C15.79 13.7333 14.2967 14.8533 12.71 15.88C11.17 16.9067 9.51333 17.42 7.74 17.42C6.80667 17.42 5.89667 17.2333 5.01 16.86C4.17 16.4867 3.42333 15.9967 2.77 15.39C2.16333 14.7367 1.67333 13.99 1.3 13.15C0.926667 12.2633 0.74 11.3533 0.74 10.42C0.74 9.58 0.903333 8.76333 1.23 7.97C1.55667 7.17667 2 6.47666 2.56 5.87C3.12 5.21666 3.77333 4.70333 4.52 4.33C5.26667 3.91 6.08333 3.7 6.97 3.7C7.99667 3.7 8.95333 4.02666 9.84 4.68C10.7267 5.33333 11.17 6.22 11.17 7.34C11.17 7.99333 10.96 8.64667 10.54 9.3C10.12 9.95333 9.53667 10.28 8.79 10.28C8.27667 10.28 7.83333 10.14 7.46 9.86C7.08667 9.58 6.76 9.25333 6.48 8.88C6.85333 8.83333 7.22667 8.74 7.6 8.6C8.02 8.41333 8.23 8.08667 8.23 7.62C8.23 7.29333 8.11333 7.03666 7.88 6.85C7.64667 6.66333 7.36667 6.57 7.04 6.57C6.38667 6.57 5.85 6.78 5.43 7.2C5.01 7.57333 4.8 8.08666 4.8 8.74C4.8 9.53333 5.05667 10.1867 5.57 10.7C6.08333 11.1667 6.71333 11.4 7.46 11.4C8.48667 11.4 9.53667 10.98 10.61 10.14C11.73 9.3 12.92 8.36666 14.18 7.34C15.44 6.31333 16.8167 5.38 18.31 4.54C19.8033 3.7 21.46 3.28 23.28 3.28C24.4933 3.28 25.6367 3.46666 26.71 3.84C27.7833 4.21333 28.7167 4.75 29.51 5.45C30.3033 6.15 30.9333 7.01333 31.4 8.04C31.8667 9.06667 32.1 10.21 32.1 11.47C32.1 13.29 31.5167 14.8767 30.35 16.23C29.23 17.5833 27.7133 18.26 25.8 18.26C24.4467 18.26 23.28 17.84 22.3 17C21.32 16.16 20.83 15.0633 20.83 13.71C20.83 13.0567 20.9467 12.4267 21.18 11.82C21.4133 11.2133 21.74 10.6767 22.16 10.21C22.58 9.69666 23.07 9.3 23.63 9.02C24.19 8.69333 24.82 8.53 25.52 8.53L26.5 8.6C25.8933 8.83333 25.45 9.3 25.17 10C24.9367 10.6533 24.82 11.26 24.82 11.82C24.82 12.3333 24.9133 12.8233 25.1 13.29C25.3333 13.7567 25.7533 13.99 26.36 13.99C27.2 13.99 27.9 13.7333 28.46 13.22C29.0667 12.7067 29.37 12.03 29.37 11.19C29.37 10.1167 28.9967 9.25333 28.25 8.6C27.5033 7.9 26.6167 7.55 25.59 7.55ZM50.2251 48.99C51.4384 48.99 52.5117 49.27 53.4451 49.83C54.4251 50.39 55.2184 51.1833 55.8251 52.21V39.54C55.2184 38.7 54.4717 38.07 53.5851 37.65C54.4717 37.1367 55.2184 36.5067 55.8251 35.76V26.45C54.7051 27.71 53.3517 28.6667 51.7651 29.32C50.1784 29.9267 48.5684 30.23 46.9351 30.23C45.2551 30.23 43.5984 29.9033 41.9651 29.25C40.3317 28.5967 38.8617 27.71 37.5551 26.59C36.2951 25.4233 35.2917 24.07 34.5451 22.53C33.7517 20.99 33.3551 19.3333 33.3551 17.56C33.3551 15.6 33.7984 13.7567 34.6851 12.03C35.5251 10.3033 36.6451 8.78666 38.0451 7.48C39.4451 6.12666 41.0317 5.07666 42.8051 4.33C44.6251 3.53666 46.4917 3.14 48.4051 3.14C50.0384 3.14 51.6017 3.44333 53.0951 4.05C54.6351 4.61 56.0351 5.42666 57.2951 6.5C58.5551 6.45333 59.7217 6.68666 60.7951 7.2C61.9151 7.71333 62.8717 8.41333 63.6651 9.3C64.4584 10.14 65.0884 11.12 65.5551 12.24C66.0217 13.36 66.3017 14.5267 66.3951 15.74L67.9351 10.84C68.9617 9.72 70.0817 8.67 71.2951 7.69C72.5551 6.66333 73.8617 5.77667 75.2151 5.03C76.5684 4.23667 77.9917 3.60667 79.4851 3.14C80.9784 2.67333 82.5184 2.44 84.1051 2.44C85.8784 2.44 87.6051 2.79 89.2851 3.49C90.9651 4.14333 92.4351 5.05333 93.6951 6.22C95.0017 7.38667 96.0284 8.78667 96.7751 10.42C97.5684 12.0067 97.9651 13.71 97.9651 15.53C97.9651 17.49 97.5917 19.4733 96.8451 21.48C96.0984 23.4867 95.4451 25.4 94.8851 27.22C94.2317 29.3667 93.2284 30.9767 91.8751 32.05C90.5684 33.1233 89.0517 33.9167 87.3251 34.43C85.6451 34.9433 83.8251 35.2933 81.8651 35.48C79.9517 35.6667 78.0384 35.9233 76.1251 36.25C74.2584 36.53 72.4617 36.9967 70.7351 37.65C69.0551 38.3033 67.6084 39.3767 66.3951 40.87C66.3951 41.57 66.3951 42.6433 66.3951 44.09C66.3951 45.5367 66.4651 47.03 66.6051 48.57C66.7451 50.11 66.9551 51.5333 67.2351 52.84C67.5617 54.1467 68.0284 55.01 68.6351 55.43C66.7217 55.6633 64.9484 56.2467 63.3151 57.18C61.6817 58.1133 60.1417 59.1867 58.6951 60.4V38.63H57.6451L57.3651 38.98V57.95C57.3651 58.8833 57.5984 59.6767 58.0651 60.33L57.0851 59.77C57.0384 60.1433 56.9917 60.54 56.9451 60.96C56.8984 61.38 56.8284 61.7767 56.7351 62.15C57.7151 61.5433 58.7417 60.89 59.8151 60.19C60.8884 59.49 61.9617 58.8367 63.0351 58.23C64.1551 57.6233 65.2984 57.11 66.4651 56.69C67.6317 56.27 68.8217 56.06 70.0351 56.06C71.6684 56.06 73.1384 56.4567 74.4451 57.25C75.7984 58.09 77.0117 59.0933 78.0851 60.26C77.0117 59.56 75.8217 59.21 74.5151 59.21C72.5551 59.21 70.7817 59.6767 69.1951 60.61C67.6084 61.5433 66.0451 62.57 64.5051 63.69C62.9651 64.81 61.3784 65.8367 59.7451 66.77C58.1584 67.7033 56.3851 68.17 54.4251 68.17C53.8184 68.17 53.0951 68.1 52.2551 67.96C51.4151 67.82 50.6217 67.5867 49.8751 67.26C49.1284 66.9333 48.4751 66.49 47.9151 65.93C47.4017 65.4167 47.1451 64.74 47.1451 63.9C47.9851 64.32 48.9184 64.53 49.9451 64.53C51.1584 64.53 52.3251 64.2733 53.4451 63.76C54.5651 63.2933 55.6384 62.7567 56.6651 62.15C56.7117 61.2167 56.7351 60.5633 56.7351 60.19C56.7351 59.8633 56.6884 59.5833 56.5951 59.35C56.3151 59.07 56.1284 58.7433 56.0351 58.37C55.9417 58.0433 55.8717 57.6933 55.8251 57.32C55.2651 56.48 54.4951 55.8033 53.5151 55.29C52.5351 54.8233 51.5317 54.59 50.5051 54.59C50.0851 54.59 49.5717 54.66 48.9651 54.8C48.3584 54.9867 47.7751 55.22 47.2151 55.5C46.6551 55.8267 46.1651 56.2 45.7451 56.62C45.3717 57.0867 45.1851 57.5767 45.1851 58.09C45.1851 58.6033 45.3717 59.0467 45.7451 59.42C46.1184 59.84 46.5617 60.05 47.0751 60.05C47.8217 60.05 48.4051 59.77 48.8251 59.21C49.2917 58.65 49.5251 58.0433 49.5251 57.39L49.4551 56.69C50.5284 56.69 51.3451 56.9467 51.9051 57.46C52.4651 57.9733 52.7451 58.58 52.7451 59.28C52.7451 60.3533 52.3484 61.24 51.5551 61.94C50.8084 62.6867 49.9217 63.06 48.8951 63.06C48.0084 63.06 47.2151 62.8733 46.5151 62.5C45.8151 62.1267 45.2084 61.6367 44.6951 61.03C44.2284 60.4233 43.8551 59.7233 43.5751 58.93C43.3417 58.1367 43.2251 57.3433 43.2251 56.55C43.2251 55.5233 43.3884 54.5433 43.7151 53.61C44.0417 52.7233 44.5084 51.93 45.1151 51.23C45.7684 50.53 46.5151 49.9933 47.3551 49.62C48.1951 49.2 49.1517 48.99 50.2251 48.99ZM66.3951 20.29H77.7351C79.0417 19.4033 80.0217 18.26 80.6751 16.86C81.3751 18.3067 82.3784 19.45 83.6851 20.29C84.1517 20.29 84.9217 20.29 85.9951 20.29C87.1151 20.2433 88.2584 20.22 89.4251 20.22C90.5917 20.22 91.6651 20.2667 92.6451 20.36C93.6717 20.4067 94.3717 20.5467 94.7451 20.78C94.2784 19.3333 93.6017 18.0267 92.7151 16.86C91.8284 15.6467 90.7784 14.62 89.5651 13.78C88.3984 12.94 87.1151 12.2867 85.7151 11.82C84.3151 11.3533 82.8684 11.12 81.3751 11.12C78.4351 11.12 75.7051 11.8433 73.1851 13.29C70.6651 14.69 68.4017 16.37 66.3951 18.33V20.29ZM66.3951 34.85L67.0951 35.97C67.8417 33.7767 68.8451 32.12 70.1051 31C71.4117 29.8333 72.8817 28.9933 74.5151 28.48C76.1484 27.9667 77.8751 27.64 79.6951 27.5C81.5617 27.3133 83.4051 27.1033 85.2251 26.87C87.0451 26.59 88.8184 26.1467 90.5451 25.54C92.2717 24.9333 93.8117 23.93 95.1651 22.53L95.0951 21.97C94.8617 21.9233 94.6284 21.9 94.3951 21.9C94.2084 21.8533 93.9984 21.83 93.7651 21.83H83.1951C82.1217 22.67 81.2817 23.6733 80.6751 24.84C80.3484 24.28 79.9751 23.7433 79.5551 23.23C79.1817 22.7167 78.7384 22.25 78.2251 21.83H66.3951V34.85ZM58.6951 13.43C58.6951 12.3567 58.5084 11.19 58.1351 9.93C57.7617 8.62333 57.1084 7.62 56.1751 6.92C54.7284 6.59333 53.1884 6.61667 51.5551 6.99C49.9684 7.36333 48.4751 8.01666 47.0751 8.95C45.7217 9.83667 44.6017 10.9567 43.7151 12.31C42.8284 13.6167 42.3851 15.0633 42.3851 16.65C42.3851 17.77 42.6184 18.9133 43.0851 20.08C43.5517 21.2467 44.1817 22.2967 44.9751 23.23C45.8151 24.1167 46.7717 24.8633 47.8451 25.47C48.9184 26.03 50.0617 26.31 51.2751 26.31C52.0684 26.31 52.8384 26.1 53.5851 25.68C54.3784 25.2133 54.7751 24.5133 54.7751 23.58C54.7751 22.74 54.5417 21.9933 54.0751 21.34C53.6551 20.6867 53.0951 20.1733 52.3951 19.8C51.6951 19.38 50.9251 19.1233 50.0851 19.03C49.2917 18.9367 48.5217 19.0533 47.7751 19.38C47.7751 17.7933 48.1484 16.58 48.8951 15.74C49.6417 14.9 50.6917 14.48 52.0451 14.48C52.6984 14.48 53.3517 14.5967 54.0051 14.83C54.6584 15.0633 55.2417 15.3667 55.7551 15.74V10.91C55.7551 10.49 55.7084 10.0933 55.6151 9.72C55.5217 9.3 55.3584 8.90333 55.1251 8.53C55.9651 8.99667 56.5484 9.58 56.8751 10.28C57.2017 10.9333 57.3884 11.6567 57.4351 12.45C57.5284 13.2433 57.5284 14.06 57.4351 14.9C57.3417 15.74 57.2951 16.58 57.2951 17.42C57.8551 18.4 58.1351 19.4733 58.1351 20.64C58.1351 21.2 58.0651 21.8067 57.9251 22.46C57.7851 23.1133 57.5751 23.6967 57.2951 24.21L57.3651 36.32L57.5751 36.6H58.6951V13.43ZM74.5151 69.64C73.7217 69.64 72.9517 69.3833 72.2051 68.87C71.4584 68.4033 71.0851 67.75 71.0851 66.91C71.0851 66.3967 71.2717 65.8833 71.6451 65.37C72.0651 64.9033 72.5551 64.67 73.1151 64.67C73.7217 64.67 74.1884 64.9967 74.5151 65.65C74.0017 65.7433 73.6051 65.9767 73.3251 66.35C73.0451 66.7233 72.9051 67.1433 72.9051 67.61C72.9051 68.17 73.0684 68.4967 73.3951 68.59C73.7684 68.6833 74.1651 68.59 74.5851 68.31C75.0051 68.0767 75.3784 67.7033 75.7051 67.19C76.0317 66.7233 76.1951 66.1867 76.1951 65.58C76.1951 64.5067 75.8217 63.6667 75.0751 63.06C74.3284 62.5 73.4651 62.22 72.4851 62.22C71.9717 62.22 71.2951 62.3367 70.4551 62.57C69.6617 62.8033 69.1717 63.2467 68.9851 63.9C69.3117 62.6867 69.9184 61.7067 70.8051 60.96C71.7384 60.2133 72.8584 59.84 74.1651 59.84C75.4717 59.84 76.6617 60.26 77.7351 61.1C78.8084 61.94 79.3451 63.06 79.3451 64.46C79.3451 65.1133 79.2051 65.7433 78.9251 66.35C78.6917 67.0033 78.3651 67.5633 77.9451 68.03C77.5251 68.5433 77.0117 68.94 76.4051 69.22C75.8451 69.5 75.2151 69.64 74.5151 69.64ZM114.314 47.52C114.781 48.0333 115.318 48.36 115.924 48.5C116.531 48.64 117.184 48.6633 117.884 48.57C117.838 48.15 117.838 47.7533 117.884 47.38C117.931 46.96 117.861 46.54 117.674 46.12C117.534 45.6533 117.208 45.1867 116.694 44.72C116.228 44.2533 115.481 43.7633 114.454 43.25C115.808 42.55 116.951 41.57 117.884 40.31V15.6C116.764 15.4133 115.574 15.1333 114.314 14.76C113.101 14.3867 111.958 13.92 110.884 13.36C109.858 12.7533 108.971 12.0533 108.224 11.26C107.478 10.42 106.988 9.48666 106.754 8.46C106.521 7.38666 106.614 6.22 107.034 4.96C107.454 3.65333 108.318 2.25333 109.624 0.759996C110.324 3.32666 111.258 5.28666 112.424 6.64C113.638 7.94667 115.434 8.81 117.814 9.23C117.814 8.71666 117.814 8.13333 117.814 7.48C117.861 6.82666 117.884 6.17333 117.884 5.52C117.884 4.86666 117.814 4.26 117.674 3.7C117.581 3.14 117.394 2.67333 117.114 2.3C117.814 2.67333 118.328 3.04667 118.654 3.42C119.028 3.79333 119.261 4.23666 119.354 4.75C119.448 5.26333 119.471 5.89333 119.424 6.64C119.424 7.38667 119.424 8.32 119.424 9.44C120.498 9.58 121.641 9.72 122.854 9.86C124.068 9.95333 125.258 10.07 126.424 10.21C127.638 10.35 128.804 10.5367 129.924 10.77C131.044 11.0033 132.094 11.33 133.074 11.75C135.454 12.73 137.204 14.0133 138.324 15.6C139.444 17.1867 139.888 18.9367 139.654 20.85C139.468 22.7167 138.604 24.6767 137.064 26.73C135.571 28.7367 133.354 30.72 130.414 32.68C131.208 30.6733 131.744 28.9233 132.024 27.43C132.351 25.89 132.444 24.56 132.304 23.44C132.164 22.32 131.861 21.3633 131.394 20.57C130.928 19.7767 130.321 19.1233 129.574 18.61C128.641 20.99 128.221 23.3 128.314 25.54C128.408 27.7333 128.828 29.88 129.574 31.98C130.321 34.0333 131.301 36.0167 132.514 37.93C133.728 39.8433 135.011 41.6867 136.364 43.46C137.718 45.2333 139.024 46.9367 140.284 48.57C141.591 50.2033 142.664 51.79 143.504 53.33C144.438 54.9633 144.951 56.5267 145.044 58.02C145.138 59.5133 144.974 60.8667 144.554 62.08C144.181 63.2933 143.598 64.3433 142.804 65.23C142.058 66.1633 141.264 66.8633 140.424 67.33C139.584 67.8433 138.791 68.1 138.044 68.1C137.298 68.1467 136.738 67.9133 136.364 67.4C138.231 66.3267 139.234 65.0667 139.374 63.62C139.514 62.22 139.141 60.6333 138.254 58.86C137.368 57.1333 136.131 55.2667 134.544 53.26C133.004 51.3 131.418 49.2233 129.784 47.03C128.151 44.8367 126.658 42.5733 125.304 40.24C123.998 37.9067 123.134 35.5267 122.714 33.1C122.341 30.6733 122.598 28.2233 123.484 25.75C124.418 23.2767 126.308 20.8033 129.154 18.33C127.894 17.5367 126.401 16.9767 124.674 16.65C122.948 16.3233 121.198 16.0433 119.424 15.81V40.59C120.218 41.6167 121.268 42.5033 122.574 43.25C121.641 43.7167 120.941 44.16 120.474 44.58C120.054 44.9533 119.751 45.35 119.564 45.77C119.424 46.1433 119.354 46.5633 119.354 47.03C119.401 47.45 119.424 47.9167 119.424 48.43C120.544 48.2433 121.734 48.0567 122.994 47.87C124.301 47.6833 125.584 47.7767 126.844 48.15C128.151 48.4767 129.434 49.2 130.694 50.32C132.001 51.3933 133.214 53.1433 134.334 55.57C133.028 54.45 131.698 53.7733 130.344 53.54C128.991 53.3067 127.638 53.2367 126.284 53.33C124.931 53.4233 123.624 53.5633 122.364 53.75C121.104 53.9367 119.938 53.9133 118.864 53.68C117.838 53.4933 116.928 52.9333 116.134 52C115.341 51.1133 114.734 49.62 114.314 47.52ZM97.3745 57.18C98.0278 57.6 98.6578 57.7633 99.2645 57.67C99.5445 57.2967 99.7311 56.48 99.8245 55.22C99.9178 53.96 99.9645 52.6533 99.9645 51.3C100.011 49.9467 100.011 48.7333 99.9645 47.66C99.9178 46.5867 99.8945 46.05 99.8945 46.05C99.2411 44.79 98.3078 43.8567 97.0945 43.25C98.4478 42.5967 99.3811 41.6633 99.8945 40.45L99.9645 23.16C99.9645 22.6933 99.8011 22.3433 99.4745 22.11C99.1945 21.83 98.8445 21.6433 98.4245 21.55C98.9378 21.13 99.5445 20.4767 100.244 19.59C100.944 18.7033 101.598 17.7933 102.204 16.86C102.858 15.9267 103.418 15.0167 103.884 14.13C104.398 13.2433 104.724 12.59 104.864 12.17V42.06H105.984V12.45C107.384 13.3833 108.878 14.3633 110.464 15.39C112.098 16.37 113.988 17.2567 116.134 18.05C115.714 18.33 115.341 18.5867 115.014 18.82C114.734 19.0533 114.501 19.3567 114.314 19.73C114.174 20.0567 114.058 20.5 113.964 21.06C113.871 21.62 113.824 22.3433 113.824 23.23V54.73C113.824 55.4767 114.011 56.13 114.384 56.69C114.804 57.2967 115.294 57.7867 115.854 58.16C116.461 58.58 117.114 58.86 117.814 59C118.514 59.1867 119.168 59.21 119.774 59.07C118.094 60.2833 116.391 61.7533 114.664 63.48C112.938 65.2533 111.351 67.0733 109.904 68.94C108.411 66.42 106.381 64.39 103.814 62.85C104.374 62.57 104.794 62.1733 105.074 61.66C105.354 61.1467 105.564 60.61 105.704 60.05C105.844 59.49 105.914 58.9533 105.914 58.44C105.961 57.9267 105.984 57.4833 105.984 57.11V44.16H104.864V53.19C104.818 54.45 104.794 55.5 104.794 56.34C104.794 57.18 104.724 57.9267 104.584 58.58C104.444 59.2333 104.211 59.8167 103.884 60.33C103.558 60.89 103.068 61.4967 102.414 62.15L97.3745 57.18ZM192.221 25.47C192.081 25.7967 191.964 26.1233 191.871 26.45C191.824 26.73 191.754 27.0333 191.661 27.36C191.754 28.5733 192.291 29.6 193.271 30.44C194.251 31.28 195.487 32.0267 196.981 32.68C198.474 33.2867 200.131 33.8467 201.951 34.36C203.817 34.8267 205.637 35.34 207.411 35.9C209.231 36.4133 210.934 37.02 212.521 37.72C214.154 38.3733 215.461 39.2133 216.441 40.24C217.467 41.22 218.097 42.41 218.331 43.81C218.611 45.21 218.307 46.89 217.421 48.85C215.694 53.89 213.221 57.95 210.001 61.03C206.781 64.11 203.211 66.3033 199.291 67.61C195.417 68.9633 191.404 69.4767 187.251 69.15C183.144 68.87 179.317 67.82 175.771 66V66.49C175.771 67.3767 175.981 68.17 176.401 68.87C175.841 68.4967 175.327 68.1 174.861 67.68C174.394 67.3067 174.161 66.56 174.161 65.44V65.16C171.967 63.8533 169.961 62.2667 168.141 60.4C166.367 58.58 164.897 56.48 163.731 54.1C162.564 51.72 161.771 49.0833 161.351 46.19C160.977 43.2967 161.071 40.1933 161.631 36.88C162.191 33.4733 163.357 30.2533 165.131 27.22C166.904 24.14 169.261 21.4567 172.201 19.17L172.831 19.59C172.784 19.73 172.387 20.3133 171.641 21.34C170.941 22.3667 170.194 23.72 169.401 25.4C168.607 27.08 167.907 29.04 167.301 31.28C166.741 33.52 166.554 35.9467 166.741 38.56H172.411C173.064 38.0933 173.647 37.5333 174.161 36.88V33.73V22.74C174.161 21.76 173.927 20.9667 173.461 20.36C174.067 20.7333 174.581 21.13 175.001 21.55C175.467 21.9233 175.701 22.6467 175.701 23.72V36.53C176.261 37.3233 176.937 38 177.731 38.56H178.431V23.3C178.431 22.5533 178.221 21.9 177.801 21.34C177.427 20.7333 176.937 20.2433 176.331 19.87C175.771 19.45 175.141 19.17 174.441 19.03C173.787 18.8433 173.157 18.82 172.551 18.96C174.184 17.7467 175.864 16.2767 177.591 14.55C179.317 12.7767 180.927 10.9567 182.421 9.09C183.027 10.0233 183.657 10.8867 184.311 11.68C184.964 12.4733 185.687 13.1733 186.481 13.78C187.647 14.62 189.047 15.32 190.681 15.88C192.361 16.44 194.087 17 195.861 17.56C197.681 18.0733 199.454 18.6567 201.181 19.31C202.907 19.9167 204.401 20.71 205.661 21.69C206.967 22.67 207.924 23.9067 208.531 25.4C209.184 26.8933 209.301 28.76 208.881 31C208.134 28.9 206.874 27.22 205.101 25.96C203.327 24.7 201.344 23.79 199.151 23.23C196.957 22.6233 194.717 22.3433 192.431 22.39C190.144 22.4367 188.114 22.6933 186.341 23.16V35.41C186.667 36.0167 187.064 36.6233 187.531 37.23C187.531 37.09 187.507 36.95 187.461 36.81C187.461 36.67 187.461 36.5067 187.461 36.32C187.461 35.1533 187.507 34.1267 187.601 33.24C187.741 32.3067 187.997 31.4433 188.371 30.65C188.744 29.81 189.234 28.9933 189.841 28.2C190.447 27.36 191.241 26.45 192.221 25.47ZM177.311 40.73C176.984 40.9633 176.681 41.22 176.401 41.5C176.167 41.78 175.934 42.0833 175.701 42.41V56.41C178.781 59.2567 182.164 61.17 185.851 62.15C189.584 63.13 193.271 63.2933 196.911 62.64C200.551 61.9867 203.981 60.5867 207.201 58.44C210.467 56.2933 213.174 53.4933 215.321 50.04C215.181 48.5 214.691 47.24 213.851 46.26C213.011 45.2333 211.961 44.3933 210.701 43.74C209.487 43.04 208.087 42.48 206.501 42.06C204.961 41.64 203.397 41.2667 201.811 40.94C200.224 40.5667 198.661 40.1933 197.121 39.82C195.627 39.4467 194.297 38.98 193.131 38.42C193.551 39.7733 193.924 41.08 194.251 42.34C194.624 43.6 194.764 44.79 194.671 45.91C194.577 47.03 194.204 48.08 193.551 49.06C192.944 49.9933 191.871 50.8333 190.331 51.58C190.657 50.88 190.774 50.1333 190.681 49.34C190.634 48.5467 190.494 47.7067 190.261 46.82C190.027 45.8867 189.724 44.9533 189.351 44.02C188.977 43.04 188.627 42.0133 188.301 40.94C187.507 41.6867 186.854 42.55 186.341 43.53V61.24C185.267 60.9133 184.217 60.4933 183.191 59.98C182.211 59.4667 181.277 58.9067 180.391 58.3C179.504 57.6933 178.687 57.0867 177.941 56.48C177.241 55.8733 176.634 55.3133 176.121 54.8C176.541 54.52 176.891 54.2633 177.171 54.03C177.497 53.7967 177.754 53.4933 177.941 53.12C178.127 52.7467 178.244 52.3033 178.291 51.79C178.384 51.23 178.431 50.4833 178.431 49.55V40.73H177.311ZM174.161 42.13C173.694 41.5233 173.251 41.0333 172.831 40.66H167.161H166.951C167.277 42.62 167.884 44.6267 168.771 46.68C169.657 48.7333 170.941 50.8567 172.621 53.05C172.854 53.3767 173.087 53.68 173.321 53.96C173.601 54.24 173.881 54.5433 174.161 54.87V42.13ZM189.211 2.02C188.884 3.37333 189.164 4.49333 190.051 5.38C190.937 6.26667 192.174 7.06 193.761 7.76C195.394 8.46 197.237 9.11333 199.291 9.72C201.344 10.3267 203.374 11.0033 205.381 11.75C207.434 12.4967 209.324 13.3833 211.051 14.41C212.824 15.39 214.201 16.6267 215.181 18.12C216.161 19.5667 216.627 21.34 216.581 23.44C216.534 25.54 215.717 28.0367 214.131 30.93C213.991 28.83 213.454 27.0567 212.521 25.61C211.587 24.1167 210.397 22.8333 208.951 21.76C207.551 20.6867 205.964 19.8 204.191 19.1C202.464 18.3533 200.691 17.7 198.871 17.14C197.097 16.58 195.347 16.0667 193.621 15.6C191.941 15.0867 190.447 14.5267 189.141 13.92C187.694 13.2667 186.621 12.4967 185.921 11.61C185.267 10.7233 184.847 9.81333 184.661 8.88C184.521 7.94666 184.567 7.03666 184.801 6.15C185.081 5.21667 185.454 4.42333 185.921 3.77C186.434 3.11667 186.971 2.62667 187.531 2.3C188.137 1.92666 188.697 1.83333 189.211 2.02ZM218.006 61.52C218.332 60.7267 218.752 59.98 219.266 59.28C219.826 58.6267 220.526 58.16 221.366 57.88V41.57C220.899 40.73 220.199 40.0533 219.266 39.54C220.152 39.0733 220.852 38.3733 221.366 37.44V7.48C221.366 6.26666 220.899 5.24 219.966 4.4C220.386 4.54 220.806 4.61 221.226 4.61C221.739 4.61 222.299 4.49333 222.906 4.26C223.559 3.98 224.189 3.67666 224.796 3.35C225.449 2.97667 226.056 2.62667 226.616 2.3C227.176 1.92666 227.642 1.62333 228.016 1.39C228.716 1.81 229.509 2.23 230.396 2.65C231.329 3.02333 232.216 3.46666 233.056 3.98C233.896 4.49333 234.596 5.1 235.156 5.8C235.716 6.45333 235.996 7.27 235.996 8.25C235.996 9.23 235.692 10.1633 235.086 11.05C234.526 11.9367 233.686 12.38 232.566 12.38C231.866 12.38 231.236 12.1 230.676 11.54C230.162 10.98 229.906 10.3267 229.906 9.58C229.906 9.02 230.116 8.53 230.536 8.11C230.956 7.69 231.446 7.48 232.006 7.48C232.566 7.48 233.056 7.76 233.476 8.32L233.056 8.81C233.242 9.09 233.452 9.23 233.686 9.23C234.106 9.23 234.316 9.02 234.316 8.6C234.316 8.08666 234.129 7.69 233.756 7.41C233.429 7.13 233.032 6.99 232.566 6.99C232.052 6.99 231.539 7.13 231.026 7.41C230.512 7.64333 230.022 7.87666 229.556 8.11V37.51C230.069 38.3033 230.816 38.9567 231.796 39.47C231.329 39.7033 230.909 40.0067 230.536 40.38C230.209 40.7067 229.882 41.0567 229.556 41.43V60.19C230.302 60.61 231.166 61.1467 232.146 61.8C233.126 62.4533 234.129 63.0833 235.156 63.69C236.229 64.2967 237.279 64.7633 238.306 65.09C239.379 65.4633 240.336 65.5333 241.176 65.3C240.522 66.28 239.752 67.0967 238.866 67.75C237.979 68.45 236.929 68.8 235.716 68.8C234.689 68.8 233.662 68.59 232.636 68.17C231.609 67.75 230.606 67.2367 229.626 66.63C228.646 66.0233 227.666 65.37 226.686 64.67C225.706 64.0167 224.726 63.41 223.746 62.85C222.812 62.3367 221.856 61.94 220.876 61.66C219.896 61.38 218.939 61.3333 218.006 61.52ZM233.826 61.73C234.386 62.15 235.039 62.36 235.786 62.36C236.766 62.36 237.606 62.01 238.306 61.31C239.006 60.61 239.402 59.7933 239.496 58.86C240.289 59.0467 241.012 59.42 241.666 59.98C242.366 60.54 242.716 61.2633 242.716 62.15C242.716 62.9433 242.412 63.55 241.806 63.97C241.246 64.4367 240.592 64.67 239.846 64.67C238.726 64.67 237.629 64.3433 236.556 63.69C235.529 63.0833 234.619 62.43 233.826 61.73ZM228.856 8.6L228.016 9.09V38.56L228.856 37.51V8.6ZM228.016 40.38V59.42L228.856 59.84V41.43C228.762 41.1967 228.622 41.01 228.436 40.87C228.296 40.6833 228.156 40.52 228.016 40.38ZM246.073 40.87C245.56 40.0767 244.813 39.4233 243.833 38.91C244.813 38.3967 245.56 37.7433 246.073 36.95V26.1L245.653 25.89L252.303 22.04C252.863 22.4133 253.353 22.74 253.773 23.02C254.24 23.2533 254.683 23.4633 255.103 23.65C255.523 23.79 255.966 23.8833 256.433 23.93C256.9 23.9767 257.46 23.9533 258.113 23.86C257.226 24.7467 256.783 25.75 256.783 26.87V36.74C257.296 37.6733 257.996 38.35 258.883 38.77C257.95 39.2833 257.25 39.9833 256.783 40.87V51.3C256.783 51.8133 256.9 52.28 257.133 52.7C257.413 53.1667 257.81 53.5167 258.323 53.75C257.95 53.7967 257.343 53.9833 256.503 54.31C255.663 54.6367 254.776 54.9867 253.843 55.36C252.91 55.7333 252.046 56.1067 251.253 56.48C250.46 56.8533 249.923 57.11 249.643 57.25C249.783 57.1567 249.876 56.9 249.923 56.48C250.016 56.1067 250.063 55.6633 250.063 55.15C250.11 54.6833 250.133 54.1933 250.133 53.68C250.133 53.2133 250.133 52.8167 250.133 52.49C249.946 52.91 249.526 53.3533 248.873 53.82C248.22 54.2867 247.473 54.7533 246.633 55.22C245.84 55.6867 245.046 56.1067 244.253 56.48C243.506 56.8533 242.946 57.1567 242.573 57.39C241.873 56.97 241.22 56.55 240.613 56.13C240.006 55.7567 239.376 55.4067 238.723 55.08C238.116 54.7533 237.463 54.4967 236.763 54.31C236.11 54.17 235.386 54.17 234.593 54.31C235.48 53.4233 235.923 52.42 235.923 51.3V41.29C235.316 40.1233 234.476 39.26 233.403 38.7C233.916 38.3733 234.383 38 234.803 37.58C235.27 37.16 235.643 36.67 235.923 36.11V29.18C235.923 28.8533 235.876 28.3633 235.783 27.71C235.736 27.0567 235.48 26.6133 235.013 26.38C235.526 26.1933 236.226 25.9367 237.113 25.61C238 25.2833 238.91 24.9333 239.843 24.56C240.776 24.1867 241.64 23.8133 242.433 23.44C243.226 23.02 243.786 22.6467 244.113 22.32C243.88 22.5533 243.67 22.8567 243.483 23.23C243.296 23.6033 243.133 24.0233 242.993 24.49C242.853 24.91 242.736 25.3533 242.643 25.82C242.596 26.24 242.573 26.59 242.573 26.87V49.62C243.226 49.9933 243.95 50.46 244.743 51.02C245.583 51.5333 246.376 51.79 247.123 51.79C247.496 51.79 247.87 51.6733 248.243 51.44C248.663 51.16 248.873 50.7867 248.873 50.32C248.873 50.0867 248.803 49.8767 248.663 49.69C248.523 49.5033 248.336 49.41 248.103 49.41C247.776 49.41 247.613 49.5733 247.613 49.9L248.033 50.46C247.753 50.9733 247.286 51.23 246.633 51.23C246.073 51.23 245.56 51.0433 245.093 50.67C244.673 50.25 244.463 49.7367 244.463 49.13C244.463 48.6633 244.626 48.1967 244.953 47.73C245.28 47.2633 245.653 46.9367 246.073 46.75V40.87ZM250.133 28.55L246.773 26.59V36.95C247.286 37.7433 248.033 38.3967 249.013 38.91C248.126 39.33 247.38 39.9833 246.773 40.87V46.54L247.403 46.47C248.01 46.47 248.546 46.6567 249.013 47.03C249.526 47.4033 249.9 47.87 250.133 48.43V28.55ZM263.98 41.15C265.053 40.5433 265.893 39.7033 266.5 38.63V34.22C264.353 34.2667 262.65 33.8 261.39 32.82C260.13 31.84 259.523 29.9733 259.57 27.22C259.897 27.64 260.363 27.9667 260.97 28.2C261.577 28.3867 262.207 28.5267 262.86 28.62C263.513 28.6667 264.167 28.69 264.82 28.69C265.473 28.6433 266.033 28.5967 266.5 28.55V26.66C266.5 26.2867 266.57 25.6333 266.71 24.7C266.85 23.7667 267.247 22.81 267.9 21.83C268.553 20.8033 269.533 19.9167 270.84 19.17C272.193 18.3767 274.037 17.98 276.37 17.98C275.81 18.3533 275.32 18.7733 274.9 19.24C274.527 19.7067 274.2 20.3133 273.92 21.06C273.687 21.8067 273.5 22.74 273.36 23.86C273.22 24.9333 273.15 26.2867 273.15 27.92C274.97 27.8267 276.58 28.2 277.98 29.04C279.38 29.8333 280.267 31.28 280.64 33.38C279.707 33.0067 278.703 32.82 277.63 32.82C276.603 32.7733 275.623 32.82 274.69 32.96V50.6C275.297 50.9733 276.043 51.4167 276.93 51.93C277.817 52.3967 278.587 52.7 279.24 52.84C278.727 52.98 278.19 53.2367 277.63 53.61C277.117 54.03 276.603 54.4733 276.09 54.94C275.577 55.4067 275.063 55.8733 274.55 56.34C274.037 56.8067 273.547 57.18 273.08 57.46C272.66 57.2267 272.17 56.9233 271.61 56.55C271.05 56.1767 270.443 55.8033 269.79 55.43C269.183 55.1033 268.553 54.8233 267.9 54.59C267.293 54.3567 266.733 54.24 266.22 54.24C265.94 54.24 265.567 54.2867 265.1 54.38C265.987 53.4933 266.43 52.49 266.43 51.37V43.6C265.87 42.5267 265.053 41.71 263.98 41.15ZM273.08 49.69L273.92 50.18V33.1L273.15 33.24L273.08 49.69ZM289.996 57.39C289.296 56.97 288.643 56.55 288.036 56.13C287.43 55.7567 286.8 55.4067 286.146 55.08C285.54 54.8 284.91 54.5667 284.256 54.38C283.603 54.24 282.88 54.24 282.086 54.38C282.973 53.4933 283.416 52.49 283.416 51.37V42.13C282.903 41.2433 282.203 40.5433 281.316 40.03C282.203 39.5633 282.903 38.8633 283.416 37.93V34.08C283.416 32.9133 282.903 32.12 281.876 31.7L298.116 22.32C298.676 22.6467 299.26 23.02 299.866 23.44C300.52 23.86 301.173 24.2567 301.826 24.63C302.526 24.9567 303.226 25.2133 303.926 25.4C304.626 25.54 305.326 25.5167 306.026 25.33C305.373 25.9833 304.93 26.7533 304.696 27.64C304.51 28.48 304.416 29.39 304.416 30.37C304.416 31.3033 304.463 32.26 304.556 33.24C304.65 34.1733 304.696 35.0133 304.696 35.76L294.616 41.36V48.36L295.456 48.29C296.11 48.29 296.693 48.5233 297.206 48.99C297.72 49.41 298.023 49.9467 298.116 50.6V43.11L296.366 42.62L304.696 37.79C304.696 38.35 304.65 39.1433 304.556 40.17C304.463 41.15 304.416 42.1767 304.416 43.25C304.416 44.3233 304.533 45.3267 304.766 46.26C305.046 47.1467 305.536 47.7533 306.236 48.08C303.436 49.5733 300.683 51.09 297.976 52.63C295.316 54.17 292.656 55.7567 289.996 57.39ZM293.916 41.78L289.996 43.95V49.76C290.65 50.1333 291.28 50.5067 291.886 50.88C292.54 51.2533 293.216 51.5567 293.916 51.79V51.37C293.683 51.2767 293.473 51.16 293.286 51.02C293.146 50.8333 293.076 50.6233 293.076 50.39C293.076 49.7833 293.356 49.2467 293.916 48.78V41.78ZM294.616 51.86C295.036 51.8133 295.41 51.6733 295.736 51.44C296.11 51.16 296.296 50.7867 296.296 50.32C296.296 50.0867 296.203 49.9 296.016 49.76C295.876 49.5733 295.69 49.48 295.456 49.48C295.13 49.48 294.896 49.6433 294.756 49.97C294.663 50.25 294.78 50.4833 295.106 50.67L294.616 51.37V51.86ZM298.116 37.23V30.02L294.616 27.92V31.35C295.13 32.1433 295.876 32.7967 296.856 33.31C295.923 33.8233 295.176 34.5 294.616 35.34V39.19L298.116 37.23ZM293.916 27.5C293.823 27.4067 293.636 27.36 293.356 27.36C293.076 27.3133 292.89 27.29 292.796 27.29C292.33 27.29 291.84 27.3367 291.326 27.43C290.86 27.4767 290.416 27.6167 289.996 27.85V41.85L293.916 39.61V35.34C293.263 34.4533 292.493 33.7767 291.606 33.31C292.446 32.9367 293.216 32.2833 293.916 31.35V27.5ZM319.48 32.82V38.7C319.993 39.4933 320.74 40.1467 321.72 40.66C320.74 41.1733 319.993 41.8267 319.48 42.62V53.47L319.9 53.68L313.25 57.53C312.69 57.2033 312.176 56.9 311.71 56.62C311.29 56.34 310.87 56.1067 310.45 55.92C310.03 55.78 309.586 55.6867 309.12 55.64C308.653 55.5933 308.093 55.6167 307.44 55.71C308.326 54.8233 308.77 53.82 308.77 52.7V42.83C308.256 41.8967 307.556 41.22 306.67 40.8C307.556 40.3333 308.256 39.6333 308.77 38.7V28.27C308.77 27.7567 308.63 27.29 308.35 26.87C308.116 26.4033 307.743 26.0533 307.23 25.82C307.603 25.7733 308.21 25.61 309.05 25.33C309.89 25.0033 310.776 24.6533 311.71 24.28C312.643 23.86 313.506 23.4633 314.3 23.09C315.093 22.7167 315.63 22.46 315.91 22.32C315.77 22.4133 315.653 22.67 315.56 23.09C315.513 23.4633 315.466 23.9067 315.42 24.42C315.42 24.8867 315.42 25.3767 315.42 25.89C315.42 26.3567 315.42 26.7533 315.42 27.08C315.606 26.66 316.026 26.2167 316.68 25.75C317.333 25.2833 318.056 24.8167 318.85 24.35C319.69 23.8833 320.483 23.4633 321.23 23.09C322.023 22.7167 322.606 22.4133 322.98 22.18C323.68 22.6 324.333 23.02 324.94 23.44C325.546 23.86 326.153 24.2333 326.76 24.56C327.413 24.84 328.066 25.0733 328.72 25.26C329.42 25.4 330.166 25.4 330.96 25.26C330.073 26.1467 329.63 27.15 329.63 28.27V38.28C330.236 39.4467 331.076 40.31 332.15 40.87C331.636 41.1967 331.146 41.57 330.68 41.99C330.26 42.41 329.91 42.9 329.63 43.46V51.02C330.376 51.4867 331.123 51.93 331.87 52.35C332.616 52.77 333.363 53.2133 334.11 53.68L327.46 57.53C326.9 57.2033 326.386 56.9 325.92 56.62C325.5 56.34 325.08 56.1067 324.66 55.92C324.24 55.78 323.796 55.6867 323.33 55.64C322.863 55.5933 322.303 55.6167 321.65 55.71C322.536 54.8233 322.98 53.82 322.98 52.7V29.95C322.326 29.5767 321.58 29.1333 320.74 28.62C319.946 28.06 319.176 27.78 318.43 27.78C318.056 27.78 317.66 27.92 317.24 28.2C316.866 28.4333 316.68 28.7833 316.68 29.25C316.68 29.4833 316.75 29.6933 316.89 29.88C317.03 30.0667 317.216 30.16 317.45 30.16C317.776 30.16 317.94 29.9967 317.94 29.67L317.52 29.11C317.8 28.5967 318.266 28.34 318.92 28.34C319.48 28.34 319.97 28.55 320.39 28.97C320.856 29.3433 321.09 29.8333 321.09 30.44C321.09 30.9067 320.926 31.3733 320.6 31.84C320.273 32.3067 319.9 32.6333 319.48 32.82ZM315.42 31.14V51.02L318.78 52.98V42.62C318.266 41.8267 317.52 41.1733 316.54 40.66C317.426 40.24 318.173 39.5867 318.78 38.7V33.03L318.15 33.1C317.543 33.1 316.983 32.9133 316.47 32.54C316.003 32.1667 315.653 31.7 315.42 31.14ZM366.585 61.52C368.218 60.68 369.712 60.3533 371.065 60.54C372.465 60.7267 373.515 61.1933 374.215 61.94C374.962 62.7333 375.288 63.69 375.195 64.81C375.148 65.9767 374.495 67.0967 373.235 68.17C372.722 66.9567 371.905 66.0933 370.785 65.58C369.712 65.0667 368.545 64.81 367.285 64.81C366.025 64.81 364.812 65.02 363.645 65.44C362.478 65.9067 361.545 66.5133 360.845 67.26C360.798 67.3533 360.752 67.4233 360.705 67.47C360.658 67.5167 360.612 67.5867 360.565 67.68V67.61C360.472 67.7033 360.425 67.7733 360.425 67.82C360.425 67.7733 360.425 67.7267 360.425 67.68C360.472 67.68 360.495 67.6567 360.495 67.61C359.048 65.7433 357.462 63.9467 355.735 62.22C354.008 60.4933 352.328 59.0233 350.695 57.81C351.302 57.95 351.955 57.9267 352.655 57.74C353.355 57.6 353.985 57.32 354.545 56.9C355.152 56.5267 355.642 56.0367 356.015 55.43C356.435 54.87 356.645 54.2167 356.645 53.47V45.56C355.712 43.74 354.382 42.41 352.655 41.57C354.382 40.6833 355.712 39.3533 356.645 37.58V27.57C356.645 26.6833 356.598 25.96 356.505 25.4C356.412 24.84 356.272 24.3733 356.085 24C355.945 23.6267 355.712 23.3233 355.385 23.09C355.105 22.8567 354.755 22.6 354.335 22.32C356.482 21.5733 358.348 20.71 359.935 19.73C361.568 18.7033 363.085 17.7233 364.485 16.79V40.52H365.955V18.4V15.6C364.088 16.3933 362.245 17.1167 360.425 17.77C358.605 18.3767 356.855 18.8433 355.175 19.17C353.495 19.45 351.932 19.52 350.485 19.38C349.038 19.1933 347.778 18.68 346.705 17.84C345.585 16.9533 344.675 15.6933 343.975 14.06C343.228 12.38 342.762 10.1867 342.575 7.48C343.275 7.85333 344.092 7.99333 345.025 7.9C345.912 7.80666 346.798 7.55 347.685 7.13C348.525 6.66333 349.248 6.05666 349.855 5.31C350.508 4.51666 350.882 3.63 350.975 2.65C352.002 3.07 352.748 3.58333 353.215 4.19C353.728 4.75 354.032 5.35667 354.125 6.01C354.218 6.61666 354.172 7.2 353.985 7.76C353.798 8.32 353.542 8.78667 353.215 9.16C352.702 9.76666 351.978 10.2333 351.045 10.56C350.112 10.84 349.132 10.9567 348.105 10.91C349.505 11.33 350.952 11.5167 352.445 11.47C353.938 11.3767 355.432 11.12 356.925 10.7C358.465 10.28 359.982 9.76666 361.475 9.16C362.968 8.50666 364.438 7.83 365.885 7.13V4.75C365.885 3.81666 365.675 3.02333 365.255 2.37C365.815 2.74333 366.328 3.14 366.795 3.56C367.262 3.93333 367.495 4.65667 367.495 5.73V6.36C368.988 5.66 370.388 5.00666 371.695 4.4C373.048 3.79333 374.308 3.30333 375.475 2.93C377.295 2.41667 378.905 2.3 380.305 2.58C381.705 2.86 382.895 3.37333 383.875 4.12C384.902 4.82 385.742 5.66 386.395 6.64C387.095 7.62 387.632 8.55333 388.005 9.44V9.37C388.378 10.1167 388.705 11.0033 388.985 12.03C389.312 13.0567 389.498 14.1067 389.545 15.18C389.592 16.2533 389.475 17.28 389.195 18.26C388.962 19.24 388.495 20.0567 387.795 20.71C386.348 22.0167 384.948 22.6 383.595 22.46C382.288 22.2733 381.052 21.6433 379.885 20.57C379.278 19.9633 378.788 19.2867 378.415 18.54C378.088 17.7467 377.902 16.9533 377.855 16.16C377.855 15.32 378.018 14.55 378.345 13.85C378.672 13.1033 379.185 12.4733 379.885 11.96C380.912 11.26 381.845 11.05 382.685 11.33C383.572 11.61 384.202 12.0767 384.575 12.73C384.948 13.3833 385.042 14.0833 384.855 14.83C384.668 15.53 384.062 15.9733 383.035 16.16C383.175 15.5533 383.128 15.04 382.895 14.62C382.708 14.1533 382.428 13.8267 382.055 13.64C381.728 13.4067 381.355 13.3133 380.935 13.36C380.562 13.36 380.235 13.5233 379.955 13.85C379.442 14.4567 379.278 15.04 379.465 15.6C379.652 16.1133 380.025 16.58 380.585 17C381.145 17.3733 381.845 17.63 382.685 17.77C383.525 17.91 384.342 17.8867 385.135 17.7C385.975 17.5133 386.605 17.07 387.025 16.37C387.492 15.67 387.772 14.9233 387.865 14.13C388.005 13.3367 387.958 12.59 387.725 11.89C387.492 11.1433 387.095 10.6533 386.535 10.42C385.415 9.95333 384.132 9.79 382.685 9.93C381.285 10.0233 379.745 10.3267 378.065 10.84C376.432 11.3067 374.705 11.9133 372.885 12.66C371.112 13.4067 369.315 14.1533 367.495 14.9V19.52C368.195 20.5933 369.012 21.7367 369.945 22.95C370.878 24.1167 371.672 24.9567 372.325 25.47C371.905 25.5633 371.555 25.7267 371.275 25.96C370.995 26.1933 370.855 26.52 370.855 26.94V35.55C372.395 32.9833 374.098 31.3033 375.965 30.51C377.832 29.7167 379.465 29.5533 380.865 30.02C382.312 30.44 383.292 31.3733 383.805 32.82C384.365 34.22 384.062 35.8533 382.895 37.72C382.102 36.8333 381.192 36.2267 380.165 35.9C379.138 35.5733 378.065 35.48 376.945 35.62C375.872 35.76 374.798 36.0867 373.725 36.6C372.652 37.1133 371.695 37.72 370.855 38.42V53.05C370.855 53.3767 370.878 53.7967 370.925 54.31C370.972 54.87 371.182 55.36 371.555 55.78C372.162 55.8733 372.792 55.71 373.445 55.29L368.405 59.98C367.612 59.1867 367.052 58.4867 366.725 57.88C366.398 57.32 366.188 56.62 366.095 55.78C366.002 55.4067 365.955 55.01 365.955 54.59V52.7C365.955 52.56 365.955 52.3967 365.955 52.21C365.955 52.0233 365.932 51.8367 365.885 51.65C365.885 50.1567 365.885 48.6633 365.885 47.17C365.932 45.63 365.955 44.1133 365.955 42.62H364.485L364.555 55.85C364.555 56.1767 364.555 56.5967 364.555 57.11C364.602 57.6233 364.672 58.16 364.765 58.72C364.905 59.28 365.115 59.8167 365.395 60.33C365.675 60.8433 366.072 61.24 366.585 61.52ZM402.01 28.13C402.616 27.7567 403.246 27.4533 403.9 27.22C404.6 26.94 405.3 26.8 406 26.8C406.56 26.8 407.073 26.9633 407.54 27.29C408.053 27.57 408.31 28.0367 408.31 28.69C408.31 29.39 408.03 29.9267 407.47 30.3C406.91 30.6733 406.303 30.86 405.65 30.86C405.696 30.0667 405.463 29.39 404.95 28.83C404.436 28.2233 403.783 27.92 402.99 27.92C402.85 27.92 402.686 27.9433 402.5 27.99C402.313 28.0367 402.15 28.0833 402.01 28.13ZM387.73 30.93C387.356 30.4633 387.006 30.02 386.68 29.6C386.353 29.1333 386.003 28.69 385.63 28.27C386.236 28.69 386.96 28.9 387.8 28.9C389.013 28.9 390.203 28.5733 391.37 27.92C392.583 27.22 393.796 26.4733 395.01 25.68C396.223 24.84 397.436 24.0933 398.65 23.44C399.91 22.74 401.193 22.39 402.5 22.39C403.993 22.39 405.23 22.9033 406.21 23.93C407.19 24.9567 408.006 26.0767 408.66 27.29C407.866 26.6367 406.933 26.31 405.86 26.31C405.02 26.31 404.156 26.4967 403.27 26.87C402.43 27.1967 401.59 27.6167 400.75 28.13C399.91 28.5967 399.093 29.11 398.3 29.67C397.506 30.23 396.76 30.72 396.06 31.14V38C396.666 38.8867 397.413 39.54 398.3 39.96C397.32 40.4733 396.573 41.1267 396.06 41.92V50.81C396.9 51.37 397.833 51.65 398.86 51.65L399.21 51.58C398.323 52.6067 397.483 53.54 396.69 54.38C395.896 55.2667 395.126 56.2933 394.38 57.46C393.913 57.18 393.4 56.8533 392.84 56.48C392.326 56.1533 391.766 55.8033 391.16 55.43C390.553 55.1033 389.946 54.8233 389.34 54.59C388.78 54.3567 388.22 54.24 387.66 54.24C387.24 54.24 386.82 54.31 386.4 54.45C387.286 53.5633 387.73 52.56 387.73 51.44V41.92C387.216 41.0333 386.516 40.3333 385.63 39.82C386.516 39.4 387.216 38.7233 387.73 37.79V30.93ZM394.38 49.76L395.36 50.32V41.92C395.22 41.6867 395.056 41.5 394.87 41.36C394.73 41.1733 394.566 40.9867 394.38 40.8V49.76ZM395.36 31.56L394.38 32.05V39.12C394.566 38.9333 394.73 38.77 394.87 38.63C395.056 38.4433 395.22 38.2333 395.36 38V31.56ZM415.914 57.39C415.214 56.97 414.561 56.55 413.954 56.13C413.348 55.7567 412.718 55.4067 412.064 55.08C411.458 54.8 410.828 54.5667 410.174 54.38C409.521 54.24 408.798 54.24 408.004 54.38C408.891 53.4933 409.334 52.49 409.334 51.37V42.13C408.821 41.2433 408.121 40.5433 407.234 40.03C408.121 39.5633 408.821 38.8633 409.334 37.93V34.08C409.334 32.9133 408.821 32.12 407.794 31.7L424.034 22.32C424.594 22.6467 425.178 23.02 425.784 23.44C426.438 23.86 427.091 24.2567 427.744 24.63C428.444 24.9567 429.144 25.2133 429.844 25.4C430.544 25.54 431.244 25.5167 431.944 25.33C431.291 25.9833 430.848 26.7533 430.614 27.64C430.428 28.48 430.334 29.39 430.334 30.37C430.334 31.3033 430.381 32.26 430.474 33.24C430.568 34.1733 430.614 35.0133 430.614 35.76L420.534 41.36V48.36L421.374 48.29C422.028 48.29 422.611 48.5233 423.124 48.99C423.638 49.41 423.941 49.9467 424.034 50.6V43.11L422.284 42.62L430.614 37.79C430.614 38.35 430.568 39.1433 430.474 40.17C430.381 41.15 430.334 42.1767 430.334 43.25C430.334 44.3233 430.451 45.3267 430.684 46.26C430.964 47.1467 431.454 47.7533 432.154 48.08C429.354 49.5733 426.601 51.09 423.894 52.63C421.234 54.17 418.574 55.7567 415.914 57.39ZM419.834 41.78L415.914 43.95V49.76C416.568 50.1333 417.198 50.5067 417.804 50.88C418.458 51.2533 419.134 51.5567 419.834 51.79V51.37C419.601 51.2767 419.391 51.16 419.204 51.02C419.064 50.8333 418.994 50.6233 418.994 50.39C418.994 49.7833 419.274 49.2467 419.834 48.78V41.78ZM420.534 51.86C420.954 51.8133 421.328 51.6733 421.654 51.44C422.028 51.16 422.214 50.7867 422.214 50.32C422.214 50.0867 422.121 49.9 421.934 49.76C421.794 49.5733 421.608 49.48 421.374 49.48C421.048 49.48 420.814 49.6433 420.674 49.97C420.581 50.25 420.698 50.4833 421.024 50.67L420.534 51.37V51.86ZM424.034 37.23V30.02L420.534 27.92V31.35C421.048 32.1433 421.794 32.7967 422.774 33.31C421.841 33.8233 421.094 34.5 420.534 35.34V39.19L424.034 37.23ZM419.834 27.5C419.741 27.4067 419.554 27.36 419.274 27.36C418.994 27.3133 418.808 27.29 418.714 27.29C418.248 27.29 417.758 27.3367 417.244 27.43C416.778 27.4767 416.334 27.6167 415.914 27.85V41.85L419.834 39.61V35.34C419.181 34.4533 418.411 33.7767 417.524 33.31C418.364 32.9367 419.134 32.2833 419.834 31.35V27.5ZM441.481 57.39C440.781 56.97 440.127 56.55 439.521 56.13C438.914 55.7567 438.284 55.4067 437.631 55.08C437.024 54.8 436.394 54.5667 435.741 54.38C435.087 54.24 434.364 54.24 433.571 54.38C434.457 53.4933 434.901 52.49 434.901 51.37V42.13C434.387 41.2433 433.687 40.5433 432.801 40.03C433.687 39.5633 434.387 38.8633 434.901 37.93V34.08C434.901 32.9133 434.387 32.12 433.361 31.7L449.601 22.32C450.161 22.6467 450.744 23.02 451.351 23.44C452.004 23.86 452.657 24.2567 453.311 24.63C454.011 24.9567 454.711 25.2133 455.411 25.4C456.111 25.54 456.811 25.5167 457.511 25.33C456.857 25.9833 456.414 26.7533 456.181 27.64C455.994 28.48 455.901 29.39 455.901 30.37C455.901 31.3033 455.947 32.26 456.041 33.24C456.134 34.1733 456.181 35.0133 456.181 35.76L446.101 41.36V48.36L446.941 48.29C447.594 48.29 448.177 48.5233 448.691 48.99C449.204 49.41 449.507 49.9467 449.601 50.6V43.11L447.851 42.62L456.181 37.79C456.181 38.35 456.134 39.1433 456.041 40.17C455.947 41.15 455.901 42.1767 455.901 43.25C455.901 44.3233 456.017 45.3267 456.251 46.26C456.531 47.1467 457.021 47.7533 457.721 48.08C454.921 49.5733 452.167 51.09 449.461 52.63C446.801 54.17 444.141 55.7567 441.481 57.39ZM445.401 41.78L441.481 43.95V49.76C442.134 50.1333 442.764 50.5067 443.371 50.88C444.024 51.2533 444.701 51.5567 445.401 51.79V51.37C445.167 51.2767 444.957 51.16 444.771 51.02C444.631 50.8333 444.561 50.6233 444.561 50.39C444.561 49.7833 444.841 49.2467 445.401 48.78V41.78ZM446.101 51.86C446.521 51.8133 446.894 51.6733 447.221 51.44C447.594 51.16 447.781 50.7867 447.781 50.32C447.781 50.0867 447.687 49.9 447.501 49.76C447.361 49.5733 447.174 49.48 446.941 49.48C446.614 49.48 446.381 49.6433 446.241 49.97C446.147 50.25 446.264 50.4833 446.591 50.67L446.101 51.37V51.86ZM449.601 37.23V30.02L446.101 27.92V31.35C446.614 32.1433 447.361 32.7967 448.341 33.31C447.407 33.8233 446.661 34.5 446.101 35.34V39.19L449.601 37.23ZM445.401 27.5C445.307 27.4067 445.121 27.36 444.841 27.36C444.561 27.3133 444.374 27.29 444.281 27.29C443.814 27.29 443.324 27.3367 442.811 27.43C442.344 27.4767 441.901 27.6167 441.481 27.85V41.85L445.401 39.61V35.34C444.747 34.4533 443.977 33.7767 443.091 33.31C443.931 32.9367 444.701 32.2833 445.401 31.35V27.5Z" fill="#009FE3"/>
</svg>
